<svg width="19" height="19" viewBox="0 0 19 19" fill="none" xmlns="http://www.w3.org/2000/svg">
<path fill-rule="evenodd" clip-rule="evenodd" d="M13.6966 0.833496C16.7191 0.833496 18.7499 2.95516 18.7499 6.11266V13.471C18.7499 16.6285 16.7191 18.7502 13.6966 18.7502H5.88659C2.86409 18.7502 0.833252 16.6285 0.833252 13.471V6.11266C0.833252 2.95516 2.86409 0.833496 5.88659 0.833496H13.6966ZM13.6966 2.0835H5.88659C3.57659 2.0835 2.08325 3.66433 2.08325 6.11266V13.471C2.08325 15.9193 3.57659 17.5002 5.88659 17.5002H13.6966C16.0074 17.5002 17.4999 15.9193 17.4999 13.471V6.11266C17.4999 3.66433 16.0074 2.0835 13.6966 2.0835ZM5.93417 7.66891C6.27917 7.66891 6.55917 7.94891 6.55917 8.29391V14.0106C6.55917 14.3556 6.27917 14.6356 5.93417 14.6356C5.58917 14.6356 5.30917 14.3556 5.30917 14.0106V8.29391C5.30917 7.94891 5.58917 7.66891 5.93417 7.66891ZM9.82334 4.93225C10.1683 4.93225 10.4483 5.21225 10.4483 5.55725V14.0097C10.4483 14.3547 10.1683 14.6347 9.82334 14.6347C9.47834 14.6347 9.19834 14.3547 9.19834 14.0097V5.55725C9.19834 5.21225 9.47834 4.93225 9.82334 4.93225ZM13.6486 10.6897C13.9936 10.6897 14.2736 10.9697 14.2736 11.3147V14.0097C14.2736 14.3547 13.9936 14.6347 13.6486 14.6347C13.3036 14.6347 13.0236 14.3547 13.0236 14.0097V11.3147C13.0236 10.9697 13.3036 10.6897 13.6486 10.6897Z" fill="#374151"/>
</svg>
