<svg width="25" height="24" viewBox="0 0 25 24" fill="none" xmlns="http://www.w3.org/2000/svg">
<path d="M17.8771 12.5555C17.8677 10.957 18.5919 9.75234 20.0544 8.86406C19.2364 7.69219 17.9989 7.04766 16.3677 6.92344C14.8231 6.80156 13.1333 7.82344 12.5146 7.82344C11.8606 7.82344 10.3653 6.96563 9.18877 6.96563C6.76064 7.00313 4.18018 8.90156 4.18018 12.7641C4.18018 13.9055 4.38877 15.0844 4.80596 16.2984C5.36377 17.8969 7.37471 21.8133 9.47236 21.75C10.5692 21.7242 11.345 20.9719 12.7724 20.9719C14.1575 20.9719 14.8747 21.75 16.0981 21.75C18.2146 21.7195 20.0333 18.1594 20.563 16.5563C17.7247 15.218 17.8771 12.6375 17.8771 12.5555ZM15.4138 5.40703C16.6021 3.99609 16.4942 2.71172 16.4591 2.25C15.4091 2.31094 14.195 2.96484 13.5036 3.76875C12.7419 4.63125 12.2942 5.69766 12.3903 6.9C13.5247 6.98672 14.5606 6.40313 15.4138 5.40703Z" fill="#C0D8F3"/>
</svg>
