<svg width="25" height="24" viewBox="0 0 25 24" fill="none" xmlns="http://www.w3.org/2000/svg">
<path d="M11.3872 10.957C11.1153 11.0719 10.8974 11.243 10.7356 11.4727C10.5739 11.7023 10.4919 11.9789 10.4919 12.3047C10.4919 12.7219 10.6677 13.043 11.0169 13.2703C11.3474 13.4836 11.6942 13.5375 12.0575 13.4297C12.477 13.3078 12.7606 13.0102 12.9106 12.5367C12.981 12.3188 13.0161 12.075 13.0161 11.8031V10.6266C12.7208 10.6359 12.4442 10.6641 12.1841 10.7133C11.9239 10.7625 11.6591 10.8445 11.3872 10.957ZM12.02 1.5C6.22158 1.5 1.52002 6.20156 1.52002 12C1.52002 17.7984 6.22158 22.5 12.02 22.5C17.8185 22.5 22.52 17.7984 22.52 12C22.52 6.20156 17.8185 1.5 12.02 1.5ZM12.8591 7.65703C12.6903 7.40156 12.388 7.27266 11.9521 7.27266C11.9216 7.27266 11.8817 7.275 11.8278 7.27969C11.7763 7.28438 11.6731 7.31484 11.5255 7.36641C11.3772 7.41946 11.2362 7.49113 11.106 7.57969C10.9771 7.66875 10.8364 7.81406 10.6841 8.01094C10.5341 8.21016 10.4146 8.44219 10.3255 8.70938L8.12236 8.5125C8.12236 8.22188 8.17861 7.93359 8.28643 7.64766C8.39658 7.36172 8.56299 7.0875 8.78799 6.82734C9.01299 6.56484 9.28252 6.33516 9.59658 6.13828C9.91064 5.93906 10.2903 5.78203 10.731 5.6625C11.1739 5.54297 11.6474 5.48438 12.1583 5.48438C12.6575 5.48438 13.1099 5.54531 13.513 5.66484C13.9161 5.78672 14.2419 5.93437 14.4833 6.1125C14.7159 6.2803 14.9207 6.48355 15.0903 6.71484C15.2521 6.93984 15.3646 7.14844 15.4278 7.34063C15.4911 7.53281 15.5216 7.70859 15.5216 7.875V12.1523C15.5216 12.3023 15.5544 12.457 15.6224 12.6164C15.6903 12.7758 15.77 12.9164 15.8614 13.0383C15.9528 13.1602 16.0466 13.2703 16.1427 13.3734C16.2388 13.4742 16.3208 13.5539 16.3911 13.6055L16.4872 13.6852L14.788 15.3117C14.5888 15.1312 14.3919 14.9508 14.1974 14.7633C14.0028 14.5758 13.8575 14.4352 13.7638 14.3391L13.6208 14.1937C13.5646 14.1398 13.5036 14.0602 13.4333 13.9547C13.2435 14.2406 12.9997 14.4891 12.7044 14.7C12.4067 14.9109 12.088 15.0656 11.7505 15.1617C11.4106 15.2578 11.0614 15.3141 10.7028 15.3281C10.3442 15.3422 9.99971 15.293 9.67393 15.1758C9.34814 15.0586 9.05283 14.9016 8.79268 14.7C8.53252 14.4984 8.32627 14.2266 8.17158 13.8797C8.01689 13.5328 7.93955 13.1414 7.93955 12.6984C7.93955 12.2906 8.00986 11.918 8.14814 11.5805C8.28877 11.2406 8.46689 10.9594 8.68721 10.7344C8.90752 10.5094 9.17236 10.3078 9.48408 10.132C9.7958 9.95625 10.1028 9.81797 10.4028 9.71719C10.7028 9.61875 11.0263 9.53438 11.3755 9.46641C11.7247 9.39844 12.0224 9.35391 12.2708 9.33281C12.5192 9.31172 12.7677 9.29531 13.0161 9.28594V8.3625C13.0161 8.04609 12.9622 7.81172 12.8591 7.65703ZM17.0896 16.5539C17.0239 16.6312 16.9138 16.7367 16.7591 16.8703C16.6044 17.0039 16.3653 17.168 16.0442 17.3648C15.7231 17.5617 15.3692 17.7398 14.9896 17.9016C14.6075 18.0633 14.1388 18.2039 13.581 18.3234C13.0255 18.443 12.4513 18.5016 11.863 18.5016C11.2677 18.5016 10.6747 18.4266 10.0794 18.2766C9.48408 18.1266 8.96377 17.9414 8.51377 17.7211C8.06611 17.5008 7.63252 17.2477 7.22236 16.9664C6.80986 16.6828 6.47939 16.4297 6.22861 16.2047C5.98018 15.9797 5.76924 15.7664 5.60049 15.5695C5.56064 15.525 5.53486 15.4852 5.52549 15.45C5.51611 15.4148 5.51846 15.3844 5.53252 15.3633C5.54658 15.3422 5.56768 15.3258 5.59346 15.3117C5.62146 15.2993 5.65224 15.2945 5.6827 15.2978C5.71315 15.3011 5.7422 15.3123 5.76689 15.3305C6.72549 15.8977 7.47549 16.2984 8.01455 16.5352C9.95752 17.3883 11.9521 17.6063 13.9981 17.1891C14.9474 16.9945 15.9224 16.6687 16.9255 16.2094C17.0005 16.1812 17.0661 16.1742 17.12 16.1883C17.1739 16.2023 17.2021 16.2445 17.2021 16.3148C17.2021 16.3805 17.1646 16.4625 17.0896 16.5539ZM18.4935 15.8742C18.4513 16.1344 18.3786 16.3805 18.2802 16.6195C18.1114 17.0203 17.8981 17.3227 17.645 17.5195C17.5606 17.5875 17.495 17.6086 17.4505 17.5852C17.406 17.5617 17.406 17.5031 17.4505 17.4117C17.556 17.1938 17.6661 16.9008 17.7833 16.5281C17.9005 16.1578 17.9169 15.9188 17.8325 15.8133C17.8067 15.7781 17.7692 15.7523 17.7153 15.7289C17.6638 15.7078 17.5958 15.6938 17.5138 15.6844C17.4317 15.675 17.3567 15.6703 17.2935 15.6656C17.2278 15.6609 17.1411 15.6609 17.031 15.6656C16.9208 15.6703 16.8435 15.675 16.7942 15.6797C16.6608 15.6927 16.5272 15.7044 16.3935 15.7148C16.363 15.7195 16.3302 15.7242 16.2974 15.7266C16.2622 15.7289 16.2341 15.7312 16.2153 15.7336L16.1521 15.7406C16.1286 15.743 16.1122 15.7453 16.1005 15.7453H16.0255L16.0021 15.7406L15.988 15.7289L15.9763 15.7078C15.9458 15.6305 16.063 15.5344 16.3278 15.4172C16.5927 15.3 16.8505 15.2273 17.0989 15.1992C17.3286 15.1641 17.5981 15.1641 17.9075 15.1922C18.2169 15.2203 18.4067 15.2789 18.4771 15.3656C18.531 15.4477 18.5356 15.6164 18.4935 15.8742Z" fill="#C0D8F3"/>
</svg>
