<svg width="25" height="24" viewBox="0 0 25 24" fill="none" xmlns="http://www.w3.org/2000/svg">
<path d="M3.9246 5.57512C2.5846 5.42512 2.6746 5.00012 2.6746 4.78512C2.6746 4.57012 3.1096 3.74512 7.1296 3.74512C11.9446 3.74512 22.1746 7.37512 22.1746 13.7451C22.1746 20.1151 13.2346 18.6551 11.4646 18.2451C9.6946 17.8351 5.3496 16.0001 5.3496 14.0901C5.3496 12.7001 8.9146 11.9151 12.6446 11.9151C16.3746 11.9151 17.6446 12.9601 17.6446 13.9151C17.6446 14.3351 17.4446 14.8351 16.4946 15.1051" stroke="#C0D8F3" stroke-linecap="round" stroke-linejoin="round"/>
<path d="M11.17 7.6499C10.8912 11.8469 10.8912 16.0579 11.17 20.2549" stroke="#C0D8F3" stroke-linecap="round" stroke-linejoin="round"/>
</svg>
