<svg width="17" height="14" viewBox="0 0 17 14" fill="none" xmlns="http://www.w3.org/2000/svg">
<path d="M0 7.22559C0 6.84589 0.282154 6.5321 0.648229 6.48243L0.75 6.47559L15.75 6.47559C16.1642 6.47559 16.5 6.81137 16.5 7.22559C16.5 7.60528 16.2178 7.91908 15.8518 7.96874L15.75 7.97559L0.75 7.97559C0.335786 7.97559 0 7.6398 0 7.22559Z" fill="#374151"/>
<path d="M9.17101 1.73247C8.87749 1.44021 8.87646 0.965336 9.16872 0.671813C9.43442 0.404974 9.85103 0.379871 10.1451 0.597093L10.2294 0.669529L16.2794 6.69353C16.547 6.96002 16.5714 7.37813 16.3524 7.6722L16.2794 7.75643L10.2294 13.7814C9.93593 14.0737 9.46105 14.0727 9.16877 13.7792C8.90305 13.5124 8.87971 13.0957 9.09817 12.8025L9.17096 12.7186L14.687 7.2247L9.17101 1.73247Z" fill="#374151"/>
</svg>
