<svg width="23" height="19" viewBox="0 0 23 19" fill="none" xmlns="http://www.w3.org/2000/svg">
<path d="M22.667 9.78662C22.667 10.2929 22.2908 10.7113 21.8027 10.7775L21.667 10.7866L1.66699 10.7866C1.11471 10.7866 0.666992 10.3389 0.666992 9.78662C0.666992 9.28036 1.0432 8.86197 1.5313 8.79575L1.66699 8.78662L21.667 8.78662C22.2193 8.78662 22.667 9.23434 22.667 9.78662Z" fill="#374151"/>
<path d="M10.439 17.1106C10.8303 17.5003 10.8317 18.1335 10.442 18.5248C10.0878 18.8806 9.53229 18.9141 9.14018 18.6244L9.02782 18.5279L0.961149 10.4959C0.6043 10.1406 0.571837 9.58307 0.863776 9.19097L0.96109 9.07867L9.02776 1.04534C9.41909 0.655622 10.0523 0.656933 10.442 1.04826C10.7963 1.40402 10.8274 1.95964 10.5361 2.35052L10.439 2.46248L3.08433 9.78764L10.439 17.1106Z" fill="#374151"/>
</svg>
