<svg width="14" height="14" viewBox="0 0 14 14" fill="none" xmlns="http://www.w3.org/2000/svg">
<path d="M3.45831 0.958496V2.2085M6.99998 0.958496V2.2085M10.5416 0.958496V2.2085M2.62498 13.0418H11.375C12.2955 13.0418 13.0416 12.2956 13.0416 11.3752V5.9585C13.0416 5.03802 12.2955 4.29183 11.375 4.29183H2.62498C1.70451 4.29183 0.958313 5.03802 0.958313 5.9585V11.3752C0.958313 12.2956 1.70451 13.0418 2.62498 13.0418ZM8.87498 8.66683C8.87498 9.70236 8.03551 10.5418 6.99998 10.5418C5.96445 10.5418 5.12498 9.70236 5.12498 8.66683C5.12498 7.6313 5.96445 6.79183 6.99998 6.79183C8.03551 6.79183 8.87498 7.6313 8.87498 8.66683Z" stroke="#64748B" stroke-width="1.5" stroke-linecap="round" stroke-linejoin="round"/>
</svg>
