<svg width="20" height="20" viewBox="0 0 20 20" fill="none" xmlns="http://www.w3.org/2000/svg">
<path d="M19 7.20022L5 7.20022V4.31322C5 3.31622 5.678 2.39022 6.661 2.22822C6.94813 2.17936 7.24245 2.19371 7.52347 2.27026C7.80448 2.34682 8.06542 2.48373 8.28809 2.67147C8.51077 2.8592 8.68982 3.09324 8.81277 3.35727C8.93573 3.6213 8.99962 3.90897 9 4.20022H11C10.9995 3.64152 10.8821 3.08911 10.6553 2.57852C10.4284 2.06794 10.0972 1.61049 9.68299 1.2356C9.26873 0.86072 8.78059 0.576704 8.24996 0.401828C7.71933 0.226952 7.15797 0.16509 6.602 0.22022C4.523 0.42222 3 2.28922 3 4.37822V7.20022H1C0.734784 7.20022 0.48043 7.30558 0.292893 7.49311C0.105357 7.68065 0 7.935 0 8.20022L0 10.2002C0 12.8062 1.674 15.0232 4 15.8502L4 19.2002H6L6 16.2002H14V19.2002H16V15.8502C18.326 15.0232 20 12.8062 20 10.2002V8.20022C20 7.935 19.8946 7.68065 19.7071 7.49311C19.5196 7.30558 19.2652 7.20022 19 7.20022V7.20022Z" fill="#2E7DD7"/>
</svg>
