<svg width="56" height="56" viewBox="0 0 56 56" fill="none" xmlns="http://www.w3.org/2000/svg">
<rect x="4" y="4" width="48" height="48" rx="24" fill="#C0D8F3"/>
<path d="M29.5441 26.4565C28.7249 25.6377 27.6142 25.1777 26.4561 25.1777C25.2979 25.1777 24.1872 25.6377 23.3681 26.4565L20.2791 29.5444C19.4599 30.3636 18.9998 31.4745 18.9998 32.6329C18.9998 33.7914 19.4599 34.9023 20.2791 35.7215C21.0982 36.5406 22.2091 37.0007 23.3676 37.0007C24.526 37.0007 25.6369 36.5406 26.4561 35.7215L28.0001 34.1775" stroke="#2E7DD7" stroke-linecap="round" stroke-linejoin="round"/>
<path d="M26.4561 29.5443C27.2752 30.3631 28.3859 30.823 29.5441 30.823C30.7022 30.823 31.8129 30.3631 32.6321 29.5443L35.7211 26.4563C36.5402 25.6372 37.0004 24.5262 37.0004 23.3678C37.0004 22.2094 36.5402 21.0984 35.7211 20.2793C34.9019 19.4602 33.791 19 32.6326 19C31.4741 19 30.3632 19.4602 29.5441 20.2793L28.0001 21.8233" stroke="#2E7DD7" stroke-linecap="round" stroke-linejoin="round"/>
<rect x="4" y="4" width="48" height="48" rx="24" stroke="#EAF2FB" stroke-width="8"/>
</svg>
