<svg width="30" height="29" viewBox="0 0 30 29" fill="none" xmlns="http://www.w3.org/2000/svg">
<path d="M28.5 11.0003H7.5V6.66978C7.5 5.17428 8.517 3.78528 9.9915 3.54228C10.4222 3.469 10.8637 3.49052 11.2852 3.60535C11.7067 3.72017 12.0981 3.92555 12.4321 4.20715C12.7662 4.48876 13.0347 4.83981 13.2192 5.23586C13.4036 5.6319 13.4994 6.0634 13.5 6.50028L16.5 6.50028C16.4993 5.66223 16.3231 4.83361 15.9829 4.06773C15.6427 3.30186 15.1459 2.61568 14.5245 2.05336C13.9031 1.49103 13.1709 1.06501 12.3749 0.802694C11.579 0.54038 10.737 0.447586 9.903 0.530282C6.7845 0.833282 4.5 3.63378 4.5 6.76728V11.0003H1.5C1.10218 11.0003 0.720644 11.1583 0.43934 11.4396C0.158035 11.7209 0 12.1025 0 12.5003L0 15.5003C0 19.4093 2.511 22.7348 6 23.9753V29.0003H9V24.5003H21V29.0003H24V23.9753C27.489 22.7348 30 19.4093 30 15.5003V12.5003C30 12.1025 29.842 11.7209 29.5607 11.4396C29.2794 11.1583 28.8978 11.0003 28.5 11.0003Z" fill="#374151"/>
</svg>
