<svg width="21" height="28" viewBox="0 0 21 28" fill="none" xmlns="http://www.w3.org/2000/svg">
<path d="M19.9062 3.03125C20.3703 3.03125 20.75 2.65156 20.75 2.1875V1.34375C20.75 0.879687 20.3703 0.5 19.9062 0.5L1.34375 0.5C0.879687 0.5 0.5 0.879687 0.5 1.34375V2.1875C0.5 2.65156 0.879687 3.03125 1.34375 3.03125H2.1875V11.2947C1.12227 11.8273 0.5 12.4654 0.5 13.1562C0.5 16.7 2.32461 19.8113 5.07734 21.6201L3.94883 25.3221C3.6166 26.4031 4.42871 27.5 5.5625 27.5H15.6875C16.8213 27.5 17.6334 26.4031 17.3012 25.3221L16.1727 21.6201C18.9254 19.8113 20.75 16.7 20.75 13.1562C20.75 12.4654 20.1277 11.8273 19.0625 11.2947V3.03125H19.9062ZM4.71875 4.29688C4.71875 4.06484 4.90859 3.875 5.14062 3.875H7.67188C7.90391 3.875 8.09375 4.06484 8.09375 4.29688V5.14062C8.09375 5.37266 7.90391 5.5625 7.67188 5.5625H5.14062C4.90859 5.5625 4.71875 5.37266 4.71875 5.14062V4.29688ZM10.625 14.8438C6.55918 14.8438 3.26328 14.0896 3.26328 13.1562C3.26328 12.2229 6.55918 11.4688 10.625 11.4688C14.6908 11.4688 17.9867 12.2229 17.9867 13.1562C17.9867 14.0896 14.6908 14.8438 10.625 14.8438Z" fill="#374151"/>
</svg>
