<svg width="17" height="15" viewBox="0 0 17 15" fill="none" xmlns="http://www.w3.org/2000/svg">
<path d="M0 7.27051C0 6.89081 0.282154 6.57702 0.648229 6.52735L0.75 6.52051L15.75 6.52051C16.1642 6.52051 16.5 6.85629 16.5 7.27051C16.5 7.6502 16.2178 7.964 15.8518 8.01366L15.75 8.02051L0.75 8.02051C0.335786 8.02051 0 7.68472 0 7.27051Z" fill="#2E7DD7"/>
<path d="M9.17101 1.77739C8.87749 1.48513 8.87646 1.01026 9.16872 0.716735C9.43442 0.449896 9.85103 0.424793 10.1451 0.642015L10.2294 0.714451L16.2794 6.73845C16.547 7.00494 16.5714 7.42305 16.3524 7.71712L16.2794 7.80135L10.2294 13.8263C9.93593 14.1186 9.46105 14.1177 9.16877 13.8242C8.90305 13.5573 8.87971 13.1406 9.09817 12.8475L9.17096 12.7635L14.687 7.26962L9.17101 1.77739Z" fill="#2E7DD7"/>
</svg>
