<svg width="17" height="17" viewBox="0 0 17 17" fill="none" xmlns="http://www.w3.org/2000/svg">
<path d="M6.12 6.72242e-08C5.84204 8.6409e-06 5.56956 0.0772488 5.33294 0.223102C5.09633 0.368955 4.90489 0.577684 4.78 0.826L4.19 2H2.5C1.83696 2 1.20107 2.26339 0.732233 2.73223C0.263392 3.20107 0 3.83696 0 4.5V12.5C0 13.163 0.263392 13.7989 0.732233 14.2678C1.20107 14.7366 1.83696 15 2.5 15H7.596C7.43247 14.6804 7.30083 14.3454 7.203 14H2.501C2.10318 14 1.72164 13.842 1.44034 13.5607C1.15904 13.2794 1.001 12.8978 1.001 12.5V4.5C1.001 4.10218 1.15904 3.72064 1.44034 3.43934C1.72164 3.15804 2.10318 3 2.501 3H4.499C4.59161 2.99981 4.68234 2.97391 4.76109 2.92517C4.83984 2.87644 4.90351 2.8068 4.945 2.724L5.673 1.275C5.7147 1.19224 5.77859 1.1227 5.85752 1.07414C5.93645 1.02558 6.02733 0.99991 6.12 1H9.884C9.97695 0.999817 10.0681 1.02555 10.1472 1.0743C10.2264 1.12305 10.2904 1.1929 10.332 1.276L11.055 2.723C11.0966 2.80595 11.1604 2.87569 11.2393 2.92444C11.3183 2.97318 11.4092 2.999 11.502 2.999H13.501C13.8988 2.999 14.2804 3.15704 14.5617 3.43834C14.843 3.71964 15.001 4.10118 15.001 4.499V7.602C15.3574 7.78454 15.6927 8.00552 16.001 8.261V4.499C16.001 3.83596 15.7376 3.20007 15.2688 2.73123C14.7999 2.26239 14.164 1.999 13.501 1.999H11.811L11.226 0.829C11.1014 0.57982 10.9098 0.370276 10.6728 0.223853C10.4357 0.0774303 10.1626 -8.33297e-05 9.884 6.72242e-08H6.12ZM7.996 4C8.88894 4.00004 9.75622 4.29871 10.4598 4.84849C11.1635 5.39827 11.663 6.16757 11.879 7.034C11.5465 7.0712 11.2181 7.13881 10.898 7.236C10.7636 6.72547 10.497 6.25942 10.1249 5.88489C9.75287 5.51035 9.28861 5.24059 8.77899 5.10282C8.26936 4.96506 7.73242 4.96416 7.22234 5.10023C6.71226 5.2363 6.2471 5.50452 5.87381 5.87781C5.50052 6.2511 5.2323 6.71626 5.09623 7.22634C4.96016 7.73642 4.96106 8.27336 5.09882 8.78299C5.23659 9.29261 5.50635 9.75687 5.88089 10.1289C6.25542 10.501 6.72147 10.7676 7.232 10.902C7.13488 11.2218 7.06727 11.5499 7.03 11.882C6.08512 11.6432 5.25984 11.0679 4.70901 10.2639C4.15819 9.45986 3.91968 8.48249 4.03823 7.51514C4.15679 6.54779 4.62426 5.65695 5.35294 5.00976C6.08162 4.36258 7.02142 4.00353 7.996 4ZM16.996 12.5C16.996 13.6935 16.5219 14.8381 15.678 15.682C14.8341 16.5259 13.6895 17 12.496 17C11.3025 17 10.1579 16.5259 9.31402 15.682C8.47011 14.8381 7.996 13.6935 7.996 12.5C7.996 11.3065 8.47011 10.1619 9.31402 9.31802C10.1579 8.47411 11.3025 8 12.496 8C13.6895 8 14.8341 8.47411 15.678 9.31802C16.5219 10.1619 16.996 11.3065 16.996 12.5ZM12.996 10.5C12.996 10.3674 12.9433 10.2402 12.8496 10.1464C12.7558 10.0527 12.6286 10 12.496 10C12.3634 10 12.2362 10.0527 12.1424 10.1464C12.0487 10.2402 11.996 10.3674 11.996 10.5V12H10.496C10.3634 12 10.2362 12.0527 10.1424 12.1464C10.0487 12.2402 9.996 12.3674 9.996 12.5C9.996 12.6326 10.0487 12.7598 10.1424 12.8536C10.2362 12.9473 10.3634 13 10.496 13H11.996V14.5C11.996 14.6326 12.0487 14.7598 12.1424 14.8536C12.2362 14.9473 12.3634 15 12.496 15C12.6286 15 12.7558 14.9473 12.8496 14.8536C12.9433 14.7598 12.996 14.6326 12.996 14.5V13H14.496C14.6286 13 14.7558 12.9473 14.8496 12.8536C14.9433 12.7598 14.996 12.6326 14.996 12.5C14.996 12.3674 14.9433 12.2402 14.8496 12.1464C14.7558 12.0527 14.6286 12 14.496 12H12.996V10.5Z" fill="white"/>
</svg>
