<svg width="25" height="24" viewBox="0 0 25 24" fill="none" xmlns="http://www.w3.org/2000/svg">
<g clip-path="url(#clip0_31_424)">
<path d="M12.6963 18.2655C11.3448 16.5705 10.5521 15.0855 10.2858 13.812C10.0241 12.7845 10.1253 11.964 10.5791 11.3475C11.0553 10.6365 11.7626 10.293 12.6963 10.293C13.6301 10.293 14.3411 10.6365 14.8173 11.3558C15.2628 11.9655 15.3761 12.7853 15.1023 13.8203C14.8091 15.117 14.0163 16.6013 12.6918 18.2738L12.6963 18.2655ZM22.2941 19.4063C22.1103 20.652 21.2628 21.6833 20.0951 22.1873C17.8451 23.1675 15.6146 21.6053 13.7081 19.4843C16.8603 15.5348 17.4461 12.4605 16.0908 10.4723C15.2981 9.33152 14.1573 8.77727 12.6963 8.77727C9.75485 8.77727 8.13785 11.2658 8.7746 14.1563C9.1421 15.723 10.1261 17.4998 11.6883 19.488C10.7081 20.5703 9.7781 21.3435 8.9576 21.8198C8.32085 22.1633 7.71185 22.3748 7.1291 22.425C4.4531 22.8233 2.3516 20.2298 3.30485 17.55C3.4376 17.202 3.7031 16.5698 4.15235 15.5888L4.1756 15.534C5.64035 12.3585 7.41785 8.74877 9.4571 4.74527L9.51185 4.61252L10.0901 3.49952C10.5431 2.67527 10.7268 2.30777 11.4416 1.85477C11.7896 1.64777 12.2111 1.54202 12.6873 1.54202C13.6406 1.54202 14.3823 2.09702 14.7033 2.54627C14.8593 2.78477 15.0468 3.10502 15.2853 3.49952L15.8441 4.58927L15.9221 4.74527C17.9613 8.74952 19.7426 12.351 21.1991 15.534L21.2223 15.561L21.7578 16.7798L22.0743 17.5455C22.3166 18.1553 22.3713 18.7643 22.2888 19.401L22.2941 19.4063ZM23.5128 17.0198C23.3291 16.434 23.0088 15.7463 22.6143 14.9258V14.8943C20.7273 10.89 18.9738 7.28852 17.3096 4.05452L17.2001 3.89402C16.0128 1.46027 15.1646 -0.000732422 12.6963 -0.000732422C10.2588 -0.000732422 9.22385 1.69427 8.16485 3.89777L8.0831 4.05827C6.4151 7.28852 4.66535 10.8945 2.7821 14.898V14.9528L2.22335 16.1715C2.01635 16.6755 1.90685 16.9373 1.87985 17.019C0.528348 20.73 3.3131 23.988 6.6806 23.988C6.7076 23.988 6.81335 23.988 6.94235 23.9648H7.31735C9.0671 23.7503 10.8678 22.6365 12.6963 20.6483C14.5248 22.6365 16.3331 23.7495 18.0791 23.9648H18.4503C18.5831 23.988 18.6888 23.988 18.7158 23.988C22.0833 23.9918 24.8643 20.73 23.5128 17.019V17.0198Z" fill="#C0D8F3"/>
</g>
<defs>
<clipPath id="clip0_31_424">
<rect width="24" height="24" fill="white" transform="translate(0.700195)"/>
</clipPath>
</defs>
</svg>
