<svg width="25" height="24" viewBox="0 0 25 24" fill="none" xmlns="http://www.w3.org/2000/svg">
<g clip-path="url(#clip0_31_426)">
<path d="M22.015 13.0687L24.0138 10.8225H21.6738L20.86 11.7525L20.0163 10.8225H15.565V10.2225H17.6688V8.4187H11.9988V11.25H11.98C11.62 10.8375 11.1738 10.695 10.6525 10.695C9.58754 10.695 8.78504 11.4225 8.50379 12.3787C7.82879 10.1512 4.85129 10.2187 3.93254 11.8537V10.9462H1.87754V9.9637H4.12754V8.42245H0.0400391V15.3375H1.87754V12.4312H3.71129C3.65504 12.645 3.62504 12.8737 3.62504 13.1137C3.62504 15.855 7.47254 16.5412 8.50754 14.0025H6.93254C6.38129 14.7862 5.21504 14.3362 5.21504 13.455H8.42129C8.56004 14.5987 9.44879 15.5887 10.675 15.5887C11.2038 15.5887 11.6875 15.33 11.9838 14.8912H12.0025V15.3375H19.96L20.7888 14.4L21.625 15.3375H24.04L22.015 13.0687ZM5.26379 12.4462C5.49254 11.46 6.82754 11.4862 7.00754 12.4462H5.26379ZM11.0163 14.28C9.71879 14.28 9.74129 11.925 11.0163 11.925C12.2388 11.925 12.31 14.28 11.0163 14.28ZM17.3088 14.9962H13.7688V8.75245H17.3313V9.88495H15.2275V11.1562H17.3088V12.21H15.205V13.8862H17.3088V14.9962ZM15.5875 13.5037V12.5887H17.6913V10.9387L19.5925 13.0762L17.6913 15.2137V13.5037H15.5875ZM20.785 13.89L19.8063 14.9962H18.3775L20.0875 13.0762L18.3775 11.1562H19.8663L20.8638 12.255L21.8238 11.1562H23.2675L21.565 13.0687L23.29 14.9962H21.7713L20.785 13.89Z" fill="#C0D8F3"/>
</g>
<defs>
<clipPath id="clip0_31_426">
<rect width="24" height="24" fill="white" transform="translate(0.0400391)"/>
</clipPath>
</defs>
</svg>
