<svg width="25" height="24" viewBox="0 0 25 24" fill="none" xmlns="http://www.w3.org/2000/svg">
<g clip-path="url(#clip0_31_428)">
<path d="M0.379883 16.1452H5.04788V16.812H0.379883V16.1452ZM0.379883 14.8627H5.04788V15.531H0.379883V14.8627ZM1.70813 13.5817H3.71213V14.2537H1.70813V13.5817ZM1.70813 12.3052H3.71213V12.9772H1.70813V12.3052ZM1.70813 11.0227H3.71213V11.6947H1.70813V11.0227ZM1.70813 9.74174H3.71213V10.4137H1.70813V9.74174ZM0.379883 8.46524H5.04788V9.13724H0.379883V8.46524ZM0.379883 7.18799H5.04788V7.85474H0.379883V7.18799ZM5.71163 15.531H12.8876C13.0084 15.324 13.1029 15.0982 13.1569 14.8627H5.71163V15.531ZM12.3289 12.3052H7.04813V12.9772H12.8921C12.7432 12.7247 12.5545 12.4978 12.3334 12.3052H12.3289ZM7.04363 11.0227V11.6947H12.3289C12.5561 11.508 12.7391 11.2807 12.8921 11.0227H7.04363ZM12.8876 8.46524H5.71163V9.13724H13.1524C13.0943 8.90251 13.0052 8.67654 12.8876 8.46524ZM10.6849 7.18799H5.71163V7.85474H12.3956C11.9292 7.42571 11.3186 7.18771 10.6849 7.18799ZM7.04363 9.74174H9.04388V10.4137H7.04363V9.74174ZM11.0479 10.4137H13.1381C13.1976 10.1947 13.2279 9.96873 13.2281 9.74174H11.0479V10.4137ZM7.04363 13.5817H9.04388V14.2537H7.04363V13.5817ZM11.0479 13.5817V14.2537H13.2281C13.2281 14.0227 13.1959 13.797 13.1381 13.5817H11.0479ZM5.71163 16.809L10.6804 16.812C11.3486 16.812 11.9494 16.5592 12.3994 16.1452H5.71163V16.809ZM13.7156 16.1452H17.0434V16.812H13.7156V16.1452ZM13.7156 14.8627H17.0434V15.531H13.7156V14.8627ZM15.0439 13.5817H17.0441V14.2537H15.0439V13.5817ZM15.0439 12.3052H17.0441V12.9772H15.0439V12.3052ZM17.9741 8.46524H13.7164V9.13724H18.2044L17.9741 8.46524ZM17.5316 7.18799H13.7156V7.85474H17.7626L17.5316 7.18799ZM21.0439 16.1452H24.3799V16.812H21.0439V16.1452ZM21.0439 14.8627H24.3799V15.531H21.0439V14.8627ZM21.0439 13.5817H23.0441V14.2537H21.0439V13.5817ZM21.0439 12.3052H23.0441V12.9772H21.0439V12.3052ZM21.0439 11.6947H23.0441V11.0227H19.2349L19.0436 11.5657L18.8569 11.0227H15.0439V11.6947H17.0441V11.0775L17.2594 11.6947H20.8331L21.0439 11.0775V11.6947ZM23.0441 9.74174H19.6774L19.4464 10.4137H23.0441V9.74174ZM20.5639 7.18799L20.3329 7.85474H24.3799V7.18799H20.5639ZM19.0436 16.809L19.2746 16.1452H18.8134L19.0436 16.809ZM18.6026 15.531H19.4884L19.7276 14.8627H18.3679L18.6026 15.531ZM18.1526 14.2537H19.9384L20.1724 13.5817H17.9186L18.1526 14.2537ZM17.7079 12.9772H20.3876L20.6134 12.3052H17.4776L17.7079 12.9772ZM15.0439 10.4137H18.6461L18.4151 9.74174H15.0439V10.4137ZM19.8919 9.13724H24.3799V8.46524H20.1176L19.8919 9.13724Z" fill="#C0D8F3"/>
</g>
<defs>
<clipPath id="clip0_31_428">
<rect width="24" height="24" fill="white" transform="translate(0.379883)"/>
</clipPath>
</defs>
</svg>
