<svg width="25" height="24" viewBox="0 0 25 24" fill="none" xmlns="http://www.w3.org/2000/svg">
<g clip-path="url(#clip0_31_430)">
<path d="M12.7202 5.36325L15.1967 2.33625C15.1967 2.33625 19.4387 2.42625 23.6657 4.39125C22.5835 6.02775 20.4355 6.82875 20.4355 6.82875C20.2907 5.391 19.2835 5.04 16.0802 5.04L12.721 24.0007L9.33846 5.03625C6.15847 5.03625 5.15122 5.388 5.00646 6.825C5.00646 6.825 2.85771 6.03225 1.77621 4.395C6.00247 2.43 10.2452 2.34 10.2452 2.34L12.7217 5.36325H12.718H12.7202ZM12.7202 1.46475C16.1342 1.43325 20.0447 1.992 24.0482 3.74175C24.5837 2.77275 24.7202 2.3475 24.7202 2.3475C20.3455 0.61275 16.2475 0.01575 12.7202 0C9.19296 0.01575 5.09496 0.60975 0.720215 2.3475C0.720215 2.3475 0.915215 2.87475 1.39221 3.74625C5.39646 1.98825 9.30622 1.434 12.7202 1.461V1.46475Z" fill="#C0D8F3"/>
</g>
<defs>
<clipPath id="clip0_31_430">
<rect width="24" height="24" fill="white" transform="translate(0.720215)"/>
</clipPath>
</defs>
</svg>
