<svg width="32" height="32" viewBox="0 0 32 32" fill="none" xmlns="http://www.w3.org/2000/svg">
<path fill-rule="evenodd" clip-rule="evenodd" d="M9.00659 30.6678H8.95278C4.7449 30.6678 1.33374 27.2566 1.33374 23.0487C1.33374 18.8409 4.7449 15.4297 8.95279 15.4297H16.5718V23.0489C16.5718 27.2389 13.1897 30.6389 9.00659 30.6678Z" fill="#BD5A61"/>
<path fill-rule="evenodd" clip-rule="evenodd" d="M0.0938031 6.42717C0 7.01942 0 7.72723 0 9.14286V22.8571C0 21.4415 0 20.7337 0.0938031 20.1415C0.610158 16.8813 3.16703 14.3244 6.42717 13.8081C7.01942 13.7143 7.72723 13.7143 9.14286 13.7143H18.2857V22.8571C18.2857 24.2728 18.2857 24.9806 18.1919 25.5728C17.6756 28.833 15.1187 31.3898 11.8585 31.9062C11.2663 32 10.5585 32 9.14286 32H22.8571C24.2728 32 24.9806 32 25.5728 31.9062C28.833 31.3898 31.3898 28.833 31.9062 25.5728C32 24.9806 32 24.2728 32 22.8571C32 21.4415 32 20.7337 31.9062 20.1415C31.3898 16.8813 28.833 14.3244 25.5728 13.8081C24.9806 13.7143 24.2728 13.7143 22.8571 13.7143H18.2857V9.14286C18.2857 7.72723 18.2857 7.01942 18.1919 6.42717C17.6756 3.16703 15.1187 0.610158 11.8585 0.0938031C11.2663 0 10.5585 0 9.14286 0C7.72723 0 7.01942 0 6.42717 0.0938031C3.16703 0.610158 0.610158 3.16703 0.0938031 6.42717Z" fill="#BD5A61"/>
</svg>
