<svg width="21" height="21" viewBox="0 0 21 21" fill="none" xmlns="http://www.w3.org/2000/svg">
<path d="M12.9999 20.3986H2.99995C2.73482 20.4078 2.47063 20.3624 2.22381 20.2652C1.97699 20.1679 1.75282 20.0209 1.56523 19.8333C1.37765 19.6458 1.23066 19.4216 1.13341 19.1748C1.03616 18.9279 0.990733 18.6638 0.999946 18.3986V8.39863C0.990733 8.1335 1.03616 7.86931 1.13341 7.62249C1.23066 7.37568 1.37765 7.1515 1.56523 6.96392C1.75282 6.77633 1.97699 6.62934 2.22381 6.53209C2.47063 6.43484 2.73482 6.38941 2.99995 6.39863H6.99995V2.39863C6.99073 2.1335 7.03616 1.86931 7.13341 1.62249C7.23066 1.37568 7.37765 1.1515 7.56523 0.963916C7.75282 0.77633 7.97699 0.629343 8.22381 0.532094C8.47063 0.434845 8.73482 0.389414 8.99995 0.398628H18.9999C19.2651 0.389414 19.5293 0.434845 19.7761 0.532094C20.0229 0.629343 20.2471 0.77633 20.4347 0.963916C20.6222 1.1515 20.7692 1.37568 20.8665 1.62249C20.9637 1.86931 21.0092 2.1335 20.9999 2.39863V12.3986C21.009 12.6637 20.9635 12.9278 20.8662 13.1746C20.7689 13.4213 20.6219 13.6455 20.4343 13.833C20.2468 14.0206 20.0227 14.1676 19.7759 14.2649C19.5292 14.3622 19.265 14.4077 18.9999 14.3986H14.9999V18.3986C15.009 18.6637 14.9635 18.9278 14.8662 19.1746C14.7689 19.4213 14.6219 19.6455 14.4343 19.833C14.2468 20.0206 14.0227 20.1676 13.7759 20.2649C13.5292 20.3622 13.265 20.4077 12.9999 20.3986ZM2.99995 8.39863V18.3986H12.9999V14.3986H8.99995C8.73486 14.4077 8.47074 14.3622 8.22398 14.2649C7.97723 14.1676 7.75312 14.0206 7.56556 13.833C7.37801 13.6455 7.23102 13.4213 7.13371 13.1746C7.03641 12.9278 6.99088 12.6637 6.99995 12.3986V8.39863H2.99995ZM8.99995 2.39863V12.3986H18.9999V2.39863H8.99995Z" fill="#64748B"/>
</svg>
