<svg width="1200" height="393" viewBox="0 0 1200 393" fill="none" xmlns="http://www.w3.org/2000/svg">
<path opacity="0.05" d="M1435.34 67.3135L1435.11 64.1328H1431.93L1427.59 0.138295H1423.72L1427.9 63.8562H1351.27L1347.39 0H1343.52L1347.39 63.8562H1270.72L1267.27 0H1263.4L1266.8 63.8562H1190.17L1187.18 0H1183.31L1186.29 63.8562H1109.65L1107.1 0H1103.23L1105.74 63.8562H1029.1L1027.01 0H1023.14L1025.19 63.8562H948.555L946.928 0H943.056L944.643 63.8562H868.005L866.843 0H862.97L864.093 63.8562H787.455L786.758 0H782.885L783.543 63.8562H706.905L706.673 0H702.8L703.032 63.8562H626.355L626.587 0H622.715L622.482 63.8562H545.844L546.502 0H542.63L541.933 63.8562H465.294L466.417 0H462.544L461.383 63.8562H384.744L386.332 0H382.459L380.833 63.8562H304.194L306.247 0H302.374L300.283 63.8562H223.644L226.162 0H222.289L219.733 63.8562H143.095L146.076 0H142.204L139.222 63.8562H62.5834L65.9913 0H62.1187L58.6721 63.8562H-17.9665L-14.0939 0H-17.9665L-21.8778 63.8562H-98.5163L-94.3339 0.138295H-98.2065L-102.428 63.8562H-105.952L-106.145 67.0369H-102.583L-106.881 130.029H-110.483L-110.715 133.244H-107.113L-111.451 196.997H-115.052L-115.285 200.246H-111.683L-116.098 264.725H-119.699L-119.932 268.182H-116.33L-120.822 333.525H-124.463L-124.695 336.982H-121.055L-125.547 403.051H-129.187L-129.42 406.508H-125.547L-130.349 473.096H-134.222L-134.454 476.553H-130.581L-135.19 544.212H-139.062L-139.295 547.67H-135.422L-140.108 616.193H-143.981L-144.252 619.651H-140.379L-145.065 689.004H-148.937L-149.209 692.461H-145.336L-150.099 762.782H-153.972L-154.204 766.24H-150.332L-155.172 837.322H-159.045L-159.316 840.952H-155.443L-160.168 913.071H-164.041L-164.312 916.77H-160.439L-165.59 989.685H-169.462L-169.695 993.418H-165.822L-170.856 1067.23H-174.729L-175 1071H1504L1503.73 1067.23H1500.28L1495.25 993.418H1498.69L1498.42 989.685H1494.98L1490.02 916.77H1493.43L1493.2 913.071H1489.75L1484.83 841.09H1488.24L1488.01 837.46H1484.6L1479.76 766.378H1483.13L1482.89 762.921H1479.49L1474.72 692.703H1477.94L1477.71 689.246H1474.34L1469.61 619.893H1472.94L1472.71 616.435H1469.38L1464.69 547.912H1468.02L1467.79 544.454H1464.46L1459.85 476.795H1463.14L1462.91 473.338H1459.62L1455.17 406.128H1458.57L1458.34 402.671H1455.05L1450.56 336.602H1453.81L1453.58 333.145H1450.33L1445.87 267.871H1449.09V264.414H1445.83L1441.42 199.935H1444.63L1444.44 196.685H1441.19L1436.85 132.933H1440.06L1439.83 129.718H1436.62L1432.01 67.3135H1435.34ZM1347.66 67.3135L1351.54 130.305H1274.28L1270.91 67.3135H1347.66ZM540.771 547.635H620.701L620.43 616.159H539.996L540.771 547.635ZM535.93 616.159H455.574L456.774 547.635H536.705L535.93 616.159ZM624.767 547.635H704.697L704.93 616.159H624.496L624.767 547.635ZM708.764 547.635H788.617L789.352 616.159H708.996L708.764 547.635ZM792.799 547.635H872.729L873.93 616.159H793.496L792.799 547.635ZM792.799 544.178L792.024 476.519H871.49L872.69 544.178H792.799ZM788.733 544.178H708.725L708.454 476.519H787.919L788.733 544.178ZM704.736 544.178H624.729L624.961 476.519H704.426L704.736 544.178ZM620.74 544.178H540.771L541.507 476.519H620.933L620.74 544.178ZM536.743 544.178H456.774L457.975 476.519H537.44L536.743 544.178ZM452.786 544.178H372.778L374.482 476.519H453.909L452.786 544.178ZM452.786 547.635L451.546 616.159H370.996L372.7 547.635H452.786ZM451.469 619.651L450.23 689.004H369.176L370.919 619.651H451.469ZM455.574 619.651H536.008L535.272 689.004H454.335L455.574 619.651ZM540.112 619.651H620.546L620.275 689.004H539.222L540.112 619.651ZM624.651 619.651H705.046L705.317 689.004H624.38L624.651 619.651ZM709.151 619.651H789.585L790.32 689.004H709.267L709.151 619.651ZM793.69 619.651H873.814L875.053 689.004H794.116L793.69 619.651ZM878.228 619.651H958.623L960.366 689.004H879.313L878.228 619.651ZM878.228 616.193L876.989 547.67H956.687L958.391 616.193H878.228ZM876.912 544.212L875.711 476.553H955.138L956.842 544.212H876.912ZM875.634 473.13L874.201 406.128H953.163L954.828 472.992L875.634 473.13ZM871.761 473.13H791.947L791.211 406.128H870.173L871.761 473.13ZM788.268 473.13H708.454L708.183 406.128H787.184L788.268 473.13ZM704.814 473.13H624.961L625.193 406.128H704.194L704.814 473.13ZM621.321 473.13H541.507L542.204 406.266H621.204L621.321 473.13ZM537.828 473.13H458.014L459.214 406.266H538.176L537.828 473.13ZM454.373 473.13H374.559L376.224 406.266H455.187L454.373 473.13ZM370.88 473.13H291.066L293.235 406.266H372.197L370.88 473.13ZM370.88 476.588L369.176 544.247H288.781L290.95 476.588H370.88ZM369.099 547.704L367.356 616.228H286.497L288.665 547.704H369.099ZM367.279 619.72L365.536 689.073H284.599L286.845 619.72H367.279ZM365.42 692.634L363.677 762.852H282.353L284.599 692.634H365.42ZM369.564 692.634H450.462L449.223 762.852H367.898L369.564 692.634ZM454.761 692.634H535.698L534.923 762.852H453.599L454.761 692.634ZM539.958 692.634H620.895L620.624 762.852H539.299L539.958 692.634ZM625.154 692.634H706.092L706.324 762.852H625L625.154 692.634ZM710.352 692.634H791.289L792.024 762.852H710.7L710.352 692.634ZM795.549 692.634H876.486L877.725 762.852H796.4L795.549 692.634ZM880.745 692.634H961.644L963.387 762.852H882.062L880.745 692.634ZM965.942 692.634H1046.88L1049.13 762.852H967.801L965.942 692.634ZM965.942 689.177L964.2 619.823H1044.63L1046.88 689.177H965.942ZM964.122 616.332L962.38 547.808H1042.31L1044.52 616.332H964.122ZM962.302 544.351L959.01 476.519H1038.48L1040.64 544.178L962.302 544.351ZM959.01 473.096L957.19 406.128H1036.15L1038.32 472.992L959.01 473.096ZM957.229 402.844L955.564 336.775H1034.06L1036.19 402.844H957.229ZM953.356 402.844H874.123L872.923 336.775H951.459L953.356 402.844ZM870.406 402.844H791.172L790.437 336.775H868.934L870.406 402.844ZM787.416 402.844H708.183L707.951 336.775H786.448L787.416 402.844ZM704.426 402.844H625.232L625.426 336.775H703.962L704.426 402.844ZM621.476 402.844H542.242L542.939 336.775H621.437L621.476 402.844ZM538.486 402.844H459.446L460.647 336.775H539.144L538.486 402.844ZM455.535 402.844H376.302L377.928 336.775H456.464L455.535 402.844ZM372.545 402.844H293.312L295.442 336.775H373.94L372.545 402.844ZM289.595 402.844H210.361L212.956 336.775H291.453L289.595 402.844ZM289.595 406.301L287.426 473.165H207.728L210.323 406.301H289.595ZM287.31 476.588L285.102 544.247H204.824L207.457 476.588H287.31ZM284.986 547.704L282.779 616.228H201.997L204.669 547.704H284.986ZM282.663 619.72L280.417 689.073H199.131L201.842 619.72H282.663ZM280.3 692.634L278.016 762.852H196.11L198.86 692.634H280.3ZM277.435 766.378L275.15 837.46H193.283L196.11 766.378H277.435ZM281.578 766.378H362.903L361.121 837.46H279.371L281.578 766.378ZM367.163 766.378H448.487L447.209 837.46H365.459L367.163 766.378ZM452.747 766.378H534.071L533.297 837.46H451.701L452.747 766.378ZM538.331 766.378H619.655L619.384 837.46H537.634L538.331 766.378ZM623.915 766.378H705.24L705.511 837.46H623.722L623.915 766.378ZM709.461 766.378H790.785L791.56 837.46H709.809L709.461 766.378ZM795.045 766.378H876.369L877.647 837.46H795.897L795.045 766.378ZM880.629 766.378H961.954L963.735 837.46H881.985L880.629 766.378ZM966.214 766.378H1047.54L1049.82 837.46H968.072L966.214 766.378ZM1051.8 766.378H1133.12L1135.91 837.46H1054.16L1051.8 766.378ZM1051.8 762.921L1049.51 692.703H1130.45L1133.2 762.921H1051.8ZM1049.4 689.142L1047.15 619.789H1127.58L1130.3 689.142H1049.4ZM1047.03 616.297L1044.83 547.773H1124.76L1127.43 616.297H1047.03ZM1044.71 544.316L1042.5 476.657H1121.97L1124.6 544.316H1044.71ZM1042.39 473.234L1040.33 406.128H1119.34L1121.93 472.992L1042.39 473.234ZM1040.1 402.982L1037.97 336.913H1116.47L1119.06 402.982H1040.1ZM1037.82 333.525L1035.73 268.251H1113.91L1116.47 333.525H1037.82ZM1033.95 333.525H955.37L953.705 268.251H1031.74L1033.95 333.525ZM951.265 333.525H872.884L871.684 268.251H949.716L951.265 333.525ZM868.818 333.525H790.398L789.701 268.251H867.734L868.818 333.525ZM786.332 333.525H707.912L707.679 268.251H785.712L786.332 333.525ZM703.845 333.525H625.464L625.697 268.251H703.691L703.845 333.525ZM621.398 333.525H542.978L543.675 268.251H621.708L621.398 333.525ZM538.912 333.525H460.492L461.654 268.251H539.686L538.912 333.525ZM456.426 333.525H378.122L379.748 268.251H457.781L456.426 333.525ZM373.94 333.525H295.558L297.65 268.251H375.682L373.94 333.525ZM291.492 333.525H213.072L215.473 268.182H293.506L291.492 333.525ZM209.006 333.525H130.625L133.645 268.251H211.601L209.006 333.525ZM209.006 336.982L206.373 403.051H127.372L130.47 336.982H209.006ZM206.218 406.128L203.546 472.992H124.119L127.217 406.128H206.218ZM203.429 476.415L200.757 544.074H120.827L123.964 476.415H203.429ZM200.603 547.531L197.892 616.055H117.497L120.672 547.531H200.603ZM197.737 619.547L195.026 688.9H114.089L117.342 619.547H197.737ZM194.871 692.461L192.238 762.782H110.913L114.166 692.565L194.871 692.461ZM191.928 766.274L189.14 837.356H107.234L110.526 766.274H191.928ZM188.985 840.986L186.119 912.967H103.71L107.041 840.986H188.985ZM193.167 840.986H275.111L272.749 912.967H190.34L193.167 840.986ZM279.255 840.986H361.199L359.379 912.967H276.97L279.255 840.986ZM365.381 840.986H447.325L446.008 912.967H363.6L365.381 840.986ZM451.508 840.986H533.452L532.638 912.967H450.23L451.508 840.986ZM537.595 840.986H619.539L619.268 912.967H536.898L537.595 840.986ZM623.722 840.986H705.666L705.898 912.967H623.489L623.722 840.986ZM709.848 840.986H791.792L792.528 912.967H710.119L709.848 840.986ZM795.936 840.986H877.88L879.158 912.967H796.749L795.936 840.986ZM882.062 840.986H964.006L965.788 912.967H883.379L882.062 840.986ZM968.189 840.986H1050.13L1052.42 912.967H970.009L968.189 840.986ZM1054.28 840.986H1136.22L1139.05 912.967H1056.64L1054.28 840.986ZM1140.4 840.986H1222.35L1225.68 912.967H1143.27L1140.4 840.986ZM1140.4 837.356L1137.61 766.274H1218.94L1222.23 837.356H1140.4ZM1137.46 762.679L1134.67 692.461H1215.61L1218.86 762.679H1137.46ZM1134.52 688.9L1131.81 619.547H1212.2L1215.45 688.9H1134.52ZM1131.65 616.055L1128.94 547.531H1208.87L1212.05 616.055H1131.65ZM1128.78 544.074L1126.11 476.415H1205.58L1208.72 544.074H1128.78ZM1126 472.992L1123.17 406.128H1202.17L1205.27 472.992H1126ZM1123.21 402.74L1120.57 336.671H1199.11L1202.21 402.74H1123.21ZM1120.3 333.525L1117.79 268.182H1195.82L1198.84 333.456L1120.3 333.525ZM1117.59 264.932L1115.04 200.454H1192.49L1195.47 264.932H1117.59ZM1113.72 264.932H1035.61L1033.52 200.454H1110.97L1113.72 264.932ZM1031.74 264.932H953.628L952.001 200.454H1029.45L1031.74 264.932ZM949.755 264.932H871.645L870.483 200.454H947.935L949.755 264.932ZM867.772 264.932H789.662L788.965 200.454H866.417L867.772 264.932ZM785.789 264.932H707.679L707.292 200.385H784.744L785.789 264.932ZM703.807 264.932H625.697V200.454H703.148L703.807 264.932ZM621.824 264.932H543.714L544.372 200.454H621.824V264.932ZM539.841 264.932H461.731L462.854 200.454H540.306L539.841 264.932ZM457.859 264.932H379.748L381.336 200.454H458.788L457.859 264.932ZM375.876 264.932H297.766L299.818 200.454H377.27L375.876 264.932ZM293.893 264.932H215.783L218.3 200.454H295.752L293.893 264.932ZM211.91 264.932H133.8L136.782 200.454H214.234L211.91 264.932ZM129.928 264.932H51.8176L55.2642 200.454H132.716L129.928 264.932ZM129.928 268.39L126.597 333.525H48.1386L51.624 268.251L129.928 268.39ZM126.404 336.775L123.344 402.844H44.421L47.945 336.775H126.404ZM123.228 406.128L120.091 472.992H40.6645L44.2273 406.128H123.228ZM119.936 476.415L116.761 544.074H36.8307L40.4709 476.415H119.936ZM116.606 547.531L113.392 616.055H32.9968L36.637 547.531H116.606ZM113.237 619.547L109.984 688.9H29.0855L32.9581 619.547H113.237ZM109.829 692.461L106.537 762.679H25.2129L29.0855 692.461H109.829ZM106.382 766.274L103.168 837.46H21.1467L25.0193 766.378L106.382 766.274ZM102.858 840.986L99.5279 912.967H17.0804L20.953 840.986H102.858ZM99.2955 916.77L95.8877 989.685H12.9755L16.8481 916.77H99.2955ZM103.517 916.77H185.964L183.06 989.685H100.148L103.517 916.77ZM190.146 916.77H272.594L270.232 989.685H187.32L190.146 916.77ZM276.815 916.77H359.263L357.442 989.685H274.492L276.815 916.77ZM363.445 916.77H445.931L444.614 989.685H361.702L363.445 916.77ZM450.113 916.77H532.561L531.786 989.685H448.874L450.113 916.77ZM536.782 916.77H619.229L618.958 989.685H536.046L536.782 916.77ZM623.412 916.77H705.898L706.13 989.685H623.218L623.412 916.77ZM710.08 916.77H792.489L793.264 989.685H710.39L710.08 916.77ZM796.749 916.77H879.235L880.513 989.685H797.562L796.749 916.77ZM883.379 916.77H965.865L967.646 989.685H884.734L883.379 916.77ZM970.047 916.77H1052.49L1054.86 989.685H971.906L970.047 916.77ZM1056.72 916.77H1139.16L1142.03 989.685H1059.12L1056.72 916.77ZM1143.35 916.77H1225.83L1229.24 989.685H1146.29L1143.35 916.77ZM1230.01 916.77H1312.46L1316.33 989.685H1233.46L1230.01 916.77ZM1229.82 913.071L1226.49 841.09H1308.4L1312.27 913.071H1229.82ZM1226.22 837.46L1222.89 766.378H1304.21L1308.09 837.46H1226.22ZM1222.73 762.782L1219.44 692.565H1300.38L1304.25 762.782H1222.73ZM1219.29 689.004L1216.03 619.651H1296.47L1300.34 689.004H1219.29ZM1215.88 616.159L1212.67 547.635H1292.63L1296.27 616.159H1215.88ZM1212.51 544.178L1209.33 476.519H1288.8L1292.44 544.178H1212.51ZM1209.18 473.096L1206.16 406.128H1285.16L1288.72 472.992L1209.18 473.096ZM1205.89 402.844L1202.98 336.775H1281.48L1285.01 402.844H1205.89ZM1202.98 333.525L1199.92 268.251H1277.96L1281.44 333.525H1202.98ZM1199.77 264.932L1196.75 200.454H1274.2L1277.65 264.932H1199.77ZM1196.59 197.204L1193.61 133.451H1270.72L1274.16 197.204H1196.59ZM1192.72 197.204H1115.27L1112.71 133.451H1189.86L1192.72 197.204ZM1111.4 197.204H1033.95L1031.89 133.451H1109L1111.4 197.204ZM1029.88 197.204H952.427L950.801 133.451H1027.9L1029.88 197.204ZM948.555 197.204H871.103L869.941 133.451H947.083L948.555 197.204ZM867.23 197.204H789.778L789.081 133.451H866.184L867.23 197.204ZM785.906 197.204H707.292V133.382H784.395L785.906 197.204ZM704.388 197.204H625.968V133.451H703.42L704.388 197.204ZM623.063 197.204H545.612L546.309 133.451H622.095L623.063 197.204ZM541.545 197.204H464.094L465.217 133.451H541.158L541.545 197.204ZM460.221 197.204H382.769L384.357 133.451H461.499L460.221 197.204ZM378.897 197.204H301.445L303.497 133.451H380.6L378.897 197.204ZM297.572 197.204H220.12L222.638 133.451H299.741L297.572 197.204ZM216.248 197.204H138.796L141.739 133.451H217.022L216.248 197.204ZM134.923 197.204H57.4716L60.9182 133.451H138.021L134.923 197.204ZM53.599 197.204H-23.8528L-19.9802 133.451H54.9157L53.599 197.204ZM53.599 200.454L50.1137 264.932H-30.1651L-26.2925 200.454H53.599ZM49.9588 268.251L44.1499 333.525H-34.3475L-30.4749 268.251H49.9588ZM46.0862 336.844L42.5234 402.913H-38.5686L-34.6961 336.844H46.0862ZM42.2136 406.301L38.6121 473.165H-42.8285L-38.9559 406.301H42.2136ZM38.341 476.588L34.7007 544.247H-47.1271L-43.0221 476.588H38.341ZM34.4684 547.704L30.5958 616.228H-51.5031L-47.3594 547.704H34.4684ZM30.5958 619.72L26.7232 689.073H-55.9566L-51.7355 619.651L30.5958 619.72ZM26.7232 692.634L22.8506 762.852H-58.4738L-54.2139 692.634H26.7232ZM22.8506 766.447L18.978 837.529H-64.941L-60.6424 766.378L22.8506 766.447ZM18.978 841.159L15.1055 913.14H-69.5494L-65.1733 841.159H18.978ZM12.6657 916.77L8.79311 989.685H-74.1965L-69.7817 916.77H12.6657ZM8.56076 993.418L4.68817 1067.23H-78.8436L-74.3514 993.418H8.56076ZM12.7819 993.418H95.7715L92.2862 1067.23H8.83185L12.7819 993.418ZM99.9926 993.418H182.943L180.039 1067.23H96.546L99.9926 993.418ZM187.165 993.418H270.154L267.753 1067.23H184.493L187.165 993.418ZM274.375 993.418H357.365L355.506 1067.23H272.013L274.375 993.418ZM361.586 993.418H444.576L443.22 1067.23H359.766L361.586 993.418ZM448.797 993.418H531.786L530.973 1067.23H447.48L448.797 993.418ZM536.008 993.418H618.997L618.687 1067.23H535.233L536.008 993.418ZM623.218 993.418H706.169L706.44 1067.23H622.947L623.218 993.418ZM710.39 993.418H793.38L794.154 1067.23H710.7L710.39 993.418ZM797.601 993.418H880.591L881.907 1067.23H798.414L797.601 993.418ZM884.812 993.418H967.801L969.621 1067.23H886.167L884.812 993.418ZM972.022 993.418H1055.01L1057.37 1067.23H973.881L972.022 993.418ZM1059.23 993.418H1142.22L1145.09 1067.23H1061.63L1059.23 993.418ZM1146.44 993.418H1229.39L1232.84 1067.23H1149.35L1146.44 993.418ZM1233.62 993.418H1316.61L1320.48 1067.23H1237.1L1233.62 993.418ZM1320.83 993.418H1403.82L1408.23 1067.23H1324.82L1320.83 993.418ZM1320.63 989.685L1316.76 916.77H1399.21L1403.62 989.685H1320.63ZM1316.49 913.071L1312.62 841.09H1394.56L1398.94 913.071H1316.49ZM1312.42 837.46L1308.55 766.378H1389.87L1394.17 837.46H1312.42ZM1308.55 762.782L1304.68 692.565H1385.61L1389.87 762.782H1308.55ZM1304.68 689.004L1300.81 619.651H1381.12L1385.34 689.004H1304.68ZM1300.81 616.159L1297.13 547.635H1377.06L1381.2 616.159H1300.81ZM1296.93 544.178L1293.29 476.519H1372.72L1376.82 544.178H1296.93ZM1293.06 473.096L1289.19 406.128H1368.15L1372.22 472.992L1293.06 473.096ZM1289.19 402.844L1285.62 336.775H1364.12L1367.99 402.844H1289.19ZM1285.31 333.456L1281.79 268.182H1359.82L1363.7 333.456H1285.31ZM1281.64 264.863L1278.15 200.385H1355.6L1359.47 264.863H1281.64ZM1278 197.135L1274.55 133.382H1351.65L1355.53 197.135H1278ZM1267 67.3135L1270.37 130.305H1193.26L1190.32 67.3135H1267ZM1186.41 67.3135L1189.35 130.305H1112.25L1109.77 67.3135H1186.41ZM1105.86 67.3135L1108.34 130.305H1031.23L1029.18 67.3135H1105.86ZM1025.31 67.3135L1027.32 130.305H950.22L948.632 67.3135H1025.31ZM944.721 67.3135L946.308 130.305H869.205L868.043 67.3135H944.721ZM864.171 67.3135L865.294 130.305H788.191L787.493 67.3135H864.171ZM783.582 67.3135L784.24 130.305H707.292L706.944 67.3135H783.582ZM703.032 67.3135L703.226 130.305H626.161V67.3135H703.032ZM622.444 67.3135L622.095 130.167H545.031L545.805 67.3135H622.444ZM541.894 67.3135L541.197 130.305H464.094L465.217 67.3135H541.894ZM461.344 67.3135L460.182 130.305H383.079L384.667 67.3135H461.344ZM380.755 67.3135L379.168 130.305H302.064L304.078 67.3135H380.755ZM300.206 67.3135L298.153 130.305H221.05L223.528 67.3135H300.206ZM219.617 67.3135L217.138 130.305H140.035L142.978 67.3135H219.617ZM139.067 67.3135L136.124 130.305H59.0206L62.3898 67.3135H139.067ZM58.4784 67.3135L55.1093 130.305H-21.994L-18.1214 67.3135H58.4784ZM-98.7487 67.3135H-22.0714L-25.944 130.305H-103.009L-98.7487 67.3135ZM-103.241 133.382H-26.0989L-29.9715 197.135H-107.423L-103.241 133.382ZM-107.772 200.385H-30.32L-34.1926 264.863H-112.148L-107.772 200.385ZM-112.38 268.182H-34.3475L-38.2201 333.456H-116.834L-112.38 268.182ZM-117.027 336.775H-38.5299L-42.4025 402.844H-121.442L-117.027 336.775ZM-121.752 406.128H-42.7898L-46.6624 472.992H-126.283L-121.752 406.128ZM-126.515 476.415H-47.0884L-51.1933 544.074H-131.124L-126.515 476.415ZM-131.356 547.531H-51.4256L-55.608 616.159H-136.003L-131.356 547.531ZM-136.235 619.547H-55.608L-59.8679 688.9H-140.805L-136.235 619.547ZM-141.192 692.565H-60.2552L-64.5537 762.782H-145.878L-141.192 692.565ZM-146.227 766.378H-64.9023L-69.2396 837.46H-151.029L-146.227 766.378ZM-151.3 841.09H-69.3557L-73.7318 913.071H-156.295L-151.3 841.09ZM-156.295 916.77H-73.9641L-78.4176 989.685H-161.368L-156.295 916.77ZM-161.523 993.418H-78.65L-83.1422 1067.23H-166.635L-161.523 993.418ZM1496.14 1067.23H1412.53L1408.23 993.418H1491.22L1496.14 1067.23ZM1490.87 989.685H1407.81L1403.35 916.77H1485.68L1490.87 989.685ZM1485.68 913.071H1403.12L1398.74 841.09H1480.69L1485.68 913.071ZM1480.53 837.46H1398.51L1394.17 766.378H1475.5L1480.53 837.46ZM1475.46 762.782H1394.13L1389.84 692.565H1470.77L1475.46 762.782ZM1470.19 689.004H1389.45L1385.19 619.651H1465.62L1470.19 689.004ZM1465.24 616.159H1385L1380.81 547.635H1460.74L1465.24 616.159ZM1460.36 544.178H1380.58L1376.48 476.519H1455.9L1460.36 544.178ZM1455.52 473.096H1376.24L1372.18 406.128H1451.14L1455.52 473.096ZM1450.83 402.844H1371.94L1368.07 336.775H1446.57L1450.83 402.844ZM1446.22 333.525H1367.72L1363.85 268.251H1441.88L1446.22 333.525ZM1441.54 264.932H1363.54L1359.67 200.454H1437.12L1441.54 264.932ZM1436.97 197.204H1359.51L1355.64 133.451H1432.63L1436.97 197.204ZM1432.4 130.236H1355.29L1351.42 67.2444H1428.1L1432.4 130.236Z" fill="#17457A"/>
</svg>
