<svg width="18" height="18" viewBox="0 0 18 18" fill="none" xmlns="http://www.w3.org/2000/svg">
<path d="M5.60008 10.2246C6.77508 10.2246 7.71675 11.1754 7.71675 12.3588V15.1996C7.71675 16.3746 6.77508 17.3329 5.60008 17.3329H2.78341C1.61675 17.3329 0.666748 16.3746 0.666748 15.1996V12.3588C0.666748 11.1754 1.61675 10.2246 2.78341 10.2246H5.60008ZM15.2168 10.2246C16.3835 10.2246 17.3335 11.1754 17.3335 12.3588V15.1996C17.3335 16.3746 16.3835 17.3329 15.2168 17.3329H12.4002C11.2252 17.3329 10.2835 16.3746 10.2835 15.1996V12.3588C10.2835 11.1754 11.2252 10.2246 12.4002 10.2246H15.2168ZM5.60008 0.666504C6.77508 0.666504 7.71675 1.62484 7.71675 2.80067V5.6415C7.71675 6.82484 6.77508 7.77484 5.60008 7.77484H2.78341C1.61675 7.77484 0.666748 6.82484 0.666748 5.6415V2.80067C0.666748 1.62484 1.61675 0.666504 2.78341 0.666504H5.60008ZM15.2168 0.666504C16.3835 0.666504 17.3335 1.62484 17.3335 2.80067V5.6415C17.3335 6.82484 16.3835 7.77484 15.2168 7.77484H12.4002C11.2252 7.77484 10.2835 6.82484 10.2835 5.6415V2.80067C10.2835 1.62484 11.2252 0.666504 12.4002 0.666504H15.2168Z" fill="#2E7DD7"/>
</svg>
