<svg width="250" height="202" viewBox="0 0 250 202" fill="none" xmlns="http://www.w3.org/2000/svg">
<g clip-path="url(#clip0_98_503)">
<path d="M97.4588 108.953C80.7704 111.37 74.7259 115.833 73.7052 131.078C73.6384 132.077 72.8559 132.865 71.8906 133.131C67.2661 134.406 66.0415 139.249 66.2192 151.304C66.2332 152.258 65.58 153.1 64.6486 153.308L32.4455 160.497C6.35901 167.162 -0.163171 181.364 0.00307484 206.401V283.948C0.00307484 285.052 0.8985 285.948 2.00307 285.948H248C249.105 285.948 250 285.052 250 283.948V206.401C248.385 165.805 235.606 155.4 184.803 155.156C183.762 155.151 182.868 154.349 182.785 153.312C181.898 142.304 181.483 135.895 177.352 133.327C176.778 132.97 176.323 132.423 176.197 131.759C173.747 118.797 169.085 113.667 155.44 109.038C155.236 108.969 155.016 108.933 154.8 108.933H97.7456C97.6505 108.933 97.5529 108.94 97.4588 108.953Z" stroke="#2161AA"/>
<path d="M96.4056 112.745C85.5776 114.251 81.6997 116.558 80.6104 122.549C83.0613 138.617 100.491 155.501 112.473 168.573L124.183 209.695L135.621 168.573C150.055 154.139 165.305 137.527 167.212 122.549C167.212 117.647 163.399 114.107 152.506 112.745H96.4056Z" fill="#2161AA"/>
<path d="M97.2219 137.255L97.7665 110.022H151.688V137.255C151.414 141.612 152.673 142.974 156.318 144.336C132.928 167.198 118.627 165.882 91.5029 144.336C94.4986 142.752 96.3517 142.133 97.2219 137.255Z" fill="white"/>
<path d="M143.184 39.7603H109.835C96.2463 39.7603 85.1696 51.0443 86.0199 64.6064C86.7639 76.4736 88.0634 87.1984 91.1481 101.019C91.7112 103.542 92.6883 105.972 94.169 108.091C100.269 116.822 106.1 120.479 114.815 125.942C117.23 127.456 119.883 128.594 122.694 129.066C126.318 129.673 129.127 129.804 132.503 129.388C136.554 128.89 140.2 126.793 143.254 124.086C151.152 117.086 155.492 113.565 159.464 108.465C161.279 106.135 162.392 103.35 162.963 100.453C165.446 87.8509 166.464 77.1579 167.152 64.8536C167.917 51.1919 156.867 39.7603 143.184 39.7603Z" fill="white"/>
<path d="M167.152 64.8536L167.652 64.8815L167.152 64.8536ZM162.963 100.453L162.473 100.356L162.963 100.453ZM159.464 108.465L159.859 108.772L159.464 108.465ZM143.254 124.086L142.923 123.712V123.712L143.254 124.086ZM132.503 129.388L132.564 129.885L132.503 129.388ZM122.694 129.066L122.612 129.559L122.694 129.066ZM114.815 125.942L115.08 125.519L114.815 125.942ZM94.169 108.091L93.7591 108.377L94.169 108.091ZM91.1481 101.019L90.6601 101.128L91.1481 101.019ZM86.0199 64.6064L86.5189 64.5751L86.0199 64.6064ZM109.835 40.2603H143.184V39.2603H109.835V40.2603ZM166.653 64.8256C165.966 77.1165 164.95 87.7847 162.473 100.356L163.454 100.549C165.943 87.917 166.963 77.1992 167.652 64.8815L166.653 64.8256ZM159.07 108.158C155.133 113.211 150.843 116.691 142.923 123.712L143.586 124.46C151.461 117.48 155.85 113.919 159.859 108.772L159.07 108.158ZM132.442 128.892C129.123 129.301 126.363 129.174 122.777 128.573L122.612 129.559C126.273 130.173 129.132 130.307 132.564 129.885L132.442 128.892ZM115.08 125.519C106.368 120.058 100.616 116.445 94.5788 107.805L93.7591 108.377C99.9218 117.198 105.831 120.901 114.549 126.366L115.08 125.519ZM91.6361 100.91C88.5579 87.1185 87.2615 76.42 86.5189 64.5751L85.5209 64.6377C86.2663 76.5271 87.5689 87.2783 90.6601 101.128L91.6361 100.91ZM94.5788 107.805C93.1417 105.748 92.1876 103.381 91.6361 100.91L90.6601 101.128C91.2349 103.703 92.2349 106.196 93.7591 108.377L94.5788 107.805ZM122.777 128.573C120.045 128.115 117.453 127.006 115.08 125.519L114.549 126.366C117.007 127.906 119.722 129.074 122.612 129.559L122.777 128.573ZM142.923 123.712C139.915 126.378 136.36 128.41 132.442 128.892L132.564 129.885C136.748 129.369 140.484 127.209 143.586 124.46L142.923 123.712ZM162.473 100.356C161.913 103.194 160.826 105.902 159.07 108.158L159.859 108.772C161.731 106.368 162.871 103.506 163.454 100.549L162.473 100.356ZM143.184 40.2603C156.587 40.2603 167.401 51.4573 166.653 64.8256L167.652 64.8815C168.432 50.9265 157.148 39.2603 143.184 39.2603V40.2603ZM109.835 39.2603C95.9714 39.2603 84.6517 50.7743 85.5209 64.6377L86.5189 64.5751C85.6876 51.3143 96.5211 40.2603 109.835 40.2603V39.2603Z" fill="#2161AA"/>
<path d="M172.658 45.207H80.1452C79.1445 34.8584 87.2008 0 124.572 0C161.943 0 172.658 29.9564 172.658 45.207Z" fill="#2E7DD7"/>
<path d="M80.1452 45.207L79.6475 45.2551L79.6912 45.707H80.1452V45.207ZM172.658 45.207V45.707H173.158V45.207H172.658ZM80.1452 45.707H172.658V44.707H80.1452V45.707ZM80.6429 45.1588C80.154 40.1025 81.8868 28.9137 88.3873 18.9969C94.8657 9.11389 106.073 0.5 124.572 0.5V-0.5C105.7 -0.5 94.1934 8.31531 87.551 18.4487C80.9308 28.5481 79.1358 39.9629 79.6475 45.2551L80.6429 45.1588ZM124.572 0.5C143.104 0.5 154.98 7.91862 162.235 17.1926C169.508 26.4885 172.158 37.6777 172.158 45.207H173.158C173.158 37.4857 170.451 26.0714 163.023 16.5765C155.578 7.05959 143.411 -0.5 124.572 -0.5V0.5Z" fill="#17457A"/>
<path d="M172.658 50.6538H162.854V66.2156C162.854 67.6303 164.702 72.1892 166.564 72.4403L167.889 60.5568H171.069C172.131 57.0294 172.506 54.8813 172.658 50.6538Z" fill="#2161AA"/>
<path d="M81.8341 61.2745C80.5067 58.6675 80.4266 56.4882 80.0654 51.1982H89.3247C89.7592 59.043 89.73 62.5745 89.3247 67.7197C88.4857 71.1369 87.8674 72.0164 86.6014 72.4401L85.3744 61.2745H81.8341Z" fill="#2161AA"/>
<path d="M78.9766 53.1984V42.3052H173.748V53.1984H78.9766Z" fill="#2E7DD7" stroke="#17457A"/>
<path d="M172.931 59.1509C169.935 57.7893 167.484 61.1178 167.484 61.1178L164.488 92.103C168.633 90.9666 170.955 90.4811 172.931 87.5339L176.471 62.6912C176.494 60.3949 175.926 60.5126 172.931 59.1509Z" fill="white"/>
<path d="M167.484 61.1178L167.081 60.8213L167 60.9324L166.986 61.0697L167.484 61.1178ZM172.931 59.1509L172.724 59.6061L172.931 59.1509ZM176.471 62.6912L176.966 62.7618L176.97 62.7292L176.971 62.6963L176.471 62.6912ZM172.931 87.5339L173.346 87.8123L173.409 87.7174L173.426 87.6044L172.931 87.5339ZM164.488 92.103L163.991 92.0549L163.921 92.7771L164.621 92.5852L164.488 92.103ZM167.484 61.1178C167.887 61.4142 167.886 61.4144 167.886 61.4145C167.886 61.4145 167.886 61.4147 167.886 61.4147C167.886 61.4148 167.886 61.4149 167.886 61.4149C167.886 61.4149 167.886 61.4147 167.886 61.4143C167.887 61.4136 167.888 61.412 167.89 61.4098C167.893 61.4052 167.899 61.3977 167.907 61.3875C167.923 61.367 167.948 61.3358 167.981 61.2955C168.047 61.215 168.147 61.0993 168.276 60.9636C168.535 60.6908 168.908 60.3439 169.362 60.039C170.275 59.4268 171.447 59.026 172.724 59.6061L173.137 58.6957C171.418 57.9142 169.867 58.4968 168.805 59.2084C168.273 59.5655 167.845 59.9656 167.551 60.2744C167.404 60.4294 167.289 60.5631 167.209 60.6593C167.17 60.7074 167.139 60.7463 167.117 60.774C167.107 60.7878 167.098 60.7988 167.092 60.8068C167.089 60.8108 167.087 60.814 167.085 60.8164C167.084 60.8176 167.083 60.8187 167.083 60.8195C167.082 60.8199 167.082 60.8202 167.082 60.8205C167.082 60.8207 167.082 60.8209 167.082 60.821C167.081 60.8211 167.081 60.8213 167.484 61.1178ZM172.724 59.6061C173.102 59.7781 173.442 59.9265 173.744 60.0582C174.048 60.1907 174.311 60.3046 174.543 60.4105C175.015 60.6258 175.312 60.7874 175.513 60.9547C175.694 61.1055 175.8 61.2638 175.868 61.5003C175.944 61.76 175.977 62.1224 175.971 62.6862L176.971 62.6963C176.977 62.1119 176.947 61.6279 176.829 61.2213C176.704 60.7914 176.485 60.4635 176.153 60.1864C175.84 59.9259 175.435 59.7181 174.958 59.5007C174.716 59.3903 174.444 59.2721 174.143 59.1414C173.842 59.01 173.508 58.8642 173.137 58.6957L172.724 59.6061ZM175.976 62.6207L172.436 87.4634L173.426 87.6044L176.966 62.7618L175.976 62.6207ZM172.515 87.2555C170.661 90.0214 168.542 90.4729 164.356 91.6208L164.621 92.5852C168.723 91.4603 171.249 90.9408 173.346 87.8123L172.515 87.2555ZM164.986 92.1511L167.982 61.1659L166.986 61.0697L163.991 92.0549L164.986 92.1511Z" fill="#2161AA"/>
<path d="M80.3381 59.4279C82.6218 58.0685 85.5124 59.4279 85.5124 59.4279L89.0527 91.2907C86.9643 90.6323 85.2527 91.8808 81.7411 88.3546L76.5254 66.2362C76.2642 62.8803 78.0543 60.7874 80.3381 59.4279Z" fill="white"/>
<path d="M85.5124 59.4279L86.0093 59.3727L85.9784 59.0946L85.7252 58.9755L85.5124 59.4279ZM80.3381 59.4279L80.0823 58.9983L80.3381 59.4279ZM76.5254 66.2362L76.0269 66.275L76.0299 66.3135L76.0387 66.351L76.5254 66.2362ZM81.7411 88.3546L81.2544 88.4694L81.2869 88.6071L81.3868 88.7074L81.7411 88.3546ZM89.0527 91.2907L88.9023 91.7675L89.6344 91.9983L89.5496 91.2355L89.0527 91.2907ZM85.5124 59.4279C85.7252 58.9755 85.725 58.9754 85.7248 58.9753C85.7247 58.9753 85.7246 58.9752 85.7244 58.9751C85.7241 58.975 85.7238 58.9748 85.7234 58.9747C85.7226 58.9743 85.7217 58.9739 85.7206 58.9734C85.7183 58.9723 85.7154 58.971 85.7118 58.9693C85.7045 58.966 85.6945 58.9615 85.6818 58.9558C85.6565 58.9446 85.6205 58.929 85.5747 58.9101C85.4832 58.8723 85.3522 58.8209 85.1887 58.7643C84.8624 58.6513 84.4023 58.5157 83.8647 58.4251C82.7999 58.2456 81.3684 58.2327 80.0823 58.9983L80.5938 59.8576C81.5914 59.2637 82.7471 59.2508 83.6985 59.4112C84.169 59.4905 84.5743 59.6098 84.8614 59.7092C85.0045 59.7588 85.1172 59.8031 85.1927 59.8343C85.2304 59.8498 85.2587 59.8621 85.2768 59.8702C85.2859 59.8742 85.2924 59.8771 85.2962 59.8789C85.2981 59.8797 85.2994 59.8803 85.2999 59.8806C85.3002 59.8807 85.3003 59.8808 85.3003 59.8807C85.3002 59.8807 85.3002 59.8807 85.3 59.8806C85.3 59.8806 85.2999 59.8805 85.2998 59.8805C85.2997 59.8805 85.2996 59.8804 85.5124 59.4279ZM80.0823 58.9983C77.6953 60.4192 75.7462 62.6685 76.0269 66.275L77.0239 66.1974C76.7822 63.0921 78.4133 61.1556 80.5938 59.8576L80.0823 58.9983ZM76.0387 66.351L81.2544 88.4694L82.2277 88.2398L77.0121 66.1215L76.0387 66.351ZM81.3868 88.7074C83.1989 90.5271 84.5922 91.1564 85.8387 91.3895C86.4416 91.5023 87.0019 91.5196 87.493 91.5491C87.9946 91.5793 88.4418 91.6224 88.9023 91.7675L89.203 90.8138C88.6193 90.6298 88.0694 90.582 87.553 90.5509C87.026 90.5192 86.5474 90.5048 86.0225 90.4066C85.0132 90.2178 83.7948 89.7083 82.0954 88.0018L81.3868 88.7074ZM89.5496 91.2355L86.0093 59.3727L85.0154 59.4832L88.5557 91.3459L89.5496 91.2355Z" fill="#2161AA"/>
<path d="M65.4556 153.271C69.6094 161.717 77.7886 168.32 87.9832 172.914C98.183 177.511 110.444 180.117 122.838 180.545C147.583 181.398 173.087 173.559 183.712 155.207L182.846 154.706C172.502 172.574 147.488 180.394 122.873 179.545C110.587 179.122 98.4574 176.537 88.3941 172.002C78.3255 167.465 70.3691 160.996 66.353 152.83L65.4556 153.271Z" fill="#2161AA"/>
<path d="M124.187 197.165V288.13" stroke="#2161AA"/>
</g>
<defs>
<clipPath id="clip0_98_503">
<rect width="250" height="202" fill="white"/>
</clipPath>
</defs>
</svg>
