<svg width="336" height="204" viewBox="0 0 336 204" fill="none" xmlns="http://www.w3.org/2000/svg">
<path d="M296.838 83.251H25.7228V168.803H296.838V83.251Z" fill="white"/>
<path d="M296.838 169.301H25.7227C25.5908 169.301 25.4642 169.248 25.3709 169.155C25.2776 169.062 25.2252 168.935 25.2252 168.803V83.2309C25.2252 83.099 25.2776 82.9724 25.3709 82.8791C25.4642 82.7858 25.5908 82.7334 25.7227 82.7334H296.838C296.97 82.7334 297.096 82.7858 297.19 82.8791C297.283 82.9724 297.335 83.099 297.335 83.2309V168.803C297.335 168.935 297.283 169.062 297.19 169.155C297.096 169.248 296.97 169.301 296.838 169.301ZM26.1904 168.306H296.34V83.7284H26.2202L26.1904 168.306Z" fill="#374151"/>
<path d="M161.644 5.19043L26.4392 83.2503H296.838L161.644 5.19043Z" fill="#97BEEB"/>
<path d="M296.838 83.7482H26.4392C26.3306 83.7471 26.2254 83.7105 26.1396 83.644C26.0537 83.5775 25.992 83.4848 25.9638 83.3799C25.9356 83.275 25.9425 83.1638 25.9835 83.0633C26.0244 82.9627 26.0971 82.8783 26.1905 82.8229L161.395 4.76294C161.47 4.71928 161.556 4.69629 161.644 4.69629C161.731 4.69629 161.817 4.71928 161.892 4.76294L297.087 82.8328C297.184 82.8851 297.26 82.9686 297.303 83.0698C297.347 83.171 297.354 83.2838 297.325 83.39C297.295 83.495 297.231 83.587 297.142 83.6518C297.054 83.7165 296.947 83.7504 296.838 83.7482V83.7482ZM28.2999 82.7532H294.967L161.634 5.76793L28.2999 82.7532Z" fill="#374151"/>
<path d="M216.221 76.2959H149.126V168.804H216.221V76.2959Z" fill="white"/>
<path d="M216.221 169.301H149.126C148.994 169.301 148.868 169.249 148.774 169.155C148.681 169.062 148.629 168.936 148.629 168.804V76.2661C148.629 76.1341 148.681 76.0076 148.774 75.9143C148.868 75.821 148.994 75.7686 149.126 75.7686H216.221C216.352 75.7711 216.477 75.8243 216.57 75.9171C216.662 76.0099 216.716 76.1349 216.718 76.2661V168.804C216.718 168.936 216.666 169.062 216.573 169.155C216.479 169.249 216.353 169.301 216.221 169.301ZM149.624 168.306H215.683V76.7636H149.624V168.306Z" fill="#374151"/>
<path d="M216.221 76.2959H149.126V80.2263H216.221V76.2959Z" fill="#374151"/>
<path d="M216.221 80.733H149.126C148.994 80.733 148.868 80.6805 148.774 80.5872C148.681 80.4939 148.629 80.3674 148.629 80.2354V76.2553C148.629 76.1234 148.681 75.9968 148.774 75.9035C148.868 75.8102 148.994 75.7578 149.126 75.7578H216.221C216.352 75.7604 216.477 75.8136 216.57 75.9063C216.662 75.9991 216.716 76.1242 216.718 76.2553V80.2354C216.716 80.3666 216.662 80.4917 216.57 80.5844C216.477 80.6772 216.352 80.7304 216.221 80.733V80.733ZM149.624 79.7379H215.683V76.7528H149.624V79.7379Z" fill="#374151"/>
<path d="M199.425 168.803H165.932V110.982C165.931 108.782 166.363 106.603 167.204 104.57C168.045 102.537 169.278 100.69 170.833 99.134C172.389 97.5779 174.235 96.3435 176.268 95.5013C178.3 94.6591 180.478 94.2256 182.678 94.2256V94.2256C187.122 94.2256 191.384 95.991 194.527 99.1334C197.669 102.276 199.435 106.538 199.435 110.982L199.425 168.803Z" fill="#374151"/>
<path d="M199.425 169.3H165.932C165.8 169.3 165.674 169.248 165.58 169.154C165.487 169.061 165.435 168.935 165.435 168.803V110.982C165.379 108.682 165.785 106.394 166.627 104.253C167.469 102.112 168.73 100.161 170.337 98.5144C171.945 96.8681 173.865 95.5599 175.985 94.6668C178.105 93.7736 180.383 93.3135 182.683 93.3135C184.984 93.3135 187.261 93.7736 189.382 94.6668C191.502 95.5599 193.422 96.8681 195.029 98.5144C196.636 100.161 197.898 102.112 198.74 104.253C199.582 106.394 199.987 108.682 199.932 110.982V168.803C199.932 168.869 199.919 168.934 199.893 168.995C199.868 169.056 199.83 169.112 199.783 169.158C199.736 169.204 199.68 169.241 199.618 169.265C199.557 169.29 199.491 169.301 199.425 169.3ZM166.42 168.305H198.927V110.982C198.981 108.813 198.6 106.656 197.807 104.637C197.015 102.618 195.826 100.778 194.311 99.2258C192.797 97.6732 190.987 96.4394 188.988 95.597C186.989 94.7546 184.842 94.3206 182.673 94.3206C180.504 94.3206 178.357 94.7546 176.359 95.597C174.36 96.4394 172.55 97.6732 171.035 99.2258C169.521 100.778 168.332 102.618 167.539 104.637C166.747 106.656 166.366 108.813 166.42 110.982V168.305Z" fill="#374151"/>
<path d="M161.664 98.2354H6.26013V168.803H161.664V98.2354Z" fill="white"/>
<path d="M161.663 169.301H6.26009C6.12814 169.301 6.00159 169.248 5.90829 169.155C5.81499 169.062 5.76257 168.935 5.76257 168.803V98.2358C5.76257 98.1038 5.81499 97.9773 5.90829 97.884C6.00159 97.7907 6.12814 97.7383 6.26009 97.7383H161.663C161.795 97.7383 161.922 97.7907 162.015 97.884C162.109 97.9773 162.161 98.1038 162.161 98.2358V168.803C162.161 168.935 162.109 169.062 162.015 169.155C161.922 169.248 161.795 169.301 161.663 169.301ZM6.72775 168.306H161.166V98.7532H6.72775V168.306Z" fill="#374151"/>
<path d="M161.664 98.2354H6.26013V101.38H161.664V98.2354Z" fill="#374151"/>
<path d="M161.663 101.878H6.26009C6.12814 101.878 6.00159 101.825 5.90829 101.732C5.81499 101.639 5.76257 101.512 5.76257 101.38V98.2358C5.76257 98.1038 5.81499 97.9773 5.90829 97.884C6.00159 97.7907 6.12814 97.7383 6.26009 97.7383H161.663C161.795 97.7383 161.922 97.7907 162.015 97.884C162.109 97.9773 162.161 98.1038 162.161 98.2358V101.38C162.161 101.512 162.109 101.639 162.015 101.732C161.922 101.825 161.795 101.878 161.663 101.878ZM6.72775 100.883H161.166V98.7532H6.72775V100.883Z" fill="#374151"/>
<path d="M144.559 104.057H23.3546V168.803H144.559V104.057Z" fill="#97BEEB"/>
<path d="M144.559 169.301H23.3547C23.2227 169.301 23.0962 169.249 23.0029 169.155C22.9096 169.062 22.8572 168.935 22.8572 168.804V104.057C22.8572 103.925 22.9096 103.799 23.0029 103.705C23.0962 103.612 23.2227 103.56 23.3547 103.56H144.559C144.691 103.56 144.817 103.612 144.911 103.705C145.004 103.799 145.057 103.925 145.057 104.057V168.804C145.057 168.935 145.004 169.062 144.911 169.155C144.817 169.249 144.691 169.301 144.559 169.301ZM23.8522 168.306H144.042V104.555H23.8522V168.306Z" fill="#374151"/>
<path d="M83.9618 46.6035L1.48401 94.2255H166.44L83.9618 46.6035Z" fill="#97BEEB"/>
<path d="M166.44 94.7732H1.4839C1.37532 94.7721 1.27009 94.7355 1.18425 94.669C1.09842 94.6025 1.0367 94.5098 1.00851 94.4049C0.980323 94.3 0.987217 94.1888 1.02813 94.0883C1.06905 93.9877 1.14175 93.9033 1.23514 93.8479L83.713 46.2258C83.7886 46.1822 83.8744 46.1592 83.9617 46.1592C84.049 46.1592 84.1348 46.1822 84.2105 46.2258L166.688 93.7782C166.782 93.8336 166.854 93.918 166.895 94.0186C166.936 94.1192 166.943 94.2304 166.915 94.3353C166.887 94.4401 166.825 94.5329 166.739 94.5994C166.653 94.6659 166.548 94.7025 166.44 94.7036V94.7732ZM3.34459 93.7782H164.539L83.9418 47.2308L3.34459 93.7782Z" fill="#374151"/>
<path d="M166.43 94.2256H1.48401V98.2355H166.43V94.2256Z" fill="white"/>
<path d="M166.44 98.7535H1.48396C1.35202 98.7535 1.22547 98.701 1.13217 98.6077C1.03887 98.5144 0.98645 98.3879 0.98645 98.2559V94.2758C0.98645 94.1439 1.03887 94.0173 1.13217 93.924C1.22547 93.8307 1.35202 93.7783 1.48396 93.7783H166.44C166.572 93.7783 166.698 93.8307 166.791 93.924C166.885 94.0173 166.937 94.1439 166.937 94.2758V98.2559C166.937 98.3879 166.885 98.5144 166.791 98.6077C166.698 98.701 166.572 98.7535 166.44 98.7535ZM1.98148 97.7584H165.932V94.7733H1.98148V97.7584Z" fill="#374151"/>
<path d="M182.669 49.4502L139.962 74.107H225.385L182.669 49.4502Z" fill="#97BEEB"/>
<path d="M225.385 74.6042H139.962C139.851 74.6058 139.743 74.5705 139.655 74.5038C139.567 74.4371 139.503 74.3429 139.474 74.2361C139.445 74.1299 139.453 74.017 139.497 73.9158C139.54 73.8147 139.616 73.7312 139.713 73.6789L182.42 49.0022C182.497 48.9629 182.582 48.9424 182.668 48.9424C182.755 48.9424 182.84 48.9629 182.917 49.0022L225.634 73.6789C225.727 73.7343 225.8 73.8187 225.841 73.9193C225.882 74.0199 225.889 74.1311 225.86 74.2359C225.832 74.3408 225.77 74.4335 225.685 74.5C225.599 74.5665 225.494 74.6031 225.385 74.6042V74.6042ZM141.803 73.6092H223.514L182.668 49.9972L141.803 73.6092Z" fill="#374151"/>
<path d="M225.385 74.1064H139.962V78.0667H225.385V74.1064Z" fill="white"/>
<path d="M225.385 78.564H139.962C139.83 78.564 139.703 78.5116 139.61 78.4183C139.517 78.325 139.464 78.1984 139.464 78.0665V74.0864C139.464 73.9544 139.517 73.8279 139.61 73.7346C139.703 73.6413 139.83 73.5889 139.962 73.5889H225.385C225.517 73.5889 225.643 73.6413 225.737 73.7346C225.83 73.8279 225.882 73.9544 225.882 74.0864V78.0665C225.882 78.1984 225.83 78.325 225.737 78.4183C225.643 78.5116 225.517 78.564 225.385 78.564ZM140.459 77.569H224.887V74.5839H140.459V77.569Z" fill="#374151"/>
<path d="M37.5836 109.261H27.7726V119.072H37.5836V109.261Z" fill="white"/>
<path d="M37.5736 119.569H27.7627C27.6307 119.569 27.5042 119.516 27.4109 119.423C27.3176 119.33 27.2651 119.203 27.2651 119.071V109.26C27.2651 109.128 27.3176 109.002 27.4109 108.908C27.5042 108.815 27.6307 108.763 27.7627 108.763H37.5736C37.7056 108.763 37.8321 108.815 37.9254 108.908C38.0187 109.002 38.0711 109.128 38.0711 109.26V119.071C38.0711 119.203 38.0187 119.33 37.9254 119.423C37.8321 119.516 37.7056 119.569 37.5736 119.569ZM28.2602 118.574H37.0761V109.758H28.2602V118.574Z" fill="#374151"/>
<path d="M52.3099 109.261H42.4989V119.072H52.3099V109.261Z" fill="white"/>
<path d="M52.3099 119.569H42.5487C42.4167 119.569 42.2902 119.516 42.1969 119.423C42.1036 119.33 42.0511 119.203 42.0511 119.071V109.26C42.0511 109.128 42.1036 109.002 42.1969 108.908C42.2902 108.815 42.4167 108.763 42.5487 108.763H52.3596C52.4916 108.763 52.6181 108.815 52.7114 108.908C52.8047 109.002 52.8571 109.128 52.8571 109.26V119.071C52.8575 119.141 52.8432 119.21 52.8151 119.274C52.7871 119.338 52.7459 119.395 52.6943 119.442C52.6427 119.489 52.5818 119.524 52.5156 119.546C52.4494 119.568 52.3793 119.576 52.3099 119.569ZM42.9964 118.574H51.8124V109.758H42.9964V118.574Z" fill="#374151"/>
<path d="M67.0264 109.261H57.2155V119.072H67.0264V109.261Z" fill="white"/>
<path d="M67.0363 119.569H57.2154C57.0835 119.569 56.9569 119.516 56.8636 119.423C56.7703 119.33 56.7179 119.203 56.7179 119.071V109.26C56.7179 109.128 56.7703 109.002 56.8636 108.908C56.9569 108.815 57.0835 108.763 57.2154 108.763H67.0363C67.1683 108.763 67.2948 108.815 67.3881 108.908C67.4814 109.002 67.5338 109.128 67.5338 109.26V119.071C67.5338 119.203 67.4814 119.33 67.3881 119.423C67.2948 119.516 67.1683 119.569 67.0363 119.569ZM57.7129 118.574H66.5388V109.758H57.7129V118.574Z" fill="#374151"/>
<path d="M81.7527 109.261H71.9418V119.072H81.7527V109.261Z" fill="white"/>
<path d="M81.7628 119.569H71.9418C71.8099 119.569 71.6834 119.516 71.5901 119.423C71.4968 119.33 71.4443 119.203 71.4443 119.071V109.26C71.4443 109.128 71.4968 109.002 71.5901 108.908C71.6834 108.815 71.8099 108.763 71.9418 108.763H81.7628C81.8947 108.763 82.0213 108.815 82.1146 108.908C82.2079 109.002 82.2603 109.128 82.2603 109.26V119.071C82.2603 119.203 82.2079 119.33 82.1146 119.423C82.0213 119.516 81.8947 119.569 81.7628 119.569ZM72.4394 118.574H81.2653V109.758H72.3996L72.4394 118.574Z" fill="#374151"/>
<path d="M96.4792 109.261H86.6682V119.072H96.4792V109.261Z" fill="white"/>
<path d="M96.4793 119.569H86.6683C86.5363 119.569 86.4098 119.516 86.3165 119.423C86.2232 119.33 86.1708 119.203 86.1708 119.071V109.26C86.1708 109.128 86.2232 109.002 86.3165 108.908C86.4098 108.815 86.5363 108.763 86.6683 108.763H96.4793C96.6112 108.763 96.7378 108.815 96.8311 108.908C96.9244 109.002 96.9768 109.128 96.9768 109.26V119.071C96.9768 119.203 96.9244 119.33 96.8311 119.423C96.7378 119.516 96.6112 119.569 96.4793 119.569ZM87.1658 118.574H95.9817V109.758H87.1658V118.574Z" fill="#374151"/>
<path d="M111.196 109.261H101.385V119.072H111.196V109.261Z" fill="white"/>
<path d="M111.206 119.569H101.385C101.253 119.569 101.126 119.516 101.033 119.423C100.939 119.33 100.887 119.203 100.887 119.071V109.26C100.887 109.128 100.939 109.002 101.033 108.908C101.126 108.815 101.253 108.763 101.385 108.763H111.206C111.337 108.763 111.464 108.815 111.557 108.908C111.651 109.002 111.703 109.128 111.703 109.26V119.071C111.703 119.203 111.651 119.33 111.557 119.423C111.464 119.516 111.337 119.569 111.206 119.569ZM101.882 118.574H110.708V109.758H101.882V118.574Z" fill="#374151"/>
<path d="M125.922 109.261H116.111V119.072H125.922V109.261Z" fill="white"/>
<path d="M125.932 119.569H116.111C115.979 119.569 115.853 119.516 115.759 119.423C115.666 119.33 115.614 119.203 115.614 119.071V109.26C115.614 109.128 115.666 109.002 115.759 108.908C115.853 108.815 115.979 108.763 116.111 108.763H125.932C126.064 108.763 126.191 108.815 126.284 108.908C126.377 109.002 126.43 109.128 126.43 109.26V119.071C126.43 119.203 126.377 119.33 126.284 119.423C126.191 119.516 126.064 119.569 125.932 119.569ZM116.609 118.574H125.435V109.758H116.609V118.574Z" fill="#374151"/>
<path d="M140.648 109.261H130.838V119.072H140.648V109.261Z" fill="white"/>
<path d="M140.648 119.569H130.837C130.706 119.569 130.579 119.516 130.486 119.423C130.392 119.33 130.34 119.203 130.34 119.071V109.26C130.34 109.128 130.392 109.002 130.486 108.908C130.579 108.815 130.706 108.763 130.837 108.763H140.648C140.78 108.763 140.907 108.815 141 108.908C141.094 109.002 141.146 109.128 141.146 109.26V119.071C141.146 119.137 141.133 119.201 141.108 119.262C141.083 119.322 141.046 119.377 141 119.423C140.954 119.469 140.899 119.506 140.839 119.531C140.778 119.556 140.714 119.569 140.648 119.569ZM131.335 118.574H140.151V109.758H131.335V118.574Z" fill="#374151"/>
<path d="M37.5836 123.708H27.7726V133.519H37.5836V123.708Z" fill="white"/>
<path d="M37.5736 134.017H27.7627C27.6307 134.017 27.5042 133.965 27.4109 133.871C27.3176 133.778 27.2651 133.651 27.2651 133.519V123.708C27.2651 123.577 27.3176 123.45 27.4109 123.357C27.5042 123.263 27.6307 123.211 27.7627 123.211H37.5736C37.7056 123.211 37.8321 123.263 37.9254 123.357C38.0187 123.45 38.0711 123.577 38.0711 123.708V133.519C38.0711 133.651 38.0187 133.778 37.9254 133.871C37.8321 133.965 37.7056 134.017 37.5736 134.017ZM28.2602 133.022H37.0761V124.206H28.2602V133.022Z" fill="#374151"/>
<path d="M52.3099 123.708H42.4989V133.519H52.3099V123.708Z" fill="white"/>
<path d="M52.3099 134.017H42.5487C42.4167 134.017 42.2902 133.965 42.1969 133.871C42.1036 133.778 42.0511 133.651 42.0511 133.519V123.708C42.0511 123.577 42.1036 123.45 42.1969 123.357C42.2902 123.263 42.4167 123.211 42.5487 123.211H52.3596C52.4916 123.211 52.6181 123.263 52.7114 123.357C52.8047 123.45 52.8571 123.577 52.8571 123.708V133.519C52.8575 133.589 52.8432 133.658 52.8151 133.722C52.7871 133.786 52.7459 133.843 52.6943 133.89C52.6427 133.937 52.5818 133.972 52.5156 133.994C52.4494 134.016 52.3793 134.024 52.3099 134.017ZM42.9964 133.022H51.8124V124.206H42.9964V133.022Z" fill="#374151"/>
<path d="M67.0264 123.708H57.2155V133.519H67.0264V123.708Z" fill="white"/>
<path d="M67.0363 134.017H57.2154C57.0835 134.017 56.9569 133.965 56.8636 133.871C56.7703 133.778 56.7179 133.651 56.7179 133.519V123.708C56.7179 123.577 56.7703 123.45 56.8636 123.357C56.9569 123.263 57.0835 123.211 57.2154 123.211H67.0363C67.1683 123.211 67.2948 123.263 67.3881 123.357C67.4814 123.45 67.5338 123.577 67.5338 123.708V133.519C67.5338 133.651 67.4814 133.778 67.3881 133.871C67.2948 133.965 67.1683 134.017 67.0363 134.017ZM57.7129 133.022H66.5388V124.206H57.7129V133.022Z" fill="#374151"/>
<path d="M81.7527 123.708H71.9418V133.519H81.7527V123.708Z" fill="white"/>
<path d="M81.7628 134.017H71.9418C71.8099 134.017 71.6834 133.965 71.5901 133.871C71.4968 133.778 71.4443 133.651 71.4443 133.519V123.708C71.4443 123.577 71.4968 123.45 71.5901 123.357C71.6834 123.263 71.8099 123.211 71.9418 123.211H81.7628C81.8947 123.211 82.0213 123.263 82.1146 123.357C82.2079 123.45 82.2603 123.577 82.2603 123.708V133.519C82.2603 133.651 82.2079 133.778 82.1146 133.871C82.0213 133.965 81.8947 134.017 81.7628 134.017ZM72.4394 133.022H81.2653V124.206H72.3996L72.4394 133.022Z" fill="#374151"/>
<path d="M96.4792 123.708H86.6682V133.519H96.4792V123.708Z" fill="white"/>
<path d="M96.4793 134.017H86.6683C86.5363 134.017 86.4098 133.965 86.3165 133.871C86.2232 133.778 86.1708 133.651 86.1708 133.519V123.708C86.1708 123.577 86.2232 123.45 86.3165 123.357C86.4098 123.263 86.5363 123.211 86.6683 123.211H96.4793C96.6112 123.211 96.7378 123.263 96.8311 123.357C96.9244 123.45 96.9768 123.577 96.9768 123.708V133.519C96.9768 133.651 96.9244 133.778 96.8311 133.871C96.7378 133.965 96.6112 134.017 96.4793 134.017ZM87.1658 133.022H95.9817V124.206H87.1658V133.022Z" fill="#374151"/>
<path d="M111.196 123.708H101.385V133.519H111.196V123.708Z" fill="white"/>
<path d="M111.206 134.017H101.385C101.253 134.017 101.126 133.965 101.033 133.871C100.939 133.778 100.887 133.651 100.887 133.519V123.708C100.887 123.577 100.939 123.45 101.033 123.357C101.126 123.263 101.253 123.211 101.385 123.211H111.206C111.337 123.211 111.464 123.263 111.557 123.357C111.651 123.45 111.703 123.577 111.703 123.708V133.519C111.703 133.651 111.651 133.778 111.557 133.871C111.464 133.965 111.337 134.017 111.206 134.017ZM101.882 133.022H110.708V124.206H101.882V133.022Z" fill="#374151"/>
<path d="M125.922 123.708H116.111V133.519H125.922V123.708Z" fill="white"/>
<path d="M125.932 134.017H116.111C115.979 134.017 115.853 133.965 115.759 133.871C115.666 133.778 115.614 133.651 115.614 133.519V123.708C115.614 123.577 115.666 123.45 115.759 123.357C115.853 123.263 115.979 123.211 116.111 123.211H125.932C126.064 123.211 126.191 123.263 126.284 123.357C126.377 123.45 126.43 123.577 126.43 123.708V133.519C126.43 133.651 126.377 133.778 126.284 133.871C126.191 133.965 126.064 134.017 125.932 134.017ZM116.609 133.022H125.435V124.206H116.609V133.022Z" fill="#374151"/>
<path d="M140.648 123.708H130.838V133.519H140.648V123.708Z" fill="white"/>
<path d="M140.648 134.017H130.837C130.706 134.017 130.579 133.965 130.486 133.871C130.392 133.778 130.34 133.651 130.34 133.519V123.708C130.34 123.577 130.392 123.45 130.486 123.357C130.579 123.263 130.706 123.211 130.837 123.211H140.648C140.78 123.211 140.907 123.263 141 123.357C141.094 123.45 141.146 123.577 141.146 123.708V133.519C141.146 133.585 141.133 133.649 141.108 133.71C141.083 133.77 141.046 133.825 141 133.871C140.954 133.917 140.899 133.954 140.839 133.979C140.778 134.004 140.714 134.017 140.648 134.017ZM131.335 133.022H140.151V124.206H131.335V133.022Z" fill="#374151"/>
<path d="M37.5836 138.146H27.7726V147.957H37.5836V138.146Z" fill="white"/>
<path d="M37.5736 148.504H27.7627C27.6307 148.504 27.5042 148.452 27.4109 148.359C27.3176 148.265 27.2651 148.139 27.2651 148.007V138.186C27.2651 138.054 27.3176 137.928 27.4109 137.834C27.5042 137.741 27.6307 137.688 27.7627 137.688H37.5736C37.7056 137.688 37.8321 137.741 37.9254 137.834C38.0187 137.928 38.0711 138.054 38.0711 138.186V148.007C38.0711 148.139 38.0187 148.265 37.9254 148.359C37.8321 148.452 37.7056 148.504 37.5736 148.504ZM28.2602 147.509H37.0761V138.684H28.2602V147.509Z" fill="#374151"/>
<path d="M52.3099 138.146H42.4989V147.957H52.3099V138.146Z" fill="white"/>
<path d="M52.3099 148.504H42.5487C42.4167 148.504 42.2902 148.452 42.1969 148.359C42.1036 148.265 42.0511 148.139 42.0511 148.007V138.186C42.0511 138.054 42.1036 137.928 42.1969 137.834C42.2902 137.741 42.4167 137.688 42.5487 137.688H52.3596C52.4916 137.688 52.6181 137.741 52.7114 137.834C52.8047 137.928 52.8571 138.054 52.8571 138.186V148.007C52.8575 148.077 52.8432 148.146 52.8151 148.21C52.7871 148.273 52.7459 148.331 52.6943 148.378C52.6427 148.424 52.5818 148.46 52.5156 148.482C52.4494 148.504 52.3793 148.511 52.3099 148.504ZM42.9964 147.509H51.8124V138.684H42.9964V147.509Z" fill="#374151"/>
<path d="M67.0264 138.146H57.2155V147.957H67.0264V138.146Z" fill="white"/>
<path d="M67.0363 148.504H57.2154C57.0843 148.502 56.9592 148.449 56.8664 148.356C56.7737 148.263 56.7204 148.138 56.7179 148.007V138.186C56.7179 138.054 56.7703 137.928 56.8636 137.834C56.9569 137.741 57.0835 137.688 57.2154 137.688H67.0363C67.1683 137.688 67.2948 137.741 67.3881 137.834C67.4814 137.928 67.5338 138.054 67.5338 138.186V148.007C67.5338 148.139 67.4814 148.265 67.3881 148.359C67.2948 148.452 67.1683 148.504 67.0363 148.504ZM57.7129 147.509H66.5388V138.684H57.7129V147.509Z" fill="#374151"/>
<path d="M81.7527 138.146H71.9418V147.957H81.7527V138.146Z" fill="white"/>
<path d="M81.7628 148.504H71.9418C71.8099 148.504 71.6834 148.452 71.5901 148.359C71.4968 148.265 71.4443 148.139 71.4443 148.007V138.186C71.4443 138.054 71.4968 137.928 71.5901 137.834C71.6834 137.741 71.8099 137.688 71.9418 137.688H81.7628C81.8947 137.688 82.0213 137.741 82.1146 137.834C82.2079 137.928 82.2603 138.054 82.2603 138.186V148.007C82.2577 148.138 82.2045 148.263 82.1118 148.356C82.019 148.449 81.8939 148.502 81.7628 148.504ZM72.3996 147.509H81.2255V138.684H72.3996V147.509Z" fill="#374151"/>
<path d="M96.4792 138.146H86.6682V147.957H96.4792V138.146Z" fill="white"/>
<path d="M96.4793 148.504H86.6683C86.5363 148.504 86.4098 148.452 86.3165 148.359C86.2232 148.265 86.1708 148.139 86.1708 148.007V138.186C86.1708 138.054 86.2232 137.928 86.3165 137.834C86.4098 137.741 86.5363 137.688 86.6683 137.688H96.4793C96.6112 137.688 96.7378 137.741 96.8311 137.834C96.9244 137.928 96.9768 138.054 96.9768 138.186V148.007C96.9768 148.139 96.9244 148.265 96.8311 148.359C96.7378 148.452 96.6112 148.504 96.4793 148.504ZM87.1658 147.509H95.9817V138.684H87.1658V147.509Z" fill="#374151"/>
<path d="M111.196 138.146H101.385V147.957H111.196V138.146Z" fill="white"/>
<path d="M111.206 148.504H101.385C101.253 148.502 101.128 148.449 101.036 148.356C100.943 148.263 100.89 148.138 100.887 148.007V138.186C100.887 138.054 100.939 137.928 101.033 137.834C101.126 137.741 101.253 137.688 101.385 137.688H111.206C111.337 137.688 111.464 137.741 111.557 137.834C111.651 137.928 111.703 138.054 111.703 138.186V148.007C111.703 148.139 111.651 148.265 111.557 148.359C111.464 148.452 111.337 148.504 111.206 148.504ZM101.882 147.509H110.708V138.684H101.882V147.509Z" fill="#374151"/>
<path d="M125.922 138.146H116.111V147.957H125.922V138.146Z" fill="white"/>
<path d="M125.932 148.504H116.111C115.98 148.502 115.855 148.449 115.762 148.356C115.669 148.263 115.616 148.138 115.614 148.007V138.186C115.614 138.054 115.666 137.928 115.759 137.834C115.853 137.741 115.979 137.688 116.111 137.688H125.932C126.064 137.688 126.191 137.741 126.284 137.834C126.377 137.928 126.43 138.054 126.43 138.186V148.007C126.427 148.138 126.374 148.263 126.281 148.356C126.188 148.449 126.063 148.502 125.932 148.504ZM116.609 147.509H125.435V138.684H116.609V147.509Z" fill="#374151"/>
<path d="M140.648 138.146H130.838V147.957H140.648V138.146Z" fill="white"/>
<path d="M140.648 148.504H130.837C130.706 148.504 130.579 148.452 130.486 148.359C130.392 148.265 130.34 148.139 130.34 148.007V138.186C130.34 138.054 130.392 137.928 130.486 137.834C130.579 137.741 130.706 137.688 130.837 137.688H140.648C140.78 137.688 140.907 137.741 141 137.834C141.094 137.928 141.146 138.054 141.146 138.186V148.007C141.146 148.072 141.133 148.137 141.108 148.197C141.083 148.258 141.046 148.312 141 148.359C140.954 148.405 140.899 148.442 140.839 148.467C140.778 148.492 140.714 148.504 140.648 148.504ZM131.335 147.509H140.151V138.684H131.335V147.509Z" fill="#374151"/>
<path d="M37.5836 152.595H27.7726V162.406H37.5836V152.595Z" fill="white"/>
<path d="M37.5736 162.903H27.7627C27.6307 162.903 27.5042 162.85 27.4109 162.757C27.3176 162.664 27.2651 162.537 27.2651 162.405V152.594C27.2651 152.462 27.3176 152.336 27.4109 152.242C27.5042 152.149 27.6307 152.097 27.7627 152.097H37.5736C37.7056 152.097 37.8321 152.149 37.9254 152.242C38.0187 152.336 38.0711 152.462 38.0711 152.594V162.435C38.0635 162.562 38.0078 162.681 37.9153 162.768C37.8228 162.855 37.7006 162.903 37.5736 162.903ZM28.2602 161.908H37.0761V153.092H28.2602V161.908Z" fill="#374151"/>
<path d="M52.3099 152.595H42.4989V162.406H52.3099V152.595Z" fill="white"/>
<path d="M52.3099 162.903H42.5487C42.4167 162.903 42.2902 162.85 42.1969 162.757C42.1036 162.664 42.0511 162.537 42.0511 162.405V152.594C42.0511 152.462 42.1036 152.336 42.1969 152.242C42.2902 152.149 42.4167 152.097 42.5487 152.097H52.3596C52.4916 152.097 52.6181 152.149 52.7114 152.242C52.8047 152.336 52.8571 152.462 52.8571 152.594V162.435C52.8535 162.502 52.8362 162.568 52.8063 162.628C52.7765 162.689 52.7348 162.742 52.6836 162.786C52.6324 162.83 52.5729 162.863 52.5087 162.883C52.4445 162.903 52.3768 162.91 52.3099 162.903V162.903ZM42.9964 161.908H51.8124V153.092H42.9964V161.908Z" fill="#374151"/>
<path d="M67.0264 152.595H57.2155V162.406H67.0264V152.595Z" fill="white"/>
<path d="M67.0363 162.903H57.2154C57.0835 162.903 56.9569 162.85 56.8636 162.757C56.7703 162.664 56.7179 162.537 56.7179 162.405V152.594C56.7179 152.462 56.7703 152.336 56.8636 152.242C56.9569 152.149 57.0835 152.097 57.2154 152.097H67.0363C67.1683 152.097 67.2948 152.149 67.3881 152.242C67.4814 152.336 67.5338 152.462 67.5338 152.594V162.435C67.5262 162.562 67.4705 162.681 67.378 162.768C67.2855 162.855 67.1633 162.903 67.0363 162.903ZM57.7129 161.908H66.5388V153.092H57.7129V161.908Z" fill="#374151"/>
<path d="M81.7527 152.595H71.9418V162.406H81.7527V152.595Z" fill="white"/>
<path d="M81.7628 162.903H71.9418C71.8099 162.903 71.6834 162.85 71.5901 162.757C71.4968 162.664 71.4443 162.537 71.4443 162.405V152.594C71.4443 152.462 71.4968 152.336 71.5901 152.242C71.6834 152.149 71.8099 152.097 71.9418 152.097H81.7628C81.8947 152.097 82.0213 152.149 82.1146 152.242C82.2079 152.336 82.2603 152.462 82.2603 152.594V162.435C82.2527 162.562 82.1969 162.681 82.1044 162.768C82.0119 162.855 81.8897 162.903 81.7628 162.903ZM72.4394 161.908H81.2653V153.092H72.3996L72.4394 161.908Z" fill="#374151"/>
<path d="M96.4792 152.595H86.6682V162.406H96.4792V152.595Z" fill="white"/>
<path d="M96.4793 162.903H86.6683C86.5363 162.903 86.4098 162.85 86.3165 162.757C86.2232 162.664 86.1708 162.537 86.1708 162.405V152.594C86.1708 152.462 86.2232 152.336 86.3165 152.242C86.4098 152.149 86.5363 152.097 86.6683 152.097H96.4793C96.6112 152.097 96.7378 152.149 96.8311 152.242C96.9244 152.336 96.9768 152.462 96.9768 152.594V162.435C96.9692 162.562 96.9134 162.681 96.8209 162.768C96.7284 162.855 96.6062 162.903 96.4793 162.903ZM87.1658 161.908H95.9817V153.092H87.1658V161.908Z" fill="#374151"/>
<path d="M111.196 152.595H101.385V162.406H111.196V152.595Z" fill="white"/>
<path d="M111.206 162.903H101.385C101.253 162.903 101.126 162.85 101.033 162.757C100.939 162.664 100.887 162.537 100.887 162.405V152.594C100.887 152.462 100.939 152.336 101.033 152.242C101.126 152.149 101.253 152.097 101.385 152.097H111.206C111.337 152.097 111.464 152.149 111.557 152.242C111.651 152.336 111.703 152.462 111.703 152.594V162.435C111.695 162.562 111.64 162.681 111.547 162.768C111.455 162.855 111.332 162.903 111.206 162.903ZM101.882 161.908H110.708V153.092H101.882V161.908Z" fill="#374151"/>
<path d="M125.922 152.595H116.111V162.406H125.922V152.595Z" fill="white"/>
<path d="M125.932 162.903H116.111C115.979 162.903 115.853 162.85 115.759 162.757C115.666 162.664 115.614 162.537 115.614 162.405V152.594C115.614 152.462 115.666 152.336 115.759 152.242C115.853 152.149 115.979 152.097 116.111 152.097H125.932C126.064 152.097 126.191 152.149 126.284 152.242C126.377 152.336 126.43 152.462 126.43 152.594V162.435C126.422 162.562 126.366 162.681 126.274 162.768C126.181 162.855 126.059 162.903 125.932 162.903ZM116.609 161.908H125.435V153.092H116.609V161.908Z" fill="#374151"/>
<path d="M140.648 152.595H130.838V162.406H140.648V152.595Z" fill="white"/>
<path d="M140.648 162.903H130.837C130.706 162.903 130.579 162.85 130.486 162.757C130.392 162.664 130.34 162.537 130.34 162.405V152.594C130.34 152.462 130.392 152.336 130.486 152.242C130.579 152.149 130.706 152.097 130.837 152.097H140.648C140.78 152.097 140.907 152.149 141 152.242C141.094 152.336 141.146 152.462 141.146 152.594V162.435C141.138 162.562 141.083 162.681 140.99 162.768C140.898 162.855 140.775 162.903 140.648 162.903ZM131.335 161.908H140.151V153.092H131.335V161.908Z" fill="#374151"/>
<path d="M172.678 169.301C172.546 169.301 172.42 169.248 172.327 169.155C172.233 169.062 172.181 168.935 172.181 168.803V158.535C172.181 158.403 172.233 158.276 172.327 158.183C172.42 158.09 172.546 158.037 172.678 158.037C172.81 158.037 172.937 158.09 173.03 158.183C173.124 158.276 173.176 158.403 173.176 158.535V168.803C173.176 168.935 173.124 169.062 173.03 169.155C172.937 169.248 172.81 169.301 172.678 169.301Z" fill="white"/>
<path d="M190.718 168.803V114.166H172.678V154.007" fill="#374151"/>
<path d="M190.718 169.301C190.586 169.301 190.46 169.249 190.366 169.155C190.273 169.062 190.221 168.935 190.221 168.803V114.674H173.176V154.017C173.176 154.149 173.124 154.276 173.03 154.369C172.937 154.462 172.81 154.515 172.678 154.515C172.546 154.515 172.42 154.462 172.327 154.369C172.233 154.276 172.181 154.149 172.181 154.017V114.216C172.183 114.085 172.237 113.96 172.329 113.867C172.422 113.775 172.547 113.721 172.678 113.719H190.718C190.849 113.721 190.974 113.775 191.067 113.867C191.16 113.96 191.213 114.085 191.216 114.216V168.803C191.216 168.935 191.163 169.062 191.07 169.155C190.977 169.249 190.85 169.301 190.718 169.301Z" fill="white"/>
<path d="M304.53 168.804H205.405V76.296L254.967 49.4502L304.53 76.296V168.804Z" fill="white"/>
<path d="M304.529 169.301H205.405C205.273 169.301 205.146 169.248 205.053 169.155C204.96 169.062 204.907 168.935 204.907 168.803V76.2656C204.908 76.1763 204.932 76.0888 204.978 76.012C205.023 75.9351 205.088 75.8716 205.166 75.8278L254.728 48.9621C254.802 48.9229 254.884 48.9023 254.967 48.9023C255.05 48.9023 255.132 48.9229 255.206 48.9621L304.768 75.8278C304.846 75.8716 304.911 75.9351 304.956 76.012C305.002 76.0888 305.026 76.1763 305.027 76.2656V168.803C305.027 168.935 304.975 169.062 304.881 169.155C304.788 169.248 304.661 169.301 304.529 169.301ZM205.902 168.306H304.032V76.594L254.967 49.9969L205.902 76.5741V168.306Z" fill="#374151"/>
<path d="M312.102 80.2363L254.967 49.281L197.833 80.2363L196.052 76.9527L254.967 45.0322L313.883 76.9527L312.102 80.2363Z" fill="white"/>
<path d="M312.102 80.733C312.021 80.7335 311.943 80.7129 311.873 80.6733L254.967 49.8275L198.062 80.6733C197.94 80.7183 197.806 80.7183 197.683 80.6733C197.559 80.631 197.455 80.5418 197.395 80.4246L195.614 77.1509C195.582 77.0935 195.562 77.0304 195.555 76.9652C195.548 76.9001 195.554 76.8341 195.573 76.7713C195.591 76.7084 195.622 76.6498 195.663 76.5988C195.704 76.5479 195.755 76.5056 195.813 76.4743L254.728 44.5538C254.802 44.5146 254.884 44.4941 254.967 44.4941C255.051 44.4941 255.133 44.5146 255.206 44.5538L314.122 76.4743C314.236 76.5397 314.322 76.6465 314.36 76.7728C314.409 76.8942 314.409 77.0296 314.36 77.1509L312.579 80.4246C312.541 80.5186 312.474 80.5986 312.389 80.6538C312.304 80.7089 312.203 80.7366 312.102 80.733V80.733ZM254.967 48.7827C255.05 48.7835 255.132 48.8039 255.206 48.8424L311.923 79.5589L313.226 77.1509L254.987 45.5986L196.778 77.1509L198.081 79.5589L254.798 48.8424C254.851 48.813 254.908 48.7928 254.967 48.7827V48.7827Z" fill="#374151"/>
<path d="M205.405 76.296V78.5448L254.967 51.699L304.53 78.5448V76.296L254.967 49.4502L205.405 76.296Z" fill="#374151"/>
<path d="M304.529 79.042C304.446 79.0412 304.364 79.0207 304.291 78.9823L254.967 52.2658L205.644 78.9823C205.57 79.0261 205.486 79.0492 205.4 79.0492C205.314 79.0492 205.23 79.0261 205.156 78.9823C205.079 78.9405 205.016 78.8785 204.972 78.8031C204.928 78.7276 204.906 78.6416 204.907 78.5544V76.3056C204.908 76.2164 204.932 76.1289 204.978 76.052C205.023 75.9751 205.088 75.9116 205.166 75.8678L254.728 49.0021C254.802 48.9629 254.884 48.9424 254.967 48.9424C255.05 48.9424 255.132 48.9629 255.206 49.0021L304.768 75.8678C304.846 75.9116 304.911 75.9751 304.956 76.052C305.002 76.1289 305.026 76.2164 305.027 76.3056V78.5544C305.027 78.6403 305.006 78.7248 304.964 78.7998C304.922 78.8747 304.861 78.9376 304.788 78.9823C304.709 79.0262 304.62 79.0469 304.529 79.042V79.042ZM254.967 51.1812C255.05 51.182 255.132 51.2024 255.206 51.2409L304.032 77.6887V76.5743L254.967 49.9971L205.902 76.5743V77.6887L254.728 51.2409C254.804 51.2093 254.886 51.1957 254.967 51.2011V51.1812Z" fill="#374151"/>
<path d="M233.286 98.763V89.0117H276.052V137.619" fill="white"/>
<path d="M276.052 138.117C275.92 138.117 275.793 138.065 275.7 137.971C275.607 137.878 275.554 137.751 275.554 137.619V89.5099H233.763V98.7537C233.763 98.8856 233.711 99.0122 233.617 99.1055C233.524 99.1988 233.398 99.2512 233.266 99.2512C233.134 99.2512 233.007 99.1988 232.914 99.1055C232.82 99.0122 232.768 98.8856 232.768 98.7537V89.0024C232.768 88.8704 232.82 88.7439 232.914 88.6506C233.007 88.5573 233.134 88.5049 233.266 88.5049H276.052C276.184 88.5049 276.31 88.5573 276.404 88.6506C276.497 88.7439 276.549 88.8704 276.549 89.0024V137.609C276.551 137.676 276.539 137.741 276.514 137.803C276.49 137.864 276.453 137.92 276.407 137.968C276.361 138.015 276.305 138.053 276.244 138.078C276.183 138.104 276.118 138.117 276.052 138.117Z" fill="#374151"/>
<path d="M276.052 142.644V152.216H233.286V102.475" fill="white"/>
<path d="M276.052 152.714H233.266C233.134 152.714 233.007 152.662 232.914 152.568C232.82 152.475 232.768 152.349 232.768 152.217V102.465C232.768 102.333 232.82 102.207 232.914 102.113C233.007 102.02 233.134 101.968 233.266 101.968C233.398 101.968 233.524 102.02 233.617 102.113C233.711 102.207 233.763 102.333 233.763 102.465V151.709H275.554V142.635C275.554 142.503 275.607 142.376 275.7 142.283C275.793 142.189 275.92 142.137 276.052 142.137C276.184 142.137 276.31 142.189 276.404 142.283C276.497 142.376 276.549 142.503 276.549 142.635V152.207C276.549 152.34 276.497 152.467 276.404 152.562C276.311 152.657 276.185 152.712 276.052 152.714V152.714Z" fill="#374151"/>
<path d="M273.206 108.007H256.569V119.569H273.206V108.007Z" fill="#374151"/>
<path d="M273.196 120.067H256.569C256.437 120.067 256.311 120.015 256.218 119.921C256.124 119.828 256.072 119.701 256.072 119.57V108.007C256.072 107.875 256.124 107.749 256.218 107.655C256.311 107.562 256.437 107.51 256.569 107.51H273.196C273.328 107.51 273.455 107.562 273.548 107.655C273.641 107.749 273.694 107.875 273.694 108.007V119.57C273.694 119.701 273.641 119.828 273.548 119.921C273.455 120.015 273.328 120.067 273.196 120.067ZM257.067 119.072H272.699V108.505H257.067V119.072Z" fill="#374151"/>
<path d="M273.206 123.37H256.569V134.932H273.206V123.37Z" fill="#374151"/>
<path d="M273.196 135.42H256.569C256.437 135.42 256.311 135.368 256.218 135.275C256.124 135.181 256.072 135.055 256.072 134.923V123.371C256.072 123.239 256.124 123.112 256.218 123.019C256.311 122.925 256.437 122.873 256.569 122.873H273.196C273.328 122.873 273.455 122.925 273.548 123.019C273.641 123.112 273.694 123.239 273.694 123.371V134.923C273.694 135.055 273.641 135.181 273.548 135.275C273.455 135.368 273.328 135.42 273.196 135.42ZM257.067 134.425H272.699V123.868H257.067V134.425Z" fill="#374151"/>
<path d="M273.206 91.8574H256.569V104.196H273.206V91.8574Z" fill="#374151"/>
<path d="M273.196 104.724H256.569C256.437 104.724 256.311 104.671 256.218 104.578C256.124 104.485 256.072 104.358 256.072 104.226V91.8579C256.072 91.7259 256.124 91.5994 256.218 91.5061C256.311 91.4128 256.437 91.3604 256.569 91.3604H273.196C273.328 91.3604 273.455 91.4128 273.548 91.5061C273.641 91.5994 273.694 91.7259 273.694 91.8579V104.206C273.696 104.273 273.685 104.34 273.662 104.403C273.638 104.465 273.602 104.523 273.555 104.571C273.509 104.619 273.453 104.658 273.391 104.684C273.33 104.71 273.263 104.724 273.196 104.724V104.724ZM257.067 103.729H272.699V92.3554H257.067V103.729Z" fill="#374151"/>
<path d="M252.768 91.8574H236.131V104.196H252.768V91.8574Z" fill="#374151"/>
<path d="M252.768 104.724H236.131C235.999 104.724 235.873 104.671 235.78 104.578C235.686 104.485 235.634 104.358 235.634 104.226V91.8579C235.634 91.7259 235.686 91.5994 235.78 91.5061C235.873 91.4128 235.999 91.3604 236.131 91.3604H252.768C252.899 91.3629 253.024 91.4161 253.117 91.5089C253.21 91.6016 253.263 91.7267 253.266 91.8579V104.206C253.267 104.273 253.255 104.339 253.231 104.401C253.207 104.463 253.17 104.52 253.124 104.568C253.078 104.616 253.023 104.654 252.962 104.681C252.901 104.708 252.835 104.722 252.768 104.724ZM236.629 103.729H252.271V92.3554H236.629V103.729Z" fill="#374151"/>
<path d="M252.768 123.37H236.131V134.932H252.768V123.37Z" fill="#374151"/>
<path d="M252.768 135.42H236.131C235.999 135.42 235.873 135.368 235.78 135.275C235.686 135.181 235.634 135.055 235.634 134.923V123.371C235.634 123.239 235.686 123.112 235.78 123.019C235.873 122.925 235.999 122.873 236.131 122.873H252.768C252.9 122.873 253.027 122.925 253.12 123.019C253.213 123.112 253.266 123.239 253.266 123.371V134.923C253.266 135.055 253.213 135.181 253.12 135.275C253.027 135.368 252.9 135.42 252.768 135.42ZM236.629 134.425H252.271V123.868H236.629V134.425Z" fill="#374151"/>
<path d="M252.768 108.007H236.131V119.569H252.768V108.007Z" fill="#374151"/>
<path d="M252.768 120.067H236.131C235.999 120.067 235.873 120.015 235.78 119.921C235.686 119.828 235.634 119.701 235.634 119.57V108.007C235.634 107.875 235.686 107.749 235.78 107.655C235.873 107.562 235.999 107.51 236.131 107.51H252.768C252.9 107.51 253.027 107.562 253.12 107.655C253.213 107.749 253.266 107.875 253.266 108.007V119.57C253.263 119.701 253.21 119.826 253.117 119.918C253.024 120.011 252.899 120.064 252.768 120.067ZM236.629 119.072H252.271V108.505H236.629V119.072Z" fill="#374151"/>
<path d="M273.206 138.724H256.569V149.36H273.206V138.724Z" fill="#374151"/>
<path d="M273.196 149.857H256.569C256.437 149.857 256.311 149.805 256.218 149.712C256.124 149.618 256.072 149.492 256.072 149.36V138.723C256.072 138.591 256.124 138.465 256.218 138.371C256.311 138.278 256.437 138.226 256.569 138.226H273.196C273.328 138.226 273.455 138.278 273.548 138.371C273.641 138.465 273.694 138.591 273.694 138.723V149.36C273.694 149.492 273.641 149.618 273.548 149.712C273.455 149.805 273.328 149.857 273.196 149.857ZM257.067 148.862H272.699V139.221H257.067V148.862Z" fill="#374151"/>
<path d="M252.768 138.724H236.131V149.36H252.768V138.724Z" fill="#374151"/>
<path d="M252.768 149.857H236.131C235.999 149.857 235.873 149.805 235.78 149.712C235.686 149.618 235.634 149.492 235.634 149.36V138.723C235.634 138.591 235.686 138.465 235.78 138.371C235.873 138.278 235.999 138.226 236.131 138.226H252.768C252.899 138.228 253.024 138.281 253.117 138.374C253.21 138.467 253.263 138.592 253.266 138.723V149.36C253.266 149.492 253.213 149.618 253.12 149.712C253.027 149.805 252.9 149.857 252.768 149.857ZM236.629 148.862H252.271V139.221H236.629V148.862Z" fill="#374151"/>
<path d="M168.362 36.9326C161.757 43.6124 157.281 52.1011 155.501 61.3249C153.72 70.5487 154.715 80.0932 158.36 88.7514C162.005 97.4095 168.135 104.792 175.976 109.966C183.817 115.14 193.016 117.872 202.41 117.817C211.804 117.762 220.971 114.922 228.751 109.657C236.53 104.392 242.574 96.9383 246.117 88.2381C249.661 79.5379 250.544 69.9824 248.656 60.78C246.768 51.5777 242.193 43.142 235.51 36.5398C226.553 27.6899 214.447 22.7598 201.855 22.8335C189.263 22.9071 177.215 27.9785 168.362 36.9326ZM229.237 97.1272C223.936 102.488 217.165 106.156 209.78 107.668C202.394 109.181 194.726 108.469 187.745 105.623C180.764 102.778 174.783 97.9257 170.56 91.6811C166.336 85.4365 164.059 78.0798 164.017 70.5411C163.974 63.0024 166.168 55.6205 170.321 49.3287C174.474 43.0369 180.4 38.1179 187.348 35.1937C194.297 32.2695 201.956 31.4714 209.358 32.9004C216.76 34.3294 223.573 37.9212 228.933 43.2217C232.493 46.7412 235.324 50.9274 237.266 55.5412C239.208 60.1549 240.221 65.106 240.25 70.1116C240.278 75.1172 239.32 80.0794 237.43 84.7147C235.541 89.3501 232.757 93.5678 229.237 97.1272Z" fill="white"/>
<path d="M235.96 104.165C231.528 108.621 226.261 112.161 220.461 114.582C214.66 117.003 208.44 118.258 202.154 118.275C189.46 118.309 177.272 113.3 168.272 104.348C159.272 95.3962 154.196 83.2357 154.162 70.5417C154.127 57.8477 159.137 45.66 168.089 36.6596L168.283 36.4659C177.234 27.4655 189.395 22.3899 202.089 22.3555C214.783 22.3212 226.97 27.3309 235.971 36.2826C244.971 45.2343 250.047 57.3947 250.081 70.0888C250.116 82.7828 245.106 94.9705 236.154 103.971L235.96 104.165ZM168.796 37L168.602 37.1938C164.239 41.5822 160.783 46.787 158.432 52.511C156.08 58.235 154.879 64.3662 154.897 70.5544C154.915 76.7425 156.152 82.8666 158.536 88.5768C160.921 94.2871 164.407 99.4717 168.796 103.835C173.184 108.198 178.389 111.654 184.113 114.005C189.837 116.357 195.968 117.558 202.156 117.54C214.654 117.503 226.625 112.504 235.437 103.641L235.63 103.447C244.443 94.5858 249.375 82.5864 249.341 70.0888C249.306 57.5912 244.309 45.6191 235.447 36.8062C226.586 27.9934 214.586 23.0617 202.089 23.0961C189.591 23.1305 177.619 28.1281 168.806 36.9895L168.796 37ZM229.331 97.5351C222.047 104.342 212.407 108.06 202.439 107.905C192.471 107.751 182.951 103.736 175.882 96.7064C168.813 89.6766 164.745 80.1793 164.535 70.2121C164.325 60.2448 167.988 50.5845 174.755 43.263L174.907 43.1111C182.19 36.3039 191.83 32.5866 201.798 32.7411C211.767 32.8957 221.287 36.91 228.356 43.9398C235.425 50.9696 239.492 60.4669 239.702 70.4341C239.913 80.4014 236.249 90.0617 229.483 97.3832L229.331 97.5351ZM228.959 96.8595C235.591 89.6778 239.18 80.2045 238.972 70.4313C238.763 60.6581 234.774 51.3464 227.842 44.4538C220.91 37.5612 211.576 33.6248 201.801 33.472C192.027 33.3193 182.574 36.9622 175.43 43.6348L175.279 43.7866C168.647 50.9684 165.058 60.4417 165.266 70.2149C165.474 79.9881 169.464 89.2998 176.396 96.1924C183.328 103.085 192.662 107.021 202.436 107.174C212.211 107.327 221.663 103.684 228.807 97.0114L228.959 96.8595Z" fill="#374151"/>
<path d="M166.429 35.0204C159.824 41.6998 155.349 50.1878 153.568 59.4109C151.788 68.634 152.782 78.1779 156.426 86.8358C160.07 95.4937 166.199 102.877 174.039 108.051C181.879 113.225 191.077 115.958 200.47 115.905C209.863 115.851 219.03 113.014 226.81 107.75C234.591 102.487 240.636 95.0351 244.181 86.3363C247.726 77.6375 248.611 68.0828 246.726 58.8806C244.841 49.6784 240.269 41.2419 233.588 34.6381C224.631 25.7837 212.524 20.8496 199.93 20.9213C187.335 20.993 175.285 26.0645 166.429 35.0204ZM227.299 95.2098C221.999 100.572 215.228 104.242 207.842 105.755C200.456 107.269 192.787 106.558 185.805 103.713C178.823 100.867 172.842 96.0154 168.618 89.7705C164.394 83.5257 162.116 76.1683 162.074 68.629C162.031 61.0897 164.226 53.7072 168.379 47.4151C172.533 41.123 178.459 36.204 185.408 33.2802C192.358 30.3564 200.018 29.5592 207.421 30.9893C214.823 32.4195 221.635 36.0128 226.996 41.3148C234.181 48.4223 238.25 58.0927 238.307 68.1994C238.364 78.3062 234.404 88.0218 227.299 95.2098Z" fill="white"/>
<path d="M234.033 102.258C225.064 111.176 212.921 116.17 200.273 116.143C187.624 116.116 175.503 111.07 166.572 102.113C157.641 93.156 152.629 81.0207 152.638 68.372C152.647 55.7233 157.676 43.5952 166.62 34.6511C175.564 25.7071 187.692 20.6784 200.341 20.6693C212.99 20.6602 225.125 25.6716 234.082 34.6027C243.039 43.5339 248.085 55.6548 248.112 68.3035C248.139 80.9522 243.145 93.0947 234.227 102.064L234.033 102.258ZM166.874 35.0987L166.68 35.2925C158.046 44.1894 153.266 56.1305 153.376 68.5278C153.486 80.9251 158.477 92.7796 167.267 101.522C176.058 110.264 187.94 115.19 200.338 115.232C212.735 115.274 224.65 110.428 233.499 101.745L233.693 101.551C242.327 92.6542 247.107 80.7131 246.998 68.3158C246.888 55.9185 241.896 44.064 233.106 35.3216C224.315 26.5792 212.433 21.6533 200.036 21.6116C187.638 21.5699 175.723 26.4157 166.874 35.0987ZM227.404 95.6286C220.12 102.435 210.479 106.151 200.511 105.996C190.543 105.84 181.024 101.825 173.955 94.7946C166.887 87.7641 162.82 78.2665 162.611 68.2993C162.402 58.3321 166.066 48.6721 172.833 41.3512L172.99 41.1941C180.275 34.3877 189.915 30.6714 199.883 30.8269C209.851 30.9824 219.371 34.9977 226.439 42.0281C233.507 49.0585 237.574 58.5562 237.783 68.5234C237.992 78.4906 234.328 88.1506 227.561 95.4715L227.404 95.6286ZM173.504 41.7283L173.346 41.8854C166.714 49.0665 163.124 58.5394 163.332 68.3126C163.539 78.0857 167.528 87.3978 174.459 94.291C181.39 101.184 190.724 105.122 200.498 105.275C210.272 105.429 219.725 101.787 226.87 95.1154L227.027 94.9583C233.659 87.7772 237.249 78.3043 237.042 68.5311C236.834 58.7579 232.846 49.4458 225.915 42.5526C218.983 35.6594 209.65 31.722 199.875 31.5683C190.101 31.4146 180.648 35.0564 173.504 41.7283Z" fill="#374151"/>
<path d="M237.26 98.2034L232.201 103.365C231.376 104.207 231.389 105.557 232.231 106.382L259.427 133.039C260.268 133.864 261.618 133.85 262.443 133.009L267.503 127.847C268.327 127.006 268.314 125.655 267.473 124.831L240.277 98.1733C239.435 97.3487 238.085 97.3622 237.26 98.2034Z" fill="#97BEEB"/>
<path d="M262.772 134.956C262.302 135.421 261.667 135.682 261.006 135.683C260.345 135.684 259.709 135.425 259.238 134.961L232.164 108.192C231.694 107.718 231.431 107.078 231.431 106.411C231.429 106.082 231.492 105.755 231.617 105.45C231.742 105.146 231.926 104.869 232.159 104.636L237.233 99.499C237.711 99.0357 238.348 98.7733 239.014 98.7659C239.343 98.7633 239.67 98.8263 239.975 98.9513C240.279 99.0762 240.556 99.2606 240.789 99.4937L267.862 126.263C268.333 126.731 268.6 127.366 268.605 128.03C268.61 128.694 268.352 129.333 267.888 129.808L262.809 134.94L262.772 134.956ZM237.757 100.023L232.678 105.165C232.514 105.329 232.385 105.523 232.297 105.737C232.209 105.951 232.164 106.18 232.164 106.411C232.168 106.879 232.356 107.327 232.688 107.658L259.767 134.432C260.101 134.76 260.55 134.942 261.018 134.94C261.248 134.941 261.475 134.896 261.688 134.808C261.9 134.72 262.092 134.59 262.254 134.427L267.333 129.295C267.662 128.961 267.844 128.511 267.841 128.043C267.838 127.575 267.65 127.127 267.318 126.797L240.239 100.023C240.076 99.8592 239.881 99.7297 239.667 99.6416C239.453 99.5536 239.224 99.5087 238.993 99.5095C238.528 99.5075 238.08 99.6879 237.747 100.012L237.757 100.023Z" fill="#374151"/>
<path d="M304.597 165.144L297.773 172.051C297.273 172.557 296.679 172.959 296.023 173.234C295.368 173.51 294.665 173.654 293.954 173.658C293.243 173.662 292.538 173.525 291.88 173.257C291.222 172.989 290.623 172.593 290.117 172.093L249.926 131.902C249.532 131.512 249.218 131.047 249.003 130.535C248.787 130.023 248.675 129.474 248.672 128.919C248.669 128.363 248.776 127.813 248.986 127.299C249.195 126.785 249.504 126.317 249.895 125.922L258.384 117.35C258.774 116.954 259.238 116.639 259.75 116.424C260.262 116.208 260.812 116.095 261.367 116.092C261.923 116.089 262.473 116.196 262.988 116.407C263.502 116.617 263.97 116.927 264.364 117.318L304.555 157.509C305.571 158.517 306.146 159.887 306.154 161.318C306.162 162.749 305.602 164.125 304.597 165.144Z" fill="#374151"/>
<path d="M298.009 172.329C296.929 173.409 295.465 174.018 293.938 174.023C292.41 174.028 290.943 173.428 289.856 172.355L249.665 132.164C248.799 131.307 248.309 130.141 248.302 128.923C248.295 127.704 248.772 126.533 249.628 125.666L258.122 117.078C258.98 116.217 260.144 115.732 261.359 115.728C262.574 115.724 263.741 116.202 264.605 117.057L304.801 157.253C305.34 157.787 305.769 158.421 306.063 159.12C306.356 159.82 306.51 160.57 306.514 161.329C306.518 162.087 306.372 162.839 306.085 163.542C305.799 164.244 305.376 164.883 304.843 165.422L298.014 172.324L298.009 172.329ZM258.64 117.607L250.152 126.189C249.795 126.55 249.514 126.977 249.322 127.446C249.131 127.915 249.034 128.417 249.037 128.924C249.04 129.431 249.143 129.932 249.339 130.399C249.536 130.866 249.823 131.29 250.183 131.646L290.374 171.837C291.322 172.771 292.601 173.293 293.932 173.288C295.264 173.283 296.539 172.752 297.48 171.811L304.309 164.909C304.775 164.439 305.143 163.881 305.394 163.269C305.644 162.656 305.771 162 305.768 161.338C305.764 160.676 305.631 160.021 305.374 159.411C305.117 158.801 304.743 158.247 304.272 157.782L264.081 117.591C263.356 116.874 262.377 116.474 261.357 116.476C260.338 116.479 259.361 116.886 258.64 117.607Z" fill="#374151"/>
</svg>
