<svg width="1062" height="870" viewBox="0 0 1062 870" fill="none" xmlns="http://www.w3.org/2000/svg">
<g id="No Results">
<g id="circle">
<path id="Stroke 1" d="M35.5378 399.586V408.586" stroke="#D2D8DF" stroke-width="2.921" stroke-linecap="round"/>
<g id="Group 8">
<path id="Stroke 2" d="M15.323 404.461L22.6773 412.032" stroke="#D2D8DF" stroke-width="2.921" stroke-linecap="round"/>
<path id="Stroke 4" d="M6.72144 424.614H17.1203" stroke="#D2D8DF" stroke-width="2.921" stroke-linecap="round"/>
<path id="Stroke 6" d="M14.4792 445.125L21.8335 437.555" stroke="#D2D8DF" stroke-width="2.921" stroke-linecap="round"/>
</g>
<path id="Stroke 9" d="M35.5378 447.586V438.586" stroke="#D2D8DF" stroke-width="2.921" stroke-linecap="round"/>
<path id="Stroke 10" d="M50.5378 441.586L44.5378 435.586" stroke="#D2D8DF" stroke-width="2.921" stroke-linecap="round"/>
<path id="Stroke 11" d="M62.5378 426.586H53.5378" stroke="#D2D8DF" stroke-width="2.921" stroke-linecap="round"/>
<path id="Stroke 12" d="M56.5378 405.586L50.5378 411.586" stroke="#D2D8DF" stroke-width="2.921" stroke-linecap="round"/>
<path id="Stroke 13" d="M518.538 6.58594V12.5859" stroke="#D2D8DF" stroke-width="2.921" stroke-linecap="round"/>
<path id="Stroke 15" d="M500.538 24.5859H506.538" stroke="#D2D8DF" stroke-width="2.921" stroke-linecap="round"/>
<path id="Stroke 16" d="M518.538 42.5859V36.5859" stroke="#D2D8DF" stroke-width="2.921" stroke-linecap="round"/>
<path id="Stroke 17" d="M533.538 24.5859H527.538" stroke="#D2D8DF" stroke-width="2.921" stroke-linecap="round"/>
<path id="Stroke 18" d="M170.538 258.586V267.586" stroke="#D2D8DF" stroke-width="2.921" stroke-linecap="round"/>
<path id="Stroke 19" d="M143.538 285.586H152.538" stroke="#D2D8DF" stroke-width="2.921" stroke-linecap="round"/>
<path id="Stroke 20" d="M170.538 309.586V300.586" stroke="#D2D8DF" stroke-width="2.921" stroke-linecap="round"/>
<path id="Stroke 21" d="M194.538 285.586H185.538" stroke="#D2D8DF" stroke-width="2.921" stroke-linecap="round"/>
<g id="Group 42">
<path id="Stroke 22" d="M816.299 585.703C823.469 585.703 829.283 591.519 829.283 598.69C829.283 605.864 823.469 611.678 816.299 611.678C809.13 611.678 803.315 605.864 803.315 598.69" stroke="#D2D8DF" stroke-width="2.921" stroke-linecap="round"/>
<path id="Fill 26" fill-rule="evenodd" clip-rule="evenodd" d="M875.719 467.876C883.429 465.471 895.246 456.043 897.982 445.898C900.462 454.866 910.861 465.471 920.244 466.274C909.682 470.013 899.584 481.123 897.982 489.851C896.892 480.955 882.925 469.173 875.719 467.876Z" fill="#EBECEE"/>
<path id="Fill 28" fill-rule="evenodd" clip-rule="evenodd" d="M84.3523 581.702C88.2083 580.5 94.1145 575.787 95.4821 570.715C96.7225 575.196 101.921 580.5 106.612 580.902C101.332 582.77 96.2844 588.326 95.4821 592.69C94.9371 588.242 87.9536 582.349 84.3523 581.702Z" fill="#EBECEE"/>
<path id="Fill 30" fill-rule="evenodd" clip-rule="evenodd" d="M155.91 164.377C155.91 169.941 151.402 174.447 145.842 174.447C140.28 174.447 135.774 169.941 135.774 164.377C135.774 158.816 140.28 154.307 145.842 154.307C151.402 154.307 155.91 158.816 155.91 164.377Z" fill="#D1D8DF"/>
<path id="Fill 32" fill-rule="evenodd" clip-rule="evenodd" d="M828.195 191.418C828.195 200.714 820.659 208.249 811.368 208.249C802.071 208.249 794.538 200.714 794.538 191.418C794.538 182.122 802.071 174.586 811.368 174.586C820.659 174.586 828.195 182.122 828.195 191.418Z" fill="#EBECEE"/>
<path id="Fill 34" fill-rule="evenodd" clip-rule="evenodd" d="M1061.28 145.815C1061.28 153.19 1055.3 159.166 1047.93 159.166C1040.56 159.166 1034.58 153.19 1034.58 145.815C1034.58 138.439 1040.56 132.463 1047.93 132.463C1055.3 132.463 1061.28 138.439 1061.28 145.815Z" fill="#EBECEE"/>
<path id="Stroke 36" fill-rule="evenodd" clip-rule="evenodd" d="M344.068 769.389C344.068 774.038 340.301 777.806 335.653 777.806C331.008 777.806 327.241 774.038 327.241 769.389C327.241 764.739 331.008 760.972 335.653 760.972C340.301 760.972 344.068 764.739 344.068 769.389Z" stroke="#D2D8DF" stroke-width="2.921" stroke-linecap="round"/>
<path id="Stroke 38" fill-rule="evenodd" clip-rule="evenodd" d="M339.062 99.6808C339.062 105.245 334.554 109.751 328.994 109.751C323.434 109.751 318.927 105.245 318.927 99.6808C318.927 94.1195 323.434 89.6104 328.994 89.6104C334.554 89.6104 339.062 94.1195 339.062 99.6808Z" stroke="#D2D8DF" stroke-width="2.921" stroke-linecap="round"/>
<path id="Stroke 40" fill-rule="evenodd" clip-rule="evenodd" d="M595.87 862.594C589.437 865.043 582.237 861.81 579.79 855.377C577.342 848.942 580.571 841.738 587.007 839.292C593.438 836.844 600.638 840.074 603.086 846.509C605.536 852.944 602.304 860.146 595.87 862.594Z" stroke="#D2D8DF" stroke-width="2.921" stroke-linecap="round"/>
</g>
</g>
<g id="search">
<g id="documents">
<path id="Fill 1" fill-rule="evenodd" clip-rule="evenodd" d="M592.035 624.586H346.021C328.706 624.586 314.532 610.37 314.532 592.996V242.168C314.532 224.794 328.706 210.586 346.021 210.586H592.035C609.358 210.586 623.532 224.794 623.532 242.168V592.996C623.532 610.37 609.358 624.586 592.035 624.586Z" fill="#E0E2EE"/>
<path id="Fill 3" fill-rule="evenodd" clip-rule="evenodd" d="M571.035 639.586H325.021C307.706 639.586 293.532 625.37 293.532 607.996V257.168C293.532 239.794 307.706 225.586 325.021 225.586H571.035C588.358 225.586 602.532 239.794 602.532 257.168V607.996C602.532 625.37 588.358 639.586 571.035 639.586Z" fill="#E8EBF2"/>
<path id="Fill 5" fill-rule="evenodd" clip-rule="evenodd" d="M550.609 651.427H304.087C286.735 651.427 272.532 637.271 272.532 619.969V270.593C272.532 253.291 286.735 239.142 304.087 239.142H550.609C567.968 239.142 582.171 253.291 582.171 270.593V619.969C582.171 637.271 567.968 651.427 550.609 651.427Z" fill="#D8DBEA"/>
<path id="Fill 8" fill-rule="evenodd" clip-rule="evenodd" d="M550.609 651.427H304.087C286.735 651.427 272.532 637.271 272.532 619.969V270.593C272.532 253.291 286.735 239.142 304.087 239.142H550.609C567.968 239.142 582.171 253.291 582.171 270.593V619.969C582.171 637.271 567.968 651.427 550.609 651.427Z" fill="#F1F2F7"/>
<path id="Fill 11" fill-rule="evenodd" clip-rule="evenodd" d="M515.075 345.586H332.989C327.789 345.586 323.532 341.536 323.532 336.589C323.532 331.635 327.789 327.586 332.989 327.586H515.075C520.275 327.586 524.532 331.635 524.532 336.589C524.532 341.536 520.275 345.586 515.075 345.586Z" fill="#E0E2EE"/>
<path id="Fill 13" fill-rule="evenodd" clip-rule="evenodd" d="M515.075 399.586H332.989C327.789 399.586 323.532 395.536 323.532 390.589C323.532 385.635 327.789 381.586 332.989 381.586H515.075C520.275 381.586 524.532 385.635 524.532 390.589C524.532 395.536 520.275 399.586 515.075 399.586Z" fill="#E0E2EE"/>
<path id="Fill 15" fill-rule="evenodd" clip-rule="evenodd" d="M515.075 453.586H332.989C327.789 453.586 323.532 449.536 323.532 444.589C323.532 439.642 327.789 435.586 332.989 435.586H515.075C520.275 435.586 524.532 439.642 524.532 444.589C524.532 449.536 520.275 453.586 515.075 453.586Z" fill="#E0E2EE"/>
<path id="Fill 17" fill-rule="evenodd" clip-rule="evenodd" d="M515.075 507.586H332.989C327.789 507.586 323.532 503.536 323.532 498.589C323.532 493.635 327.789 489.586 332.989 489.586H515.075C520.275 489.586 524.532 493.635 524.532 498.589C524.532 503.536 520.275 507.586 515.075 507.586Z" fill="#E0E2EE"/>
<path id="Fill 19" fill-rule="evenodd" clip-rule="evenodd" d="M428.035 561.586H333.029C327.807 561.586 323.532 557.536 323.532 552.589C323.532 547.635 327.807 543.586 333.029 543.586H428.035C433.257 543.586 437.532 547.635 437.532 552.589C437.532 557.536 433.257 561.586 428.035 561.586Z" fill="#E0E2EE"/>
</g>
<g id="search_2">
<path id="Fill 21" fill-rule="evenodd" clip-rule="evenodd" d="M619.797 491.796C583.387 528.2 527.019 532.307 486.097 504.201C480.867 500.544 475.89 496.437 471.248 491.796C468.858 489.415 466.606 486.957 464.483 484.369C460.238 479.201 456.52 473.69 453.474 467.995C448.107 458.377 444.457 448.171 442.465 437.622C436.036 404.538 445.648 368.928 471.248 343.341C496.908 317.677 532.524 308.128 565.613 314.494C576.157 316.548 586.372 320.196 595.992 325.502C601.695 328.616 607.131 332.334 612.307 336.578C614.888 338.692 617.346 340.952 619.728 343.341C624.378 347.982 628.546 352.952 632.135 358.188C660.253 399.096 656.138 455.461 619.797 491.796Z" fill="white" fill-opacity="0.1"/>
<path id="Fill 23" fill-rule="evenodd" clip-rule="evenodd" d="M609.608 484.626C571.729 522.513 510.342 522.506 472.455 484.626C434.617 446.789 434.617 385.395 472.504 347.515C510.342 309.677 571.729 309.677 609.566 347.515C647.446 385.395 647.446 446.789 609.608 484.626ZM629.049 328.052C580.427 279.43 501.636 279.43 453.014 328.052C404.399 376.667 404.357 455.507 452.972 504.129C497.224 548.367 566.583 552.357 615.367 516.035C620.132 512.482 624.721 508.5 629.098 504.129C633.468 499.752 637.451 495.163 640.996 490.398C677.318 441.607 673.294 372.297 629.049 328.052Z" fill="#E0E2EE"/>
<path id="Fill 25" fill-rule="evenodd" clip-rule="evenodd" d="M820.398 687.411L818.357 689.452C804.852 702.964 782.738 702.964 769.226 689.452L644.532 564.758L695.704 513.586L820.398 638.28C833.91 651.792 833.91 673.899 820.398 687.411Z" fill="url(#paint0_linear_1386_60323)"/>
<path id="Fill 27" fill-rule="evenodd" clip-rule="evenodd" d="M643.684 486.586L680.532 523.434L654.372 549.586L617.532 512.738C622.394 509.113 627.069 505.049 631.543 500.59C636.003 496.131 640.066 491.448 643.684 486.586Z" fill="#E0E2EE"/>
<path id="Fill 29" fill-rule="evenodd" clip-rule="evenodd" d="M818.532 636.747L767.686 687.586L758.532 678.425L809.371 627.586L818.532 636.747Z" fill="#2E7DD7"/>
<path id="Fill 31" fill-rule="evenodd" clip-rule="evenodd" d="M698.532 515.346L646.293 567.586L638.532 559.825L690.771 507.586L698.532 515.346Z" fill="url(#paint1_linear_1386_60323)"/>
<path id="Fill 33" fill-rule="evenodd" clip-rule="evenodd" d="M584.532 334.482L456.421 462.586C451.597 453.939 448.316 444.764 446.532 435.28L557.224 324.586C566.702 326.439 575.885 329.712 584.532 334.482Z" fill="white" fill-opacity="0.5"/>
<path id="Fill 35" fill-rule="evenodd" clip-rule="evenodd" d="M626.532 364.931L488.031 495.586C483.071 492.321 478.35 488.646 473.947 484.493C471.681 482.354 469.538 480.162 467.532 477.846L607.72 345.586C610.175 347.485 612.507 349.507 614.766 351.645C619.168 355.798 623.129 360.245 626.532 364.931Z" fill="white" fill-opacity="0.5"/>
</g>
</g>
</g>
<defs>
<linearGradient id="paint0_linear_1386_60323" x1="737.532" y1="420.586" x2="551.532" y2="606.586" gradientUnits="userSpaceOnUse">
<stop stop-color="#6DA4E3"/>
<stop offset="1" stop-color="#2E7DD7"/>
</linearGradient>
<linearGradient id="paint1_linear_1386_60323" x1="668.532" y1="477.586" x2="608.532" y2="537.586" gradientUnits="userSpaceOnUse">
<stop stop-color="#2161AA"/>
<stop offset="1" stop-color="#438ADB"/>
</linearGradient>
</defs>
</svg>
