<svg width="16" height="24" viewBox="0 0 16 24" fill="none" xmlns="http://www.w3.org/2000/svg">
<g clip-path="url(#clip0_31_432)">
<path d="M3.96613 0H7.85506V7.77797H3.96617C-1.16242 7.57748 -1.21422 0.210562 3.96613 0ZM3.96613 15.8886H7.85506V8.11064H3.96617C-1.21417 8.3212 -1.16237 15.6881 3.96617 15.8886H3.96613ZM12.0768 0H8.18774V7.77797H12.0768C17.2744 7.49981 17.2096 0.158766 12.0768 0ZM7.85506 20.1103V16.2213H3.96617C0.792641 16.2213 -1.21417 19.942 0.992938 22.6145C3.09725 25.2633 7.85511 23.9427 7.85511 20.1103H7.85506ZM15.9737 11.9996C15.9737 9.01088 12.716 7.13283 10.1239 8.6272C7.53186 10.1216 7.53181 13.8777 10.1239 15.3721C12.716 16.8665 15.9737 14.9884 15.9737 11.9996Z" fill="#C0D8F3"/>
</g>
<defs>
<clipPath id="clip0_31_432">
<rect width="15.94" height="24" fill="white" transform="translate(0.0600586)"/>
</clipPath>
</defs>
</svg>
