<svg width="24" height="24" viewBox="0 0 24 24" fill="none" xmlns="http://www.w3.org/2000/svg">
<g clip-path="url(#clip0_31_413)">
<path d="M19.3532 23.99H15.7442C15.4698 24.0202 15.1931 23.9599 14.9562 23.8181C14.7193 23.6764 14.5353 23.4611 14.4322 23.205L14.4292 23.196C13.0942 20.525 11.6422 17.895 10.4332 15.131C9.53822 13.246 9.01622 11.036 9.01622 8.703C9.01622 5.711 9.87622 2.92 11.3612 0.563L11.3242 0.626C11.4902 0.344 11.8452 0 12.1172 0C12.3892 0 12.7112 0.376 12.8592 0.668C16.4972 7.94533 20.1392 15.2253 23.7852 22.508C24.3282 23.551 24.0782 23.979 22.8782 23.991L19.3532 23.99ZM4.74522 23.99H1.03922C-0.00277889 23.99 -0.233779 23.572 0.225221 22.654C2.09655 18.9533 3.95055 15.2597 5.78722 11.573C6.28822 10.53 6.68422 10.53 7.38322 11.396C9.29027 13.6133 10.3366 16.4424 10.3312 19.367C10.3312 20.515 10.1732 21.625 9.87822 22.679L9.89922 22.593C9.55422 23.918 9.36622 24.001 8.03122 24.001L4.74522 23.99Z" fill="#C0D8F3"/>
</g>
<defs>
<clipPath id="clip0_31_413">
<rect width="24" height="24" fill="white"/>
</clipPath>
</defs>
</svg>
