<svg width="700" height="992" viewBox="0 0 700 992" fill="none" xmlns="http://www.w3.org/2000/svg">
<g clip-path="url(#clip0_70_457)">
<rect width="719" height="992" fill="url(#paint0_linear_70_457)"/>
<path d="M199.451 741L-60.5847 754.407H-96.0214L-108 992H732V754.407L199.451 741Z" fill="url(#paint1_linear_70_457)"/>
<path fill-rule="evenodd" clip-rule="evenodd" d="M170.942 293C172.994 293 174.701 291.314 174.221 289.319C173.548 286.522 172.115 283.938 170.047 281.871C167.096 278.919 163.092 277.261 158.918 277.261C156.342 277.261 153.757 276.111 152.032 274.198C151.851 273.997 151.665 273.801 151.473 273.61C150.012 272.148 148.277 270.989 146.367 270.198C144.457 269.407 142.411 269 140.344 269C138.277 269 136.23 269.407 134.321 270.198C132.411 270.989 130.676 272.148 129.215 273.61C128.625 274.199 127.761 274.43 126.945 274.259C126.237 274.111 125.51 274.035 124.775 274.035C121.969 274.035 119.277 275.15 117.292 277.134C116.76 277.666 116.101 278.061 115.372 278.245C114.658 278.425 113.957 278.656 113.274 278.939C111.436 279.701 109.766 280.816 108.359 282.223C106.952 283.63 105.837 285.3 105.075 287.138C104.521 288.477 104.162 289.886 104.008 291.322C103.913 292.209 104.646 292.935 105.538 292.935H107.121C107.139 292.935 107.154 292.949 107.154 292.967C107.154 292.985 107.169 293 107.187 293H170.942Z" fill="white" fill-opacity="0.05"/>
<path fill-rule="evenodd" clip-rule="evenodd" d="M379.942 317C381.994 317 383.701 315.314 383.221 313.319C382.548 310.522 381.115 307.938 379.047 305.871C376.096 302.919 372.092 301.261 367.918 301.261C365.342 301.261 362.757 300.111 361.032 298.198C360.851 297.997 360.665 297.801 360.473 297.61C359.012 296.148 357.277 294.989 355.367 294.198C353.457 293.407 351.411 293 349.344 293C347.277 293 345.23 293.407 343.321 294.198C341.411 294.989 339.676 296.148 338.215 297.61C337.625 298.199 336.761 298.43 335.945 298.259C335.237 298.111 334.51 298.035 333.775 298.035C330.969 298.035 328.277 299.15 326.292 301.134C325.76 301.666 325.101 302.061 324.372 302.245C323.658 302.425 322.957 302.656 322.274 302.939C320.436 303.701 318.766 304.816 317.359 306.223C315.952 307.63 314.837 309.3 314.075 311.138C313.521 312.477 313.162 313.886 313.008 315.322C312.913 316.209 313.646 316.935 314.538 316.935H316.121C316.139 316.935 316.154 316.949 316.154 316.967C316.154 316.985 316.169 317 316.187 317H379.942Z" fill="white" fill-opacity="0.05"/>
<path fill-rule="evenodd" clip-rule="evenodd" d="M630.942 275C632.994 275 634.701 273.314 634.221 271.319C633.548 268.522 632.115 265.938 630.047 263.871C627.096 260.919 623.092 259.261 618.918 259.261C616.342 259.261 613.757 258.111 612.032 256.198C611.851 255.997 611.665 255.801 611.473 255.61C610.012 254.148 608.277 252.989 606.367 252.198C604.457 251.407 602.411 251 600.344 251C598.277 251 596.23 251.407 594.321 252.198C592.411 252.989 590.676 254.148 589.215 255.61C588.625 256.199 587.761 256.43 586.945 256.259C586.237 256.111 585.51 256.035 584.775 256.035C581.969 256.035 579.277 257.15 577.292 259.134C576.76 259.666 576.101 260.061 575.372 260.245C574.658 260.425 573.957 260.656 573.274 260.939C571.436 261.701 569.766 262.816 568.359 264.223C566.952 265.63 565.837 267.3 565.075 269.138C564.521 270.477 564.162 271.886 564.008 273.322C563.913 274.209 564.646 274.935 565.538 274.935H567.121C567.139 274.935 567.154 274.949 567.154 274.967C567.154 274.985 567.169 275 567.187 275H630.942Z" fill="white" fill-opacity="0.05"/>
<path d="M793.237 330.5L247 344L808 301L793.237 330.5Z" fill="white" fill-opacity="0.05"/>
<path d="M110.5 661.636C128.5 568.136 161 552.636 145 672.136C135.085 746.192 137.534 741.246 91.432 741.138C90.2985 742.808 90 741.136 90 741.136C90.4825 741.136 90.9598 741.137 91.432 741.138C93.5787 737.975 98.7201 722.826 110.5 661.636Z" fill="url(#paint2_linear_70_457)"/>
<path d="M110.5 661.636C128.5 568.136 161 552.636 145 672.136C135.085 746.192 137.534 741.246 91.432 741.138C90.2985 742.808 90 741.136 90 741.136C90.4825 741.136 90.9598 741.137 91.432 741.138C93.5787 737.975 98.7201 722.826 110.5 661.636Z" fill="#A2A442"/>
<path d="M60.5 660.636C78.5001 567.136 111 551.636 95 671.136C85.0845 745.192 87.5342 740.246 41.432 740.138C40.2985 741.808 40 740.136 40 740.136C40.4825 740.136 40.9598 740.137 41.432 740.138C43.5787 736.975 48.7201 721.826 60.5 660.636Z" fill="url(#paint3_linear_70_457)"/>
<path d="M60.5 660.636C78.5001 567.136 111 551.636 95 671.136C85.0845 745.192 87.5342 740.246 41.432 740.138C40.2985 741.808 40 740.136 40 740.136C40.4825 740.136 40.9598 740.137 41.432 740.138C43.5787 736.975 48.7201 721.826 60.5 660.636Z" fill="#A2A442"/>
<path d="M80.5 680.636C98.5001 587.136 131 571.636 115 691.136C105.085 765.192 107.534 760.246 61.432 760.138C60.2985 761.808 60 760.136 60 760.136C60.4825 760.136 60.9598 760.137 61.432 760.138C63.5787 756.975 68.7201 741.826 80.5 680.636Z" fill="url(#paint4_linear_70_457)"/>
<path d="M80.5 680.636C98.5001 587.136 131 571.636 115 691.136C105.085 765.192 107.534 760.246 61.432 760.138C60.2985 761.808 60 760.136 60 760.136C60.4825 760.136 60.9598 760.137 61.432 760.138C63.5787 756.975 68.7201 741.826 80.5 680.636Z" fill="#174D34"/>
<path d="M105.5 689.636C123.5 596.136 156 580.636 140 700.136C130.085 774.192 132.534 769.246 86.432 769.138C85.2985 770.808 85 769.136 85 769.136C85.4825 769.136 85.9598 769.137 86.432 769.138C88.5787 765.975 93.7201 750.826 105.5 689.636Z" fill="url(#paint5_linear_70_457)"/>
<path d="M105.5 689.636C123.5 596.136 156 580.636 140 700.136C130.085 774.192 132.534 769.246 86.432 769.138C85.2985 770.808 85 769.136 85 769.136C85.4825 769.136 85.9598 769.137 86.432 769.138C88.5787 765.975 93.7201 750.826 105.5 689.636Z" fill="#174D34"/>
<path d="M48.0799 659.394C38.3453 564.676 64.9929 540.461 84.1422 659.497C96.0094 733.266 96.928 727.822 52.7542 741.017C52.1506 742.943 51.3825 741.428 51.3825 741.428C51.8445 741.289 52.3017 741.152 52.7542 741.017C53.8973 737.369 54.4505 721.381 48.0799 659.394Z" fill="url(#paint6_linear_70_457)"/>
<path d="M48.0799 659.394C38.3453 564.676 64.9929 540.461 84.1422 659.497C96.0094 733.266 96.928 727.822 52.7542 741.017C52.1506 742.943 51.3825 741.428 51.3825 741.428C51.8445 741.289 52.3017 741.152 52.7542 741.017C53.8973 737.369 54.4505 721.381 48.0799 659.394Z" fill="#174D34"/>
<g opacity="0.2" filter="url(#filter0_b_70_457)">
<path d="M388 525L224.5 612V643L388 592V525Z" fill="white" fill-opacity="0.8"/>
<path d="M390 525V521.67L387.061 523.234L223.561 610.234L222.5 610.799V612V643V645.719L225.096 644.909L388.596 593.909L390 593.471V592V525Z" stroke="white" stroke-width="4"/>
</g>
<path d="M160 589L171.5 574L386.5 604.5V743L171 767.5H160V589Z" fill="#97BEEB"/>
<path d="M171.5 574L160 589V767.5H171L171.5 574Z" fill="#2E7DD7"/>
<path d="M171 767.5V634L387 655.121V742L171 767.5Z" fill="#2E7DD7"/>
<path d="M404 625.5L222 657.5L404 669.5L609 663L404 625.5Z" fill="#2E7DD7"/>
<path d="M399 748V667L604.5 662V799L399 748Z" fill="#5E442D"/>
<path d="M604.5 799V662.5L679.5 677V743L604.5 799Z" fill="#D1B187"/>
<path d="M25 788V706H311V758.319L25 788Z" fill="#6DA4E3"/>
<g filter="url(#filter1_b_70_457)">
<path d="M25 732V680H311V713.178L25 732Z" fill="white" fill-opacity="0.6"/>
</g>
<path d="M629 781V663L635 668.5V776.269L629 781Z" fill="#D1B187"/>
<path d="M629 781V663L635 668.5V776.269L629 781Z" fill="black" fill-opacity="0.2"/>
<path d="M647.5 767L647 663L653 668.5L652.5 763.5L647.5 767Z" fill="#D1B187"/>
<path d="M647.5 767L647 663L653 668.5L652.5 763.5L647.5 767Z" fill="black" fill-opacity="0.2"/>
<path d="M636 775.5V662L636.3 667.5V766L636 775.5Z" fill="#D1B187"/>
<path d="M636 775.5V662L636.3 667.5V766L636 775.5Z" fill="black" fill-opacity="0.2"/>
<path d="M637.3 774.588V662L637.6 667.5V766L637.3 774.588Z" fill="#D1B187"/>
<path d="M637.3 774.588V662L637.6 667.5V766L637.3 774.588Z" fill="black" fill-opacity="0.2"/>
<path d="M644 769.5L645.3 662L645.6 667.5V768.29L644 769.5Z" fill="#D1B187"/>
<path d="M644 769.5L645.3 662L645.6 667.5V768.29L644 769.5Z" fill="black" fill-opacity="0.2"/>
<path d="M375 614.5V559.5L398 552V611.5L375 614.5Z" fill="#7C746E"/>
<path d="M638.6 773.585V662L638.9 667.5V766L638.6 773.585Z" fill="#D1B187"/>
<path d="M638.6 773.585V662L638.9 667.5V766L638.6 773.585Z" fill="black" fill-opacity="0.2"/>
<path d="M646.6 767.623V662L646.9 667.5V767.495L646.6 767.623Z" fill="#D1B187"/>
<path d="M646.6 767.623V662L646.9 667.5V767.495L646.6 767.623Z" fill="black" fill-opacity="0.2"/>
<path d="M222 516.5L226 509L375 559.5V614L226 645H222V516.5Z" fill="#EAF2FB"/>
<path d="M640 772.5V662L641 667.5V771.75L640 772.5Z" fill="#D1B187"/>
<path d="M640 772.5V662L641 667.5V771.75L640 772.5Z" fill="black" fill-opacity="0.2"/>
<path d="M643 770.331V662L644 667.5V769.5L643 770.331Z" fill="#D1B187"/>
<path d="M643 770.331V662L644 667.5V769.5L643 770.331Z" fill="black" fill-opacity="0.2"/>
<path d="M14.1376 680.934L16.7601 730.865M18.6879 680.695L21.3104 730.626M23.2382 680.456L25.8607 730.387M27.7886 680.217L30.4111 730.148M32.3389 679.978L34.9614 729.909M36.8892 679.739L39.5117 729.67M41.4395 679.5L44.062 729.431M45.9899 679.261L48.6124 729.192M50.5402 679.022L53.1627 728.953M55.0905 678.783L57.713 728.714M60 680.609L62.2633 728.475M64 680.577L66.8137 728.236M68.5 680.54L71.364 727.997M73.0503 680.301L75.9143 727.758M77.6007 680.062L80.4646 727.519M82.151 679.823L85.015 727.28M86.7013 679.584L89.5653 727.041M92 680.348L94.1156 726.802M96.5503 680.109L98.6659 726.563M101.101 679.87L103.216 726.324M105.484 680.439L107.767 726.085M110.035 680.2L112.317 725.846M114.585 679.961L116.867 725.607M118.969 680.127L121.418 725.368M123.519 679.888L125.968 725.129M128.069 679.649L130.518 724.89M132.62 679.41L135.069 724.651M137.239 679.978L139.619 724.412M141.5 679.943L144.169 724.173M146.05 679.704L148.72 723.934M150.299 680.678L153.27 723.695M154.849 680.439L157.82 723.456M159.399 680.2L162.37 723.217M163.95 679.961L166.921 722.978M168.5 679.722L171.471 722.739M173.5 679.681L176.021 722.5M178.05 679.442L180.572 722.261M182.601 679.203L185.122 722.022M187 679.571L189.672 721.783M191.55 679.332L194.223 721.544M197 679.489L198.773 721.305M201.5 679.453L203.323 721.066M205.5 679.42L207.874 720.827M210.5 679.379L212.424 720.588M215 679.342L216.974 720.349M220 679.301L221.525 720.11M13 680.994L224.937 679.261L224.937 719.927L15.6223 730.921L13 680.994Z" stroke="#BBBCB7" stroke-width="2"/>
<path d="M222 774.5V657L399 667V747.5L222 774.5Z" fill="#438ADB"/>
<path d="M404.5 626V219L694.5 625V644L649.5 601V634.5L695 659V682L404.5 626Z" fill="#C0D8F3"/>
<path d="M384 247.5V593L222 643.5V657.5L404.5 626V219L384 247.5Z" fill="#6DA4E3"/>
<g filter="url(#filter2_b_70_457)">
<path d="M650 634.5L694.451 659.689L693.5 644L650 601V634.5Z" fill="#E0E7FF" fill-opacity="0.8"/>
</g>
<path d="M650 634.782L665 641.5V617.5L650 601V634.782Z" fill="#97BEEB"/>
<path d="M666.5 643L667.5 646V619.5L666.833 617L666.5 643Z" fill="#97BEEB"/>
<path d="M673 647L674 650V623.5L673 624.5V647Z" fill="#97BEEB"/>
<path d="M669.5 644.5L670 646V621L669.5 622V644.5Z" fill="#97BEEB"/>
<path d="M668 645.5L668.5 646.5V621.356L668 621V645.5Z" fill="#97BEEB"/>
<path d="M671 646.5L671.5 647.657V623L671 624V646.5Z" fill="#97BEEB"/>
<path d="M694.5 660L649.5 634.5V601L693 644V625" stroke="#6DA4E3" stroke-width="3"/>
<path fill-rule="evenodd" clip-rule="evenodd" d="M142.861 789.956C142.861 789.932 142.842 789.913 142.818 789.913H141.398C140.59 789.913 139.931 789.257 139.97 788.45C140.077 786.298 140.416 784.182 140.979 782.183C141.668 779.733 142.679 777.506 143.953 775.631C145.227 773.755 146.739 772.267 148.404 771.252C148.941 770.925 149.49 770.649 150.048 770.425C150.851 770.103 151.557 769.561 152.043 768.846C153.84 766.199 156.278 764.713 158.82 764.713C159.387 764.713 159.949 764.787 160.499 764.931C161.366 765.158 162.336 764.888 162.84 764.147C164.163 762.198 165.735 760.652 167.464 759.597C169.194 758.543 171.047 758 172.919 758C174.791 758 176.644 758.543 178.374 759.597C180.103 760.652 181.675 762.198 182.998 764.147C183.412 764.756 183.799 765.4 184.157 766.077C185.19 768.025 187.535 769.014 189.741 769.014C193.521 769.014 197.147 771.225 199.82 775.161C202.223 778.698 203.679 783.368 203.949 788.318C204 789.246 203.242 790 202.313 790H200.631C200.631 790 200.631 790 200.631 790C200.631 790 200.631 790 200.631 790H142.905C142.881 790 142.861 789.98 142.861 789.956Z" fill="#A2A442"/>
<path fill-rule="evenodd" clip-rule="evenodd" d="M600.892 844.956C600.892 844.932 600.873 844.913 600.849 844.913H599.429C598.621 844.913 597.962 844.257 598.002 843.45C598.108 841.298 598.448 839.182 599.01 837.183C599.699 834.733 600.71 832.506 601.984 830.631C603.258 828.755 604.77 827.267 606.435 826.252C606.972 825.925 607.521 825.649 608.08 825.425C608.883 825.103 609.588 824.561 610.074 823.846C611.871 821.199 614.309 819.713 616.851 819.713C617.418 819.713 617.98 819.787 618.53 819.931C619.398 820.158 620.367 819.888 620.871 819.147C622.195 817.198 623.766 815.652 625.495 814.597C627.225 813.543 629.078 813 630.95 813C632.822 813 634.676 813.543 636.405 814.597C638.134 815.652 639.706 817.198 641.029 819.147C641.443 819.756 641.83 820.4 642.189 821.077C643.221 823.025 645.567 824.014 647.772 824.014C651.553 824.014 655.178 826.225 657.851 830.161C660.254 833.698 661.71 838.368 661.98 843.318C662.031 844.246 661.273 845 660.344 845H658.662C658.662 845 658.662 845 658.662 845C658.662 845 658.662 845 658.662 845H600.936C600.912 845 600.892 844.98 600.892 844.956Z" fill="#A2A442"/>
<path fill-rule="evenodd" clip-rule="evenodd" d="M203.908 722.628C204.612 720.89 205 718.99 205 717C205 708.716 198.284 702 190 702C181.716 702 175 708.716 175 717C175 718.99 175.388 720.89 176.092 722.628C172.335 726.264 170 731.359 170 737C170 748.046 178.954 757 190 757C201.046 757 210 748.046 210 737C210 731.359 207.665 726.264 203.908 722.628Z" fill="#174D34"/>
<path fill-rule="evenodd" clip-rule="evenodd" d="M618.908 773.628C619.612 771.89 620 769.99 620 768C620 759.716 613.284 753 605 753C596.716 753 590 759.716 590 768C590 769.99 590.388 771.89 591.092 773.628C587.335 777.264 585 782.359 585 788C585 799.046 593.954 808 605 808C616.046 808 625 799.046 625 788C625 782.359 622.665 777.264 618.908 773.628Z" fill="#174D34"/>
<line x1="191" y1="737" x2="191" y2="793" stroke="black" stroke-width="2"/>
<line x1="606" y1="788" x2="606" y2="844" stroke="black" stroke-width="2"/>
<path d="M739 238H528L739 216V238Z" fill="white" fill-opacity="0.05"/>
<path d="M229 223L-23.5 216V237.5L229 223Z" fill="white" fill-opacity="0.05"/>
<path d="M66.624 155V131.64H71.872V155H66.624ZM71.232 145.592V141.24H80.256V145.592H71.232ZM71.232 135.992V131.64H80.64V135.992H71.232ZM84.8868 155V137.464H90.0068V155H84.8868ZM82.5508 141.24V137.464H90.0068V141.24H82.5508ZM86.8708 135.736C85.9108 135.736 85.1961 135.491 84.7268 135C84.2788 134.488 84.0548 133.848 84.0548 133.08C84.0548 132.291 84.2788 131.651 84.7268 131.16C85.1961 130.648 85.9108 130.392 86.8708 130.392C87.8308 130.392 88.5348 130.648 88.9828 131.16C89.4521 131.651 89.6868 132.291 89.6868 133.08C89.6868 133.848 89.4521 134.488 88.9828 135C88.5348 135.491 87.8308 135.736 86.8708 135.736ZM94.7423 155V137.464H98.8063V144.984H98.5183C98.5183 143.192 98.7423 141.699 99.1903 140.504C99.6596 139.309 100.364 138.413 101.302 137.816C102.241 137.219 103.382 136.92 104.726 136.92H104.95C106.998 136.92 108.556 137.592 109.622 138.936C110.71 140.259 111.254 142.275 111.254 144.984V155H106.134V144.696C106.134 143.757 105.857 142.989 105.302 142.392C104.748 141.795 104.001 141.496 103.062 141.496C102.102 141.496 101.324 141.805 100.726 142.424C100.15 143.021 99.8623 143.811 99.8623 144.792V155H94.7423ZM122.849 155.576C121.612 155.576 120.481 155.352 119.457 154.904C118.455 154.456 117.58 153.837 116.833 153.048C116.087 152.237 115.511 151.288 115.105 150.2C114.721 149.112 114.529 147.939 114.529 146.68V145.944C114.529 144.685 114.711 143.512 115.073 142.424C115.457 141.336 116.001 140.387 116.705 139.576C117.431 138.744 118.295 138.104 119.297 137.656C120.3 137.187 121.42 136.952 122.657 136.952C124.065 136.952 125.281 137.261 126.305 137.88C127.329 138.477 128.129 139.373 128.705 140.568C129.281 141.741 129.601 143.192 129.665 144.92L128.321 143.672V131.64H133.473V155H129.409V147.736H130.113C130.049 149.4 129.697 150.819 129.057 151.992C128.439 153.165 127.596 154.061 126.529 154.68C125.463 155.277 124.236 155.576 122.849 155.576ZM124.129 151.288C124.919 151.288 125.633 151.117 126.273 150.776C126.935 150.413 127.457 149.891 127.841 149.208C128.247 148.525 128.449 147.704 128.449 146.744V145.56C128.449 144.621 128.247 143.832 127.841 143.192C127.436 142.552 126.903 142.061 126.241 141.72C125.58 141.379 124.865 141.208 124.097 141.208C123.244 141.208 122.476 141.432 121.793 141.88C121.132 142.307 120.609 142.904 120.225 143.672C119.841 144.419 119.649 145.293 119.649 146.296C119.649 147.32 119.841 148.205 120.225 148.952C120.609 149.699 121.143 150.275 121.825 150.68C122.508 151.085 123.276 151.288 124.129 151.288ZM149.54 146.136L142.724 131.64H148.1L152.996 142.488L152.068 142.2H154.756L153.764 142.488L158.18 131.64H163.268L156.996 146.136H149.54ZM150.692 155V145.4H155.844V155H150.692ZM172.63 155.608C171.094 155.608 169.729 155.373 168.534 154.904C167.339 154.413 166.326 153.752 165.494 152.92C164.683 152.088 164.065 151.139 163.638 150.072C163.211 148.984 162.998 147.843 162.998 146.648V145.912C162.998 144.696 163.211 143.544 163.638 142.456C164.086 141.347 164.726 140.376 165.558 139.544C166.411 138.712 167.435 138.061 168.63 137.592C169.825 137.101 171.158 136.856 172.63 136.856C174.145 136.856 175.489 137.101 176.662 137.592C177.857 138.061 178.87 138.712 179.702 139.544C180.534 140.376 181.174 141.347 181.622 142.456C182.07 143.544 182.294 144.696 182.294 145.912V146.648C182.294 147.843 182.081 148.984 181.654 150.072C181.227 151.139 180.598 152.088 179.766 152.92C178.955 153.752 177.953 154.413 176.758 154.904C175.563 155.373 174.187 155.608 172.63 155.608ZM172.63 151.288C173.633 151.288 174.465 151.075 175.126 150.648C175.787 150.221 176.289 149.624 176.63 148.856C176.993 148.088 177.174 147.235 177.174 146.296C177.174 145.293 176.993 144.419 176.63 143.672C176.267 142.904 175.745 142.296 175.062 141.848C174.401 141.4 173.59 141.176 172.63 141.176C171.691 141.176 170.881 141.4 170.198 141.848C169.515 142.296 168.993 142.904 168.63 143.672C168.289 144.419 168.118 145.293 168.118 146.296C168.118 147.235 168.289 148.088 168.63 148.856C168.971 149.624 169.483 150.221 170.166 150.648C170.849 151.075 171.67 151.288 172.63 151.288ZM191.787 155.544C189.761 155.544 188.203 154.893 187.115 153.592C186.027 152.269 185.483 150.285 185.483 147.64V137.464H190.603V147.896C190.603 148.835 190.87 149.581 191.403 150.136C191.937 150.691 192.651 150.968 193.547 150.968C194.465 150.968 195.211 150.68 195.787 150.104C196.363 149.528 196.651 148.749 196.651 147.768V137.464H201.771V155H197.707V147.608H198.059C198.059 149.379 197.825 150.861 197.355 152.056C196.907 153.229 196.235 154.104 195.339 154.68C194.443 155.256 193.334 155.544 192.011 155.544H191.787ZM206.492 155V137.464H210.556V144.984H210.46C210.46 142.509 210.983 140.6 212.028 139.256C213.095 137.912 214.631 137.24 216.636 137.24H217.308V141.656H216.028C214.62 141.656 213.532 142.04 212.764 142.808C211.996 143.555 211.612 144.643 211.612 146.072V155H206.492ZM242.072 155V131.64H247.32V155H242.072ZM226.968 155V131.64H232.216V155H226.968ZM231.288 145.56V140.952H243V145.56H231.288ZM260.818 155.608C259.282 155.608 257.916 155.373 256.722 154.904C255.527 154.413 254.514 153.752 253.682 152.92C252.871 152.088 252.252 151.139 251.826 150.072C251.399 148.984 251.186 147.843 251.186 146.648V145.912C251.186 144.696 251.399 143.544 251.826 142.456C252.274 141.347 252.914 140.376 253.746 139.544C254.599 138.712 255.623 138.061 256.818 137.592C258.012 137.101 259.346 136.856 260.818 136.856C262.332 136.856 263.676 137.101 264.85 137.592C266.044 138.061 267.058 138.712 267.89 139.544C268.722 140.376 269.362 141.347 269.81 142.456C270.258 143.544 270.482 144.696 270.482 145.912V146.648C270.482 147.843 270.268 148.984 269.842 150.072C269.415 151.139 268.786 152.088 267.954 152.92C267.143 153.752 266.14 154.413 264.946 154.904C263.751 155.373 262.375 155.608 260.818 155.608ZM260.818 151.288C261.82 151.288 262.652 151.075 263.314 150.648C263.975 150.221 264.476 149.624 264.818 148.856C265.18 148.088 265.362 147.235 265.362 146.296C265.362 145.293 265.18 144.419 264.818 143.672C264.455 142.904 263.932 142.296 263.25 141.848C262.588 141.4 261.778 141.176 260.818 141.176C259.879 141.176 259.068 141.4 258.385 141.848C257.703 142.296 257.18 142.904 256.818 143.672C256.476 144.419 256.306 145.293 256.306 146.296C256.306 147.235 256.476 148.088 256.818 148.856C257.159 149.624 257.671 150.221 258.354 150.648C259.036 151.075 259.858 151.288 260.818 151.288ZM274.055 155V137.464H278.119V145.016H277.831C277.831 143.224 278.055 141.731 278.503 140.536C278.951 139.341 279.623 138.445 280.519 137.848C281.415 137.229 282.513 136.92 283.815 136.92H284.039C285.361 136.92 286.46 137.229 287.335 137.848C288.231 138.445 288.903 139.341 289.351 140.536C289.82 141.731 290.055 143.224 290.055 145.016H288.807C288.807 143.224 289.031 141.731 289.479 140.536C289.948 139.341 290.631 138.445 291.527 137.848C292.423 137.229 293.521 136.92 294.823 136.92H295.047C296.369 136.92 297.479 137.229 298.375 137.848C299.292 138.445 299.985 139.341 300.455 140.536C300.924 141.731 301.159 143.224 301.159 145.016V155H296.039V144.728C296.039 143.768 295.783 142.989 295.271 142.392C294.78 141.795 294.076 141.496 293.159 141.496C292.241 141.496 291.516 141.805 290.983 142.424C290.449 143.021 290.183 143.821 290.183 144.824V155H285.031V144.728C285.031 143.768 284.775 142.989 284.263 142.392C283.772 141.795 283.079 141.496 282.183 141.496C281.244 141.496 280.508 141.805 279.975 142.424C279.441 143.021 279.175 143.821 279.175 144.824V155H274.055ZM313.556 155.608C312.062 155.608 310.74 155.352 309.588 154.84C308.457 154.328 307.508 153.645 306.74 152.792C305.993 151.917 305.417 150.947 305.012 149.88C304.628 148.792 304.436 147.683 304.436 146.552V145.912C304.436 144.739 304.628 143.619 305.012 142.552C305.417 141.464 305.993 140.493 306.74 139.64C307.486 138.787 308.414 138.115 309.524 137.624C310.654 137.112 311.934 136.856 313.364 136.856C315.241 136.856 316.82 137.283 318.1 138.136C319.401 138.968 320.393 140.067 321.076 141.432C321.758 142.776 322.1 144.248 322.1 145.848V147.576H306.58V144.664H318.996L317.332 146.008C317.332 144.963 317.182 144.067 316.884 143.32C316.585 142.573 316.137 142.008 315.54 141.624C314.964 141.219 314.238 141.016 313.364 141.016C312.468 141.016 311.71 141.219 311.092 141.624C310.473 142.029 310.004 142.627 309.684 143.416C309.364 144.184 309.204 145.133 309.204 146.264C309.204 147.309 309.353 148.227 309.652 149.016C309.95 149.784 310.42 150.381 311.06 150.808C311.7 151.235 312.532 151.448 313.556 151.448C314.494 151.448 315.262 151.267 315.86 150.904C316.457 150.541 316.862 150.093 317.076 149.56H321.78C321.524 150.733 321.022 151.779 320.276 152.696C319.529 153.613 318.59 154.328 317.46 154.84C316.329 155.352 315.028 155.608 313.556 155.608ZM327.004 160.472L323.068 158.936L326.428 149.144L330.78 150.744L327.004 160.472ZM71.04 186.136L64.224 171.64H69.6L74.496 182.488L73.568 182.2H76.256L75.264 182.488L79.68 171.64H84.768L78.496 186.136H71.04ZM72.192 195V185.4H77.344V195H72.192ZM94.13 195.608C92.594 195.608 91.2287 195.373 90.034 194.904C88.8393 194.413 87.826 193.752 86.994 192.92C86.1833 192.088 85.5647 191.139 85.138 190.072C84.7113 188.984 84.498 187.843 84.498 186.648V185.912C84.498 184.696 84.7113 183.544 85.138 182.456C85.586 181.347 86.226 180.376 87.058 179.544C87.9113 178.712 88.9353 178.061 90.13 177.592C91.3247 177.101 92.658 176.856 94.13 176.856C95.6447 176.856 96.9887 177.101 98.162 177.592C99.3567 178.061 100.37 178.712 101.202 179.544C102.034 180.376 102.674 181.347 103.122 182.456C103.57 183.544 103.794 184.696 103.794 185.912V186.648C103.794 187.843 103.581 188.984 103.154 190.072C102.727 191.139 102.098 192.088 101.266 192.92C100.455 193.752 99.4527 194.413 98.258 194.904C97.0633 195.373 95.6873 195.608 94.13 195.608ZM94.13 191.288C95.1327 191.288 95.9647 191.075 96.626 190.648C97.2873 190.221 97.7887 189.624 98.13 188.856C98.4927 188.088 98.674 187.235 98.674 186.296C98.674 185.293 98.4927 184.419 98.13 183.672C97.7673 182.904 97.2447 182.296 96.562 181.848C95.9007 181.4 95.09 181.176 94.13 181.176C93.1913 181.176 92.3807 181.4 91.698 181.848C91.0153 182.296 90.4927 182.904 90.13 183.672C89.7887 184.419 89.618 185.293 89.618 186.296C89.618 187.235 89.7887 188.088 90.13 188.856C90.4713 189.624 90.9833 190.221 91.666 190.648C92.3487 191.075 93.17 191.288 94.13 191.288ZM113.287 195.544C111.261 195.544 109.703 194.893 108.615 193.592C107.527 192.269 106.983 190.285 106.983 187.64V177.464H112.103V187.896C112.103 188.835 112.37 189.581 112.903 190.136C113.437 190.691 114.151 190.968 115.047 190.968C115.965 190.968 116.711 190.68 117.287 190.104C117.863 189.528 118.151 188.749 118.151 187.768V177.464H123.271V195H119.207V187.608H119.559C119.559 189.379 119.325 190.861 118.855 192.056C118.407 193.229 117.735 194.104 116.839 194.68C115.943 195.256 114.834 195.544 113.511 195.544H113.287ZM127.992 195V177.464H132.056V184.984H131.96C131.96 182.509 132.483 180.6 133.528 179.256C134.595 177.912 136.131 177.24 138.136 177.24H138.808V181.656H137.528C136.12 181.656 135.032 182.04 134.264 182.808C133.496 183.555 133.112 184.643 133.112 186.072V195H127.992ZM156.596 195.608C154.484 195.608 152.702 195.277 151.252 194.616C149.801 193.933 148.702 193.016 147.956 191.864C147.209 190.691 146.836 189.347 146.836 187.832H151.924C151.924 188.429 152.084 188.984 152.404 189.496C152.745 190.008 153.257 190.424 153.94 190.744C154.622 191.043 155.508 191.192 156.596 191.192C157.577 191.192 158.398 191.064 159.06 190.808C159.721 190.552 160.222 190.2 160.564 189.752C160.905 189.283 161.076 188.749 161.076 188.152C161.076 187.405 160.756 186.819 160.116 186.392C159.476 185.944 158.441 185.656 157.012 185.528L155.252 185.368C152.926 185.176 151.07 184.451 149.684 183.192C148.297 181.933 147.604 180.269 147.604 178.2C147.604 176.707 147.956 175.416 148.66 174.328C149.385 173.24 150.388 172.408 151.668 171.832C152.948 171.235 154.462 170.936 156.212 170.936C158.046 170.936 159.614 171.256 160.916 171.896C162.238 172.515 163.252 173.4 163.956 174.552C164.66 175.683 165.012 177.016 165.012 178.552H159.892C159.892 177.976 159.753 177.453 159.476 176.984C159.198 176.493 158.782 176.099 158.228 175.8C157.694 175.501 157.022 175.352 156.212 175.352C155.444 175.352 154.793 175.48 154.26 175.736C153.748 175.992 153.364 176.344 153.108 176.792C152.852 177.219 152.724 177.688 152.724 178.2C152.724 178.861 152.958 179.437 153.428 179.928C153.897 180.419 154.665 180.707 155.732 180.792L157.524 180.952C159.23 181.101 160.734 181.475 162.036 182.072C163.337 182.648 164.35 183.448 165.076 184.472C165.822 185.475 166.196 186.701 166.196 188.152C166.196 189.645 165.801 190.957 165.012 192.088C164.244 193.197 163.145 194.061 161.716 194.68C160.286 195.299 158.58 195.608 156.596 195.608ZM180.116 195V189.816H179.252V184.184C179.252 183.288 179.038 182.616 178.612 182.168C178.185 181.72 177.502 181.496 176.564 181.496C176.094 181.496 175.476 181.507 174.708 181.528C173.94 181.549 173.15 181.581 172.34 181.624C171.529 181.667 170.793 181.709 170.132 181.752V177.432C170.622 177.389 171.198 177.347 171.86 177.304C172.521 177.261 173.204 177.229 173.908 177.208C174.612 177.187 175.273 177.176 175.892 177.176C177.684 177.176 179.188 177.432 180.404 177.944C181.641 178.456 182.58 179.235 183.22 180.28C183.86 181.304 184.18 182.627 184.18 184.248V195H180.116ZM174.516 195.448C173.257 195.448 172.148 195.224 171.188 194.776C170.249 194.328 169.513 193.688 168.98 192.856C168.446 192.003 168.18 190.989 168.18 189.816C168.18 188.536 168.51 187.491 169.172 186.68C169.833 185.848 170.761 185.24 171.956 184.856C173.15 184.451 174.526 184.248 176.084 184.248H179.828V187.096H176.052C175.156 187.096 174.462 187.32 173.972 187.768C173.502 188.195 173.268 188.781 173.268 189.528C173.268 190.232 173.502 190.808 173.972 191.256C174.462 191.683 175.156 191.896 176.052 191.896C176.628 191.896 177.14 191.8 177.588 191.608C178.057 191.395 178.441 191.043 178.74 190.552C179.038 190.061 179.209 189.379 179.252 188.504L180.468 189.784C180.361 191 180.062 192.024 179.572 192.856C179.102 193.688 178.441 194.328 177.588 194.776C176.756 195.224 175.732 195.448 174.516 195.448ZM188.908 195V177.304C188.908 175.277 189.484 173.773 190.636 172.792C191.788 171.811 193.484 171.32 195.724 171.32H197.964V175.16H195.5C194.924 175.16 194.476 175.32 194.156 175.64C193.836 175.96 193.676 176.408 193.676 176.984V195H188.908ZM186.828 181.56V177.816H198.22V181.56H186.828ZM208.712 195.608C207.218 195.608 205.896 195.352 204.744 194.84C203.613 194.328 202.664 193.645 201.896 192.792C201.149 191.917 200.573 190.947 200.168 189.88C199.784 188.792 199.592 187.683 199.592 186.552V185.912C199.592 184.739 199.784 183.619 200.168 182.552C200.573 181.464 201.149 180.493 201.896 179.64C202.642 178.787 203.57 178.115 204.68 177.624C205.81 177.112 207.09 176.856 208.52 176.856C210.397 176.856 211.976 177.283 213.256 178.136C214.557 178.968 215.549 180.067 216.232 181.432C216.914 182.776 217.256 184.248 217.256 185.848V187.576H201.736V184.664H214.152L212.488 186.008C212.488 184.963 212.338 184.067 212.04 183.32C211.741 182.573 211.293 182.008 210.696 181.624C210.12 181.219 209.394 181.016 208.52 181.016C207.624 181.016 206.866 181.219 206.248 181.624C205.629 182.029 205.16 182.627 204.84 183.416C204.52 184.184 204.36 185.133 204.36 186.264C204.36 187.309 204.509 188.227 204.808 189.016C205.106 189.784 205.576 190.381 206.216 190.808C206.856 191.235 207.688 191.448 208.712 191.448C209.65 191.448 210.418 191.267 211.016 190.904C211.613 190.541 212.018 190.093 212.232 189.56H216.936C216.68 190.733 216.178 191.779 215.432 192.696C214.685 193.613 213.746 194.328 212.616 194.84C211.485 195.352 210.184 195.608 208.712 195.608Z" fill="white"/>
<path d="M242.759 195V171.64H248.007V195H242.759ZM227.655 195V171.64H232.903V195H227.655ZM231.975 185.56V180.952H243.687V185.56H231.975ZM263.553 195V189.816H262.689V184.184C262.689 183.288 262.476 182.616 262.049 182.168C261.622 181.72 260.94 181.496 260.001 181.496C259.532 181.496 258.913 181.507 258.145 181.528C257.377 181.549 256.588 181.581 255.777 181.624C254.966 181.667 254.23 181.709 253.569 181.752V177.432C254.06 177.389 254.636 177.347 255.297 177.304C255.958 177.261 256.641 177.229 257.345 177.208C258.049 177.187 258.71 177.176 259.329 177.176C261.121 177.176 262.625 177.432 263.841 177.944C265.078 178.456 266.017 179.235 266.657 180.28C267.297 181.304 267.617 182.627 267.617 184.248V195H263.553ZM257.953 195.448C256.694 195.448 255.585 195.224 254.625 194.776C253.686 194.328 252.95 193.688 252.417 192.856C251.884 192.003 251.617 190.989 251.617 189.816C251.617 188.536 251.948 187.491 252.609 186.68C253.27 185.848 254.198 185.24 255.393 184.856C256.588 184.451 257.964 184.248 259.521 184.248H263.265V187.096H259.489C258.593 187.096 257.9 187.32 257.409 187.768C256.94 188.195 256.705 188.781 256.705 189.528C256.705 190.232 256.94 190.808 257.409 191.256C257.9 191.683 258.593 191.896 259.489 191.896C260.065 191.896 260.577 191.8 261.025 191.608C261.494 191.395 261.878 191.043 262.177 190.552C262.476 190.061 262.646 189.379 262.689 188.504L263.905 189.784C263.798 191 263.5 192.024 263.009 192.856C262.54 193.688 261.878 194.328 261.025 194.776C260.193 195.224 259.169 195.448 257.953 195.448ZM275.041 195L269.793 177.464H275.073L280.001 195H275.041ZM276.641 195V190.744H281.793V195H276.641ZM278.529 195L282.785 177.464H287.713L283.169 195H278.529ZM298.368 195.608C296.875 195.608 295.552 195.352 294.4 194.84C293.269 194.328 292.32 193.645 291.552 192.792C290.805 191.917 290.229 190.947 289.824 189.88C289.44 188.792 289.248 187.683 289.248 186.552V185.912C289.248 184.739 289.44 183.619 289.824 182.552C290.229 181.464 290.805 180.493 291.552 179.64C292.299 178.787 293.227 178.115 294.336 177.624C295.467 177.112 296.747 176.856 298.176 176.856C300.053 176.856 301.632 177.283 302.912 178.136C304.213 178.968 305.205 180.067 305.888 181.432C306.571 182.776 306.912 184.248 306.912 185.848V187.576H291.392V184.664H303.808L302.144 186.008C302.144 184.963 301.995 184.067 301.696 183.32C301.397 182.573 300.949 182.008 300.352 181.624C299.776 181.219 299.051 181.016 298.176 181.016C297.28 181.016 296.523 181.219 295.904 181.624C295.285 182.029 294.816 182.627 294.496 183.416C294.176 184.184 294.016 185.133 294.016 186.264C294.016 187.309 294.165 188.227 294.464 189.016C294.763 189.784 295.232 190.381 295.872 190.808C296.512 191.235 297.344 191.448 298.368 191.448C299.307 191.448 300.075 191.267 300.672 190.904C301.269 190.541 301.675 190.093 301.888 189.56H306.592C306.336 190.733 305.835 191.779 305.088 192.696C304.341 193.613 303.403 194.328 302.272 194.84C301.141 195.352 299.84 195.608 298.368 195.608ZM310.305 195V177.464H314.369V184.984H314.081C314.081 183.192 314.305 181.699 314.753 180.504C315.222 179.309 315.926 178.413 316.865 177.816C317.803 177.219 318.945 176.92 320.289 176.92H320.513C322.561 176.92 324.118 177.592 325.185 178.936C326.273 180.259 326.817 182.275 326.817 184.984V195H321.697V184.696C321.697 183.757 321.419 182.989 320.865 182.392C320.31 181.795 319.563 181.496 318.625 181.496C317.665 181.496 316.886 181.805 316.289 182.424C315.713 183.021 315.425 183.811 315.425 184.792V195H310.305ZM330.38 195V189.272H336.012V195H330.38Z" fill="#FEBB02"/>
</g>
<defs>
<filter id="filter0_b_70_457" x="182.5" y="480.341" width="247.5" height="206.097" filterUnits="userSpaceOnUse" color-interpolation-filters="sRGB">
<feFlood flood-opacity="0" result="BackgroundImageFix"/>
<feGaussianBlur in="BackgroundImage" stdDeviation="19"/>
<feComposite in2="SourceAlpha" operator="in" result="effect1_backgroundBlur_70_457"/>
<feBlend mode="normal" in="SourceGraphic" in2="effect1_backgroundBlur_70_457" result="shape"/>
</filter>
<filter id="filter1_b_70_457" x="-8" y="647" width="352" height="118" filterUnits="userSpaceOnUse" color-interpolation-filters="sRGB">
<feFlood flood-opacity="0" result="BackgroundImageFix"/>
<feGaussianBlur in="BackgroundImage" stdDeviation="16.5"/>
<feComposite in2="SourceAlpha" operator="in" result="effect1_backgroundBlur_70_457"/>
<feBlend mode="normal" in="SourceGraphic" in2="effect1_backgroundBlur_70_457" result="shape"/>
</filter>
<filter id="filter2_b_70_457" x="612" y="563" width="120.451" height="134.689" filterUnits="userSpaceOnUse" color-interpolation-filters="sRGB">
<feFlood flood-opacity="0" result="BackgroundImageFix"/>
<feGaussianBlur in="BackgroundImage" stdDeviation="19"/>
<feComposite in2="SourceAlpha" operator="in" result="effect1_backgroundBlur_70_457"/>
<feBlend mode="normal" in="SourceGraphic" in2="effect1_backgroundBlur_70_457" result="shape"/>
</filter>
<linearGradient id="paint0_linear_70_457" x1="359.5" y1="0" x2="359.5" y2="992" gradientUnits="userSpaceOnUse">
<stop stop-color="#438ADB"/>
<stop offset="1" stop-color="#C0D8F3"/>
</linearGradient>
<linearGradient id="paint1_linear_70_457" x1="84.1569" y1="824.418" x2="703.797" y2="804.996" gradientUnits="userSpaceOnUse">
<stop stop-color="#2161AA"/>
<stop offset="1" stop-color="#17457A"/>
</linearGradient>
<linearGradient id="paint2_linear_70_457" x1="120.65" y1="587" x2="120.65" y2="751.731" gradientUnits="userSpaceOnUse">
<stop stop-color="#2C6995"/>
<stop offset="1" stop-color="#983C63"/>
</linearGradient>
<linearGradient id="paint3_linear_70_457" x1="70.65" y1="586" x2="70.65" y2="750.731" gradientUnits="userSpaceOnUse">
<stop stop-color="#2C6995"/>
<stop offset="1" stop-color="#983C63"/>
</linearGradient>
<linearGradient id="paint4_linear_70_457" x1="90.65" y1="606" x2="90.65" y2="770.731" gradientUnits="userSpaceOnUse">
<stop stop-color="#2C6995"/>
<stop offset="1" stop-color="#983C63"/>
</linearGradient>
<linearGradient id="paint5_linear_70_457" x1="115.65" y1="615" x2="115.65" y2="779.731" gradientUnits="userSpaceOnUse">
<stop stop-color="#2C6995"/>
<stop offset="1" stop-color="#983C63"/>
</linearGradient>
<linearGradient id="paint6_linear_70_457" x1="36.2701" y1="585.003" x2="83.786" y2="742.733" gradientUnits="userSpaceOnUse">
<stop stop-color="#2C6995"/>
<stop offset="1" stop-color="#983C63"/>
</linearGradient>
<clipPath id="clip0_70_457">
<rect width="700" height="992" fill="white"/>
</clipPath>
</defs>
</svg>
