<svg width="16" height="17" viewBox="0 0 16 17" fill="none" xmlns="http://www.w3.org/2000/svg">
<path d="M14.5367 7.53678H13.9997V7.50911H7.99967V10.1758H11.7673C11.2177 11.7281 9.74067 12.8424 7.99967 12.8424C5.79067 12.8424 3.99967 11.0514 3.99967 8.84245C3.99967 6.63345 5.79067 4.84245 7.99967 4.84245C9.01934 4.84245 9.94701 5.22711 10.6533 5.85545L12.539 3.96978C11.3483 2.86011 9.75567 2.17578 7.99967 2.17578C4.31801 2.17578 1.33301 5.16078 1.33301 8.84245C1.33301 12.5241 4.31801 15.5091 7.99967 15.5091C11.6813 15.5091 14.6663 12.5241 14.6663 8.84245C14.6663 8.39545 14.6203 7.95911 14.5367 7.53678Z" fill="white"/>
<path d="M2.10156 5.73945L4.2919 7.34578C4.88456 5.87845 6.3199 4.84245 7.99956 4.84245C9.01923 4.84245 9.9469 5.22711 10.6532 5.85545L12.5389 3.96978C11.3482 2.86011 9.75556 2.17578 7.99956 2.17578C5.4389 2.17578 3.21823 3.62145 2.10156 5.73945Z" fill="white"/>
<path d="M8.00043 15.5092C9.72243 15.5092 11.2871 14.8502 12.4701 13.7785L10.4068 12.0325C9.71494 12.5586 8.86958 12.8432 8.00043 12.8425C6.26643 12.8425 4.7941 11.7368 4.23943 10.1938L2.06543 11.8688C3.16876 14.0278 5.40943 15.5092 8.00043 15.5092Z" fill="white"/>
<path d="M14.537 7.53646H14V7.50879H8V10.1755H11.7677C11.5047 10.9143 11.0311 11.5598 10.4053 12.0325L10.4063 12.0318L12.4697 13.7778C12.3237 13.9105 14.6667 12.1755 14.6667 8.84212C14.6667 8.39512 14.6207 7.95879 14.537 7.53646Z" fill="white"/>
</svg>
