<svg width="14" height="14" viewBox="0 0 14 14" fill="none" xmlns="http://www.w3.org/2000/svg">
<path d="M8.02935 5.97064C7.48328 5.4248 6.74278 5.11816 5.97068 5.11816C5.19858 5.11816 4.45809 5.4248 3.91202 5.97064L1.85268 8.02931C1.3066 8.57539 0.999817 9.31603 0.999817 10.0883C0.999817 10.8606 1.3066 11.6012 1.85268 12.1473C2.39876 12.6934 3.13941 13.0002 3.91168 13.0002C4.68396 13.0002 5.4246 12.6934 5.97068 12.1473L7.00002 11.118" stroke="#374151" stroke-linecap="round" stroke-linejoin="round"/>
<path d="M5.9707 8.02953C6.51677 8.57538 7.25727 8.88201 8.02937 8.88201C8.80147 8.88201 9.54197 8.57538 10.088 8.02953L12.1474 5.97087C12.6935 5.42479 13.0002 4.68414 13.0002 3.91187C13.0002 3.13959 12.6935 2.39895 12.1474 1.85287C11.6013 1.30678 10.8606 1 10.0884 1C9.31609 1 8.57545 1.30678 8.02937 1.85287L7.00004 2.8822" stroke="#374151" stroke-linecap="round" stroke-linejoin="round"/>
</svg>
