<svg width="22" height="21" viewBox="0 0 22 21" fill="none" xmlns="http://www.w3.org/2000/svg">
<path d="M2 21.0001C3.1 21.0001 4 20.1001 4 19.0001V12.0001C4 10.9001 3.1 10.0001 2 10.0001C0.9 10.0001 0 10.9001 0 12.0001V19.0001C0 20.1001 0.9 21.0001 2 21.0001ZM10.37 15.4301L11.84 15.9401C11.95 15.9801 12.06 16.0001 12.17 16.0001H19C20.11 16.0001 21 16.8901 21.01 18.0001L13.62 20.7701C13.22 20.9201 12.78 20.9401 12.37 20.8201L6 19.0201V10.0001H7.6C7.84 10.0001 8.08 10.0401 8.3 10.1301L15.23 12.7201C15.4897 12.8166 15.7073 13.0012 15.8447 13.2418C15.9821 13.4824 16.0307 13.7637 15.9818 14.0364C15.933 14.3091 15.7899 14.556 15.5776 14.734C15.3652 14.912 15.0971 15.0097 14.82 15.0101H12.19C12.07 15.0101 11.95 14.9901 11.83 14.9401L10.71 14.5101C10.45 14.4101 10.16 14.5501 10.07 14.8101C9.98 15.0601 10.11 15.3401 10.37 15.4301ZM19.16 4.90008L14.16 1.33008C13.46 0.830078 12.53 0.830078 11.84 1.33008L6.84 4.90008C6.31 5.28008 6 5.88008 6 6.53008V8.00008H7.61C7.86 8.00008 8.12 8.05008 8.35 8.14008L16.14 11.2501C17.26 11.7101 18 12.7901 18 14.0001H20V6.53008C20 5.88008 19.69 5.28008 19.16 4.90008ZM12 9.00008C11.72 9.00008 11.5 8.78008 11.5 8.50008C11.5 8.22008 11.72 8.00008 12 8.00008C12.28 8.00008 12.5 8.22008 12.5 8.50008C12.5 8.78008 12.28 9.00008 12 9.00008ZM12 7.00008C11.72 7.00008 11.5 6.78008 11.5 6.50008C11.5 6.22008 11.72 6.00008 12 6.00008C12.28 6.00008 12.5 6.22008 12.5 6.50008C12.5 6.78008 12.28 7.00008 12 7.00008ZM14 9.00008C13.72 9.00008 13.5 8.78008 13.5 8.50008C13.5 8.22008 13.72 8.00008 14 8.00008C14.28 8.00008 14.5 8.22008 14.5 8.50008C14.5 8.78008 14.28 9.00008 14 9.00008ZM14 7.00008C13.72 7.00008 13.5 6.78008 13.5 6.50008C13.5 6.22008 13.72 6.00008 14 6.00008C14.28 6.00008 14.5 6.22008 14.5 6.50008C14.5 6.78008 14.28 7.00008 14 7.00008Z" fill="#306584"/>
</svg>
