<svg width="20" height="20" viewBox="0 0 20 20" fill="none" xmlns="http://www.w3.org/2000/svg">
<path fill-rule="evenodd" clip-rule="evenodd" d="M8.13411 13.0142C7.97411 13.0142 7.81411 12.9534 7.69245 12.8309C7.07745 12.2167 6.73828 11.4001 6.73828 10.5317C6.73828 8.73174 8.20161 7.26758 9.99995 7.26758C10.8649 7.26758 11.7049 7.61674 12.3041 8.22591C12.5458 8.47258 12.5433 8.86758 12.2966 9.10924C12.0508 9.35258 11.6558 9.34841 11.4133 9.10341C11.0474 8.73091 10.5324 8.51758 9.99995 8.51758C8.89078 8.51758 7.98828 9.42091 7.98828 10.5317C7.98828 11.0659 8.19745 11.5692 8.57578 11.9476C8.81995 12.1917 8.81995 12.5867 8.57661 12.8309C8.45411 12.9534 8.29411 13.0142 8.13411 13.0142Z" fill="#9CA3AF"/>
<path fill-rule="evenodd" clip-rule="evenodd" d="M10.472 13.7426C10.1762 13.7426 9.91283 13.5309 9.85783 13.2293C9.79616 12.8901 10.0212 12.5643 10.3612 12.5026C11.1778 12.3543 11.8245 11.7059 11.9712 10.8884C12.0328 10.5493 12.3578 10.3259 12.697 10.3843C13.037 10.4451 13.2628 10.7701 13.202 11.1101C12.9628 12.4376 11.9112 13.4909 10.5845 13.7326C10.547 13.7393 10.5087 13.7426 10.472 13.7426Z" fill="#9CA3AF"/>
<mask id="mask0_2118_60730" style="mask-type:luminance" maskUnits="userSpaceOnUse" x="1" y="3" width="15" height="13">
<path fill-rule="evenodd" clip-rule="evenodd" d="M1.66602 3.85449H15.0712V15.6029H1.66602V3.85449Z" fill="white"/>
</mask>
<g mask="url(#mask0_2118_60730)">
<path fill-rule="evenodd" clip-rule="evenodd" d="M5.54477 15.6029C5.40977 15.6029 5.27393 15.5588 5.15893 15.4696C3.74977 14.3629 2.55893 12.7404 1.71727 10.7788C1.64893 10.6204 1.64893 10.4421 1.71727 10.2846C2.5681 8.3146 3.76643 6.68376 5.1831 5.5696C8.07143 3.28376 11.9164 3.27626 14.8339 5.58626C15.1048 5.80043 15.1506 6.19376 14.9364 6.4646C14.7214 6.73376 14.3298 6.78126 14.0581 6.56626C11.5864 4.6096 8.40227 4.61626 5.95727 6.55127C4.7606 7.49293 3.7331 8.8646 2.97477 10.5329C3.7256 12.1913 4.74393 13.5546 5.93143 14.4863C6.2031 14.6996 6.24977 15.0929 6.03643 15.3638C5.9131 15.5204 5.72977 15.6029 5.54477 15.6029Z" fill="#9CA3AF"/>
</g>
<mask id="mask1_2118_60730" style="mask-type:luminance" maskUnits="userSpaceOnUse" x="7" y="7" width="12" height="11">
<path fill-rule="evenodd" clip-rule="evenodd" d="M7.26367 7.28418H18.3324V17.241H7.26367V7.28418Z" fill="white"/>
</mask>
<g mask="url(#mask1_2118_60730)">
<path fill-rule="evenodd" clip-rule="evenodd" d="M9.9992 17.241C9.21837 17.241 8.4417 17.1144 7.6917 16.8652C7.3642 16.756 7.1867 16.4019 7.29587 16.0744C7.40503 15.746 7.75753 15.5719 8.0867 15.6785C8.7092 15.886 9.35253 15.991 9.9992 15.991C12.8559 15.991 15.4667 13.956 17.0242 10.5302C16.6442 9.69768 16.2017 8.94352 15.7067 8.28518C15.4992 8.00935 15.5542 7.61685 15.83 7.40935C16.105 7.20185 16.4975 7.25852 16.705 7.53352C17.3084 8.33435 17.8384 9.26018 18.2809 10.2819C18.35 10.4402 18.35 10.6202 18.2809 10.7777C16.5342 14.8252 13.4384 17.241 9.9992 17.241Z" fill="#9CA3AF"/>
</g>
<mask id="mask2_2118_60730" style="mask-type:luminance" maskUnits="userSpaceOnUse" x="2" y="3" width="16" height="15">
<path fill-rule="evenodd" clip-rule="evenodd" d="M2.80273 3.33398H17.1973V17.7282H2.80273V3.33398Z" fill="white"/>
</mask>
<g mask="url(#mask2_2118_60730)">
<path fill-rule="evenodd" clip-rule="evenodd" d="M3.42753 17.7278C3.26753 17.7278 3.10753 17.667 2.98586 17.5445C2.74169 17.3003 2.74169 16.9053 2.98586 16.6611L16.1309 3.51613C16.375 3.27197 16.77 3.27197 17.0142 3.51613C17.2584 3.7603 17.2584 4.15613 17.0142 4.4003L3.86919 17.5445C3.74753 17.667 3.58753 17.7278 3.42753 17.7278Z" fill="#9CA3AF"/>
</g>
</svg>
