<svg width="20" height="22" viewBox="0 0 20 22" fill="none" xmlns="http://www.w3.org/2000/svg">
<path d="M16.25 14.2001C15.6886 14.2029 15.135 14.3318 14.6301 14.5771C14.1251 14.8224 13.6817 15.178 13.3325 15.6176L7.85002 12.1901C8.04983 11.5452 8.04983 10.855 7.85002 10.2101L13.3325 6.7826C13.889 7.47164 14.6714 7.94149 15.5411 8.10891C16.4108 8.27633 17.3117 8.13053 18.0842 7.69732C18.8567 7.26412 19.4509 6.57147 19.7616 5.74209C20.0723 4.91271 20.0794 4.00012 19.7817 3.16598C19.484 2.33184 18.9007 1.63 18.135 1.18478C17.3694 0.739555 16.4709 0.579692 15.5987 0.733506C14.7265 0.887321 13.9368 1.34488 13.3697 2.02514C12.8025 2.7054 12.4944 3.56445 12.5 4.4501C12.5036 4.78549 12.554 5.11872 12.65 5.4401L7.16752 8.8676C6.6835 8.25829 6.02192 7.81464 5.27448 7.59815C4.52704 7.38166 3.73076 7.40305 2.99603 7.65936C2.26129 7.91568 1.62448 8.39421 1.17388 9.02863C0.72328 9.66305 0.481201 10.4219 0.481201 11.2001C0.481201 11.9783 0.72328 12.7372 1.17388 13.3716C1.62448 14.006 2.26129 14.4845 2.99603 14.7408C3.73076 14.9972 4.52704 15.0185 5.27448 14.8021C6.02192 14.5856 6.6835 14.1419 7.16752 13.5326L12.65 16.9601C12.554 17.2815 12.5036 17.6147 12.5 17.9501C12.5 18.6918 12.7199 19.4168 13.132 20.0335C13.5441 20.6502 14.1297 21.1308 14.815 21.4147C15.5002 21.6985 16.2542 21.7727 16.9816 21.628C17.709 21.4834 18.3772 21.1262 18.9017 20.6018C19.4261 20.0773 19.7833 19.4091 19.928 18.6817C20.0727 17.9543 19.9984 17.2003 19.7146 16.515C19.4307 15.8298 18.9501 15.2441 18.3334 14.8321C17.7167 14.42 16.9917 14.2001 16.25 14.2001ZM16.25 2.2001C16.695 2.2001 17.13 2.33206 17.5 2.5793C17.8701 2.82653 18.1584 3.17793 18.3287 3.58907C18.499 4.0002 18.5436 4.4526 18.4568 4.88906C18.37 5.32551 18.1557 5.72643 17.841 6.04109C17.5263 6.35576 17.1254 6.57005 16.689 6.65687C16.2525 6.74369 15.8001 6.69913 15.389 6.52883C14.9778 6.35854 14.6264 6.07015 14.3792 5.70014C14.132 5.33013 14 4.89511 14 4.4501C14 3.85337 14.2371 3.28107 14.659 2.85911C15.081 2.43716 15.6533 2.2001 16.25 2.2001ZM4.25002 13.4501C3.80501 13.4501 3.36999 13.3181 2.99998 13.0709C2.62997 12.8237 2.34158 12.4723 2.17129 12.0611C2.00099 11.65 1.95643 11.1976 2.04325 10.7612C2.13007 10.3247 2.34436 9.92378 2.65903 9.60911C2.97369 9.29445 3.37461 9.08015 3.81106 8.99334C4.24752 8.90652 4.69992 8.95108 5.11105 9.12138C5.52219 9.29167 5.87359 9.58006 6.12082 9.95007C6.36806 10.3201 6.50002 10.7551 6.50002 11.2001C6.50002 11.7968 6.26296 12.3691 5.84101 12.7911C5.41905 13.2131 4.84675 13.4501 4.25002 13.4501ZM16.25 20.2001C15.805 20.2001 15.37 20.0681 15 19.8209C14.63 19.5737 14.3416 19.2223 14.1713 18.8111C14.001 18.4 13.9564 17.9476 14.0432 17.5112C14.1301 17.0747 14.3444 16.6738 14.659 16.3591C14.9737 16.0444 15.3746 15.8302 15.8111 15.7433C16.2475 15.6565 16.6999 15.7011 17.1111 15.8714C17.5222 16.0417 17.8736 16.3301 18.1208 16.7001C18.3681 17.0701 18.5 17.5051 18.5 17.9501C18.5 18.5468 18.263 19.1191 17.841 19.5411C17.4191 19.9631 16.8468 20.2001 16.25 20.2001Z" fill="#374151"/>
</svg>
