<svg width="16" height="18" viewBox="0 0 16 18" fill="none" xmlns="http://www.w3.org/2000/svg">
<path d="M11.4925 0.666504C14.0667 0.666504 15.5 2.14984 15.5 4.6915V13.2998C15.5 15.8832 14.0667 17.3332 11.4925 17.3332H4.50833C1.975 17.3332 0.5 15.8832 0.5 13.2998V4.6915C0.5 2.14984 1.975 0.666504 4.50833 0.666504H11.4925ZM4.73333 12.1165C4.48333 12.0915 4.24167 12.2082 4.10833 12.4248C3.975 12.6332 3.975 12.9082 4.10833 13.1248C4.24167 13.3332 4.48333 13.4582 4.73333 13.4248H11.2667C11.5992 13.3915 11.85 13.1073 11.85 12.7748C11.85 12.4332 11.5992 12.1498 11.2667 12.1165H4.73333ZM11.2667 8.31567H4.73333C4.37417 8.31567 4.08333 8.60817 4.08333 8.9665C4.08333 9.32484 4.37417 9.6165 4.73333 9.6165H11.2667C11.625 9.6165 11.9167 9.32484 11.9167 8.9665C11.9167 8.60817 11.625 8.31567 11.2667 8.31567ZM7.22417 4.5415H4.73333V4.54984C4.37417 4.54984 4.08333 4.8415 4.08333 5.19984C4.08333 5.55817 4.37417 5.84984 4.73333 5.84984H7.22417C7.58333 5.84984 7.875 5.55817 7.875 5.19067C7.875 4.83317 7.58333 4.5415 7.22417 4.5415Z" fill="#2E7DD7"/>
</svg>
