<svg width="17" height="18" viewBox="0 0 17 18" fill="none" xmlns="http://www.w3.org/2000/svg">
<path fill-rule="evenodd" clip-rule="evenodd" d="M11.6706 0C14.513 0 16.4224 1.94646 16.4224 4.84309V13.1569C16.4224 16.0789 14.5718 17.9792 11.7077 17.9973L4.75269 18C1.9103 18 0 16.0535 0 13.1569V4.84309C0 1.92024 1.85063 0.0207936 4.71472 0.00361627L11.6697 0H11.6706ZM11.6706 1.3561L4.71924 1.35972C2.61457 1.37238 1.3561 2.67423 1.3561 4.84309V13.1569C1.3561 15.3402 2.62632 16.6439 4.75178 16.6439L11.7032 16.6412C13.8078 16.6285 15.0663 15.3249 15.0663 13.1569V4.84309C15.0663 2.65977 13.797 1.3561 11.6706 1.3561ZM11.4962 12.1811C11.8705 12.1811 12.1743 12.4849 12.1743 12.8592C12.1743 13.2335 11.8705 13.5372 11.4962 13.5372H4.96885C4.59457 13.5372 4.2908 13.2335 4.2908 12.8592C4.2908 12.4849 4.59457 12.1811 4.96885 12.1811H11.4962ZM11.4962 8.39626C11.8705 8.39626 12.1743 8.70003 12.1743 9.07431C12.1743 9.4486 11.8705 9.75237 11.4962 9.75237H4.96885C4.59457 9.75237 4.2908 9.4486 4.2908 9.07431C4.2908 8.70003 4.59457 8.39626 4.96885 8.39626H11.4962ZM7.45929 4.62015C7.83357 4.62015 8.13734 4.92392 8.13734 5.2982C8.13734 5.67249 7.83357 5.97625 7.45929 5.97625H4.96858C4.59429 5.97625 4.29053 5.67249 4.29053 5.2982C4.29053 4.92392 4.59429 4.62015 4.96858 4.62015H7.45929Z" fill="#374151"/>
</svg>
