<svg width="128" height="134" viewBox="0 0 128 134" fill="none" xmlns="http://www.w3.org/2000/svg">
<g clip-path="url(#clip0_738_1302)">
<path d="M49.8289 55.7942C41.6555 56.9874 38.4965 59.1577 37.8065 66.2603C37.7097 67.2569 36.8889 67.987 36.0204 68.4852C34.3857 69.4229 33.8755 71.7889 33.8964 76.6656C33.9005 77.6199 33.2496 78.4604 32.3182 78.6683L16.6121 82.1742C3.25581 85.5867 -0.0835435 92.8584 0.00157432 105.677V144.405C0.00157432 145.51 0.897003 146.405 2.00157 146.405H126C127.105 146.405 128 145.51 128 144.405V105.677C127.183 85.1328 120.781 79.6901 95.515 79.4462C94.4742 79.4362 93.5975 78.6386 93.5138 77.6012C93.1342 72.8953 92.8505 69.9733 91.2299 68.5761C90.7181 68.1348 90.2464 67.6031 90.1107 66.941C88.838 60.7315 86.4229 58.173 79.737 55.8793C79.5326 55.8092 79.3146 55.7734 79.0984 55.7734H50.1154C50.0203 55.7734 49.923 55.7805 49.8289 55.7942Z" stroke="#2161AA"/>
<path d="M49.3596 57.7256C43.8157 58.4967 41.8302 59.6777 41.2725 62.7452C42.5274 70.9718 51.4511 79.6167 57.5862 86.3095L63.5818 107.364L69.438 86.3095C76.828 78.9195 84.6363 70.414 85.6123 62.7452C85.6123 60.2354 83.6603 58.4228 78.0829 57.7256H49.3596Z" fill="#2161AA"/>
<path d="M49.7777 70.2744L50.0566 56.3311H77.6644V70.2744C77.5239 72.5053 78.1687 73.2026 80.0348 73.8997C68.059 85.6049 60.7369 84.9313 46.8496 73.8997C48.3834 73.0888 49.3322 72.7719 49.7777 70.2744Z" fill="white"/>
<path d="M83.8385 49.2889C84.3002 46.6873 84.6433 44.2197 84.9099 41.7563C86.1664 30.1442 76.4101 20.3574 64.7302 20.3574C53.1308 20.3574 43.3263 30.0319 44.8395 41.5321C45.1856 44.1629 45.6434 46.8782 46.2656 49.8602C46.7936 52.391 47.7384 54.8511 49.3542 56.8692C51.6639 59.7541 54.0063 61.4459 57.0404 63.3825C59.4212 64.9022 62.161 66.1674 64.9801 66.3414C69.0167 66.5906 72.5466 64.2332 75.5824 61.561C77.5225 59.8534 78.9697 58.5618 80.234 57.1944C82.2386 55.0263 83.3226 52.1963 83.8385 49.2889Z" fill="white"/>
<path d="M84.9099 41.7563L85.407 41.8101L84.9099 41.7563ZM83.8385 49.2889L83.3462 49.2015V49.2015L83.8385 49.2889ZM80.234 57.1944L79.8669 56.8549L80.234 57.1944ZM75.5824 61.561L75.9128 61.9364L75.5824 61.561ZM57.0404 63.3825L57.3095 62.9611L57.0404 63.3825ZM49.3542 56.8692L48.9639 57.1817L49.3542 56.8692ZM46.2656 49.8602L46.755 49.7581L46.2656 49.8602ZM44.8395 41.5321L45.3352 41.4669L44.8395 41.5321ZM64.9801 66.3414L64.9492 66.8405L64.9801 66.3414ZM84.4128 41.7026C84.1474 44.1554 83.8057 46.6118 83.3462 49.2015L84.3308 49.3763C84.7946 46.7628 85.1393 44.2839 85.407 41.8101L84.4128 41.7026ZM79.8669 56.8549C78.6228 58.2004 77.195 59.4756 75.2521 61.1857L75.9128 61.9364C77.85 60.2312 79.3165 58.9231 80.6011 57.5338L79.8669 56.8549ZM57.3095 62.9611C54.2915 61.0348 52.0033 59.3779 49.7445 56.5567L48.9639 57.1817C51.3246 60.1302 53.7211 61.8571 56.7714 63.804L57.3095 62.9611ZM46.755 49.7581C46.1353 46.7879 45.6797 44.0849 45.3352 41.4669L44.3437 41.5974C44.6916 44.241 45.1515 46.9686 45.7761 49.9624L46.755 49.7581ZM49.7445 56.5567C48.1927 54.6185 47.2727 52.2393 46.755 49.7581L45.7761 49.9624C46.3145 52.5428 47.2841 55.0836 48.9639 57.1817L49.7445 56.5567ZM65.0109 65.8424C62.3139 65.6759 59.6588 64.4606 57.3095 62.9611L56.7714 63.804C59.1836 65.3437 62.0081 66.6589 64.9492 66.8405L65.0109 65.8424ZM75.2521 61.1857C72.2288 63.8468 68.8332 66.0784 65.0109 65.8424L64.9492 66.8405C69.2002 67.1029 72.8643 64.6196 75.9128 61.9364L75.2521 61.1857ZM83.3462 49.2015C82.8405 52.0511 81.7853 54.7801 79.8669 56.8549L80.6011 57.5338C82.692 55.2725 83.8046 52.3415 84.3308 49.3763L83.3462 49.2015ZM64.7302 20.8574C76.1466 20.8574 85.6338 30.4188 84.4128 41.7026L85.407 41.8101C86.699 29.8696 76.6737 19.8574 64.7302 19.8574V20.8574ZM64.7302 19.8574C52.8766 19.8574 42.7852 29.7521 44.3437 41.5974L45.3352 41.4669C43.8674 30.3116 53.3851 20.8574 64.7302 20.8574V19.8574Z" fill="#2161AA"/>
<path d="M88.4011 23.146H41.0345C40.5221 17.8475 44.647 0 63.781 0C82.9151 0 88.4011 15.3377 88.4011 23.146Z" fill="#2E7DD7"/>
<path d="M41.0345 23.146L40.5368 23.1941L40.5805 23.646H41.0345V23.146ZM88.4011 23.146V23.646H88.9011V23.146H88.4011ZM41.0345 23.646H88.4011V22.646H41.0345V23.646ZM41.5322 23.0978C41.2874 20.5665 42.1595 14.8931 45.4585 9.86017C48.7354 4.86116 54.4006 0.5 63.781 0.5V-0.5C54.0274 -0.5 48.0632 4.06258 44.6222 9.31195C41.2034 14.5274 40.2692 20.4269 40.5368 23.1941L41.5322 23.0978ZM63.781 0.5C73.1946 0.5 79.2042 4.26394 82.8725 8.95296C86.5579 13.6639 87.9011 19.3378 87.9011 23.146H88.9011C88.9011 19.1459 87.5013 13.2468 83.6601 8.3368C79.8019 3.40491 73.5015 -0.5 63.781 -0.5V0.5Z" fill="#17457A"/>
<path d="M88.401 25.9346H83.3813V33.9022C83.3813 34.6265 84.3274 36.9607 85.2807 37.0893L85.959 31.0049H87.587C88.1311 29.1989 88.3227 28.0991 88.401 25.9346Z" fill="#2161AA"/>
<path d="M41.8992 31.3724C41.2196 30.0377 41.1786 28.9218 40.9937 26.2134H45.7344C45.9569 30.2299 45.9419 32.038 45.7344 34.6723C45.3048 36.422 44.9883 36.8723 44.3401 37.0892L43.7118 31.3724H41.8992Z" fill="#2161AA"/>
<path d="M40.4355 27.2373V21.6599H88.9584V27.2373H40.4355Z" fill="#2E7DD7" stroke="#17457A"/>
<path d="M88.5402 30.285C87.0064 29.5878 85.7515 31.292 85.7515 31.292L84.2178 47.1564C86.3396 46.5746 87.5289 46.326 88.5402 44.817L90.3528 32.0976C90.3646 30.9219 90.074 30.9821 88.5402 30.285Z" fill="white"/>
<path d="M85.7515 31.292L85.3489 30.9955L85.2671 31.1066L85.2539 31.2439L85.7515 31.292ZM88.5402 30.285L88.7471 29.8298L88.5402 30.285ZM90.3528 32.0976L90.8478 32.1681L90.8525 32.1355L90.8528 32.1026L90.3528 32.0976ZM88.5402 44.817L88.9556 45.0954L89.0191 45.0006L89.0352 44.8876L88.5402 44.817ZM84.2178 47.1564L83.7201 47.1083L83.6503 47.8305L84.35 47.6386L84.2178 47.1564ZM85.7515 31.292C86.1542 31.5885 86.1541 31.5886 86.154 31.5887C86.1539 31.5888 86.1538 31.5889 86.1538 31.589C86.1537 31.5891 86.1536 31.5893 86.1535 31.5894C86.1533 31.5896 86.1532 31.5897 86.1532 31.5897C86.1532 31.5897 86.1535 31.5894 86.1541 31.5886C86.1552 31.5871 86.1575 31.5841 86.1608 31.5798C86.1676 31.5711 86.1788 31.5569 86.1942 31.5382C86.225 31.5009 86.2722 31.446 86.3339 31.3812C86.4584 31.2503 86.6354 31.0857 86.8492 30.9423C87.2805 30.6531 87.788 30.4923 88.3333 30.7401L88.7471 29.8298C87.7587 29.3805 86.8719 29.7231 86.2923 30.1117C86.0006 30.3073 85.768 30.5251 85.6093 30.692C85.5293 30.7761 85.4665 30.8489 85.4227 30.902C85.4008 30.9286 85.3835 30.9503 85.3712 30.9662C85.365 30.9742 85.36 30.9807 85.3563 30.9856C85.3545 30.9881 85.3529 30.9901 85.3517 30.9918C85.3511 30.9926 85.3505 30.9933 85.3501 30.994C85.3498 30.9943 85.3496 30.9946 85.3494 30.9948C85.3493 30.9949 85.3492 30.9951 85.3492 30.9952C85.349 30.9954 85.3489 30.9955 85.7515 31.292ZM88.3333 30.7401C88.5289 30.829 88.7042 30.9057 88.8593 30.9732C89.016 31.0414 89.1482 31.0987 89.2646 31.1518C89.5052 31.2616 89.6306 31.3331 89.7061 31.396C89.7618 31.4424 89.7887 31.482 89.8101 31.5559C89.8384 31.6531 89.8557 31.8089 89.8529 32.0926L90.8528 32.1026C90.8559 31.7984 90.8413 31.5209 90.7704 31.2769C90.6928 31.0097 90.5534 30.8003 90.3462 30.6277C90.1588 30.4715 89.9246 30.3538 89.6797 30.2421C89.5534 30.1844 89.4113 30.1229 89.2586 30.0564C89.1042 29.9892 88.935 29.9152 88.7471 29.8298L88.3333 30.7401ZM89.8579 32.0271L88.0452 44.7465L89.0352 44.8876L90.8478 32.1681L89.8579 32.0271ZM88.1249 44.5387C87.2351 45.8663 86.2493 46.0809 84.0855 46.6742L84.35 47.6386C86.43 47.0683 87.8227 46.7857 88.9556 45.0954L88.1249 44.5387ZM84.7155 47.2045L86.2492 31.3401L85.2539 31.2439L83.7201 47.1083L84.7155 47.2045Z" fill="#2161AA"/>
<path d="M41.1331 30.4268C42.3023 29.7307 43.7823 30.4268 43.7823 30.4268L45.5949 46.7405C44.5257 46.4034 43.6493 47.0426 41.8514 45.2372L39.181 33.9126C39.0472 32.1944 39.9638 31.1228 41.1331 30.4268Z" fill="white"/>
<path d="M43.7823 30.4268L44.2792 30.3716L44.2483 30.0934L43.9951 29.9743L43.7823 30.4268ZM41.1331 30.4268L40.8773 29.9972V29.9972L41.1331 30.4268ZM39.181 33.9126L38.6825 33.9514L38.6855 33.9899L38.6943 34.0274L39.181 33.9126ZM41.8514 45.2372L41.3648 45.352L41.3972 45.4898L41.4971 45.5901L41.8514 45.2372ZM45.5949 46.7405L45.4446 47.2174L46.1766 47.4482L46.0919 46.6853L45.5949 46.7405ZM43.7823 30.4268C43.9951 29.9743 43.9949 29.9743 43.9948 29.9742C43.9947 29.9742 43.9945 29.9741 43.9944 29.974C43.9942 29.9739 43.9939 29.9738 43.9936 29.9736C43.993 29.9734 43.9923 29.973 43.9915 29.9727C43.99 29.972 43.9881 29.9711 43.9858 29.97C43.9813 29.968 43.9753 29.9653 43.9679 29.962C43.9532 29.9555 43.9329 29.9467 43.9074 29.9362C43.8567 29.9152 43.7851 29.8872 43.6964 29.8564C43.5198 29.7953 43.2709 29.7219 42.9793 29.6727C42.4064 29.5762 41.6062 29.5633 40.8773 29.9972L41.3888 30.8564C41.8292 30.5943 42.3536 30.5814 42.813 30.6588C43.0376 30.6967 43.2317 30.7538 43.3692 30.8014C43.4375 30.825 43.4907 30.846 43.5254 30.8603C43.5427 30.8675 43.5554 30.873 43.5629 30.8763C43.5666 30.878 43.5691 30.8791 43.5702 30.8796C43.5708 30.8798 43.571 30.8799 43.5709 30.8799C43.5708 30.8799 43.5707 30.8798 43.5705 30.8797C43.5703 30.8796 43.5702 30.8796 43.57 30.8795C43.57 30.8795 43.5698 30.8794 43.5698 30.8794C43.5696 30.8793 43.5695 30.8792 43.7823 30.4268ZM40.8773 29.9972C39.6048 30.7547 38.5292 31.9826 38.6825 33.9514L39.6795 33.8738C39.5652 32.4062 40.3228 31.491 41.3888 30.8564L40.8773 29.9972ZM38.6943 34.0274L41.3648 45.352L42.3381 45.1225L39.6676 33.7979L38.6943 34.0274ZM41.4971 45.5901C42.4524 46.5493 43.2084 46.9008 43.9045 47.031C44.2322 47.0923 44.5391 47.1018 44.7817 47.1164C45.035 47.1316 45.2389 47.1525 45.4446 47.2174L45.7453 46.2636C45.4163 46.1599 45.1097 46.1343 44.8418 46.1182C44.5632 46.1014 44.3381 46.0947 44.0883 46.048C43.6294 45.9622 43.0483 45.7305 42.2057 44.8844L41.4971 45.5901ZM46.0919 46.6853L44.2792 30.3716L43.2854 30.482L45.098 46.7957L46.0919 46.6853Z" fill="#2161AA"/>
<path d="M33.2945 78.5822C35.4548 82.9749 39.697 86.3882 44.9473 88.7542C50.2029 91.1227 56.5125 92.4629 62.885 92.6826C75.5855 93.1206 88.7634 89.1026 94.2717 79.5881L93.4063 79.0871C88.1783 88.1173 75.4912 92.1167 62.9194 91.6832C56.6558 91.4672 50.4773 90.1495 45.3582 87.8425C40.2338 85.5332 36.2145 82.2537 34.1918 78.1409L33.2945 78.5822Z" fill="#2161AA"/>
<path d="M63.5835 100.948V147.523" stroke="#2161AA"/>
</g>
<defs>
<clipPath id="clip0_738_1302">
<rect width="128" height="134" fill="white"/>
</clipPath>
</defs>
</svg>
