<svg width="14" height="14" viewBox="0 0 14 14" fill="none" xmlns="http://www.w3.org/2000/svg">
<path d="M12.1894 5.75016C12.7127 6.39285 13.0274 7.25664 13.0274 8.35852C13.0274 9.38865 12.7524 10.2107 12.2889 10.8385C12.1208 11.0662 12.1562 11.5971 12.2906 11.8462C12.6121 12.4425 12.0046 13.096 11.3443 12.9446C10.85 12.8313 10.3315 12.678 9.87784 12.4723C9.71172 12.397 9.52831 12.3666 9.34708 12.3872C9.12194 12.4126 8.89216 12.4252 8.65949 12.4252C7.57968 12.4252 6.56229 12.154 5.78151 11.5835M9.69417 5.02519C9.69417 7.8298 7.6554 9.09188 5.32624 9.09188C5.09357 9.09188 4.86379 9.07929 4.63865 9.05382C4.45742 9.03331 4.27401 9.0637 4.10789 9.139C3.65418 9.34467 3.13573 9.49796 2.64146 9.61127C1.98113 9.76264 1.37362 9.10921 1.69515 8.51291C1.82951 8.26376 1.86493 7.73291 1.69681 7.50517C1.23336 6.87734 0.958313 6.05531 0.958313 5.02519C0.958313 2.22057 2.99709 0.958496 5.32624 0.958496C7.6554 0.958496 9.69417 2.22057 9.69417 5.02519Z" stroke="#64748B" stroke-width="1.5" stroke-linecap="round" stroke-linejoin="round"/>
</svg>
