<svg width="18" height="18" viewBox="0 0 18 18" fill="none" xmlns="http://www.w3.org/2000/svg">
<path fill-rule="evenodd" clip-rule="evenodd" d="M9.02038 0C6.76188 0 4.70388 0.746 3.48638 1.3555C3.37638 1.4105 3.27388 1.4645 3.17838 1.5165C2.98938 1.6195 2.82838 1.7155 2.70038 1.8L4.08538 3.839L4.73738 4.0985C7.28538 5.384 10.7024 5.384 13.2509 4.0985L13.9909 3.7145L15.3009 1.8C15.0295 1.623 14.7473 1.46318 14.4559 1.3215C13.2449 0.7185 11.2364 0 9.02038 0ZM5.79888 2.308C5.30843 2.21622 4.82404 2.09467 4.34838 1.944C5.48888 1.4375 7.18888 0.9 9.01988 0.9C10.2884 0.9 11.4879 1.158 12.4799 1.485C11.3174 1.6485 10.0769 1.926 8.89488 2.2675C7.96488 2.5365 6.87788 2.5075 5.79888 2.308ZM13.7789 4.84L13.6564 4.902C10.8529 6.316 7.13488 6.316 4.33138 4.902L4.21538 4.843C0.0043757 9.4635 -3.21062 17.9985 9.02038 17.9985C21.2504 17.9985 17.9569 9.304 13.7789 4.84ZM8.50038 9C8.23516 9 7.98081 9.10536 7.79327 9.29289C7.60573 9.48043 7.50038 9.73478 7.50038 10C7.50038 10.2652 7.60573 10.5196 7.79327 10.7071C7.98081 10.8946 8.23516 11 8.50038 11V9ZM9.50038 8V7.5H8.50038V8C7.96994 8 7.46124 8.21071 7.08616 8.58579C6.71109 8.96086 6.50038 9.46957 6.50038 10C6.50038 10.5304 6.71109 11.0391 7.08616 11.4142C7.46124 11.7893 7.96994 12 8.50038 12V14C8.29357 14.0001 8.09183 13.936 7.92295 13.8166C7.75407 13.6973 7.62635 13.5285 7.55738 13.3335C7.51322 13.2085 7.42119 13.1061 7.30154 13.0489C7.1819 12.9917 7.04443 12.9843 6.91938 13.0285C6.79433 13.0727 6.69194 13.1647 6.63474 13.2843C6.57754 13.404 6.57022 13.5415 6.61438 13.6665C6.7523 14.0565 7.00772 14.3941 7.34548 14.6329C7.68324 14.8718 8.08672 15 8.50038 15V15.5H9.50038V15C10.0308 15 10.5395 14.7893 10.9146 14.4142C11.2897 14.0391 11.5004 13.5304 11.5004 13C11.5004 12.4696 11.2897 11.9609 10.9146 11.5858C10.5395 11.2107 10.0308 11 9.50038 11V9C9.93538 9 10.3059 9.2775 10.4439 9.6665C10.4643 9.73014 10.4974 9.78903 10.541 9.83969C10.5846 9.89034 10.638 9.93173 10.6979 9.96141C10.7578 9.99109 10.8231 10.0084 10.8898 10.0125C10.9565 10.0165 11.0234 10.0071 11.0864 9.98481C11.1495 9.96254 11.2074 9.92786 11.2568 9.8828C11.3062 9.83775 11.346 9.78325 11.374 9.72253C11.402 9.66181 11.4175 9.59609 11.4196 9.52927C11.4217 9.46245 11.4104 9.39588 11.3864 9.3335C11.2485 8.94351 10.993 8.60587 10.6553 8.36706C10.3175 8.12824 9.91403 8.00001 9.50038 8ZM9.50038 12V14C9.76559 14 10.0199 13.8946 10.2075 13.7071C10.395 13.5196 10.5004 13.2652 10.5004 13C10.5004 12.7348 10.395 12.4804 10.2075 12.2929C10.0199 12.1054 9.76559 12 9.50038 12Z" fill="#BF5E65"/>
</svg>
