<svg width="64" height="56" viewBox="0 0 64 56" fill="none" xmlns="http://www.w3.org/2000/svg">
<path d="M56.0078 48C56.0078 50.1217 55.165 52.1566 53.6647 53.6569C52.1644 55.1571 50.1295 56 48.0078 56H8.00781C5.88608 56 3.85125 55.1571 2.35096 53.6569C0.850667 52.1566 0.0078125 50.1217 0.0078125 48V16C0.00781144 13.8797 0.849568 11.846 2.34813 10.346C3.84669 8.84591 5.87947 8.00212 7.99981 8C7.99981 5.87827 8.84267 3.84344 10.343 2.34315C11.8432 0.842855 13.8781 0 15.9998 0H55.9998C58.1215 0 60.1564 0.842855 61.6567 2.34315C63.157 3.84344 63.9998 5.87827 63.9998 8V40C63.9998 42.1203 63.1581 44.154 61.6595 45.654C60.1609 47.1541 58.1282 47.9979 56.0078 48ZM55.9998 4H15.9998C14.9389 4 13.9215 4.42143 13.1714 5.17157C12.4212 5.92172 11.9998 6.93913 11.9998 8H48.0078C50.1295 8 52.1644 8.84285 53.6647 10.3431C55.165 11.8434 56.0078 13.8783 56.0078 16V44C57.0673 43.9979 58.0827 43.5755 58.8311 42.8256C59.5795 42.0757 59.9998 41.0595 59.9998 40V8C59.9998 6.93913 59.5784 5.92172 58.8282 5.17157C58.0781 4.42143 57.0607 4 55.9998 4ZM8.00781 12C6.94695 12 5.92953 12.4214 5.17939 13.1716C4.42924 13.9217 4.00781 14.9391 4.00781 16V48L14.5918 38.584C14.9187 38.2583 15.3483 38.0556 15.8076 38.0104C16.2669 37.9652 16.7277 38.0802 17.1118 38.336L27.7518 45.428L42.5918 30.588C42.8884 30.2911 43.2709 30.095 43.6851 30.0275C44.0994 29.9601 44.5243 30.0246 44.8998 30.212L52.0078 38V16C52.0078 14.9391 51.5864 13.9217 50.8362 13.1716C50.0861 12.4214 49.0687 12 48.0078 12H8.00781Z" fill="#2E7DD7"/>
</svg>
