<svg width="448" height="262" viewBox="0 0 448 262" fill="none" xmlns="http://www.w3.org/2000/svg">
<path d="M448 244.684L391.995 244.913L336 244.999L224 245.152L112 244.999L56.0048 244.913L0 244.684L56.0048 244.445L112 244.359L224 244.206L336 244.359L391.995 244.445L448 244.684Z" fill="#374151"/>
<path d="M217.012 96.8399C233.186 113.663 281.773 188.537 285.558 190.774C285.558 190.774 285.558 239.743 258.497 229.965C231.436 220.186 206.631 132.332 201.336 104.324C198.545 89.537 203.802 83.1136 217.012 96.8399Z" fill="#D3766A"/>
<path d="M212.892 154.728L262.483 149.088C262.483 149.088 231.723 108.282 215.827 93.7143C199.252 78.535 191.127 80.6666 198.812 109.419C206.536 138.344 212.892 154.728 212.892 154.728Z" fill="#2E7DD7"/>
<path d="M210.56 127.714C210.015 129.082 209.667 130.521 209.527 131.987C211.257 129.596 212.335 126.796 212.653 123.862C211.768 125.035 211.063 126.334 210.56 127.714ZM238.414 128.833C237.05 128.287 235.614 127.939 234.151 127.8C236.537 129.532 239.335 130.61 242.266 130.926C241.094 130.039 239.796 129.334 238.414 128.833ZM231.025 148.122C230.441 146.774 229.669 145.516 228.731 144.385C228.95 145.836 229.375 147.249 229.993 148.581C230.558 149.938 231.325 151.201 232.268 152.328C232.053 150.875 231.635 149.459 231.025 148.122ZM201.928 85.9903C201.68 85.4645 201.431 84.9484 201.144 84.4322C200.804 84.3989 200.462 84.3989 200.122 84.4322C200.351 85.13 200.609 85.7991 200.896 86.4682C201.47 87.8222 202.24 89.0847 203.18 90.2153C202.965 88.7547 202.544 87.3322 201.928 85.9903ZM259.08 144.624L258.124 145.006C256.771 145.588 255.507 146.357 254.368 147.291C255.825 147.074 257.244 146.653 258.583 146.038C258.965 145.866 259.338 145.685 259.711 145.484L259.08 144.624ZM220.845 105.232C219.495 105.811 218.234 106.577 217.098 107.507C218.556 107.298 219.975 106.879 221.313 106.264C222.664 105.684 223.926 104.915 225.06 103.98C223.596 104.19 222.169 104.612 220.826 105.232H220.845ZM217.519 105.318C217.462 105.356 217.408 105.398 217.356 105.442H217.528C217.528 105.442 217.499 105.347 217.499 105.318H217.519Z" fill="white"/>
<path d="M215.273 145.81C216.429 145.542 217.643 145.437 218.819 145.274L222.47 144.768C224.927 144.424 227.393 144.118 229.859 143.812C234.792 143.238 239.724 142.636 244.666 142.149C246.023 142.015 247.39 141.881 248.748 141.776C250.105 141.671 251.615 141.671 253.049 141.565C253.135 141.565 253.135 141.69 253.049 141.699C251.835 141.881 250.631 142.158 249.417 142.349C248.203 142.54 246.912 142.712 245.66 142.865C243.203 143.181 240.728 143.468 238.262 143.745C233.406 144.271 228.54 144.825 223.665 145.255L219.593 145.599C218.169 145.723 216.726 145.934 215.292 145.924C215.281 145.92 215.271 145.913 215.263 145.904C215.256 145.895 215.251 145.884 215.249 145.872C215.247 145.861 215.248 145.849 215.252 145.838C215.257 145.827 215.264 145.817 215.273 145.81Z" fill="#374151"/>
<path opacity="0.1" d="M236.952 151.993L212.902 154.727C212.902 154.727 206.545 138.343 198.812 109.419C195.553 97.2216 195.142 89.8135 197.015 86.4775L236.952 151.993Z" fill="#111827"/>
<path d="M226.648 256.719H151.219C150.598 254.291 149.996 251.94 149.394 249.55C148.705 246.845 148.027 244.207 147.377 241.636C147.233 241.062 147.08 240.489 146.937 239.925C146.44 237.956 145.953 236.044 145.475 234.189C145.188 233.052 144.901 231.934 144.624 230.825C144.347 229.716 144.05 228.588 143.773 227.508C143.697 227.221 143.63 226.934 143.553 226.657L143.324 225.701L143.037 224.583C142.932 224.191 142.836 223.809 142.741 223.426C142.55 222.7 142.368 221.983 142.196 221.285C141.928 220.253 141.67 219.24 141.422 218.255C141.317 217.825 141.202 217.395 141.097 216.974C140.915 216.286 140.743 215.617 140.58 214.957C140.466 214.517 140.361 214.087 140.256 213.667C139.809 211.933 139.395 210.308 139.013 208.792C138.908 208.39 138.812 207.998 138.707 207.616C138.544 206.957 138.382 206.326 138.229 205.704C138.121 205.322 138.025 204.949 137.942 204.586C137.608 203.286 137.302 202.101 137.044 201.059C136.967 200.782 136.9 200.514 136.833 200.256C136.661 199.568 136.499 198.956 136.365 198.411C136.308 198.191 136.26 197.981 136.203 197.79L136.05 197.187C136.05 197.054 135.983 196.92 135.954 196.805L135.82 196.289C135.82 196.206 135.801 196.13 135.763 196.06L135.591 195.381H209.012C209.012 195.381 211.43 203.716 215.301 217.156C216.085 219.89 216.936 222.891 217.844 225.978C220.415 234.945 223.417 245.402 226.648 256.719Z" fill="#4B5563"/>
<path d="M163.569 256.719H161.657C158.866 245.166 156.161 233.59 153.542 221.992C152.905 219.169 152.268 216.346 151.63 213.523L151.458 212.73C151.455 212.702 151.462 212.674 151.478 212.652C151.493 212.629 151.516 212.612 151.543 212.605C151.57 212.598 151.598 212.601 151.623 212.614C151.648 212.626 151.668 212.647 151.678 212.672C151.678 212.758 151.726 212.844 151.755 212.93C152.602 215.964 153.447 219 154.288 222.04C157.519 233.568 160.612 245.127 163.569 256.719Z" fill="#374151"/>
<path d="M206.632 195.39L203.391 211.64L200.734 224.946L196.212 247.619L195.744 249.942L194.97 253.814L194.368 256.719H151.21C150.598 254.282 149.986 251.94 149.394 249.55C148.705 246.845 148.027 244.207 147.377 241.636C147.233 241.062 147.08 240.489 146.937 239.925C146.44 237.956 145.953 236.044 145.475 234.189C145.188 233.052 144.901 231.934 144.624 230.825C144.347 229.716 144.05 228.588 143.773 227.508C143.697 227.221 143.63 226.934 143.553 226.657L143.324 225.701L143.037 224.583C142.932 224.191 142.836 223.809 142.741 223.426C142.55 222.7 142.368 221.983 142.196 221.285C141.928 220.253 141.67 219.24 141.422 218.255C141.307 217.815 141.202 217.395 141.097 216.974C140.915 216.286 140.743 215.617 140.58 214.957C140.466 214.517 140.361 214.087 140.256 213.667C139.809 211.933 139.395 210.308 139.013 208.792C138.908 208.39 138.812 207.998 138.707 207.616C138.544 206.957 138.382 206.326 138.229 205.704C138.121 205.322 138.025 204.949 137.942 204.586C137.608 203.286 137.302 202.101 137.044 201.059C136.967 200.782 136.9 200.514 136.833 200.256C136.661 199.568 136.499 198.956 136.365 198.411C136.308 198.191 136.26 197.981 136.203 197.79L136.05 197.187C136.05 197.054 135.983 196.92 135.954 196.805L135.82 196.289C135.82 196.206 135.801 196.13 135.763 196.06L135.591 195.381L206.632 195.39Z" fill="#374151"/>
<path d="M206.641 195.362C206.641 195.763 206.335 200.141 205.628 206.832C205.427 208.744 205.188 210.923 204.911 213.217C204.481 216.84 203.955 220.864 203.286 225.061C202.158 232.431 200.686 240.469 198.774 248.327C198.095 251.194 197.35 253.957 196.556 256.7H101.781C102.9 242.257 103.922 229.19 104.735 218.895C105.872 204.404 106.647 195.333 106.647 195.333H192.618L206.641 195.362Z" fill="#4B5563"/>
<path d="M206.44 204.07C206.335 207.464 206.191 210.847 205.972 214.222C205.742 217.883 205.408 221.534 204.93 225.185C204.93 225.319 204.93 225.453 204.882 225.587C204.436 229.009 203.923 232.421 203.343 235.824C202.798 238.998 202.387 242.42 200.991 245.383C200.461 246.519 199.707 247.537 198.774 248.375C197.92 249.156 196.875 249.697 195.744 249.943C195.558 249.989 195.37 250.021 195.18 250.038H195.017C195.052 250.058 195.081 250.088 195.099 250.123C195.118 250.159 195.126 250.199 195.122 250.239C195.122 251.376 195.122 252.533 194.989 253.661C194.989 253.709 194.989 253.757 194.989 253.804C194.874 254.76 194.692 255.764 194.511 256.739H192.886V256.682C193.172 255.611 193.411 254.531 193.679 253.451C193.947 252.371 194.329 251.271 194.587 250.153C194.601 250.111 194.628 250.074 194.664 250.048C193.632 250.097 192.61 249.83 191.735 249.281C190.86 248.733 190.174 247.929 189.769 246.979C189.362 245.526 189.335 243.992 189.693 242.525C189.989 240.613 190.276 238.644 190.572 236.704C191.127 233.138 191.844 229.611 192.484 226.065L192.771 224.449C194.042 217.233 195.371 210.016 196.967 202.866C197.025 202.569 197.091 202.273 197.158 201.977C197.225 201.68 197.522 201.833 197.503 202.025C197.455 202.503 197.407 202.98 197.35 203.468C197.069 206.215 196.751 208.948 196.394 211.669C195.935 214.872 195.619 218.093 195.17 221.295C195.017 222.385 194.864 223.474 194.702 224.564C193.966 229.831 193.201 235.079 192.303 240.346C191.882 242.783 190.391 247.152 193.87 247.907C194.674 248.085 195.515 247.98 196.25 247.61C197.799 246.677 198.958 245.213 199.51 243.491C200.37 240.622 200.994 237.687 201.374 234.716C201.947 231.529 202.457 228.314 202.903 225.071C203.477 221.05 204.076 217.032 204.7 213.017C205.013 210.972 205.331 208.926 205.656 206.88L206.115 204.013C206.125 203.812 206.44 203.869 206.44 204.07Z" fill="#374151"/>
<path d="M122.572 229.267C126.519 229.226 130.445 228.696 134.262 227.69C136.021 227.24 137.761 226.676 139.491 226.112C141.205 225.639 142.809 224.834 144.213 223.742C146.87 221.448 148.103 217.844 149.26 214.632C150.515 211.016 151.534 207.322 152.309 203.573C152.309 203.391 152.615 203.458 152.625 203.63C152.716 207.87 152.178 212.099 151.028 216.181C150.072 219.651 148.791 223.512 145.991 225.94C143.19 228.368 139.051 229.401 135.275 229.859C131.042 230.352 126.762 230.294 122.543 229.687C122.487 229.684 122.435 229.658 122.399 229.616C122.362 229.573 122.343 229.518 122.347 229.463C122.351 229.407 122.377 229.355 122.419 229.318C122.461 229.281 122.516 229.263 122.572 229.267Z" fill="#374151"/>
<path d="M115.986 203.687C115.775 208.989 115.552 214.298 115.316 219.612C114.775 231.981 114.179 244.35 113.529 256.719H111.751C112.567 244.325 113.424 231.937 114.322 219.555C114.711 214.259 115.112 208.967 115.527 203.678C115.528 203.617 115.553 203.559 115.597 203.517C115.641 203.475 115.7 203.452 115.761 203.453C115.822 203.454 115.88 203.48 115.922 203.524C115.964 203.568 115.987 203.627 115.986 203.687Z" fill="#374151"/>
<path d="M222.958 234.619L94.3828 224.87C94.3828 224.87 120.249 122.352 171.321 84.6616C184.379 75.036 198.669 81.2109 205.102 88.4087C221.447 106.742 223.34 234.208 222.958 234.619Z" fill="#2E7DD7"/>
<path d="M177.267 89.3261C176.727 90.6926 176.38 92.1274 176.235 93.5893C177.115 92.4219 177.823 91.1343 178.337 89.7658C178.877 88.3993 179.224 86.9645 179.37 85.5026C178.493 86.6723 177.785 87.9594 177.267 89.3261ZM163.311 144.633C162.761 145.999 162.417 147.439 162.288 148.906C164.01 146.512 165.084 143.713 165.404 140.781C164.527 141.959 163.822 143.256 163.311 144.633ZM117.372 168.348C116.828 169.717 116.48 171.155 116.339 172.621C118.069 170.23 119.147 167.43 119.465 164.496C118.595 165.679 117.891 166.975 117.372 168.348ZM154.45 203.286C153.895 204.647 153.547 206.084 153.418 207.549C155.14 205.155 156.213 202.356 156.534 199.424C155.657 200.604 154.955 201.905 154.45 203.286ZM210.56 127.695C210.015 129.063 209.667 130.502 209.528 131.968C211.258 129.577 212.335 126.777 212.653 123.843C211.767 125.022 211.061 126.327 210.56 127.714V127.695ZM187.676 197.235C187.12 198.597 186.769 200.033 186.634 201.498C187.513 200.331 188.218 199.044 188.728 197.675C189.272 196.31 189.619 194.874 189.76 193.411C188.884 194.579 188.182 195.866 187.676 197.235ZM141.345 125.095C140.8 126.46 140.452 127.895 140.313 129.358C142.045 126.97 143.12 124.168 143.429 121.233C142.549 122.411 141.846 123.712 141.345 125.095ZM192.714 106.742C191.351 106.192 189.914 105.844 188.451 105.71C189.619 106.583 190.907 107.285 192.274 107.794C193.64 108.346 195.08 108.694 196.547 108.826C195.376 107.95 194.085 107.248 192.714 106.742ZM207.281 152.825C205.918 152.277 204.482 151.929 203.018 151.793C204.184 152.67 205.472 153.372 206.842 153.876C208.205 154.428 209.641 154.779 211.105 154.918C209.937 154.051 208.649 153.359 207.281 152.863V152.825ZM211.191 207.903C209.826 207.357 208.391 207.01 206.928 206.87C208.093 207.751 209.382 208.456 210.751 208.964C212.117 209.506 213.552 209.854 215.014 209.996C213.842 209.136 212.555 208.444 211.191 207.941V207.903ZM119.666 203.372C118.301 202.826 116.866 202.478 115.403 202.339C117.789 204.071 120.586 205.149 123.518 205.465C122.339 204.599 121.042 203.907 119.666 203.41V203.372ZM152.749 168.004C151.384 167.456 149.949 167.105 148.485 166.962C149.653 167.842 150.941 168.55 152.309 169.065C153.675 169.605 155.11 169.952 156.572 170.098C155.402 169.231 154.115 168.536 152.749 168.033V168.004ZM201.928 85.9614C201.795 85.6746 201.661 85.3974 201.517 85.1202C201.049 84.7666 200.562 84.4224 200.036 84.0879C200.272 84.8892 200.56 85.6746 200.896 86.4393C201.47 87.7934 202.24 89.0558 203.181 90.1864C202.963 88.7357 202.541 87.323 201.928 85.9901V85.9614ZM164.353 115.689C163.777 114.336 163.007 113.074 162.068 111.942C162.528 114.858 163.748 117.601 165.605 119.895C165.395 118.44 164.973 117.023 164.353 115.689ZM197.531 228.798C196.955 227.447 196.189 226.186 195.256 225.051C195.468 226.505 195.886 227.921 196.499 229.257C197.044 230.514 197.747 231.696 198.592 232.774H198.745C198.525 231.4 198.116 230.062 197.531 228.798ZM185.325 162.183C184.743 160.833 183.974 159.571 183.04 158.436C183.515 161.345 184.73 164.084 186.568 166.389C186.356 164.935 185.938 163.519 185.325 162.183ZM97.7475 212.978C97.6902 213.179 97.6328 213.38 97.5659 213.571C97.6902 213.705 97.8049 213.848 97.9196 213.982C97.8813 213.654 97.8239 213.328 97.7475 213.007V212.978ZM135.983 187.475C135.402 186.127 134.633 184.869 133.698 183.738C134.16 186.65 135.38 189.389 137.235 191.681C137.007 190.235 136.576 188.829 135.954 187.504L135.983 187.475ZM144.184 224.277C143.604 222.926 142.835 221.664 141.899 220.53C142.373 223.444 143.591 226.187 145.436 228.492C145.211 227.046 144.78 225.639 144.155 224.315L144.184 224.277ZM208.486 180.001C207.136 180.583 205.875 181.352 204.739 182.285C206.193 182.07 207.61 181.649 208.945 181.033C210.3 180.456 211.566 179.687 212.701 178.748C211.232 178.967 209.802 179.398 208.457 180.029L208.486 180.001ZM107.067 185.583L106.58 186.902C107.611 186.404 108.574 185.778 109.447 185.038C108.627 185.145 107.82 185.337 107.039 185.612L107.067 185.583ZM172.621 217.433C171.27 218.008 170.008 218.774 168.874 219.708C170.331 219.495 171.75 219.076 173.09 218.465C174.44 217.879 175.701 217.107 176.837 216.171C175.366 216.388 173.935 216.822 172.593 217.461L172.621 217.433ZM113.997 225.959L113.338 226.274L115.584 226.447C116.523 225.973 117.402 225.389 118.203 224.707C116.738 224.931 115.312 225.362 113.969 225.988L113.997 225.959ZM136.518 147.357C135.171 147.946 133.911 148.714 132.771 149.642C135.684 149.171 138.427 147.956 140.733 146.115C139.264 146.33 137.835 146.758 136.489 147.386L136.518 147.357ZM169.476 183.967C168.125 184.551 166.864 185.323 165.729 186.261C168.645 185.793 171.389 184.574 173.692 182.725C172.224 182.944 170.795 183.372 169.448 183.996L169.476 183.967ZM186.682 133.641C185.334 134.226 184.073 134.995 182.935 135.925C185.848 135.463 188.59 134.247 190.888 132.398C189.413 132.614 187.977 133.043 186.625 133.669L186.682 133.641Z" fill="white"/>
<path d="M197.818 109.829C190.4 108.73 182.868 93.7612 181.568 83.5524C181.482 82.8451 193.038 60.793 194.845 56.1952C195.218 55.2393 220.988 74.701 220.988 74.701C220.988 74.701 214.297 83.2274 211.171 91.2854C210.951 91.9546 204.987 110.881 197.818 109.829Z" fill="#D3766A"/>
<path d="M221.027 74.7013C221.027 74.7013 214.336 83.2277 211.2 91.2762C211.143 91.4387 210.761 92.624 210.13 94.3159C196.881 87.6248 191.481 75.6763 189.301 67.7903C191.806 62.772 194.138 58.0595 194.884 56.1956C195.256 55.2492 221.027 74.7013 221.027 74.7013Z" fill="#374151"/>
<path d="M200.801 20.3797C193.259 29.1068 185.717 60.5838 190.028 70.2573C196.289 84.2704 212.969 92.6917 226.466 83.7351C239.59 75.0462 248.69 33.848 243.27 24.4039C235.298 10.4863 211.927 7.49445 200.801 20.3797Z" fill="#D3766A"/>
<path d="M220.95 45.9493C219.994 46.0257 219.039 45.9493 218.083 45.9493C217.068 46.0874 216.036 45.8858 215.148 45.3757C214.9 45.1606 214.731 44.8698 214.665 44.5484C214.599 44.227 214.641 43.8928 214.785 43.5978C215.158 43.0588 215.669 42.6292 216.264 42.3536C216.858 42.078 217.516 41.9664 218.169 42.0302C219.509 41.9513 220.831 42.3738 221.878 43.2154C222.099 43.424 222.256 43.6918 222.329 43.987C222.403 44.2821 222.39 44.5922 222.292 44.8803C222.195 45.1684 222.016 45.4223 221.778 45.6118C221.54 45.8013 221.253 45.9185 220.95 45.9493Z" fill="#374151"/>
<path d="M220.109 50.5654C220.109 50.4793 219.918 50.6323 219.899 50.7279C219.545 52.8786 218.771 55.2874 216.697 55.6124C216.63 55.6124 216.611 55.7271 216.697 55.7367C219.115 55.8705 220.109 52.6683 220.109 50.5654Z" fill="#374151"/>
<path d="M218.637 47.9464C215.244 46.9906 213.599 53.8633 216.725 54.7331C219.851 55.603 221.476 48.7398 218.637 47.9464Z" fill="#374151"/>
<path d="M232.44 53.2132C232.44 53.1367 232.583 53.3565 232.564 53.4426C231.991 55.5455 231.685 58.0594 233.434 59.1778C233.491 59.1778 233.434 59.3212 233.386 59.2925C231.121 58.4514 231.561 55.1249 232.44 53.2132Z" fill="#374151"/>
<path d="M234.868 51.4544C238.347 52.0088 236.98 58.9198 233.759 58.4036C230.538 57.8875 231.952 50.986 234.868 51.4544Z" fill="#374151"/>
<path d="M238.395 48.052C237.516 47.6439 236.661 47.1876 235.833 46.6851C234.861 46.3262 234.037 45.6534 233.491 44.7734C233.371 44.4658 233.357 44.1272 233.451 43.8106C233.544 43.4941 233.74 43.2175 234.007 43.0241C235.183 42.2594 236.54 42.6131 237.745 43.2057C238.973 43.765 239.95 44.7594 240.488 45.9969C240.601 46.2879 240.626 46.6057 240.561 46.9109C240.495 47.2161 240.341 47.4954 240.118 47.7141C239.896 47.9328 239.614 48.0814 239.307 48.1415C239.001 48.2015 238.684 48.1704 238.395 48.052Z" fill="#374151"/>
<path d="M212.998 68.9666C213.38 69.588 213.724 70.3909 214.479 70.6394C215.276 70.8113 216.101 70.8113 216.898 70.6394C216.914 70.6379 216.93 70.6416 216.944 70.6498C216.958 70.6581 216.969 70.6706 216.975 70.6854C216.981 70.7003 216.983 70.7168 216.979 70.7326C216.976 70.7484 216.967 70.7626 216.955 70.7732C216.553 71.117 216.065 71.3456 215.543 71.4348C215.021 71.524 214.485 71.4705 213.992 71.2799C213.585 71.0654 213.251 70.7343 213.033 70.3291C212.815 69.9238 212.723 69.4628 212.768 69.0049C212.768 68.8806 212.94 68.8711 212.998 68.9666Z" fill="#374151"/>
<path d="M216.745 63.1455C217.086 64.1135 217.622 65.001 218.321 65.7525C219.02 66.5041 219.866 67.1036 220.807 67.5139C221.625 67.8829 222.49 68.1339 223.378 68.2594C223.545 68.2969 223.715 68.3161 223.885 68.3168C224.047 68.327 224.21 68.327 224.373 68.3168C224.491 68.324 224.608 68.2911 224.705 68.2235C224.802 68.1558 224.874 68.0573 224.908 67.944C224.912 67.8676 224.912 67.791 224.908 67.7146V67.5234C225.338 65.8984 225.778 63.3749 225.778 63.3749C226.303 63.8146 229.018 65.9176 229.181 65.0477C230.452 57.8786 231.857 49.9066 231.608 42.4986C231.608 42.4453 231.587 42.3943 231.55 42.3566C231.512 42.319 231.461 42.2979 231.408 42.2979C231.355 42.2979 231.303 42.319 231.266 42.3566C231.228 42.3943 231.207 42.4453 231.207 42.4986C229.716 49.3426 229.439 56.4066 228.043 63.308C227.108 62.54 226.069 61.9091 224.956 61.4345C224.707 61.4345 224.2 66.3286 223.942 67.0359C223.945 67.0614 223.945 67.0869 223.942 67.1124C221.075 66.8065 219.239 65.4778 217.012 63.0021C216.869 62.8396 216.659 62.9448 216.745 63.1455Z" fill="#374151"/>
<path d="M222.613 67.1982C221.436 68.1483 220.033 68.7802 218.541 69.0334C217.725 69.1472 216.893 69.0035 216.161 68.6224C214.575 67.7717 214.9 66.204 215.53 64.9423C215.874 64.2773 216.294 63.6549 216.783 63.0879C218.237 65.0458 220.281 66.4863 222.613 67.1982Z" fill="#374151"/>
<path d="M218.541 69.0335C217.725 69.1473 216.893 69.0036 216.161 68.6225C214.575 67.7718 214.9 66.2041 215.53 64.9424C217.308 65.5637 218.809 67.2365 218.541 69.0335Z" fill="#FF97B8"/>
<path d="M246.157 36.658C232.774 42.2594 219.239 26.7647 219.239 26.7647C217.706 29.1163 215.454 30.9097 212.818 31.8777C210.183 32.8457 207.305 32.9365 204.614 32.1367C204.614 32.1367 198.191 51.5123 192.953 50.3462C184.99 48.6447 188.173 21.0581 191.777 16.2596C195.381 11.4611 202.454 11.4802 202.454 11.4802C202.454 11.4802 203.802 7.456 209.518 4.71264C215.827 1.67295 233.415 11.203 233.415 11.203C235.011 8.91356 237.123 7.03093 239.58 5.70676C240.173 5.3734 240.828 5.16392 241.505 5.091C242.181 5.01808 242.865 5.08325 243.516 5.28254C244.167 5.48183 244.77 5.8111 245.29 6.25042C245.809 6.68974 246.234 7.22996 246.539 7.83836C245.233 9.09446 244.23 10.6306 243.604 12.331C241.454 17.9515 246.204 18.9361 247.265 13.6501C247.726 11.6883 247.469 9.62628 246.539 7.83836C249.598 4.87514 253.66 4.55014 255.601 6.88248C259.166 11.1552 257.293 32.0125 246.157 36.658Z" fill="#374151"/>
<path d="M213.332 61.2044C211.685 60.6765 210.22 59.6968 209.103 58.3769C207.986 57.0571 207.261 55.45 207.013 53.7388C206.764 52.0276 207.001 50.2809 207.697 48.6978C208.392 47.1146 209.518 45.7586 210.947 44.784C212.375 43.8094 214.048 43.2555 215.776 43.1853C217.504 43.1152 219.217 43.5316 220.719 44.3871C222.222 45.2426 223.454 46.5029 224.276 48.0245C225.097 49.546 225.475 51.2677 225.366 52.9934C225.276 54.3949 224.867 55.7573 224.172 56.9772C223.476 58.1972 222.512 59.2426 221.352 60.0341C220.192 60.8256 218.866 61.3423 217.477 61.5451C216.087 61.7479 214.67 61.6314 213.332 61.2044ZM218.608 44.8111C217.988 44.6104 217.346 44.4852 216.696 44.4384C214.659 44.2938 212.643 44.932 211.06 46.2229C209.477 47.5137 208.447 49.3599 208.178 51.3847C207.91 53.4096 208.425 55.4605 209.617 57.119C210.809 58.7775 212.589 59.9186 214.594 60.3096C216.598 60.7005 218.677 60.3118 220.405 59.2227C222.133 58.1336 223.38 56.4262 223.892 54.449C224.404 52.4717 224.143 50.3735 223.161 48.5825C222.179 46.7915 220.551 45.4426 218.608 44.8111Z" fill="#2E7DD7"/>
<path d="M233.702 65.0667C230.394 63.824 228.674 59.3314 229.878 54.6381C230.391 52.3927 231.599 50.3659 233.329 48.8455C234.028 48.1409 234.898 47.6298 235.853 47.362C236.809 47.0943 237.818 47.0792 238.781 47.318C239.744 47.5569 240.629 48.0417 241.349 48.7249C242.069 49.4082 242.599 50.2665 242.888 51.216C243.698 53.3728 243.815 55.7286 243.222 57.955C241.999 62.8873 238.013 66.1659 234.333 65.2483C234.117 65.2068 233.906 65.146 233.702 65.0667ZM238.873 48.6734L238.424 48.5396C237.652 48.3836 236.853 48.4159 236.096 48.6339C235.339 48.8519 234.646 49.249 234.075 49.7918C232.548 51.1468 231.482 52.9446 231.025 54.9344C229.964 59.2167 231.541 63.3079 234.572 64.0534C237.602 64.799 240.909 61.9314 241.97 57.6586C242.502 55.6863 242.402 53.5967 241.683 51.6844C241.452 51.0134 241.083 50.3986 240.599 49.8798C240.114 49.3611 239.526 48.95 238.873 48.6734Z" fill="#2E7DD7"/>
<path d="M224.86 53.9881L224.267 52.908C225.863 52.019 229.343 51.1014 231.092 53.8639L230.041 54.5139C228.483 52.0382 225.003 53.9021 224.86 53.9881Z" fill="#2E7DD7"/>
<path d="M184.063 48.3481L183.107 47.5834C183.47 47.1342 186.691 43.1864 189.473 43.282C192.083 43.3776 208.008 48.0614 208.686 48.3003L208.333 49.4856C203.763 48.1283 191.452 44.582 189.435 44.5151C187.58 44.4481 184.933 47.2584 184.063 48.3481Z" fill="#2E7DD7"/>
<path d="M196.365 48.5484C196.365 48.5484 193.794 36.2367 188.479 36.7625C183.164 37.2882 182.266 53.1271 186.52 57.1704C187.028 57.7263 187.643 58.1736 188.328 58.4855C189.014 58.7973 189.755 58.9673 190.508 58.9852C191.261 59.003 192.009 58.8684 192.709 58.5894C193.408 58.3104 194.044 57.8927 194.578 57.3616L196.365 48.5484Z" fill="#D3766A"/>
<path d="M188.336 41.3128C188.259 41.2651 188.193 41.3702 188.25 41.4371C191.184 44.3812 191.634 48.4628 191.49 52.4201C190.993 50.6613 189.865 49.3231 187.571 49.8297C187.457 49.8297 187.485 50.0304 187.571 50.0591C188.279 50.1245 188.949 50.4093 189.487 50.8737C190.025 51.3381 190.405 51.959 190.573 52.6495C190.853 53.8022 191.01 54.9813 191.041 56.1672C191.041 56.5591 191.71 56.6355 191.748 56.1672C191.744 56.1355 191.744 56.1033 191.748 56.0716C193.794 51.6554 192.991 43.8364 188.336 41.3128Z" fill="#374151"/>
<path d="M261.9 134.961C264.319 128.594 320.39 140.122 318.153 149.882C309.943 185.632 287.059 217.577 281.276 224.88C273.686 234.439 258.583 232.317 253.077 226.524C245.096 218.122 259.51 141.269 261.9 134.961Z" fill="#D3766A"/>
<path d="M257.952 152.509C256.706 155.935 255.719 159.45 254.999 163.024C254.186 166.561 253.479 170.117 252.905 173.692C251.772 180.923 251.133 188.224 250.994 195.543C250.888 199.634 250.994 203.716 250.994 207.807C250.994 207.902 251.146 207.893 251.146 207.807C251.146 204.184 251.366 200.533 251.663 196.919C251.959 193.306 252.322 189.626 252.791 186.003C253.699 178.882 254.702 171.77 255.993 164.706C256.35 162.725 256.722 160.749 257.111 158.78C257.522 156.734 257.991 154.698 258.258 152.624C258.258 152.471 258.019 152.337 257.952 152.509Z" fill="#374151"/>
<path d="M248.374 34.2014C248.005 39.0694 247.277 43.9034 246.195 48.6639C246.013 49.4764 245.813 50.308 245.612 51.13C244.809 54.3991 243.853 57.6873 242.744 60.8513C242.489 61.616 242.222 62.3711 241.941 63.1167C238.548 72.2836 234.065 80.1695 229.018 83.5151C227.736 84.3746 226.376 85.1107 224.955 85.7136C217.72 81.4939 211.678 75.5027 207.397 68.3037C203.116 61.1048 200.738 52.9349 200.485 44.5631L198.956 44.1426C199.195 43.7698 199.443 43.3874 199.682 42.986C199.921 42.5845 200.217 42.0779 200.475 41.5999C200.858 29.2933 205.829 17.5747 214.412 8.74646C226.427 5.5156 240.813 10.1325 246.864 20.6758C248.336 23.2853 248.785 28.1985 248.374 34.2014Z" fill="#D3766A"/>
<path d="M223.187 43.4917C222.171 43.5443 221.154 43.5443 220.138 43.4917C218.962 43.4917 218.025 43.5777 217.022 42.8799C216.752 42.6513 216.567 42.3379 216.497 41.9907C216.428 41.6436 216.478 41.2832 216.639 40.9682C217.375 39.6682 218.809 39.3336 220.224 39.305C221.643 39.2209 223.044 39.6672 224.153 40.5572C224.398 40.7751 224.575 41.0602 224.661 41.3774C224.746 41.6945 224.737 42.0298 224.635 42.3419C224.532 42.6539 224.34 42.9291 224.083 43.1334C223.826 43.3378 223.514 43.4623 223.187 43.4917Z" fill="#374151"/>
<path d="M222.298 48.4346C222.298 48.3485 222.097 48.511 222.078 48.597C221.706 50.8816 220.884 53.4338 218.685 53.7779C218.618 53.7779 218.599 53.9022 218.685 53.9117C221.247 54.0073 222.298 50.6139 222.298 48.4346Z" fill="#374151"/>
<path d="M220.74 45.6145C217.146 44.6108 215.406 51.8755 218.732 52.8027C222.059 53.7299 223.751 46.4556 220.74 45.6145Z" fill="#374151"/>
<path d="M235.365 51.1872C235.365 51.1107 235.518 51.3401 235.489 51.4357C234.877 53.6629 234.533 56.3203 236.445 57.5533C236.502 57.5533 236.445 57.7063 236.397 57.6776C233.969 56.7313 234.428 53.2137 235.365 51.1872Z" fill="#374151"/>
<path d="M237.936 49.323C241.616 49.9157 240.163 57.2377 236.751 56.6928C233.338 56.148 234.849 48.826 237.936 49.323Z" fill="#374151"/>
<path d="M241.664 45.7193C240.708 45.3083 239.877 44.7634 238.959 44.2759C237.934 43.8998 237.061 43.198 236.474 42.2782C236.348 41.9536 236.334 41.5967 236.432 41.2631C236.531 40.9294 236.737 40.6377 237.018 40.4333C238.271 39.6208 239.705 39.9936 240.976 40.6245C242.264 41.2202 243.286 42.2726 243.843 43.5781C243.952 43.8807 243.971 44.208 243.9 44.5213C243.828 44.8346 243.668 45.1208 243.439 45.3461C243.21 45.5713 242.921 45.7262 242.606 45.7923C242.292 45.8585 241.965 45.8331 241.664 45.7193Z" fill="#374151"/>
<path d="M214.766 67.8761C215.177 68.5261 215.54 69.3768 216.343 69.6445C217.184 69.8308 218.055 69.8308 218.895 69.6445C218.912 69.6439 218.929 69.6483 218.943 69.6571C218.957 69.666 218.969 69.6788 218.976 69.6941C218.983 69.7094 218.986 69.7264 218.983 69.743C218.981 69.7597 218.973 69.7753 218.962 69.7879C218.535 70.1531 218.018 70.3957 217.464 70.49C216.91 70.5842 216.341 70.5266 215.817 70.3231C215.388 70.0945 215.036 69.7436 214.806 69.3147C214.577 68.8859 214.479 68.3985 214.527 67.9143C214.517 67.7805 214.699 67.7805 214.766 67.8761Z" fill="#374151"/>
<path d="M218.742 61.7013C219.099 62.7284 219.664 63.6706 220.403 64.4684C221.142 65.2663 222.037 65.9026 223.034 66.3373C223.9 66.7278 224.817 66.9918 225.758 67.1211C225.937 67.1616 226.12 67.184 226.303 67.188C226.472 67.1986 226.641 67.1986 226.81 67.188C226.935 67.196 227.06 67.1618 227.164 67.0908C227.268 67.0198 227.345 66.9161 227.383 66.7961C227.393 66.7199 227.393 66.6428 227.383 66.5667V66.3659C227.842 64.6454 228.339 61.9689 228.339 61.9689C228.894 62.4373 231.771 64.6645 231.933 63.7468C233.281 56.0998 234.801 47.6977 234.514 39.8499C234.514 39.7942 234.492 39.7407 234.453 39.7012C234.413 39.6618 234.36 39.6396 234.304 39.6396C234.248 39.6396 234.195 39.6618 234.155 39.7012C234.116 39.7407 234.094 39.7942 234.094 39.8499C232.507 47.0955 232.182 54.58 230.738 61.8351C229.715 61.0439 228.586 60.4003 227.383 59.9233C227.125 59.9233 226.58 65.1042 226.313 65.8593C226.317 65.8846 226.317 65.9105 226.313 65.9358C223.321 65.6108 221.333 64.2152 218.981 61.577C218.866 61.3858 218.647 61.491 218.742 61.7013Z" fill="#374151"/>
<path d="M224.956 66.0037C223.707 67.0015 222.222 67.66 220.645 67.9154C219.781 68.0393 218.901 67.8853 218.131 67.4757C216.439 66.5772 216.792 64.914 217.462 63.5853C217.822 62.8793 218.265 62.2183 218.781 61.6162C220.317 63.7009 222.481 65.2385 224.956 66.0037Z" fill="#374151"/>
<path d="M220.635 67.9434C219.771 68.0673 218.891 67.9133 218.121 67.5037C216.429 66.6052 216.783 64.9419 217.452 63.6133C219.325 64.2728 220.922 66.0316 220.635 67.9434Z" fill="#FF97B8"/>
<path d="M249.885 33.6563C249.378 33.8666 248.871 34.0482 248.374 34.2012C234.686 38.4453 221.371 23.1704 221.371 23.1704C219.754 25.669 217.372 27.5776 214.581 28.6113C211.79 29.645 208.74 29.7482 205.886 28.9056C204.401 33.2796 202.583 37.533 200.447 41.6283C200.704 33.5001 202.964 25.5612 207.026 18.516C211.088 11.4709 216.826 5.53753 223.732 1.24257C228.092 2.77256 232.335 4.61913 236.426 6.76754C238.12 4.34282 240.36 2.34907 242.964 0.946255C243.592 0.59272 244.284 0.370177 245 0.292109C245.716 0.214042 246.441 0.282065 247.13 0.492062C247.819 0.702059 248.458 1.04966 249.009 1.51384C249.559 1.97801 250.01 2.5491 250.334 3.19255C248.954 4.53357 247.893 6.16671 247.227 7.97194C244.952 13.9175 249.98 14.9594 251.099 9.36752C251.593 7.28725 251.321 5.09865 250.334 3.20211C253.574 0.0763936 257.876 -0.267722 259.893 2.24623C263.659 6.66238 261.69 28.7336 249.885 33.6563Z" fill="#374151"/>
<path d="M224.353 42.8324C222.762 41.5067 220.79 40.7231 218.723 40.5956C218.101 40.5553 217.477 40.5777 216.859 40.6625C215.31 40.8628 213.831 41.4317 212.547 42.3216C211.263 43.2114 210.211 44.3961 209.48 45.7765C209.268 46.1625 209.089 46.5653 208.944 46.9809C208.612 47.8639 208.416 48.792 208.361 49.7338C208.228 51.9029 208.819 54.0549 210.043 55.8511C211.266 57.6472 213.052 58.9857 215.119 59.6558C215.895 59.8997 216.697 60.0505 217.509 60.1051H218.121C220.464 60.1095 222.731 59.2739 224.511 57.75C226.291 56.226 227.466 54.1145 227.823 51.7985C227.823 51.5213 227.89 51.2441 227.909 50.9573C227.928 50.6706 227.909 50.5367 227.909 50.336C227.906 48.9005 227.585 47.4835 226.971 46.1863C226.356 44.8891 225.462 43.7438 224.353 42.8324ZM217.585 58.7955C215.53 58.6639 213.594 57.7881 212.138 56.3318C210.681 54.8755 209.806 52.9386 209.675 50.8834C209.543 48.8283 210.166 46.7957 211.425 45.1661C212.684 43.5364 214.493 42.4213 216.515 42.0294C217.217 41.8934 217.933 41.8484 218.646 41.8956C219.348 41.9414 220.042 42.073 220.711 42.2875C221.565 42.5619 222.368 42.9718 223.091 43.5015C224.577 44.5772 225.673 46.1067 226.214 47.8594C226.755 49.6121 226.711 51.4931 226.09 53.219C225.468 54.9448 224.303 56.4219 222.769 57.4278C221.235 58.4336 219.416 58.9136 217.585 58.7955Z" fill="#2E7DD7"/>
<path d="M246.367 49.0743L246.195 48.6633C245.609 47.3193 244.603 46.2022 243.327 45.4802C242.915 45.2512 242.475 45.0776 242.018 44.964C241.352 44.802 240.662 44.7631 239.982 44.8493C238.596 45.0432 237.297 45.6379 236.244 46.5604C235.454 47.2336 234.77 48.0233 234.218 48.9023C233.796 49.5535 233.441 50.2452 233.157 50.9669C232.962 51.4323 232.802 51.9116 232.679 52.4008C232.644 52.4978 232.616 52.5967 232.593 52.6971C232.026 54.8645 232.086 57.1482 232.765 59.2831C233.048 60.2718 233.547 61.1851 234.227 61.9572C234.906 62.7292 235.749 63.3405 236.693 63.747C236.894 63.8235 237.095 63.8808 237.305 63.9382C238.097 64.1179 238.916 64.1377 239.716 63.9965C240.515 63.8554 241.278 63.5561 241.96 63.1161C244.395 61.525 246.11 59.0445 246.74 56.2052C247.363 53.8476 247.233 51.3539 246.367 49.0743ZM245.411 55.8897C244.976 57.7541 244.049 59.4675 242.725 60.8507C242.102 61.5771 241.299 62.1271 240.396 62.4458C239.494 62.7645 238.524 62.8407 237.582 62.6669C234.371 61.8735 232.698 57.5434 233.826 53.0125C234.308 50.906 235.434 49.0018 237.047 47.564C237.654 46.9896 238.391 46.5692 239.194 46.338C239.997 46.1069 240.844 46.0716 241.664 46.2354C241.823 46.2731 241.979 46.321 242.132 46.3788C242.824 46.6738 243.447 47.1102 243.961 47.66C244.474 48.2098 244.867 48.8608 245.115 49.5714C245.319 50.0742 245.473 50.5962 245.574 51.1295C245.879 52.7064 245.836 54.3309 245.449 55.8897H245.411Z" fill="#2E7DD7"/>
<path d="M227.326 52.0092L226.705 50.8621C228.396 49.9062 232.086 48.9504 233.931 51.9136L232.822 52.6018C231.169 49.9445 227.488 51.9231 227.326 52.0092Z" fill="#2E7DD7"/>
<path d="M210.187 45.9866L209.814 47.2388L208.944 46.9807C206.794 46.3498 203.62 45.4322 200.456 44.5528L198.927 44.1322C199.166 43.7594 199.414 43.3771 199.653 42.9756L200.427 43.1954C204.251 44.2469 207.95 45.327 209.48 45.7763L210.187 45.9866Z" fill="#2E7DD7"/>
<path d="M267.109 152.197L279.768 149.409L267.508 93.7442L254.85 96.532L267.109 152.197Z" fill="#C0D8F3"/>
<path d="M280.469 119.823C279.081 120.374 277.597 120.644 276.104 120.62C274.61 120.595 273.136 120.275 271.767 119.679C270.397 119.083 269.159 118.222 268.123 117.145C267.088 116.069 266.275 114.798 265.733 113.406L254.408 84.9656C253.857 83.578 253.587 82.0952 253.612 80.6025C253.637 79.1099 253.957 77.637 254.553 76.2685C255.15 74.9001 256.011 73.6632 257.088 72.629C258.165 71.5948 259.435 70.7839 260.826 70.2428C262.215 69.692 263.699 69.4212 265.192 69.4459C266.686 69.4706 268.159 69.7902 269.529 70.3866C270.899 70.9829 272.137 71.8441 273.172 72.9206C274.208 73.9971 275.02 75.2677 275.563 76.6593L286.896 105.155C287.982 107.953 287.916 111.067 286.711 113.816C285.507 116.565 283.262 118.725 280.469 119.823Z" fill="white"/>
<path d="M277.948 121.209C275.277 121.578 272.56 121.042 270.229 119.688C267.898 118.334 266.088 116.239 265.085 113.736L253.751 85.2264C252.572 82.2593 252.621 78.9455 253.885 76.0141C255.15 73.0826 257.527 70.7736 260.494 69.595C263.461 68.4164 266.775 68.4647 269.707 69.7293C272.638 70.994 274.947 73.3714 276.126 76.3385L287.488 104.845C288.664 107.812 288.614 111.125 287.35 114.055C286.086 116.986 283.71 119.295 280.745 120.476C279.844 120.828 278.905 121.074 277.948 121.209ZM263.459 70.2535C262.623 70.3728 261.803 70.5876 261.016 70.8938C258.395 71.939 256.294 73.9814 255.176 76.5729C254.058 79.1645 254.013 82.0937 255.052 84.7182L266.384 113.214C267.429 115.836 269.472 117.936 272.063 119.055C274.655 120.173 277.584 120.218 280.209 119.179C282.827 118.132 284.922 116.088 286.036 113.497C287.149 110.906 287.188 107.979 286.146 105.359L274.811 76.8486C273.926 74.6401 272.328 72.7911 270.271 71.596C268.213 70.4009 265.815 69.9283 263.459 70.2535Z" fill="#374151"/>
<path d="M273.907 155.967C272.971 156.373 271.955 156.561 270.936 156.518C269.916 156.475 268.92 156.201 268.021 155.717C267.123 155.234 266.346 154.553 265.748 153.726C265.151 152.898 264.749 151.947 264.572 150.942L256.386 114.237C255.94 112.023 256.266 109.723 257.31 107.72C258.355 105.717 260.054 104.133 262.125 103.231C263.059 102.823 264.075 102.632 265.094 102.674C266.113 102.715 267.11 102.987 268.009 103.47C268.907 103.952 269.685 104.633 270.282 105.46C270.88 106.286 271.282 107.238 271.458 108.243L279.644 144.947C280.088 147.163 279.762 149.464 278.718 151.469C277.675 153.473 275.977 155.06 273.907 155.967Z" fill="white"/>
<path d="M272.204 157.141C270.674 157.356 269.114 157.079 267.75 156.353C266.756 155.812 265.893 155.057 265.224 154.144C264.555 153.23 264.097 152.18 263.882 151.068L255.682 114.365C255.206 111.988 255.558 109.52 256.679 107.371C257.8 105.221 259.623 103.52 261.844 102.55C262.864 102.121 263.966 101.92 265.072 101.963C266.178 102.005 267.261 102.29 268.245 102.797C269.239 103.335 270.101 104.087 270.77 104.998C271.438 105.909 271.897 106.957 272.112 108.067L280.371 144.79C280.846 147.167 280.495 149.635 279.374 151.784C278.253 153.934 276.43 155.635 274.208 156.605C273.565 156.867 272.892 157.047 272.204 157.141ZM263.98 103.453C263.428 103.533 262.888 103.68 262.372 103.891C260.452 104.726 258.877 106.193 257.907 108.049C256.937 109.905 256.633 112.036 257.044 114.089L265.243 150.792C265.422 151.703 265.798 152.564 266.343 153.315C266.888 154.067 267.591 154.691 268.401 155.144C269.207 155.553 270.093 155.78 270.997 155.81C271.901 155.839 272.8 155.67 273.631 155.314C275.548 154.472 277.121 153.001 278.089 151.144C279.057 149.287 279.364 147.156 278.957 145.102L270.758 108.399C270.578 107.49 270.202 106.632 269.657 105.883C269.112 105.134 268.411 104.512 267.602 104.061C266.494 103.481 265.231 103.267 263.994 103.451L263.98 103.453Z" fill="#374151"/>
<path d="M347.483 103.742L308.933 101.21C295.693 102.8 282.714 106.098 270.321 111.021L245.862 120.683C243.285 121.697 240.41 121.649 237.869 120.547C235.328 119.446 233.327 117.382 232.305 114.808L223.966 93.8272C222.956 91.2517 223.005 88.381 224.103 85.8415C225.201 83.3021 227.259 81.3 229.827 80.272L249.523 72.4537C264.448 66.5116 278.354 58.2763 290.738 48.045L313.824 19.0545L347.483 103.742Z" fill="white"/>
<path d="M243.59 122.033C241.109 122.379 238.584 121.884 236.418 120.627C234.251 119.37 232.568 117.424 231.638 115.098L223.303 94.1449C222.216 91.3886 222.265 88.314 223.439 85.5935C224.612 82.873 226.816 80.728 229.567 79.6278L249.261 71.7956C264.094 65.9004 277.913 57.7198 290.216 47.5508L313.268 18.6216C313.341 18.5228 313.439 18.4461 313.552 18.4002C313.666 18.3542 313.79 18.3409 313.911 18.3615C314.031 18.3805 314.144 18.4304 314.239 18.5063C314.334 18.5823 314.408 18.6816 314.452 18.7947L348.125 103.48C348.169 103.591 348.185 103.712 348.169 103.83C348.153 103.949 348.108 104.061 348.036 104.157C347.968 104.253 347.875 104.33 347.768 104.379C347.661 104.429 347.543 104.45 347.426 104.441L308.822 101.931C295.68 103.517 282.799 106.796 270.499 111.688L246.157 121.376C245.33 121.694 244.468 121.915 243.59 122.033ZM313.603 20.3994L291.262 48.4506C291.24 48.4933 291.205 48.5279 291.162 48.5494C278.733 58.841 264.764 67.115 249.765 73.0686L230.071 80.9008C227.667 81.8651 225.743 83.7412 224.717 86.1195C223.692 88.4979 223.649 91.1853 224.598 93.5951L232.937 114.576C233.901 116.983 235.78 118.91 238.161 119.935C240.543 120.96 243.234 121.001 245.645 120.047L269.989 110.373C282.438 105.424 295.477 102.113 308.779 100.522L346.427 102.969L313.603 20.3994Z" fill="#374151"/>
<path d="M263.036 66.2375C258.629 68.4978 254.127 70.5875 249.499 72.3838L229.803 80.2021C227.234 81.23 225.176 83.2322 224.078 85.7716C222.98 88.3111 222.931 91.1818 223.942 93.7573L232.307 114.833C233.33 117.407 235.331 119.471 237.872 120.573C240.413 121.674 243.287 121.723 245.865 120.708L270.25 111.029C273.304 109.807 276.391 108.69 279.512 107.676L263.036 66.2375Z" fill="#2161AA"/>
<path d="M243.59 122.034C241.109 122.38 238.584 121.885 236.418 120.628C234.251 119.371 232.569 117.424 231.638 115.099L223.304 94.1457C222.216 91.3894 222.265 88.3148 223.439 85.5943C224.613 82.8738 226.816 80.7288 229.567 79.6285L249.261 71.7964C253.641 70.0491 258.161 67.9851 262.715 65.6617C262.798 65.6081 262.892 65.5732 262.99 65.5594C263.089 65.5456 263.189 65.5533 263.284 65.5818C263.466 65.6553 263.613 65.797 263.693 65.977L280.149 107.376C280.186 107.463 280.205 107.558 280.203 107.653C280.202 107.748 280.181 107.842 280.142 107.929C280.052 108.097 279.905 108.228 279.727 108.298C276.602 109.317 273.491 110.433 270.489 111.619L246.147 121.307C245.326 121.649 244.468 121.893 243.59 122.034ZM262.664 67.2109C258.308 69.4356 253.973 71.4029 249.765 73.0694L230.071 80.9015C227.668 81.8658 225.743 83.7419 224.717 86.1203C223.692 88.4987 223.649 91.1861 224.598 93.5959L232.937 114.577C233.901 116.984 235.78 118.91 238.161 119.936C240.543 120.961 243.234 121.001 245.645 120.048L269.989 110.374C272.789 109.259 275.662 108.162 278.59 107.255L262.664 67.2109Z" fill="#374151"/>
<path d="M314.809 10.3445L309.992 12.2592C306.592 13.6111 304.931 17.4637 306.283 20.8643L342.254 111.349C343.606 114.75 347.459 116.411 350.86 115.059L355.676 113.144C359.077 111.792 360.737 107.939 359.386 104.539L323.414 14.054C322.062 10.6534 318.209 8.99259 314.809 10.3445Z" fill="#6DA4E3"/>
<path d="M349.429 116.185C347.803 116.41 346.148 116.083 344.729 115.257C343.31 114.43 342.209 113.152 341.603 111.626L305.629 21.1389C305.272 20.2434 305.095 19.2861 305.109 18.3221C305.122 17.358 305.327 16.4062 305.71 15.5214C306.093 14.6366 306.647 13.8363 307.341 13.1666C308.035 12.4969 308.854 11.971 309.752 11.6191L314.576 9.7104C316.381 8.9957 318.396 9.02531 320.18 9.79274C321.963 10.5602 323.37 12.0029 324.092 13.8052L360.065 104.292C360.78 106.1 360.749 108.116 359.978 109.901C359.208 111.685 357.762 113.091 355.957 113.81L351.148 115.731C350.595 115.95 350.018 116.102 349.429 116.185ZM316.434 10.6517C315.967 10.7179 315.509 10.8392 315.07 11.0131L310.246 12.9218C309.522 13.2077 308.861 13.6339 308.302 14.1758C307.743 14.7178 307.296 15.3649 306.988 16.0799C306.68 16.7949 306.516 17.5638 306.505 18.3424C306.495 19.121 306.639 19.8939 306.928 20.6168L342.903 111.118C343.487 112.576 344.624 113.744 346.066 114.365C347.508 114.987 349.138 115.013 350.598 114.436L355.421 112.513L355.683 113.17L355.421 112.513C356.879 111.93 358.046 110.793 358.668 109.351C359.29 107.909 359.315 106.279 358.739 104.818L322.765 14.3311C322.273 13.0986 321.382 12.0666 320.234 11.3997C319.087 10.7328 317.749 10.4694 316.434 10.6517Z" fill="#374151"/>
<path d="M348.54 37.2743C348.274 37.311 348.003 37.2705 347.759 37.1576C347.59 37.0844 347.436 36.9783 347.308 36.8455C347.179 36.7127 347.078 36.5558 347.011 36.3839C346.943 36.2119 346.91 36.0283 346.914 35.8436C346.918 35.6589 346.958 35.4767 347.032 35.3076L353.892 20.1975C353.967 20.0298 354.076 19.8788 354.21 19.7529C354.344 19.627 354.502 19.5288 354.674 19.4639C354.846 19.399 355.029 19.3686 355.213 19.3745C355.397 19.3804 355.578 19.4225 355.746 19.4984C355.913 19.5742 356.064 19.6823 356.19 19.8165C356.316 19.9507 356.414 20.1084 356.479 20.2805C356.544 20.4527 356.574 20.636 356.569 20.8199C356.563 21.0037 356.521 21.1847 356.445 21.3523L349.585 36.4624C349.492 36.6735 349.347 36.8581 349.164 36.9997C348.982 37.1414 348.767 37.2357 348.54 37.2743Z" fill="#374151"/>
<path d="M377.747 78.4101C377.502 78.4419 377.253 78.4085 377.026 78.3133L361.651 71.9864C361.345 71.8235 361.11 71.5528 360.992 71.2267C360.874 70.9006 360.881 70.5423 361.012 70.2212C361.143 69.9 361.388 69.6388 361.701 69.4882C362.013 69.3375 362.37 69.308 362.703 69.4055L378.078 75.7324C378.367 75.8466 378.611 76.0542 378.769 76.3222C378.928 76.5902 378.993 76.9035 378.953 77.2124C378.914 77.5214 378.773 77.8084 378.552 78.0282C378.332 78.2479 378.044 78.3879 377.735 78.4259L377.747 78.4101Z" fill="#374151"/>
<path d="M358.572 54.4111C358.257 54.4648 357.932 54.4089 357.653 54.2525C357.374 54.0962 357.156 53.8488 357.037 53.5517C356.969 53.3802 356.935 53.1968 356.938 53.0122C356.94 52.8276 356.98 52.6453 357.053 52.4759C357.127 52.3065 357.233 52.1533 357.366 52.0251C357.499 51.8969 357.656 51.7963 357.828 51.7289L374.486 45.1439C374.657 45.0753 374.841 45.041 375.025 45.0432C375.21 45.0454 375.392 45.0839 375.562 45.1566C375.732 45.2292 375.886 45.3347 376.015 45.4668C376.144 45.5989 376.246 45.7552 376.315 45.9267C376.383 46.0981 376.417 46.2815 376.415 46.4662C376.413 46.6509 376.375 46.8333 376.302 47.0032C376.229 47.173 376.124 47.3268 375.992 47.4559C375.86 47.585 375.703 47.6867 375.532 47.7554L358.86 54.3424L358.572 54.4111Z" fill="#374151"/>
<path d="M278.845 140.674L285.618 144.984C286.398 145.507 286.998 146.258 287.335 147.134C287.554 147.685 287.662 148.273 287.653 148.866C287.644 149.458 287.519 150.043 287.284 150.587C287.049 151.131 286.709 151.624 286.284 152.036C285.859 152.449 285.356 152.774 284.805 152.992L266.384 160.32L262.743 143.064L278.845 140.674Z" fill="#2161AA"/>
<path d="M266.537 161.007C266.392 161.024 266.244 160.995 266.116 160.925C266.026 160.875 265.948 160.807 265.885 160.726C265.823 160.645 265.778 160.552 265.752 160.453L262.11 143.197C262.09 143.103 262.091 143.006 262.112 142.913C262.133 142.82 262.174 142.732 262.232 142.656C262.283 142.575 262.352 142.507 262.433 142.456C262.514 142.406 262.606 142.374 262.701 142.364L278.747 139.982C278.915 139.956 279.085 139.993 279.228 140.084L285.988 144.396C286.934 144.994 287.656 145.887 288.042 146.937C288.552 148.223 288.53 149.659 287.982 150.929C287.434 152.2 286.404 153.201 285.119 153.713L266.71 161.025L266.537 161.007ZM263.645 143.646L266.957 159.364L284.601 152.343C285.256 152.087 285.827 151.654 286.25 151.093C286.674 150.531 286.933 149.863 286.999 149.163C287.065 148.463 286.935 147.758 286.624 147.127C286.312 146.496 285.832 145.965 285.236 145.591L278.694 141.418L263.645 143.646Z" fill="#374151"/>
<path d="M240.697 92.6913C240.504 92.2013 240.17 91.7795 239.737 91.4794C239.304 91.1793 238.792 91.0143 238.266 91.0054C237.739 90.9965 237.222 91.144 236.779 91.4292C236.336 91.7145 235.988 92.1247 235.779 92.6079C235.569 93.0911 235.508 93.6256 235.602 94.1437C235.696 94.6619 235.942 95.1404 236.309 95.5186C236.675 95.8969 237.146 96.1579 237.661 96.2687C238.176 96.3795 238.712 96.335 239.201 96.1409C239.854 95.8782 240.377 95.3688 240.657 94.7231C240.937 94.0774 240.951 93.3474 240.697 92.6913Z" fill="#6DA4E3"/>
<path d="M282.031 46.2453C282.128 46.8738 282.409 47.4594 282.839 47.9279C283.269 48.3964 283.829 48.7266 284.447 48.8767C285.065 49.0268 285.714 48.99 286.311 48.7711C286.908 48.5521 287.426 48.1608 287.801 47.6468C288.175 47.1327 288.389 46.519 288.414 45.8836C288.439 45.2481 288.276 44.6194 287.943 44.0772C287.611 43.5349 287.125 43.1036 286.547 42.8378C285.969 42.5721 285.326 42.4838 284.698 42.5843C283.86 42.7183 283.109 43.1786 282.609 43.8646C282.109 44.5506 281.901 45.4065 282.031 46.2453Z" fill="white"/>
<path d="M314.387 161.055C314.387 161.055 328.075 138.554 311.032 117.085C304.016 108.253 287.46 92.4138 253.871 94.6218C245.899 95.1476 234.916 101.542 248.241 105.414C257.704 108.167 264.538 107.048 269.757 109.648C269.757 109.648 256.748 119.446 257.589 127.408C257.962 130.964 258.239 138.736 260.294 146.134C260.294 146.134 262.99 148.046 265.179 147.721C265.179 147.721 271.077 164.735 292.287 169.964L314.387 161.055Z" fill="#D3766A"/>
<path d="M303.834 114.198C298.348 112.009 286.629 107.574 275.779 107.268C263.726 106.934 240.412 109.543 240.269 118.442C240.154 124.971 249.139 124.751 249.139 124.751C249.139 124.751 239.733 127.858 240.928 133.775C242.008 139.166 248.948 138.554 248.948 138.554C248.948 138.554 243.566 141.422 245.612 146.411C248.069 152.414 258.937 145.455 266.641 149.355C268.419 150.273 303.834 114.198 303.834 114.198Z" fill="#D3766A"/>
<path d="M277.529 120.057C272.032 118.853 258.832 119.312 249.254 124.541C249.034 124.655 249.005 124.885 249.254 124.818C258.457 122.134 267.951 120.574 277.529 120.172C277.615 120.172 277.615 120.124 277.529 120.057Z" fill="#374151"/>
<path d="M276.859 132.217C272.003 131.663 258.42 132.743 248.9 138.373C248.68 138.497 248.671 138.727 248.9 138.65C257.957 135.494 267.343 133.374 276.878 132.332C276.894 132.329 276.907 132.321 276.916 132.308C276.925 132.296 276.929 132.28 276.926 132.265C276.924 132.25 276.915 132.236 276.903 132.227C276.89 132.218 276.875 132.215 276.859 132.217Z" fill="#374151"/>
<path d="M296.426 171.426C291.56 170.271 286.863 168.495 282.451 166.14C278.008 163.736 274.076 160.489 270.875 156.582C269.92 155.387 268.964 154.144 268.132 152.873C267.3 151.601 266.383 150.158 265.398 148.896C265.322 148.801 265.14 148.896 265.198 148.982C266.305 151.636 267.669 154.174 269.27 156.562C270.705 158.796 272.42 160.835 274.374 162.632C278.231 166.064 282.802 168.598 287.756 170.05C290.57 170.833 293.45 171.355 296.359 171.608C296.502 171.646 296.56 171.455 296.426 171.426Z" fill="#374151"/>
<path d="M156.897 99.42C132.273 132.484 91.1804 218.656 85.1392 231.331C81.0385 239.934 125.993 262.588 127.896 256.337C130.343 248.326 170.537 142.587 176.167 104.037C179.245 82.9024 165.414 87.9781 156.897 99.42Z" fill="#D3766A"/>
<path d="M129.11 252.036C128.068 259.826 122.772 275.522 118.834 277.921C114.896 280.32 94.2012 279.833 83.7725 279.833C73.3439 279.833 71.3462 276.917 71.4704 273.333C71.5947 269.748 93.5225 269.06 93.5225 269.06C93.5225 269.06 64.2918 277.395 56.9411 278.8C49.5904 280.205 32.6618 284.44 30.1766 278.351C29.0773 275.598 33.7133 272.816 33.7133 272.816C33.7133 272.816 26.6112 274.891 25.4737 271.363C24.1928 267.339 29.842 265.131 29.842 265.131C29.842 265.131 25.3972 266.02 25.292 262.741C25.1009 255.381 52.8977 251.787 52.8977 251.787C52.8977 251.787 31.6199 262.149 30.9126 256.165C29.9567 247.897 73.5829 238.825 78.1233 235.222C81.4269 232.468 84.5168 229.467 87.3666 226.246L129.11 252.036Z" fill="#D3766A"/>
<path d="M62.0932 254.903C59.2578 255.081 56.4396 255.471 53.6624 256.069C50.8755 256.624 48.1215 257.332 45.4132 258.192C42.6982 259.033 40.0334 260.029 37.4316 261.174C34.8205 262.29 32.2935 263.593 29.8706 265.074C32.5566 264.118 35.1757 263.114 37.8426 262.206C40.5095 261.298 43.1668 260.4 45.8529 259.578C48.5389 258.756 51.2249 257.943 53.93 257.15C56.6351 256.356 59.3498 255.668 62.0932 254.903Z" fill="#374151"/>
<path d="M57.7915 247.944C53.2247 248.312 48.7257 249.276 44.4092 250.812C40.0507 252.256 35.9015 254.268 32.0688 256.796C36.3894 255.257 40.5953 253.632 44.8871 252.198C49.179 250.764 53.4327 249.349 57.7915 247.944Z" fill="#374151"/>
<path d="M167.364 156.095L117.467 154.718C117.467 154.718 144.662 111.436 159.23 95.5589C174.438 79.0222 182.715 80.4465 177.525 109.744C172.296 139.242 167.364 156.095 167.364 156.095Z" fill="#2E7DD7"/>
<path d="M136.489 147.386C135.143 147.975 133.882 148.743 132.742 149.671C135.656 149.2 138.398 147.985 140.705 146.144C139.247 146.353 137.827 146.771 136.489 147.386ZM164.353 115.69C163.777 114.337 163.007 113.075 162.068 111.943C162.528 114.858 163.748 117.601 165.605 119.895C165.395 118.44 164.973 117.023 164.353 115.69ZM141.345 125.095C140.8 126.46 140.452 127.896 140.313 129.359C142.045 126.97 143.12 124.168 143.429 121.234C142.549 122.412 141.846 123.713 141.345 125.095ZM163.33 144.633C162.781 146 162.436 147.439 162.307 148.906C164.029 146.512 165.103 143.713 165.424 140.781C164.539 141.958 163.828 143.255 163.311 144.633H163.33ZM177.955 87.8066C177.716 88.3037 177.496 88.8103 177.286 89.3265C176.747 90.693 176.399 92.1277 176.254 93.5897C177.134 92.4223 177.842 91.1347 178.357 89.7662C178.404 89.6419 178.443 89.5272 178.481 89.403C178.344 88.8565 178.162 88.3225 177.936 87.8066H177.955Z" fill="white"/>
<path d="M164.238 147.415C163.053 147.243 161.839 147.243 160.654 147.186L156.974 146.985C154.501 146.864 152.019 146.765 149.528 146.689C144.557 146.536 139.596 146.364 134.635 146.297C133.268 146.297 131.901 146.297 130.534 146.297C129.167 146.297 127.667 146.44 126.233 146.45C126.147 146.45 126.156 146.584 126.233 146.584C127.456 146.66 128.68 146.842 129.913 146.918C131.146 146.995 132.427 147.071 133.689 147.119C136.174 147.215 138.659 147.301 141.145 147.358C146.029 147.473 150.923 147.606 155.808 147.616H159.956C161.38 147.616 162.824 147.692 164.258 147.568C164.296 147.54 164.315 147.425 164.238 147.415Z" fill="#374151"/>
<path d="M177.037 123.643C177.037 123.547 176.923 123.49 176.875 123.585C175.949 125.29 175.157 127.064 174.504 128.89C174.676 128.021 174.877 127.151 175.04 126.271C175.585 123.461 176.082 120.632 176.636 117.821C176.63 117.805 176.619 117.79 176.605 117.78C176.59 117.769 176.573 117.764 176.555 117.764C176.537 117.764 176.519 117.769 176.505 117.78C176.49 117.79 176.479 117.805 176.473 117.821C175.183 122.658 173.682 127.447 172.535 132.322C171.388 137.197 170.232 142.072 169.161 146.966C168.578 149.671 168.052 153.045 167.46 155.741C166.016 155.913 164.162 155.741 162.604 155.942C162.47 155.942 162.508 156.181 162.604 156.181C164.248 156.229 166.207 156.601 167.937 156.496C168.157 156.496 172.344 139.109 174.084 130.783C175.154 128.413 176.148 126.042 177.037 123.643Z" fill="#374151"/>
<path d="M212.529 96.6105C211.831 98.8951 211.038 101.151 210.13 103.359C209.372 105.348 208.441 107.267 207.348 109.094C205.284 112.354 202.11 115.049 198.086 115.04C194.262 115.04 190.764 112.822 188.317 109.993C185.64 106.905 183.862 103.034 182.266 99.3061C181.31 97.0025 180.354 94.651 179.59 92.2709C179.198 91.0665 178.787 89.8621 178.443 88.6385C178.098 87.415 177.802 86.1819 177.382 84.9871C177.382 84.8915 177.171 84.9011 177.2 84.9871C177.907 87.74 179.962 96.4576 180.784 98.6752C182.295 102.738 183.996 106.934 186.72 110.356C189.301 113.587 192.809 116.034 197.006 116.435C201.202 116.837 204.796 114.629 207.109 111.302C208.469 109.207 209.531 106.932 210.264 104.544C211.153 101.925 211.898 99.2392 212.577 96.5532C212.615 96.5914 212.529 96.5819 212.529 96.6105Z" fill="#374151"/>
<path d="M369.16 282.146H300.614L297.555 221.888H369.16V282.146Z" fill="#C0D8F3"/>
<path d="M369.16 221.888L393.783 191.061L413.379 221.888L410.32 282.146H369.16V221.888Z" fill="#C0D8F3"/>
<path d="M321.481 181.272H394.653L421.045 224.325H412.547L394.653 194.521L374.016 227.881H291.514L321.481 181.272Z" fill="#97BEEB"/>
<path d="M329.959 194.894H314.226L305.833 204.949H323.995L329.959 194.894Z" fill="#C0D8F3"/>
<path d="M318.04 203.228V215.473H309.284V203.228L313.662 197.751L318.04 203.228Z" fill="#C0D8F3"/>
<path d="M318.04 203.219H324.922L318.04 215.473V203.219Z" fill="#C0D8F3"/>
<path d="M315.927 203.42H310.947V211.822H315.927V203.42Z" fill="#EAF2FB"/>
<path d="M313.164 204.003H311.559V206.708H313.164V204.003Z" fill="#C0D8F3"/>
<path d="M315.306 204.003H313.7V206.708H315.306V204.003Z" fill="#C0D8F3"/>
<path d="M313.164 207.195H311.559V211.2H313.164V207.195Z" fill="#C0D8F3"/>
<path d="M315.306 207.195H313.7V211.2H315.306V207.195Z" fill="#C0D8F3"/>
<path d="M368.481 194.894H352.748L344.871 204.949H362.478L368.481 194.894Z" fill="#C0D8F3"/>
<path d="M356.561 203.228V215.473H347.806V203.228L352.184 197.751L356.561 203.228Z" fill="#C0D8F3"/>
<path d="M356.562 203.219H363.453L356.562 215.473V203.219Z" fill="#C0D8F3"/>
<path d="M354.449 203.42H349.469V211.822H354.449V203.42Z" fill="#EAF2FB"/>
<path d="M351.686 204.003H350.081V206.708H351.686V204.003Z" fill="#C0D8F3"/>
<path d="M353.837 204.003H352.231V206.708H353.837V204.003Z" fill="#C0D8F3"/>
<path d="M351.686 207.195H350.081V211.2H351.686V207.195Z" fill="#C0D8F3"/>
<path d="M353.837 207.195H352.231V211.2H353.837V207.195Z" fill="#C0D8F3"/>
<path d="M381.529 179.532H372.773V191.06H381.529V179.532Z" fill="#C0D8F3"/>
<path d="M381.529 179.532H388.411V181.387L381.529 191.06V179.532Z" fill="#C0D8F3"/>
<path d="M381.529 175.613H371.789V179.532H381.529V175.613Z" fill="#C0D8F3"/>
<path d="M389.166 175.613H381.529V179.532H389.166V175.613Z" fill="#97BEEB"/>
<path d="M318.699 232.812H307.859V251.118H318.699V232.812Z" fill="#EAF2FB"/>
<path d="M312.687 234.084H309.198V239.982H312.687V234.084Z" fill="#C0D8F3"/>
<path d="M317.361 234.084H313.872V239.982H317.361V234.084Z" fill="#C0D8F3"/>
<path d="M312.687 241.043H309.198V249.78H312.687V241.043Z" fill="#C0D8F3"/>
<path d="M317.361 241.043H313.872V249.78H317.361V241.043Z" fill="#C0D8F3"/>
<path d="M358.961 232.812H348.121V251.118H358.961V232.812Z" fill="#EAF2FB"/>
<path d="M352.948 234.084H349.459V239.982H352.948V234.084Z" fill="#C0D8F3"/>
<path d="M357.622 234.084H354.133V239.982H357.622V234.084Z" fill="#C0D8F3"/>
<path d="M352.948 241.043H349.459V249.78H352.948V241.043Z" fill="#C0D8F3"/>
<path d="M357.622 241.043H354.133V249.78H357.622V241.043Z" fill="#C0D8F3"/>
<path d="M318.699 258.249H307.859V276.554H318.699V258.249Z" fill="#EAF2FB"/>
<path d="M312.687 259.521H309.198V265.418H312.687V259.521Z" fill="#C0D8F3"/>
<path d="M317.361 259.521H313.872V265.418H317.361V259.521Z" fill="#C0D8F3"/>
<path d="M358.961 258.249H348.121V276.554H358.961V258.249Z" fill="#EAF2FB"/>
<path d="M352.948 259.521H349.459V265.418H352.948V259.521Z" fill="#C0D8F3"/>
<path d="M357.622 259.521H354.133V265.418H357.622V259.521Z" fill="#C0D8F3"/>
<path d="M338.773 232.812H327.933V251.118H338.773V232.812Z" fill="#EAF2FB"/>
<path d="M332.76 234.084H329.271V239.982H332.76V234.084Z" fill="#C0D8F3"/>
<path d="M337.444 234.084H333.955V239.982H337.444V234.084Z" fill="#C0D8F3"/>
<path d="M332.76 241.043H329.271V249.78H332.76V241.043Z" fill="#C0D8F3"/>
<path d="M337.444 241.043H333.955V249.78H337.444V241.043Z" fill="#C0D8F3"/>
<path d="M338.773 258.373H327.933V276.678H338.773V258.373Z" fill="#EAF2FB"/>
<path d="M332.76 259.635H329.271V265.533H332.76V259.635Z" fill="#C0D8F3"/>
<path d="M337.444 259.635H333.955V265.533H337.444V259.635Z" fill="#C0D8F3"/>
<path d="M388.64 251.118H399.48V232.813H388.64V251.118Z" fill="#EAF2FB"/>
<path d="M398.142 234.084H394.653V239.982H398.142V234.084Z" fill="#C0D8F3"/>
<path d="M393.458 234.084H389.969V239.982H393.458V234.084Z" fill="#C0D8F3"/>
<path d="M398.142 241.043H394.653V249.78H398.142V241.043Z" fill="#C0D8F3"/>
<path d="M393.458 241.043H389.969V249.78H393.458V241.043Z" fill="#C0D8F3"/>
<path d="M388.64 222.824H399.48V207.329H388.64V222.824Z" fill="#EAF2FB"/>
<path d="M398.142 208.591H394.653V214.489H398.142V208.591Z" fill="#C0D8F3"/>
<path d="M393.458 208.591H389.969V214.489H393.458V208.591Z" fill="#C0D8F3"/>
<path d="M398.142 215.616H394.653V221.514H398.142V215.616Z" fill="#C0D8F3"/>
<path d="M393.458 215.616H389.969V221.514H393.458V215.616Z" fill="#C0D8F3"/>
<path d="M387.098 282.258L400.241 282.32L400.354 258.452L387.211 258.39L387.098 282.258Z" fill="#EAF2FB"/>
<path d="M392.349 260.042L392.332 263.617L395.161 263.631L395.178 260.056L392.349 260.042Z" fill="#C0D8F3"/>
<path d="M388.651 260.023L388.634 263.598L391.464 263.611L391.481 260.036L388.651 260.023Z" fill="#C0D8F3"/>
<path d="M394.118 258.22V261.795H396.947V258.22H394.118Z" fill="#C0D8F3"/>
<path d="M180.51 282.308H119.621L116.896 252.8H180.51V282.308Z" fill="#C0D8F3"/>
<path d="M180.489 252.762L202.36 225.386L219.776 252.762L217.052 282.27H180.489V252.762Z" fill="#C0D8F3"/>
<path d="M137.791 216.726H203.928L228.428 258.125H221.746L203.03 226.963L185.05 258.125H111.772L137.791 216.726Z" fill="#97BEEB"/>
<path d="M151.786 215.071H144.005V225.309H151.786V215.071Z" fill="#C0D8F3"/>
<path d="M151.786 215.071H157.903V216.715L151.786 225.309V215.071Z" fill="#C0D8F3"/>
<path d="M151.785 211.583H143.135V215.062H151.785V211.583Z" fill="#C0D8F3"/>
<path d="M158.572 211.583H151.786V215.062H158.572V211.583Z" fill="#97BEEB"/>
<path d="M204.577 282.317H224.326L226.209 261.967H204.577V282.317Z" fill="#C0D8F3"/>
<path d="M204.577 261.967L194.817 257.561L195.037 282.318H204.577V261.967Z" fill="#C0D8F3"/>
<path d="M193.327 256.547H222.022L231.294 263.601H203.746L193.327 256.547Z" fill="#97BEEB"/>
<path d="M203.746 263.601H193.327V256.547L203.746 263.601Z" fill="#C0D8F3"/>
<path d="M197.58 246.233C197.58 247.207 197.869 248.16 198.41 248.969C198.952 249.779 199.721 250.41 200.621 250.782C201.521 251.155 202.512 251.251 203.467 251.061C204.422 250.87 205.299 250.4 205.987 249.711C206.675 249.021 207.143 248.143 207.332 247.188C207.521 246.232 207.422 245.242 207.048 244.343C206.674 243.443 206.042 242.675 205.231 242.136C204.42 241.596 203.467 241.309 202.493 241.311C201.189 241.313 199.94 241.833 199.019 242.756C198.097 243.679 197.58 244.929 197.58 246.233Z" fill="#EAF2FB"/>
<path d="M198.679 246.234C198.679 247.248 199.082 248.22 199.799 248.938C200.516 249.655 201.489 250.057 202.503 250.057C202.826 250.06 203.147 250.018 203.459 249.933C204.349 249.691 205.122 249.136 205.635 248.369C206.148 247.602 206.366 246.676 206.25 245.761C206.133 244.845 205.69 244.003 205.001 243.389C204.313 242.775 203.425 242.431 202.503 242.42C202.18 242.419 201.858 242.46 201.547 242.544C201.102 242.652 200.683 242.847 200.314 243.118C199.812 243.468 199.401 243.934 199.117 244.477C198.832 245.019 198.682 245.622 198.679 246.234Z" fill="#C0D8F3"/>
<path d="M201.967 250.726H203.028V241.664H201.967V250.726Z" fill="#EAF2FB"/>
<path d="M207.034 246.721V245.66H197.972V246.721H207.034Z" fill="#EAF2FB"/>
<path d="M232.718 282.318H201.948L199.845 259.559H232.718V282.318Z" fill="#2E7DD7"/>
<path opacity="0.2" d="M232.718 282.318H201.948L199.845 259.559H232.718V282.318Z" fill="#111827"/>
<path d="M232.718 259.558L249.589 238.434L263.02 259.558L260.926 282.318H232.718V259.558Z" fill="#2E7DD7"/>
<path d="M234.754 262.34H193.001L218.399 230.404H249.761L268.611 262.34H263.822L249.761 240.46L234.754 262.34Z" fill="#2E7DD7"/>
<path opacity="0.4" d="M234.754 262.34H193.001L218.399 230.404H249.761L268.611 262.34H263.822L249.761 240.46L234.754 262.34Z" fill="#111827"/>
<path d="M276.889 202.158H268.19V213.61H276.889V202.158Z" fill="#2E7DD7"/>
<path opacity="0.2" d="M276.889 202.158H268.19V213.61H276.889V202.158Z" fill="#111827"/>
<path d="M283.733 202.158H276.889V213.61H283.733V202.158Z" fill="#2E7DD7"/>
<path d="M276.889 198.258H267.216V202.148H276.889V198.258Z" fill="#2E7DD7"/>
<path opacity="0.5" d="M276.889 198.258H267.216V202.148H276.889V198.258Z" fill="#111827"/>
<path d="M284.479 198.258H276.889V202.148H284.479V198.258Z" fill="#2E7DD7"/>
<path opacity="0.4" d="M284.479 198.258H276.889V202.148H284.479V198.258Z" fill="#111827"/>
<path d="M307.458 282.289H239.352L236.303 249.282H307.458V282.289Z" fill="#2E7DD7"/>
<path opacity="0.2" d="M307.458 282.289H239.352L236.303 249.282H307.458V282.289Z" fill="#111827"/>
<path d="M307.458 249.283L331.919 218.647L351.4 249.283L348.35 282.29H307.458V249.283Z" fill="#2E7DD7"/>
<path d="M331.623 220.587L351.734 251.692H358.76L332.225 208.926H259.779L223.073 255.238H311.559L331.623 220.587Z" fill="#2E7DD7"/>
<path opacity="0.5" d="M331.623 220.587L351.734 251.692H358.76L332.225 208.926H259.779L223.073 255.238H311.559L331.623 220.587Z" fill="#111827"/>
<path d="M325.562 253.919H336.335V238.52H325.562V253.919Z" fill="#EAF2FB"/>
<path d="M335.006 239.771H331.537V245.631H335.006V239.771Z" fill="#2E7DD7"/>
<path d="M330.361 239.771H326.891V245.631H330.361V239.771Z" fill="#2E7DD7"/>
<path d="M335.006 246.749H331.537V252.609H335.006V246.749Z" fill="#2E7DD7"/>
<path d="M330.361 246.749H326.891V252.609H330.361V246.749Z" fill="#2E7DD7"/>
<path d="M257.475 261.527H246.703V276.927H257.475V261.527Z" fill="#EAF2FB"/>
<path d="M277.272 261.527H266.499V276.927H277.272V261.527Z" fill="#EAF2FB"/>
<path d="M297.058 261.527H286.285V276.927H297.058V261.527Z" fill="#EAF2FB"/>
<path d="M325.008 282.279H336.89V260.705H325.008V282.279Z" fill="#EAF2FB"/>
<path d="M287.825 220.014H272.186L264.147 230.05H281.85L287.825 220.014Z" fill="#2E7DD7"/>
<path opacity="0.4" d="M287.825 220.014H272.186L264.147 230.05H281.85L287.825 220.014Z" fill="#111827"/>
<path d="M275.981 228.291V240.46H267.273V228.291L271.632 222.853L275.981 228.291Z" fill="#2E7DD7"/>
<path opacity="0.2" d="M275.981 228.291V240.46H267.273V228.291L271.632 222.853L275.981 228.291Z" fill="#111827"/>
<path d="M275.981 228.292H282.825L275.981 240.46V228.292Z" fill="#2E7DD7"/>
<path d="M273.869 228.483H268.927V236.828H273.869V228.483Z" fill="#EAF2FB"/>
<path d="M271.134 229.057H269.538V231.743H271.134V229.057Z" fill="#2E7DD7"/>
<path d="M273.266 229.057H271.67V231.743H273.266V229.057Z" fill="#2E7DD7"/>
<path d="M271.134 232.239H269.538V236.225H271.134V232.239Z" fill="#2E7DD7"/>
<path d="M273.266 232.239H271.67V236.225H273.266V232.239Z" fill="#2E7DD7"/>
<path d="M374.753 150.371C376.994 152.276 378.661 154.767 379.568 157.565C380.475 160.363 380.587 163.358 379.891 166.216C379.195 169.074 377.718 171.682 375.625 173.749C373.533 175.816 370.907 177.261 368.041 177.922L364.519 185.132L361.103 177.973C358.548 177.425 356.17 176.249 354.185 174.551C352.597 173.2 351.291 171.55 350.341 169.694C349.391 167.839 348.816 165.814 348.649 163.736C348.31 159.54 349.653 155.381 352.381 152.175C355.109 148.968 358.999 146.977 363.196 146.638C367.392 146.3 371.551 147.643 374.758 150.371H374.753Z" fill="white"/>
<path d="M374.753 150.371C376.993 152.277 378.663 154.765 379.578 157.56C379.807 158.256 379.992 158.965 380.131 159.684C380.252 160.406 380.328 161.135 380.358 161.867C380.426 163.335 380.289 164.805 379.95 166.234C379.617 167.667 379.087 169.047 378.376 170.335C378.016 170.977 377.61 171.592 377.163 172.176C376.731 172.773 376.253 173.334 375.734 173.857C373.636 175.97 370.989 177.455 368.092 178.143L368.248 178.023L364.766 185.253L364.514 185.781L364.263 185.253L360.821 178.108L361.033 178.274C358.034 177.624 355.285 176.129 353.11 173.966C350.935 171.803 349.425 169.062 348.758 166.067C348.092 163.073 348.297 159.95 349.35 157.068C350.403 154.187 352.259 151.667 354.698 149.807C356.633 148.357 358.868 147.356 361.239 146.879C363.609 146.399 366.057 146.464 368.398 147.069C370.739 147.674 372.912 148.803 374.753 150.371ZM374.753 150.371C372.925 148.81 370.762 147.689 368.433 147.096C366.103 146.503 363.668 146.453 361.316 146.949C358.964 147.445 356.757 148.475 354.865 149.959C352.974 151.443 351.448 153.341 350.406 155.508C349.368 157.649 348.831 160 348.837 162.38C348.866 164.749 349.408 167.084 350.427 169.223C351.459 171.351 352.961 173.218 354.819 174.682C356.681 176.139 358.845 177.16 361.153 177.67L361.304 177.706L361.365 177.842L364.761 185.011H364.258L367.835 177.826L367.88 177.726H367.986C370.83 177.103 373.444 175.699 375.533 173.671C376.052 173.165 376.531 172.62 376.967 172.04C377.417 171.472 377.826 170.872 378.189 170.244C378.919 168.986 379.468 167.631 379.82 166.219C380.184 164.807 380.34 163.349 380.282 161.892C380.256 161.164 380.187 160.439 380.076 159.719C379.94 159.002 379.76 158.295 379.538 157.601C378.641 154.795 376.985 152.292 374.753 150.371Z" fill="#374151"/>
<path d="M368.781 158.431C368.605 158.252 368.409 158.093 368.197 157.958C367.917 157.776 367.622 157.617 367.317 157.48C366.578 157.145 365.786 156.941 364.977 156.877V161.405L365.395 161.49C366.116 161.662 366.826 161.874 367.523 162.124C368.098 162.326 368.639 162.613 369.128 162.975C369.554 163.302 369.899 163.724 370.135 164.207C370.387 164.766 370.509 165.375 370.492 165.988C370.512 166.669 370.371 167.345 370.079 167.961C369.81 168.501 369.417 168.97 368.932 169.329C368.419 169.704 367.84 169.98 367.226 170.144C366.548 170.331 365.848 170.431 365.143 170.441V172.735H364.011V170.396C362.981 170.334 361.964 170.125 360.993 169.777C360.056 169.44 359.18 168.956 358.396 168.343L359.508 166.25C359.719 166.466 359.954 166.657 360.208 166.818C360.548 167.04 360.905 167.237 361.274 167.407C361.709 167.608 362.158 167.776 362.618 167.91C363.111 168.056 363.616 168.159 364.127 168.217V163.689C364.042 163.664 363.946 163.634 363.855 163.613C363.763 163.594 363.673 163.569 363.584 163.538C362.901 163.362 362.229 163.147 361.571 162.894C361.053 162.701 360.57 162.424 360.142 162.074C359.774 161.77 359.48 161.386 359.282 160.952C359.07 160.458 358.969 159.924 358.985 159.387C358.971 158.735 359.098 158.088 359.357 157.49C359.599 156.944 359.956 156.457 360.404 156.061C360.867 155.651 361.403 155.332 361.984 155.121C362.631 154.885 363.309 154.743 363.996 154.698V152.489H365.128V154.698C366.027 154.744 366.913 154.936 367.75 155.267C368.502 155.56 369.213 155.947 369.868 156.419L368.781 158.431ZM361.576 158.995C361.558 159.26 361.608 159.526 361.721 159.767C361.833 160.008 362.005 160.217 362.22 160.373C362.82 160.751 363.481 161.023 364.172 161.178V156.877C363.465 156.859 362.773 157.079 362.205 157.5C361.996 157.687 361.831 157.918 361.722 158.177C361.613 158.435 361.563 158.715 361.576 158.995ZM367.901 166.245C367.914 165.957 367.85 165.671 367.716 165.416C367.581 165.161 367.381 164.947 367.136 164.796C366.468 164.399 365.746 164.1 364.993 163.91V168.232C365.743 168.269 366.489 168.095 367.146 167.729C367.391 167.57 367.59 167.349 367.722 167.088C367.855 166.828 367.916 166.537 367.901 166.245Z" fill="#2E7DD7"/>
</svg>
