<svg width="350" height="156" viewBox="0 0 350 156" fill="none" xmlns="http://www.w3.org/2000/svg">
<path d="M41.948 94.6543H0V155.622H41.948V94.6543Z" fill="#6DA4E3"/>
<path opacity="0.1" d="M41.9482 94.6543H30.6543V155.622H41.9482V94.6543Z" fill="#111827"/>
<path d="M93.2908 82.8965H51.3428V155.622H93.2908V82.8965Z" fill="#6DA4E3"/>
<path opacity="0.1" d="M93.291 82.8965H81.9971V155.622H93.291V82.8965Z" fill="#111827"/>
<path d="M144.634 72.3145H102.686V155.623H144.634V72.3145Z" fill="#6DA4E3"/>
<path opacity="0.1" d="M144.634 72.3145H133.34V155.623H144.634V72.3145Z" fill="#111827"/>
<path d="M195.977 60.6729H154.029V155.622H195.977V60.6729Z" fill="#6DA4E3"/>
<path opacity="0.1" d="M195.971 60.6729H184.677V155.622H195.971V60.6729Z" fill="#111827"/>
<path d="M247.32 47.0332H205.372V155.622H247.32V47.0332Z" fill="#6DA4E3"/>
<path opacity="0.1" d="M247.314 47.0332H236.021V155.622H247.314V47.0332Z" fill="#111827"/>
<path d="M298.663 29.3965H256.715V155.623H298.663V29.3965Z" fill="#6DA4E3"/>
<path opacity="0.1" d="M298.657 29.3965H287.363V155.623H298.657V29.3965Z" fill="#111827"/>
<path d="M350 0H308.052V155.622H350V0Z" fill="#6DA4E3"/>
<path opacity="0.1" d="M350 0H338.706V155.622H350V0Z" fill="#111827"/>
</svg>
