<svg width="222" height="247" viewBox="0 0 222 247" fill="none" xmlns="http://www.w3.org/2000/svg">
<path d="M75.214 0L77.842 4.80209L82.6497 7.43567L77.842 10.0637L75.214 14.8657L72.586 10.0637L67.7783 7.43567L72.586 4.80209L75.214 0Z" fill="#F5F5F5"/>
<path d="M184.844 130.211L186.816 133.82L190.419 135.786L186.816 137.759L184.844 141.367L182.872 137.759L179.269 135.786L182.872 133.82L184.844 130.211Z" fill="#C0D8F3"/>
<path d="M57.359 62.7959L59.3314 66.4045L62.9344 68.3713L59.3314 70.3436L57.359 73.9522L55.3867 70.3436L51.7837 68.3713L55.3867 66.4045L57.359 62.7959Z" fill="#C0D8F3"/>
<path d="M195.359 74.7959L197.331 78.4045L200.934 80.3713L197.331 82.3436L195.359 85.9522L193.387 82.3436L189.784 80.3713L193.387 78.4045L195.359 74.7959Z" fill="#97BEEB"/>
<path d="M190.419 112.415L191.31 114.04L192.935 114.931L191.31 115.822L190.419 117.447L189.534 115.822L187.903 114.931L189.534 114.04L190.419 112.415Z" fill="#C0D8F3"/>
<path d="M62.9344 45L63.8253 46.625L65.4503 47.5159L63.8253 48.4069L62.9344 50.0318L62.049 48.4069L60.4185 47.5159L62.049 46.625L62.9344 45Z" fill="#C0D8F3"/>
<path d="M200.934 57L201.825 58.625L203.45 59.5159L201.825 60.4069L200.934 62.0318L200.049 60.4069L198.418 59.5159L200.049 58.625L200.934 57Z" fill="#6DA4E3"/>
<path d="M56.4368 1.80469L57.3277 3.43527L58.9527 4.3206L57.3277 5.21154L56.4368 6.83651L55.5515 5.21154L53.9209 4.3206L55.5515 3.43527L56.4368 1.80469Z" fill="#C0D8F3"/>
<path d="M11.8454 152.899C12.8793 152.425 13.7518 151.659 14.3553 150.695C14.9587 149.731 15.2667 148.612 15.241 147.475C15.241 144.264 12.7475 141.687 9.73853 141.709C6.72952 141.732 4.31447 144.36 4.34249 147.57C4.33436 148.717 4.6665 149.84 5.29689 150.797C5.92728 151.755 6.82757 152.504 7.88382 152.949C-0.487619 154.322 0.00547674 163.433 0.00547674 163.433L19.8358 163.265C19.8358 163.265 20.1776 154.048 11.8454 152.899Z" fill="#C0D8F3"/>
<path d="M202.086 212.956C201.946 212.238 201.555 211.592 200.983 211.134C200.412 210.677 199.696 210.438 198.964 210.459C198.232 210.481 197.532 210.762 196.988 211.252C196.444 211.742 196.092 212.41 195.995 213.136C195.893 212.411 195.537 211.746 194.991 211.259C194.444 210.773 193.743 210.496 193.011 210.478C192.28 210.461 191.566 210.704 190.996 211.164C190.427 211.624 190.04 212.271 189.904 212.99C189.757 214.052 190.026 215.13 190.655 215.999C191.277 216.856 192.008 217.628 192.829 218.296C193.949 219.288 194.964 220.213 196.073 221.199C197.194 220.201 198.107 219.266 199.205 218.268C200.023 217.593 200.748 216.813 201.363 215.949C201.976 215.08 202.235 214.009 202.086 212.956Z" fill="#C0D8F3"/>
<path d="M114.099 46.0932L116.222 45.6729L119.584 38.2877L118.744 34.0459C118.744 34.0459 121.988 33.1942 122.705 38.8256C123.423 44.457 123.557 42.9609 123.557 42.9609C123.557 42.9609 130.533 41.6049 131.234 42.0924C131.744 42.451 133.307 49.3431 134.125 53.0862C134.351 53.9834 134.271 54.9305 133.896 55.7765C133.521 56.6225 132.874 57.3187 132.057 57.7538C131.825 57.8683 131.578 57.9513 131.323 58.0003C129.586 58.3478 120.419 58.6952 120.419 58.6952L116.749 59.4236L114.099 46.0932Z" fill="#C0D8F3"/>
<path d="M107.784 46.1319L111.969 60.4092L115.612 59.6864L112.787 45.4482L107.784 46.1319Z" fill="#C0D8F3"/>
<path d="M157.051 300.001L79.7862 299.973C75.3279 299.973 71.0521 298.202 67.8996 295.049C64.7471 291.897 62.9761 287.621 62.9761 283.163L63.0097 89.4654C63.0097 87.255 63.4456 85.0664 64.2925 83.0247C65.1394 80.983 66.3806 79.1284 67.9451 77.567C69.5097 76.0056 71.3668 74.768 73.4101 73.9252C75.4535 73.0824 77.6431 72.6509 79.8534 72.6553L157.113 72.7001C161.571 72.7001 165.847 74.4712 168.999 77.6237C172.152 80.7762 173.923 85.0519 173.923 89.5102L173.889 283.163C173.893 285.375 173.46 287.566 172.615 289.611C171.77 291.655 170.53 293.513 168.966 295.077C167.401 296.642 165.544 297.882 163.499 298.727C161.455 299.572 159.263 300.005 157.051 300.001Z" fill="#374151"/>
<path d="M157.029 79.4914H142.046C141.062 79.5149 140.128 79.9264 139.447 80.636C138.765 81.3456 138.392 82.2957 138.409 83.2793V85.9969C138.42 86.4853 138.335 86.971 138.158 87.4264C137.981 87.8818 137.716 88.2978 137.379 88.6507C137.041 89.0036 136.637 89.2864 136.19 89.4829C135.742 89.6794 135.261 89.7858 134.772 89.796H105.573C105.085 89.7851 104.603 89.678 104.156 89.4809C103.708 89.2837 103.304 89.0004 102.967 88.6471C102.629 88.2938 102.364 87.8774 102.187 87.4217C102.011 86.966 101.925 86.48 101.937 85.9913V83.2569C101.956 82.2709 101.585 81.3172 100.903 80.6043C100.222 79.8914 99.2859 79.4772 98.3 79.4522H93.0217H79.9154C78.3677 79.4485 76.8346 79.7501 75.4037 80.3398C73.9728 80.9295 72.6723 81.7957 71.5767 82.8888C70.481 83.9818 69.6118 85.2802 69.0187 86.7097C68.4256 88.1392 68.1203 89.6716 68.1203 91.2193L68.0811 280.283C68.0811 283.403 69.3208 286.396 71.5276 288.603C73.7343 290.81 76.7273 292.05 79.8481 292.05L156.962 292.094C158.507 292.094 160.037 291.79 161.465 291.199C162.892 290.607 164.19 289.741 165.282 288.648C166.375 287.555 167.242 286.258 167.833 284.83C168.424 283.403 168.729 281.873 168.729 280.327L168.768 91.2585C168.768 88.1425 167.532 85.1537 165.331 82.9478C163.131 80.7418 160.145 79.4988 157.029 79.4914Z" fill="white"/>
<path d="M158.155 94.8506C158.155 94.901 156.205 94.9571 153.807 94.9739C151.409 94.9907 149.453 94.9739 149.453 94.9235C149.453 94.873 151.397 94.8114 153.801 94.7946C156.205 94.7778 158.155 94.8002 158.155 94.8506Z" fill="#374151"/>
<path d="M158.172 97.0746C158.172 97.125 156.227 97.181 153.824 97.2035C151.42 97.2259 149.47 97.2035 149.47 97.1474C149.47 97.0914 151.42 97.041 153.824 97.0186C156.227 96.9961 158.172 97.0242 158.172 97.0746Z" fill="#374151"/>
<path d="M158.194 99.2992C158.194 99.3496 156.244 99.4113 153.84 99.4281C151.436 99.4449 149.492 99.4281 149.486 99.372C149.481 99.316 151.436 99.2656 153.84 99.2432C156.244 99.2207 158.194 99.2488 158.194 99.2992Z" fill="#374151"/>
<path d="M76.2112 101.474H76.4409H77.0741L79.4163 101.418L79.3491 101.479C79.3491 100.964 79.3491 100.398 79.3211 99.7982C79.3211 99.4844 79.3211 99.1874 79.3211 98.8232C79.358 98.635 79.4539 98.4634 79.595 98.3334C79.7361 98.2035 79.9149 98.1218 80.1055 98.1004C80.4866 98.1004 80.8172 98.1004 81.2262 98.1004C81.4405 98.135 81.6354 98.2448 81.7761 98.4101C81.9168 98.5755 81.994 98.7855 81.9939 99.0025C81.9939 99.7982 81.9939 100.622 82.0219 101.479L81.9154 101.373H84.8684L84.7563 101.485C84.7563 100.297 84.7563 99.0642 84.7227 97.8034C84.7227 97.4896 84.7227 97.1814 84.7227 96.8676C84.71 96.7282 84.6661 96.5934 84.5944 96.4731C84.5226 96.3529 84.4248 96.2502 84.3081 96.1728L83.0193 94.8953L81.7697 93.6681L81.1702 93.0742C80.9629 92.8724 80.8003 92.6651 80.5594 92.6147C80.4439 92.5843 80.3231 92.5801 80.2058 92.6024C80.0885 92.6247 79.9777 92.6729 79.8814 92.7436C79.7021 92.8949 79.5116 93.1078 79.3211 93.3039L78.2564 94.3742C77.5896 95.0634 76.8948 95.6965 76.3905 96.2961C76.2408 96.6494 76.1904 97.0369 76.2448 97.4168C76.2448 97.781 76.2448 98.1284 76.2448 98.4534C76.2448 99.0922 76.2448 99.6525 76.2448 100.134C76.2448 100.616 76.2448 100.913 76.2448 101.205C76.2528 101.333 76.2528 101.463 76.2448 101.591C76.2383 101.474 76.2383 101.356 76.2448 101.238C76.2448 100.953 76.2448 100.599 76.2448 100.179C76.2448 99.759 76.2448 99.1314 76.2056 98.4982C76.2056 98.162 76.2056 97.809 76.2056 97.4336C76.2056 97.2431 76.2056 97.0526 76.2056 96.8733C76.2042 96.657 76.2603 96.4443 76.3681 96.2569C76.9284 95.5901 77.5672 94.9961 78.2396 94.2845L79.293 93.203C79.4836 93.0181 79.6348 92.8332 79.8534 92.6427C79.9739 92.5509 80.1136 92.4876 80.2621 92.4575C80.4106 92.4274 80.564 92.4313 80.7107 92.469C80.9897 92.5714 81.2356 92.7477 81.4223 92.9789L82.0275 93.5729L83.277 94.8L84.5714 96.0664C84.6927 96.1752 84.8034 96.2953 84.902 96.425C84.999 96.5737 85.0533 96.7462 85.0589 96.9237C85.0589 97.2375 85.0589 97.5513 85.0589 97.865C85.0589 99.1258 85.0589 100.359 85.0869 101.546V101.659H84.9749H82.0219H81.8146V101.552C81.8146 100.695 81.8146 99.8711 81.8146 99.0754C81.8183 98.9044 81.7603 98.7378 81.6512 98.6061C81.5421 98.4744 81.3893 98.3864 81.2206 98.3581C80.8788 98.3581 80.4754 98.3581 80.1448 98.3581C79.9938 98.3733 79.8513 98.4355 79.7377 98.5361C79.624 98.6367 79.5449 98.7704 79.5116 98.9185C79.5116 99.2155 79.5116 99.5573 79.5116 99.8599C79.5116 100.471 79.5116 101.042 79.5116 101.541V101.608H79.4443H77.0629H76.4409C76.3599 101.571 76.2829 101.526 76.2112 101.474Z" fill="#374151"/>
<path d="M163.994 272.516C163.994 272.516 163.994 272.332 163.994 271.99C163.994 271.648 163.994 271.127 163.994 270.454C163.994 269.104 163.994 267.092 163.966 264.537C163.966 259.388 163.938 251.896 163.915 242.499L164.01 242.594L74.407 242.645L74.5527 242.499C74.5527 252.933 74.5527 263.047 74.5527 272.516L74.4126 272.376L138.532 272.438L157.247 272.477H162.29H163.59H164.038H163.607H162.324H157.331L138.644 272.516L74.4294 272.584H74.2837V272.516C74.2837 263.047 74.2837 252.933 74.2837 242.499V242.354H74.4406L164.044 242.404H164.139V242.499C164.139 251.918 164.1 259.433 164.089 264.599C164.089 267.165 164.089 269.143 164.089 270.494C164.089 271.155 164.089 271.659 164.089 272.007C164.089 272.354 163.994 272.516 163.994 272.516Z" fill="#374151"/>
<path d="M119.968 118.911C119.879 118.926 119.788 118.926 119.699 118.911L118.943 118.939L116.141 118.989C113.782 118.989 110.538 119.028 106.918 119.028C103.298 119.028 100.054 119.028 97.6948 118.989L94.8931 118.939L94.131 118.911C94.0439 118.926 93.9548 118.926 93.8677 118.911C93.9538 118.889 94.0424 118.88 94.131 118.883H94.8931L97.6948 118.838C100.054 118.81 103.298 118.793 106.918 118.793C110.538 118.793 113.782 118.793 116.141 118.838L118.943 118.883H119.699C119.79 118.88 119.88 118.89 119.968 118.911Z" fill="#374151"/>
<path d="M156.636 228.614L154.193 226.16L151.856 228.486V221.459H156.631L156.636 228.614ZM154.193 225.858L154.266 225.93L156.423 228.093V221.683H152.075V227.97L154.193 225.858Z" fill="#374151"/>
<path d="M94.5174 227.875L93.3967 227.365C92.7441 227.668 92.0018 227.717 91.3149 227.503C90.628 227.288 90.0458 226.825 89.6822 226.204C89.3186 225.582 89.1998 224.848 89.3489 224.144C89.498 223.44 89.9043 222.817 90.4885 222.396C91.0726 221.976 91.7926 221.788 92.5076 221.871C93.2226 221.953 93.8812 222.299 94.3548 222.841C94.8283 223.382 95.0828 224.082 95.0683 224.801C95.0538 225.521 94.7715 226.209 94.2765 226.731L94.5174 227.875ZM91.8446 221.683C91.4561 221.686 91.072 221.766 90.7143 221.918C90.3566 222.069 90.0324 222.29 89.76 222.567C89.4876 222.844 89.2724 223.172 89.1268 223.533C88.9812 223.893 88.9079 224.278 88.9112 224.667C88.9146 225.055 88.9944 225.439 89.1461 225.797C89.2978 226.155 89.5186 226.479 89.7956 226.751C90.0727 227.024 90.4007 227.239 90.7609 227.384C91.1211 227.53 91.5065 227.603 91.895 227.6C92.3991 227.57 92.8879 227.416 93.3183 227.152L93.3687 227.124L94.2092 227.499L94.0187 226.67L94.0579 226.631C94.4472 226.206 94.7037 225.676 94.7958 225.108C94.8879 224.539 94.8116 223.956 94.5764 223.43C94.3411 222.904 93.9571 222.458 93.4717 222.148C92.9863 221.837 92.4207 221.676 91.8446 221.683Z" fill="#374151"/>
<path d="M101.869 227.387L100.558 224.188L98.1035 221.946L104.066 221.901L101.869 227.387ZM98.6582 222.159L100.754 224.081L101.875 226.804L103.746 222.12L98.6582 222.159Z" fill="#374151"/>
<path d="M103.947 221.891L100.697 224.006L100.816 224.189L104.066 222.074L103.947 221.891Z" fill="#374151"/>
<path d="M85.1377 222.646C85.053 222.217 84.8187 221.832 84.4765 221.56C84.1342 221.288 83.7064 221.146 83.2694 221.16C82.8324 221.174 82.4146 221.343 82.0907 221.637C81.7668 221.931 81.5578 222.33 81.5011 222.764C81.4368 222.332 81.2214 221.937 80.8932 221.649C80.565 221.361 80.1454 221.199 79.7089 221.192C79.2724 221.184 78.8475 221.332 78.5098 221.609C78.172 221.885 77.9434 222.273 77.8645 222.702C77.7803 223.336 77.9428 223.978 78.3184 224.495C78.6944 225.005 79.133 225.467 79.6239 225.868C80.2907 226.428 80.9015 226.989 81.5683 227.588C82.2183 226.994 82.7786 226.434 83.4342 225.834C83.9185 225.427 84.3496 224.96 84.7174 224.445C85.0821 223.921 85.2324 223.277 85.1377 222.646Z" fill="#6DA4E3"/>
<path d="M84.5935 122.957C86.8278 122.957 88.6391 121.145 88.6391 118.911C88.6391 116.677 86.8278 114.865 84.5935 114.865C82.3591 114.865 80.5479 116.677 80.5479 118.911C80.5479 121.145 82.3591 122.957 84.5935 122.957Z" fill="#C0D8F3"/>
<path d="M155.112 205.415C155.112 205.499 138.157 205.567 117.245 205.567C96.333 205.567 79.3716 205.499 79.3716 205.415C79.3716 205.331 96.3274 205.27 117.245 205.27C138.162 205.27 155.112 205.337 155.112 205.415Z" fill="#4B5563"/>
<path d="M155.112 199.112C155.112 199.191 138.157 199.258 117.245 199.258C96.333 199.258 79.3716 199.191 79.3716 199.112C79.3716 199.034 96.3274 198.967 117.245 198.967C138.162 198.967 155.112 199.034 155.112 199.112Z" fill="#4B5563"/>
<path d="M120.596 211.81C120.596 211.888 111.367 211.955 99.9864 211.955C88.6059 211.955 79.3716 211.888 79.3716 211.81C79.3716 211.731 88.6003 211.664 99.9864 211.664C111.372 211.664 120.596 211.731 120.596 211.81Z" fill="#4B5563"/>
<path d="M164.532 126.913H74.917V181.714H164.532V126.913Z" fill="#E0E0E0"/>
<path d="M83.1929 181.73L108.868 147.359L124.792 168.854L135.579 157.356L156.743 181.708L83.1929 181.73Z" fill="#F5F5F5"/>
<path d="M131.539 143.14C131.54 144.286 131.201 145.407 130.565 146.36C129.929 147.314 129.025 148.057 127.966 148.497C126.908 148.936 125.742 149.052 124.618 148.829C123.494 148.606 122.461 148.054 121.65 147.244C120.839 146.434 120.287 145.402 120.063 144.278C119.839 143.154 119.953 141.989 120.392 140.93C120.83 139.87 121.573 138.965 122.526 138.328C123.478 137.692 124.599 137.352 125.745 137.352C127.281 137.352 128.754 137.961 129.84 139.047C130.926 140.132 131.537 141.604 131.539 143.14Z" fill="#F5F5F5"/>
<path d="M164.291 232.648C164.291 231.477 164.235 181.971 164.156 108.679L164.291 108.814H74.6872L74.8329 108.668C74.8329 155.03 74.8329 197.935 74.8329 232.637L74.7097 232.519L164.324 232.637L74.7097 232.76H74.592V232.637C74.592 197.935 74.592 155.03 74.564 108.668V108.522H74.7209H164.324H164.459V108.651C164.431 145.337 164.408 176.34 164.392 198.182C164.392 209.086 164.364 217.699 164.358 223.593C164.358 226.529 164.358 228.788 164.358 230.317C164.358 231.074 164.358 231.651 164.358 232.043C164.358 232.435 164.291 232.648 164.291 232.648Z" fill="#374151"/>
<path d="M122.159 228.029L124.142 221.366C124.49 219.921 124.949 218.217 125.566 216.273C126.126 214.525 127.549 212.687 128.849 211.364C130.872 209.308 131.836 209.297 133.192 208.204C133.315 208.126 133.455 208.008 133.573 207.946C133.829 207.807 134.054 207.616 134.234 207.386C135.405 206.12 134.279 204.153 131.897 204.343C130.11 204.483 127.185 204.993 122.433 209.896C122.372 209.975 122.31 210.036 122.254 210.109C119.761 213.354 117.418 204.097 116.992 200.651C116.91 200.117 116.708 199.608 116.402 199.163C116.096 198.717 115.694 198.346 115.226 198.077C114.757 197.808 114.234 197.648 113.695 197.608C113.156 197.569 112.615 197.651 112.112 197.849L100.535 203.262C99.4312 202.942 98.2538 202.981 97.1734 203.374C96.3632 203.658 95.6882 204.234 95.28 204.99C94.8717 205.745 94.7597 206.625 94.9656 207.459L99.6668 226.18L85.877 272.071H115.603L122.159 228.029Z" fill="#FFBE9D"/>
<path d="M145.021 185.881L135.831 203.89L131.236 202.613L108.15 221.401C107.208 222.172 106.002 222.544 104.79 222.44C103.577 222.335 102.452 221.761 101.656 220.84L92.8589 210.625C92.8589 210.625 110.594 202.988 113.872 196.667C117.149 190.347 113.362 188.907 113.362 188.907L121.705 179.426L145.021 185.881Z" fill="#6DA4E3"/>
<path d="M133.102 149.1C133.102 149.1 119.654 146.124 100.72 127.925C81.7867 109.725 72.8998 85.535 70.608 85.6695C68.3162 85.804 58.1741 81.0916 38.9321 122.943C19.6902 164.795 27.2715 174.494 31.0874 174.438C34.9033 174.382 60.9086 167.115 77.1471 168.958C93.3857 170.802 114.258 179.268 114.258 179.268L133.102 149.1Z" fill="#6DA4E3"/>
<path d="M161.674 171.912L157.085 180.636L155.028 184.558C153.671 187.14 151.374 189.103 148.613 190.041C145.851 190.98 142.834 190.822 140.185 189.601L111.355 179.555L128.166 141.228L156.967 156.575C159.617 157.993 161.598 160.401 162.48 163.274C163.362 166.147 163.072 169.252 161.674 171.912Z" fill="#6DA4E3"/>
<g opacity="0.4">
<path d="M161.674 171.912L157.085 180.636L155.028 184.558C153.671 187.14 151.374 189.103 148.613 190.041C145.851 190.98 142.834 190.822 140.185 189.601L111.355 179.555L128.166 141.228L156.967 156.575C159.617 157.993 161.598 160.401 162.48 163.274C163.362 166.147 163.072 169.252 161.674 171.912Z" fill="#111827"/>
</g>
<path d="M40.4674 123.705C30.2301 146.376 25.9659 166.582 30.9417 168.829C35.9175 171.076 48.2617 154.523 58.4991 131.847C68.7365 109.17 73.0006 88.9752 68.0248 86.7226C63.049 84.4701 50.7048 101.034 40.4674 123.705Z" fill="#6DA4E3"/>
<g opacity="0.5">
<path d="M40.4674 123.706C30.2301 146.377 25.9659 166.583 30.9417 168.83C35.9175 171.077 48.2617 154.524 58.4991 131.848C68.7365 109.171 73.0006 88.9762 68.0248 86.7236C63.049 84.4711 50.7048 101.035 40.4674 123.706Z" fill="#111827"/>
</g>
<path d="M164.151 184.519L156.334 182.065L161.17 172.875L167.031 176.517L164.151 184.519Z" fill="#6DA4E3"/>
<g opacity="0.6">
<path d="M161.17 172.875L156.334 182.065L157.942 182.569L161.87 173.306L161.17 172.875Z" fill="#111827"/>
</g>
<path d="M155.779 174.993C155.667 175.245 151.767 173.732 147.071 171.631C142.376 169.529 138.666 167.579 138.773 167.327C138.879 167.075 142.785 168.594 147.486 170.717C152.187 172.841 155.897 174.74 155.779 174.993Z" fill="#6DA4E3"/>
<path d="M158.188 169.518C158.065 169.764 154.535 168.28 150.304 166.195C146.074 164.111 142.745 162.222 142.869 161.97C142.992 161.718 146.516 163.209 150.747 165.293C154.977 167.377 158.311 169.266 158.188 169.518Z" fill="#6DA4E3"/>
<path d="M152.753 180.737C152.714 180.871 151.784 180.658 150.304 180.176C149.565 179.946 148.685 179.655 147.716 179.324C146.746 178.994 145.755 178.467 144.684 177.98C140.409 175.996 137.142 174.057 137.249 173.822C137.355 173.587 140.868 175.105 145.093 177.072C146.158 177.554 147.144 178.081 148.074 178.467C149.004 178.854 149.839 179.196 150.54 179.509C151.941 180.154 152.792 180.602 152.753 180.737Z" fill="#6DA4E3"/>
<path d="M61.3401 118.668C61.3401 118.668 49.6514 111.417 43.258 127.213C36.8645 143.009 49.1583 145.603 49.1583 145.603C54.4672 137.243 58.5683 128.175 61.3401 118.668Z" fill="#6DA4E3"/>
<g opacity="0.5">
<path d="M73.7738 99.8398C73.8466 99.8398 73.6785 100.927 73.3199 102.86C72.9613 104.793 72.4233 107.589 71.6725 111.03L70.0475 116.56C69.7524 117.55 69.4479 118.576 69.1342 119.637L68.6579 121.245C68.4842 121.805 68.2544 122.315 68.0527 122.858L65.4135 129.672C65.1838 130.266 64.9484 130.86 64.7187 131.46C64.489 132.059 64.1584 132.631 63.895 133.225L62.158 136.811L60.4153 140.391C60.1183 140.952 59.855 141.579 59.5356 142.128C59.2162 142.678 58.88 143.249 58.5606 143.781L54.8344 150.074C54.5318 150.567 54.274 151.077 53.9378 151.548L52.9684 152.921L51.1081 155.543L47.7461 160.233C45.5047 162.939 43.6332 165.074 42.3444 166.559C41.7114 167.363 41.0123 168.113 40.2544 168.801C40.7812 167.926 41.381 167.097 42.0475 166.324C43.2914 164.738 45.0453 162.519 47.197 159.79L50.4189 155.067L52.2232 152.439C52.537 151.99 52.8508 151.531 53.1702 151.066C53.4896 150.601 53.7305 150.091 54.0387 149.592L57.7201 143.305L58.6783 141.658C59.0089 141.097 59.2386 140.537 59.5468 139.932L61.2726 136.374C61.833 135.169 62.4325 133.987 63.0041 132.816C63.273 132.255 63.598 131.661 63.8222 131.067L64.5226 129.297L67.201 122.573C67.4083 122.012 67.6437 121.514 67.823 120.976C68.0023 120.438 68.1536 119.911 68.3161 119.384L69.2686 116.342L70.9889 110.878L72.9332 102.81C73.1283 101.798 73.4095 100.804 73.7738 99.8398Z" fill="#111827"/>
</g>
<g opacity="0.4">
<path d="M95.6489 209.37C96.7192 211.309 97.8062 213.292 99.3808 214.822C100.955 216.352 103.107 217.439 105.348 217.215C107.59 216.99 109.635 215.164 109.657 212.956C110.711 213.746 112.33 213.32 113.204 212.328C114.078 211.337 114.364 209.964 114.465 208.647C115.9 209.493 117.894 208.826 118.852 207.465C119.292 206.755 119.571 205.958 119.668 205.129C119.764 204.3 119.677 203.46 119.413 202.668C118.867 201.093 118.091 199.607 117.11 198.258C118.231 198.348 119.385 198.426 120.371 197.928C121.357 197.429 122.052 196.118 121.452 195.176C121.059 194.651 120.487 194.286 119.844 194.151C118.113 193.591 116.903 193.176 115.098 193.383C114.684 193.383 115.821 198.135 104.519 204.624C97.8118 208.462 95.6489 209.37 95.6489 209.37Z" fill="#111827"/>
</g>
<path d="M121.1 216.206C121.1 216.256 120.343 216.111 119.122 216.144C117.534 216.182 115.973 216.557 114.541 217.244C113.11 217.931 111.84 218.914 110.818 220.128C110.027 221.059 109.697 221.737 109.624 221.708C109.671 221.534 109.744 221.367 109.843 221.215C110.083 220.789 110.354 220.38 110.655 219.994C111.662 218.715 112.949 217.685 114.417 216.982C115.885 216.279 117.494 215.921 119.122 215.937C119.61 215.94 120.098 215.985 120.579 216.072C120.759 216.085 120.935 216.131 121.1 216.206Z" fill="#EB996E"/>
<path d="M96.3833 206.338C98.2044 208.087 99.4483 210.02 101.359 211.779C102.228 212.58 103.6 214.093 104.721 214.295C105.842 214.497 106.626 214.346 107.086 213.258C107.461 212.379 106.789 211.174 106.329 210.457C105.113 208.546 103.948 207.056 103.04 205.571C102.609 204.876 103.163 204.73 103.365 205.055C104.239 205.963 105.55 206.736 106.335 207.739C107.411 209.09 107.601 210.888 110.414 210.317C110.79 210.256 111.147 210.108 111.456 209.885C112.515 209.073 112.577 207.644 112.118 206.523C111.721 205.658 111.191 204.86 110.549 204.159C111.748 205.509 113.053 206.96 114.958 207.084C115.497 207.149 116.042 207.045 116.519 206.787C116.995 206.529 117.38 206.13 117.62 205.643C118.18 204.366 117.379 203.128 116.567 202.13C115.128 200.357 113.528 198.721 111.787 197.244C111.137 196.698 110.317 196.395 109.467 196.387C108.481 196.387 107.226 196.566 106.665 197.418C106.345 197.829 106.112 198.3 105.98 198.804C105.848 199.308 105.82 199.833 105.898 200.348C105.898 200.348 103.432 199.099 101.449 200.404C100.228 201.262 99.3502 202.525 98.9721 203.968L96.3833 206.338Z" fill="#FFBE9D"/>
<path d="M109.523 195.849C109.129 195.391 108.884 194.824 108.822 194.223C108.76 193.622 108.884 193.016 109.176 192.487C109.596 191.664 110.123 190.862 110.661 190.683C113.009 189.893 123.274 191.669 123.179 193.944C123.084 196.219 122.333 197.306 116.769 196.505C115.788 196.365 114.253 196.174 114.253 196.174L112.908 198.191L109.523 195.849Z" fill="#FFBE9D"/>
<path d="M111.361 205.386C110.014 203.164 108.05 201.383 105.708 200.259C106.09 200.32 106.458 200.449 106.795 200.64C108.481 201.455 109.897 202.739 110.874 204.338C111.1 204.654 111.265 205.009 111.361 205.386Z" fill="#EB996E"/>
<path d="M113.087 198.387C113.037 198.432 112.359 197.883 111.434 197.317C111.047 197.072 110.647 196.849 110.235 196.65C109.915 196.504 109.703 196.465 109.708 196.42C109.714 196.375 109.949 196.353 110.302 196.459C110.757 196.605 111.19 196.811 111.591 197.07C112.538 197.647 113.16 198.325 113.087 198.387Z" fill="#EB996E"/>
<path d="M114.813 196.269C114.145 196.347 113.468 196.27 112.835 196.045C112.372 195.904 111.941 195.671 111.569 195.362C111.289 195.121 111.171 194.925 111.199 194.896C111.738 195.245 112.315 195.531 112.919 195.748C113.561 195.88 114.194 196.054 114.813 196.269Z" fill="#EB996E"/>
<path d="M104.839 208.204C104.485 207.833 104.171 207.425 103.903 206.988C103.263 205.953 102.455 205.032 101.511 204.265C100.532 203.549 99.3193 203.229 98.1149 203.368C97.6209 203.457 97.1405 203.609 96.686 203.822C96.686 203.822 96.7869 203.704 97.0166 203.564C97.3438 203.366 97.7047 203.229 98.0813 203.161C98.7085 203.06 99.3497 203.084 99.9673 203.233C100.585 203.382 101.167 203.653 101.679 204.029C102.654 204.813 103.468 205.778 104.077 206.87C104.368 207.293 104.623 207.739 104.839 208.204Z" fill="#EB996E"/>
<path d="M112.689 230.897C111.307 231.191 109.907 231.392 108.498 231.497C107.096 231.7 105.683 231.805 104.267 231.811C105.651 231.517 107.053 231.317 108.464 231.211C109.864 231.012 111.275 230.907 112.689 230.897Z" fill="#EB996E"/>
<path d="M200.959 14.54L201.592 15.6999L202.746 16.3331L201.592 16.9663L200.959 18.1206L200.326 16.9663L199.171 16.3331L200.326 15.6999L200.959 14.54Z" fill="#6DA4E3"/>
<path d="M214.189 43.2129L214.822 44.3728L215.976 45.006L214.822 45.6391L214.189 46.7934L213.555 45.6391L212.396 45.006L213.555 44.3728L214.189 43.2129Z" fill="#6DA4E3"/>
<path d="M2.1908 119.709L2.82398 120.869L3.98387 121.502L2.82398 122.13L2.1908 123.29L1.55762 122.13L0.40332 121.502L1.55762 120.869L2.1908 119.709Z" fill="#6DA4E3"/>
<path d="M183.605 21.668L185.068 24.3408L187.741 25.8033L185.068 27.2601L183.605 29.9329L182.148 27.2601L179.476 25.8033L182.148 24.3408L183.605 21.668Z" fill="#6DA4E3"/>
<path d="M14.0474 101.538L15.5043 104.2L18.1715 105.657L15.5043 107.119L14.0474 109.781L12.5905 107.119L9.92334 105.657L12.5905 104.2L14.0474 101.538Z" fill="#6DA4E3"/>
<path d="M217.786 165.113L219.243 167.78L221.905 169.237L219.243 170.694L217.786 173.361L216.329 170.694L213.662 169.237L216.329 167.78L217.786 165.113Z" fill="#6DA4E3"/>
</svg>
