<svg width="18" height="18" viewBox="0 0 18 18" fill="none" xmlns="http://www.w3.org/2000/svg">
<mask id="mask0_1077_14820" style="mask-type:alpha" maskUnits="userSpaceOnUse" x="0" y="0" width="18" height="18">
<path fill-rule="evenodd" clip-rule="evenodd" d="M0.666748 0.666504H17.3333V17.3332H0.666748V0.666504Z" fill="white"/>
</mask>
<g mask="url(#mask0_1077_14820)">
<path fill-rule="evenodd" clip-rule="evenodd" d="M5.38675 1.9165C3.27925 1.9165 1.91675 3.36067 1.91675 5.5965V12.4032C1.91675 14.639 3.27925 16.0832 5.38675 16.0832H12.6101C14.7201 16.0832 16.0834 14.639 16.0834 12.4032V5.5965C16.0834 3.36067 14.7201 1.9165 12.6117 1.9165H5.38675ZM12.6101 17.3332H5.38675C2.56341 17.3332 0.666748 15.3515 0.666748 12.4032V5.5965C0.666748 2.64817 2.56341 0.666504 5.38675 0.666504H12.6117C15.4359 0.666504 17.3334 2.64817 17.3334 5.5965V12.4032C17.3334 15.3515 15.4359 17.3332 12.6101 17.3332Z" fill="#374151"/>
</g>
<path fill-rule="evenodd" clip-rule="evenodd" d="M6.3658 8.08203C5.85747 8.08203 5.4458 8.4937 5.4458 9.00036C5.4458 9.50703 5.85747 9.9187 6.36413 9.9187C6.86997 9.9187 7.28247 9.50703 7.28247 9.00036C7.28247 8.49453 6.8708 8.08286 6.3658 8.08203ZM6.36413 11.1687C5.1683 11.1687 4.1958 10.1954 4.1958 9.00036C4.1958 7.80453 5.1683 6.83203 6.36413 6.83203C7.56163 6.83286 8.53247 7.80536 8.53247 9.00036C8.53247 10.1954 7.55997 11.1687 6.36413 11.1687Z" fill="#374151"/>
<path fill-rule="evenodd" clip-rule="evenodd" d="M13.1749 11.1687C12.8299 11.1687 12.5499 10.8887 12.5499 10.5437V9.62451H7.90991C7.56491 9.62451 7.28491 9.34535 7.28491 8.99951C7.28491 8.65451 7.56491 8.37451 7.90991 8.37451H13.1749C13.5199 8.37451 13.7999 8.65451 13.7999 8.99951V10.5437C13.7999 10.8887 13.5199 11.1687 13.1749 11.1687Z" fill="#374151"/>
<path fill-rule="evenodd" clip-rule="evenodd" d="M10.8181 11.1687C10.4731 11.1687 10.1931 10.8887 10.1931 10.5437V8.99951C10.1931 8.65451 10.4731 8.37451 10.8181 8.37451C11.1631 8.37451 11.4431 8.65451 11.4431 8.99951V10.5437C11.4431 10.8887 11.1631 11.1687 10.8181 11.1687Z" fill="#374151"/>
</svg>
