<svg width="18" height="18" viewBox="0 0 18 18" fill="none" xmlns="http://www.w3.org/2000/svg">
<path fill-rule="evenodd" clip-rule="evenodd" d="M13.1757 11.1677C13.5207 11.1677 13.8007 10.8877 13.8007 10.5427V8.99935C13.8007 8.65435 13.5207 8.37435 13.1757 8.37435H8.43234C8.16234 7.48518 7.344 6.83185 6.36734 6.83185C5.17234 6.83185 4.19984 7.80435 4.19984 8.99935C4.19984 10.1952 5.17234 11.1677 6.36734 11.1677C7.344 11.1677 8.16234 10.5143 8.43234 9.62435H10.1923V10.5427C10.1923 10.8877 10.4723 11.1677 10.8173 11.1677C11.1623 11.1677 11.4423 10.8877 11.4423 10.5427V9.62435H12.5507V10.5427C12.5507 10.8877 12.8307 11.1677 13.1757 11.1677ZM5.38817 0.666016H12.6123C15.4357 0.666016 17.3332 2.64768 17.3332 5.59685V12.4027C17.3332 15.3518 15.4357 17.3327 12.6115 17.3327H5.38817C2.564 17.3327 0.666504 15.3518 0.666504 12.4027V5.59685C0.666504 2.64768 2.564 0.666016 5.38817 0.666016ZM5.44909 9.0001C5.44909 8.49343 5.86159 8.08177 6.36742 8.08177C6.87325 8.08177 7.28575 8.49343 7.28575 9.0001C7.28575 9.50593 6.87325 9.9176 6.36742 9.9176C5.86159 9.9176 5.44909 9.50593 5.44909 9.0001Z" fill="#2E7DD7"/>
</svg>
