<svg width="14" height="14" viewBox="0 0 14 14" fill="none" xmlns="http://www.w3.org/2000/svg">
<path d="M1.68429 9.46908L2.60162 9.61273C3.2788 9.71878 3.7624 10.339 3.71253 11.0378L3.64495 11.9849C3.62526 12.2607 3.77224 12.5205 4.01569 12.6407L4.69417 12.9749C4.93762 13.0951 5.2283 13.0501 5.42712 12.8628L6.10889 12.2185C6.61152 11.7432 7.38712 11.7432 7.89041 12.2185L8.57218 12.8628C8.771 13.0508 9.06103 13.0951 9.30513 12.9749L9.98493 12.64C10.2277 12.5205 10.374 12.2614 10.3544 11.9862L10.2868 11.0378C10.2369 10.339 10.7205 9.71878 11.3977 9.61273L12.315 9.46908C12.5821 9.42747 12.7973 9.22274 12.8577 8.9529L13.025 8.20246C13.0854 7.93263 12.9784 7.65272 12.7553 7.49699L11.9895 6.96068C11.4246 6.56465 11.252 5.79139 11.5932 5.18392L12.0558 4.36099C12.1903 4.12136 12.168 3.82131 11.9994 3.60518L11.5302 3.00308C11.3616 2.78694 11.0807 2.69767 10.8222 2.77889L9.93506 3.05678C9.27954 3.26218 8.58071 2.91783 8.32874 2.26606L7.98884 1.38473C7.8891 1.12698 7.64566 0.957827 7.37466 0.958498L6.62268 0.960512C6.35168 0.961183 6.10889 1.13168 6.01046 1.3901L5.6791 2.26136C5.42975 2.91716 4.72764 3.26419 4.07015 3.05745L3.14625 2.76748C2.88706 2.68558 2.60491 2.77553 2.43627 2.99301L1.97038 3.59578C1.80174 3.81393 1.7814 4.11464 1.91854 4.35427L2.39165 5.17922C2.74008 5.78736 2.56947 6.56801 2.00122 6.96605L1.24465 7.49632C1.02155 7.65272 0.914593 7.93263 0.974962 8.20179L1.14229 8.95223C1.202 9.22274 1.41722 9.42747 1.68429 9.46908Z" stroke="#3B82F6" stroke-width="1.5" stroke-linecap="round" stroke-linejoin="round"/>
<path d="M8.32587 5.67427C9.05802 6.40642 9.05802 7.59391 8.32587 8.32605C7.59372 9.0582 6.40624 9.0582 5.67409 8.32605C4.94194 7.59391 4.94194 6.40642 5.67409 5.67427C6.40624 4.94213 7.59372 4.94213 8.32587 5.67427Z" stroke="#3B82F6" stroke-width="1.5" stroke-linecap="round" stroke-linejoin="round"/>
</svg>
