<svg width="17" height="18" viewBox="0 0 17 18" fill="none" xmlns="http://www.w3.org/2000/svg">
<path fill-rule="evenodd" clip-rule="evenodd" d="M9.2226 0.666992C9.81927 0.666992 10.3993 0.911992 10.8151 1.33783C11.2301 1.76616 11.4593 2.35366 11.4418 2.94949C11.4434 3.08366 11.4876 3.23866 11.5676 3.37449C11.7001 3.59949 11.9093 3.75783 12.1576 3.82283C12.4059 3.88449 12.6659 3.85116 12.8868 3.72033C13.9534 3.11116 15.3109 3.47616 15.9201 4.53449L16.4393 5.43366C16.4526 5.45783 16.4643 5.48116 16.4743 5.50533C17.0259 6.54783 16.6576 7.86033 15.6326 8.45949C15.4834 8.54533 15.3626 8.66533 15.2793 8.81033C15.1501 9.03449 15.1143 9.30116 15.1793 9.54616C15.2459 9.79616 15.4051 10.0037 15.6293 10.132C16.1351 10.4228 16.5126 10.9128 16.6634 11.4787C16.8143 12.0437 16.7318 12.657 16.4376 13.1628L15.8843 14.0845C15.2751 15.1312 13.9176 15.4937 12.8618 14.8837C12.7209 14.8028 12.5584 14.7587 12.3968 14.7545H12.3918C12.1509 14.7545 11.9034 14.857 11.7234 15.0362C11.5409 15.2187 11.4409 15.462 11.4426 15.7203C11.4368 16.9445 10.4409 17.9345 9.2226 17.9345H8.17844C6.95427 17.9345 5.95844 16.9395 5.95844 15.7153C5.95677 15.5645 5.91344 15.4078 5.8326 15.272C5.70177 15.0437 5.4901 14.8803 5.24594 14.8153C5.00344 14.7503 4.7376 14.7862 4.51927 14.9128C3.99594 15.2045 3.3801 15.2753 2.81677 15.117C2.25427 14.9578 1.76844 14.5712 1.48344 14.0587L0.962604 13.1612C0.353437 12.1045 0.715937 10.7503 1.77094 10.1403C2.0701 9.96782 2.25594 9.64616 2.25594 9.30116C2.25594 8.95616 2.0701 8.63366 1.77094 8.46116C0.715104 7.84783 0.353437 6.49033 0.96177 5.43366L1.52677 4.50616C2.1276 3.46116 3.48594 3.09283 4.5451 3.70116C4.68927 3.78699 4.84594 3.83033 5.0051 3.83199C5.52427 3.83199 5.95844 3.40366 5.96677 2.87699C5.96344 2.29616 6.1926 1.73866 6.6101 1.31783C7.02927 0.897826 7.58594 0.666992 8.17844 0.666992H9.2226ZM9.2226 1.91699H8.17844C7.9201 1.91699 7.67844 2.01783 7.49594 2.19949C7.31427 2.38199 7.2151 2.62449 7.21677 2.88283C7.19927 4.10116 6.20344 5.08199 4.9976 5.08199C4.61094 5.07783 4.23844 4.97366 3.9151 4.78033C3.46094 4.52199 2.8676 4.68116 2.60177 5.14366L2.0376 6.07116C1.77927 6.51949 1.9376 7.11199 2.3976 7.37949C3.0801 7.77449 3.50594 8.51116 3.50594 9.30116C3.50594 10.0912 3.0801 10.827 2.39594 11.2228C1.93844 11.4878 1.7801 12.077 2.0451 12.5353L2.57094 13.442C2.70094 13.6762 2.91344 13.8453 3.15927 13.9145C3.40427 13.9828 3.67427 13.9537 3.89927 13.8287C4.2301 13.6345 4.6151 13.5337 5.00177 13.5337C5.1926 13.5337 5.38344 13.5578 5.5701 13.6078C6.13344 13.7595 6.6226 14.1362 6.9126 14.642C7.10094 14.9595 7.2051 15.3303 7.20844 15.7087C7.20844 16.2503 7.64344 16.6845 8.17844 16.6845H9.2226C9.75511 16.6845 10.1901 16.2528 10.1926 15.7203C10.1893 15.132 10.4193 14.5728 10.8401 14.152C11.2551 13.737 11.8351 13.4878 12.4151 13.5045C12.7951 13.5137 13.1609 13.6162 13.4834 13.7995C13.9476 14.0653 14.5401 13.907 14.8084 13.4487L15.3618 12.5262C15.4851 12.3137 15.5209 12.047 15.4551 11.8012C15.3901 11.5553 15.2268 11.342 15.0068 11.2162C14.4918 10.9195 14.1243 10.4412 13.9718 9.86783C13.8209 9.30533 13.9034 8.69116 14.1976 8.18533C14.3893 7.85199 14.6701 7.57116 15.0068 7.37783C15.4584 7.11366 15.6168 6.52283 15.3543 6.06283C15.3434 6.04449 15.3334 6.02533 15.3251 6.00533L14.8368 5.15866C14.5709 4.69616 13.9793 4.53699 13.5151 4.80116C13.0134 5.09783 12.4168 5.18283 11.8434 5.03199C11.2709 4.88366 10.7909 4.52116 10.4918 4.00949C10.3001 3.68949 10.1959 3.31699 10.1926 2.93783C10.2001 2.65283 10.1001 2.39699 9.91844 2.20949C9.7376 2.02283 9.48344 1.91699 9.2226 1.91699ZM8.70419 6.47874C10.26 6.47874 11.5259 7.74541 11.5259 9.30124C11.5259 10.8571 10.26 12.1221 8.70419 12.1221C7.14835 12.1221 5.88252 10.8571 5.88252 9.30124C5.88252 7.74541 7.14835 6.47874 8.70419 6.47874ZM8.70419 7.72874C7.83752 7.72874 7.13252 8.43458 7.13252 9.30124C7.13252 10.1679 7.83752 10.8721 8.70419 10.8721C9.57085 10.8721 10.2759 10.1679 10.2759 9.30124C10.2759 8.43458 9.57085 7.72874 8.70419 7.72874Z" fill="#374151"/>
</svg>
