<svg width="13" height="12" viewBox="0 0 13 12" fill="none" xmlns="http://www.w3.org/2000/svg">
<path d="M8.66402 8.27078L12.2616 4.73238L12.3072 4.68038C12.3747 4.58973 12.4073 4.47778 12.3989 4.36507C12.3905 4.25235 12.3418 4.14644 12.2616 4.06678L8.66402 0.529975L8.61442 0.487575C8.32642 0.271575 7.90242 0.479575 7.90242 0.862775V2.56678L7.72242 2.57878C4.87202 2.80438 3.20242 4.60838 2.80402 7.88038C2.75282 8.30038 3.23442 8.56358 3.54642 8.28518C4.69122 7.26278 5.87442 6.62757 7.10242 6.37318C7.29922 6.33238 7.49682 6.30118 7.69602 6.27958L7.90242 6.26118V7.93798L7.90642 8.00358C7.95442 8.36598 8.39362 8.53638 8.66402 8.27078ZM7.78082 3.37638L8.70243 3.31478V1.68838L11.4592 4.39878L8.70243 7.11077V5.38518L7.61762 5.48278H7.61122C6.24882 5.62918 4.96322 6.17478 3.74962 7.08437C3.98802 6.01318 4.39522 5.20758 4.93042 4.63078C5.59442 3.91478 6.52242 3.47638 7.78082 3.37558V3.37638ZM2.40002 1.20038C1.86959 1.20038 1.36088 1.41109 0.985811 1.78616C0.610738 2.16123 0.400024 2.66994 0.400024 3.20038V9.60038C0.400024 10.1308 0.610738 10.6395 0.985811 11.0146C1.36088 11.3897 1.86959 11.6004 2.40002 11.6004H8.80002C9.33046 11.6004 9.83917 11.3897 10.2142 11.0146C10.5893 10.6395 10.8 10.1308 10.8 9.60038V8.80038C10.8 8.69429 10.7579 8.59255 10.6829 8.51753C10.6079 8.44252 10.5061 8.40038 10.4 8.40038C10.2939 8.40038 10.1922 8.44252 10.1172 8.51753C10.0422 8.59255 10 8.69429 10 8.80038V9.60038C10 9.91864 9.8736 10.2239 9.64855 10.4489C9.42351 10.6739 9.11828 10.8004 8.80002 10.8004H2.40002C2.08176 10.8004 1.77654 10.6739 1.5515 10.4489C1.32645 10.2239 1.20002 9.91864 1.20002 9.60038V3.20038C1.20002 2.88212 1.32645 2.57689 1.5515 2.35185C1.77654 2.1268 2.08176 2.00038 2.40002 2.00038H4.80002C4.90611 2.00038 5.00785 1.95823 5.08287 1.88322C5.15788 1.8082 5.20002 1.70646 5.20002 1.60038C5.20002 1.49429 5.15788 1.39255 5.08287 1.31753C5.00785 1.24252 4.90611 1.20038 4.80002 1.20038H2.40002Z" fill="#374151"/>
</svg>
