<svg width="25" height="24" viewBox="0 0 25 24" fill="none" xmlns="http://www.w3.org/2000/svg">
<g clip-path="url(#clip0_31_418)">
<path d="M20.4972 10.28L20.5432 12.974H20.5202L19.7402 10.281H18.4572V13.673H19.3052L19.2592 10.888H19.2822L20.1182 13.673H21.3452V10.281L20.4972 10.28ZM4.34718 10.28L3.70618 13.708H4.63418L5.10418 10.59H5.12718L5.58618 13.708H6.50218L5.87218 10.281L4.34718 10.28ZM9.52818 10.28L9.10418 12.894H9.08118L8.65718 10.281H7.26018L7.19118 13.708H8.05118L8.07418 10.625H8.08518L8.65818 13.708H9.52918L10.1022 10.625H10.1252L10.1482 13.708H11.0082L10.9282 10.281L9.52818 10.28ZM2.26218 12.734C2.28824 12.8155 2.29204 12.9025 2.27318 12.986C2.25018 13.1 2.17018 13.215 1.94118 13.215C1.72318 13.215 1.59718 13.089 1.59718 12.905V12.573H0.680176V12.837C0.680176 13.605 1.28718 13.834 1.93018 13.834C2.54818 13.834 3.06418 13.616 3.14418 13.054C3.19018 12.756 3.15618 12.562 3.14418 12.493C2.98418 11.771 1.67718 11.564 1.58518 11.163C1.57373 11.1026 1.57373 11.0405 1.58518 10.98C1.60818 10.865 1.68918 10.75 1.89518 10.75C2.10118 10.75 2.21518 10.877 2.21518 11.06V11.266H3.07518V11.026C3.07518 10.281 2.39918 10.166 1.91818 10.166C1.31018 10.166 0.806176 10.372 0.714176 10.923C0.68408 11.0747 0.68818 11.2311 0.726176 11.381C0.863176 12.091 2.09018 12.298 2.26218 12.733V12.734ZM13.4142 12.733C13.4482 12.813 13.4362 12.917 13.4252 12.986C13.4022 13.1 13.3222 13.215 13.0932 13.215C12.8752 13.215 12.7492 13.089 12.7492 12.905V12.573H11.8322V12.837C11.8322 13.593 12.4282 13.822 13.0702 13.822C13.6892 13.822 14.1932 13.616 14.2732 13.043C14.3192 12.745 14.2852 12.562 14.2732 12.481C14.1362 11.771 12.8402 11.553 12.7492 11.163C12.7376 11.1026 12.7376 11.0405 12.7492 10.98C12.7722 10.865 12.8522 10.75 13.0592 10.75C13.2532 10.75 13.3792 10.877 13.3792 11.06V11.266H14.2272V11.026C14.2272 10.281 13.5622 10.166 13.0812 10.166C12.4742 10.166 11.9812 10.361 11.8892 10.923C11.8662 11.072 11.8662 11.209 11.9012 11.381C12.0382 12.091 13.2412 12.286 13.4142 12.733ZM16.3022 13.192C16.5422 13.192 16.6122 13.032 16.6342 12.94C16.6462 12.905 16.6462 12.848 16.6462 12.814V10.28H17.5162V12.744C17.5162 12.813 17.5162 12.939 17.5062 12.974C17.4482 13.615 16.9442 13.821 16.3132 13.821C15.6832 13.821 15.1792 13.615 15.1212 12.973C15.1212 12.939 15.1102 12.813 15.1102 12.744V10.28H15.9802V12.813C15.9802 12.859 15.9802 12.904 15.9922 12.939C15.9922 13.03 16.0622 13.191 16.3022 13.191V13.192ZM23.4542 13.157C23.7062 13.157 23.7862 12.997 23.8092 12.904C23.8202 12.87 23.8202 12.813 23.8202 12.778V12.285H23.4652V11.781H24.6802V12.698C24.6802 12.767 24.6802 12.813 24.6692 12.928C24.6112 13.558 24.0722 13.775 23.4652 13.775C22.8582 13.775 22.3192 13.558 22.2622 12.927C22.2502 12.813 22.2502 12.767 22.2502 12.698V11.254C22.2502 11.197 22.2622 11.082 22.2622 11.024C22.3422 10.383 22.8582 10.177 23.4652 10.177C24.0722 10.177 24.6002 10.383 24.6682 11.025C24.6802 11.128 24.6802 11.254 24.6802 11.254V11.369H23.8202V11.174C23.8202 11.174 23.8202 11.094 23.8092 11.048C23.7972 10.968 23.7292 10.796 23.4652 10.796C23.2132 10.796 23.1452 10.956 23.1212 11.048C23.1102 11.093 23.1102 11.151 23.1102 11.208V12.778C23.1102 12.824 23.1102 12.87 23.1212 12.904C23.1212 12.996 23.2132 13.157 23.4542 13.157Z" fill="#C0D8F3"/>
</g>
<defs>
<clipPath id="clip0_31_418">
<rect width="24" height="24" fill="white" transform="translate(0.680176)"/>
</clipPath>
</defs>
</svg>
