<svg width="20" height="19" viewBox="0 0 20 19" fill="none" xmlns="http://www.w3.org/2000/svg">
<path d="M16.9613 6.42342L3.3667 12.7627" stroke="white" stroke-width="1.5" stroke-linecap="round" stroke-linejoin="round"/>
<mask id="path-2-outside-1_31_1049" maskUnits="userSpaceOnUse" x="6.29465" y="-1.62883" width="15.825" height="18.7271" fill="black">
<rect fill="white" x="6.29465" y="-1.62883" width="15.825" height="18.7271"/>
<path fill-rule="evenodd" clip-rule="evenodd" d="M8.9318 3.52033C8.9318 3.52033 15.7931 3.91896 16.9604 6.42218C18.1285 8.92721 14.0239 14.4404 14.0239 14.4404"/>
</mask>
<path d="M9.0188 2.02285C8.19177 1.9748 7.48237 2.60629 7.43432 3.43333C7.38627 4.26036 8.01776 4.96975 8.8448 5.0178L9.0188 2.02285ZM12.8208 13.5447C12.326 14.2092 12.4637 15.1489 13.1282 15.6436C13.7927 16.1383 14.7324 16.0007 15.2271 15.3362L12.8208 13.5447ZM8.9318 3.52033C8.8448 5.0178 8.84456 5.01779 8.84436 5.01778C8.84432 5.01777 8.84414 5.01776 8.84407 5.01776C8.84393 5.01775 8.8439 5.01775 8.84396 5.01775C8.8441 5.01776 8.84464 5.01779 8.84558 5.01785C8.84746 5.01797 8.85095 5.01818 8.856 5.0185C8.8661 5.01915 8.88242 5.02022 8.9046 5.02177C8.94896 5.02487 9.01664 5.02987 9.10461 5.03719C9.28071 5.05183 9.53714 5.07564 9.84983 5.1118C10.4785 5.18449 11.3188 5.30526 12.1838 5.497C13.0597 5.69116 13.9015 5.94531 14.5619 6.2638C15.2637 6.60225 15.5292 6.90225 15.6009 7.05611L18.3199 5.78825C17.808 4.69049 16.7781 4.00196 15.8651 3.56163C14.9107 3.10135 13.8183 2.78649 12.833 2.56809C11.8367 2.34727 10.8887 2.21193 10.1944 2.13165C9.84561 2.09132 9.55688 2.06444 9.35319 2.0475C9.25127 2.03903 9.17039 2.03302 9.11368 2.02906C9.08531 2.02708 9.06297 2.02561 9.04703 2.02459C9.03906 2.02408 9.03269 2.02369 9.02797 2.0234C9.02561 2.02326 9.02366 2.02314 9.02213 2.02305C9.02137 2.023 9.02071 2.02296 9.02015 2.02293C9.01987 2.02291 9.01953 2.0229 9.01939 2.02289C9.01908 2.02287 9.0188 2.02285 8.9318 3.52033ZM15.6009 7.05611C15.673 7.2107 15.7321 7.60758 15.5404 8.36292C15.3601 9.07384 15.0138 9.88229 14.5996 10.6783C14.1905 11.4644 13.7431 12.1858 13.3947 12.7142C13.2214 12.9771 13.0748 13.1888 12.9729 13.3332C12.9219 13.4053 12.8823 13.4603 12.8561 13.4963C12.8431 13.5143 12.8334 13.5275 12.8274 13.5356C12.8244 13.5397 12.8223 13.5425 12.8212 13.544C12.8207 13.5448 12.8203 13.5452 12.8203 13.5453C12.8202 13.5454 12.8202 13.5454 12.8203 13.5453C12.8204 13.5452 12.8205 13.5451 12.8205 13.545C12.8206 13.5449 12.8208 13.5447 14.0239 14.4404C15.2271 15.3362 15.2273 15.336 15.2275 15.3357C15.2275 15.3356 15.2277 15.3353 15.2279 15.3351C15.2282 15.3347 15.2286 15.3341 15.2291 15.3335C15.23 15.3323 15.2312 15.3307 15.2326 15.3288C15.2354 15.325 15.2392 15.3199 15.2439 15.3134C15.2534 15.3006 15.2666 15.2825 15.2833 15.2595C15.3167 15.2135 15.3641 15.1477 15.4231 15.0641C15.5411 14.8972 15.7061 14.6587 15.8994 14.3655C16.2841 13.7819 16.7897 12.9684 17.2608 12.0631C17.7268 11.1677 18.1876 10.1281 18.4483 9.10077C18.6977 8.11783 18.8318 6.88618 18.3199 5.78825L15.6009 7.05611Z" fill="white" mask="url(#path-2-outside-1_31_1049)"/>
</svg>
