<svg width="33" height="28" viewBox="0 0 33 28" fill="none" xmlns="http://www.w3.org/2000/svg">
<path d="M9.33716 16C10.1328 16 10.8959 15.6839 11.4585 15.1213C12.0211 14.5587 12.3372 13.7956 12.3372 13C12.3372 12.2044 12.0211 11.4413 11.4585 10.8787C10.8959 10.3161 10.1328 10 9.33716 10C8.54151 10 7.77845 10.3161 7.21584 10.8787C6.65323 11.4413 6.33716 12.2044 6.33716 13C6.33716 13.7956 6.65323 14.5587 7.21584 15.1213C7.77845 15.6839 8.54151 16 9.33716 16Z" fill="#2E7DD7"/>
<path d="M28.3372 24C28.3372 25.0609 27.9157 26.0783 27.1656 26.8284C26.4154 27.5786 25.398 28 24.3372 28H4.33716C3.27629 28 2.25888 27.5786 1.50873 26.8284C0.758586 26.0783 0.337158 25.0609 0.337158 24V8C0.337158 6.93983 0.758036 5.92302 1.50732 5.17299C2.2566 4.42296 3.27299 4.00106 4.33316 4C4.33316 2.93913 4.75459 1.92172 5.50473 1.17157C6.25488 0.421427 7.27229 0 8.33316 0H28.3332C29.394 0 30.4114 0.421427 31.1616 1.17157C31.9117 1.92172 32.3332 2.93913 32.3332 4V20C32.3332 21.0602 31.9123 22.077 31.163 22.827C30.4137 23.577 29.3973 23.9989 28.3372 24ZM28.3332 2H8.33316C7.80272 2 7.29402 2.21071 6.91894 2.58579C6.54387 2.96086 6.33316 3.46957 6.33316 4H24.3372C25.398 4 26.4154 4.42143 27.1656 5.17157C27.9157 5.92172 28.3372 6.93913 28.3372 8V22C28.8669 21.9989 29.3746 21.7878 29.7488 21.4128C30.123 21.0378 30.3332 20.5297 30.3332 20V4C30.3332 3.46957 30.1224 2.96086 29.7474 2.58579C29.3723 2.21071 28.8636 2 28.3332 2ZM4.33716 6C3.80673 6 3.29802 6.21071 2.92294 6.58579C2.54787 6.96086 2.33716 7.46957 2.33716 8V24L7.62916 19.292C7.79262 19.1291 8.00739 19.0278 8.23704 19.0052C8.46668 18.9826 8.69708 19.0401 8.88916 19.168L14.2092 22.714L21.6292 15.294C21.7775 15.1455 21.9687 15.0475 22.1758 15.0138C22.3829 14.98 22.5954 15.0123 22.7832 15.106L26.3372 19V8C26.3372 7.46957 26.1264 6.96086 25.7514 6.58579C25.3763 6.21071 24.8676 6 24.3372 6H4.33716Z" fill="#2E7DD7"/>
</svg>
