<svg width="20" height="20" viewBox="0 0 20 20" fill="none" xmlns="http://www.w3.org/2000/svg">
<path fill-rule="evenodd" clip-rule="evenodd" d="M10 1.2002C7.96385 1.2002 7.77134 4.74672 6.55911 5.99977C5.34689 7.25282 1.5782 5.82011 1.05459 8.04422C0.532075 10.2695 3.92235 11.0245 4.34036 12.9336C4.76057 14.8428 2.68922 17.5251 4.45916 18.86C6.22911 20.1938 8.13435 17.1749 10 17.1749C11.8656 17.1749 13.7709 20.1938 15.5408 18.86C17.3108 17.5251 15.2405 14.8428 15.6596 12.9336C16.0787 11.0245 19.4679 10.2695 18.9454 8.04422C18.4229 5.82011 14.6531 7.25282 13.442 5.99977C12.2297 4.74672 12.0361 1.2002 10 1.2002Z" fill="#374151" stroke="#374151" stroke-linecap="round" stroke-linejoin="round"/>
</svg>
