<svg width="14" height="19" viewBox="0 0 14 19" fill="none" xmlns="http://www.w3.org/2000/svg">
<path d="M12.9375 1.8877C13.2469 1.8877 13.5 1.63457 13.5 1.3252V0.762695C13.5 0.45332 13.2469 0.200195 12.9375 0.200195L0.5625 0.200195C0.253125 0.200195 0 0.45332 0 0.762695L0 1.3252C0 1.63457 0.253125 1.8877 0.5625 1.8877H1.125L1.125 7.39668C0.414844 7.75176 0 8.17715 0 8.6377C0 11.0002 1.21641 13.0744 3.05156 14.2803L2.29922 16.7482C2.07773 17.4689 2.61914 18.2002 3.375 18.2002H10.125C10.8809 18.2002 11.4223 17.4689 11.2008 16.7482L10.4484 14.2803C12.2836 13.0744 13.5 11.0002 13.5 8.6377C13.5 8.17715 13.0852 7.75176 12.375 7.39668V1.8877H12.9375ZM2.8125 2.73145C2.8125 2.57676 2.93906 2.4502 3.09375 2.4502H4.78125C4.93594 2.4502 5.0625 2.57676 5.0625 2.73145V3.29395C5.0625 3.44863 4.93594 3.5752 4.78125 3.5752H3.09375C2.93906 3.5752 2.8125 3.44863 2.8125 3.29395V2.73145ZM6.75 9.7627C4.03945 9.7627 1.84219 9.25996 1.84219 8.6377C1.84219 8.01543 4.03945 7.5127 6.75 7.5127C9.46055 7.5127 11.6578 8.01543 11.6578 8.6377C11.6578 9.25996 9.46055 9.7627 6.75 9.7627Z" fill="#2E7DD7"/>
</svg>
