<svg width="16" height="17" viewBox="0 0 16 17" fill="none" xmlns="http://www.w3.org/2000/svg">
<path d="M8.00009 5.89658C6.5665 5.89658 5.39658 7.0665 5.39658 8.50009C5.39658 9.93369 6.5665 11.1036 8.00009 11.1036C9.43369 11.1036 10.6036 9.93369 10.6036 8.50009C10.6036 7.0665 9.43369 5.89658 8.00009 5.89658ZM15.8087 8.50009C15.8087 7.42197 15.8185 6.35361 15.7579 5.27744C15.6974 4.02744 15.4122 2.91806 14.4981 2.004C13.5821 1.08798 12.4747 0.80478 11.2247 0.744233C10.1466 0.683686 9.07822 0.693452 8.00204 0.693452C6.92392 0.693452 5.85556 0.683686 4.77939 0.744233C3.52939 0.80478 2.42001 1.08994 1.50595 2.004C0.589936 2.92001 0.306733 4.02744 0.246186 5.27744C0.18564 6.35556 0.195405 7.42392 0.195405 8.50009C0.195405 9.57626 0.18564 10.6466 0.246186 11.7227C0.306733 12.9727 0.59189 14.0821 1.50595 14.9962C2.42197 15.9122 3.52939 16.1954 4.77939 16.2559C5.85751 16.3165 6.92587 16.3067 8.00204 16.3067C9.08017 16.3067 10.1485 16.3165 11.2247 16.2559C12.4747 16.1954 13.5841 15.9102 14.4981 14.9962C15.4142 14.0802 15.6974 12.9727 15.7579 11.7227C15.8204 10.6466 15.8087 9.57822 15.8087 8.50009ZM8.00009 12.5059C5.7833 12.5059 3.99423 10.7169 3.99423 8.50009C3.99423 6.2833 5.7833 4.49423 8.00009 4.49423C10.2169 4.49423 12.006 6.2833 12.006 8.50009C12.006 10.7169 10.2169 12.5059 8.00009 12.5059ZM12.17 5.26572C11.6524 5.26572 11.2345 4.84775 11.2345 4.33017C11.2345 3.81259 11.6524 3.39462 12.17 3.39462C12.6876 3.39462 13.1056 3.81259 13.1056 4.33017C13.1057 4.45307 13.0816 4.5748 13.0347 4.68837C12.9877 4.80195 12.9188 4.90514 12.8319 4.99205C12.745 5.07895 12.6418 5.14786 12.5282 5.19482C12.4146 5.24178 12.2929 5.26587 12.17 5.26572Z" fill="#374151"/>
</svg>
