<svg width="20" height="17" viewBox="0 0 20 17" fill="none" xmlns="http://www.w3.org/2000/svg">
<path d="M19.7024 2.61415C19.0066 2.92248 18.2591 3.13082 17.4733 3.22498C18.2841 2.73981 18.8907 1.9762 19.1799 1.07665C18.4181 1.52914 17.5844 1.84765 16.7149 2.01832C16.1302 1.39404 15.3558 0.980255 14.5119 0.841211C13.6679 0.702168 12.8017 0.845642 12.0476 1.24936C11.2936 1.65308 10.6939 2.29445 10.3417 3.0739C9.98954 3.85335 9.90454 4.72727 10.0999 5.55998C8.55633 5.48248 7.04628 5.08127 5.66778 4.3824C4.28928 3.68353 3.07313 2.70262 2.09826 1.50332C1.76493 2.07832 1.57326 2.74498 1.57326 3.45498C1.57289 4.09415 1.73029 4.72352 2.03149 5.28726C2.3327 5.851 2.7684 6.33168 3.29993 6.68665C2.68349 6.66703 2.08066 6.50047 1.5416 6.20082V6.25081C1.54153 7.14727 1.85162 8.01613 2.41925 8.70998C2.98687 9.40383 3.77707 9.87992 4.65576 10.0575C4.08391 10.2122 3.48438 10.235 2.90243 10.1241C3.15034 10.8955 3.63326 11.57 4.28357 12.0533C4.93388 12.5365 5.71903 12.8043 6.5291 12.8191C5.15396 13.8987 3.45567 14.4842 1.70743 14.4816C1.39775 14.4817 1.08833 14.4636 0.780762 14.4275C2.55533 15.5685 4.62105 16.174 6.73076 16.1716C13.8724 16.1716 17.7766 10.2566 17.7766 5.12665C17.7766 4.95998 17.7724 4.79165 17.7649 4.62498C18.5243 4.07579 19.1799 3.39573 19.7008 2.61665L19.7024 2.61415Z" fill="#374151"/>
</svg>
