<svg width="18" height="21" viewBox="0 0 18 21" fill="none" xmlns="http://www.w3.org/2000/svg">
<path d="M3.70974 0.5C2.02392 0.5 0.666504 2.1289 0.666504 4.15188V16.8481C0.666504 18.8711 2.02392 20.5 3.70974 20.5H9.44412V12.6813H7.7212V9.86626H9.44412V7.46126C9.44412 5.57176 10.4621 3.83688 12.8071 3.83688C13.7566 3.83688 14.4587 3.94626 14.4587 3.94626L14.4035 6.57502C14.4035 6.57502 13.6874 6.5669 12.9061 6.5669C12.0604 6.5669 11.9248 7.03446 11.9248 7.81066V9.86628H14.4707L14.3597 12.6813H11.9248V20.5H14.2899C15.9758 20.5 17.3332 18.8711 17.3332 16.8482V4.1519C17.3332 2.12892 15.9758 0.50002 14.2899 0.50002H3.70972L3.70974 0.5Z" fill="#374151"/>
</svg>
